<?xml version="1.0" encoding="UTF-8"?>
<!DOCTYPE svg PUBLIC "-//W3C//DTD SVG 1.1//EN" "http://www.w3.org/Graphics/SVG/1.1/DTD/svg11.dtd">
<!-- Creator: CorelDRAW -->
<svg xmlns="http://www.w3.org/2000/svg" xml:space="preserve" width="210mm" height="297mm" version="1.1" style="shape-rendering:geometricPrecision; text-rendering:geometricPrecision; image-rendering:optimizeQuality; fill-rule:evenodd; clip-rule:evenodd"
viewBox="0 0 21000 29700"
 xmlns:xlink="http://www.w3.org/1999/xlink"
 xmlns:xodm="http://www.corel.com/coreldraw/odm/2003">
 <defs>
  <style type="text/css">
   <![CDATA[
    .str0 {stroke:#1F1A17;stroke-width:7.62;stroke-miterlimit:22.9256}
    .str1 {stroke:#1F1A17;stroke-width:7.63;stroke-miterlimit:22.9256}
    .fil1 {fill:#B32520}
    .fil0 {fill:white}
   ]]>
  </style>
 </defs>
 <g id="Слой_x0020_1">
  <metadata id="CorelCorpID_0Corel-Layer"/>
 </g>
 <g id="Слой_x0020_1_0">
  <metadata id="CorelCorpID_1Corel-Layer"/>
  <g id="_2298685290720">
   <path class="fil0 str0" d="M6482.94 10593.03l5449.16 0c154.93,0 281.69,126.91 281.69,281.83l0 8418.01c0,155.08 -126.76,281.83 -281.69,281.83l-5449.16 0c-155.08,0 -281.83,-126.75 -281.83,-281.83l0 -8418.01c0,-154.92 126.75,-281.83 281.83,-281.83z"/>
   <path class="fil1" d="M7060.85 12261.26c-39.72,-44 -83.87,-70.42 -114.72,-70.42 -29.92,0 -103.18,-7.28 -165.22,119.47 -61.72,-124.38 -134.34,-117.26 -164.09,-117.26 -30.87,0 -75.02,26.43 -114.74,70.42 -39.56,44.15 -33.06,121.38 -19.45,161.57 13.61,40.04 297.01,453.69 297.01,453.69 0,0 287.07,-415.87 300.68,-455.91 13.44,-40.19 20.09,-117.41 -19.47,-161.56z"/>
   <path class="fil1" d="M11438.55 17943.05c39.55,44.15 83.7,70.57 114.56,70.57 30.07,0 103.33,7.13 165.37,-119.47 61.71,124.38 134.34,117.26 163.95,117.26 30.85,0 75,-26.43 114.72,-70.58 39.71,-44.15 33.08,-121.21 19.47,-161.41 -13.61,-40.19 -297.04,-453.69 -297.04,-453.69 0,0 -286.9,415.71 -300.65,455.91 -13.46,40.03 -20.11,117.26 19.62,161.41z"/>
   <path class="fil1" d="M8529.83 11757.87c-75.31,-83.87 -159.18,-134.04 -217.9,-134.04 -56.97,0 -196.21,-13.76 -313.95,226.93 -117.26,-236.26 -255.26,-222.81 -311.74,-222.81 -58.72,0 -142.59,50.32 -217.9,134.03 -75.49,83.87 -62.83,230.57 -37.03,306.84 25.79,76.27 564.45,862.12 564.45,862.12 0,0 545.31,-790.12 571.11,-866.39 25.79,-76.28 38.3,-222.97 -37.04,-306.68z"/>
   <path class="fil1" d="M11019.51 11757.87c-75.48,-83.87 -159.19,-134.04 -217.74,-134.04 -56.97,0 -196.39,-13.76 -314.13,226.93 -117.25,-236.26 -255.24,-222.81 -311.9,-222.81 -58.54,0 -142.25,50.32 -217.73,134.03 -75.5,83.87 -62.83,230.57 -37.19,306.84 25.95,76.27 564.62,862.12 564.62,862.12 0,0 545.31,-790.12 571.09,-866.39 25.81,-76.28 38.46,-222.97 -37.02,-306.68z"/>
   <path class="fil1" d="M9922.55 18457.18c75.49,83.71 159.2,134.03 217.91,134.03 56.97,0 196.22,13.77 313.96,-227.08 117.09,236.26 255.09,222.97 311.74,222.97 58.71,0 142.43,-50.33 217.91,-134.2 75.47,-83.71 62.82,-230.4 37.02,-306.68 -25.79,-76.27 -564.45,-862.12 -564.45,-862.12 0,0 -545.32,790.12 -571.12,866.24 -25.78,76.27 -38.45,222.97 37.03,306.84z"/>
   <path class="fil1" d="M7432.89 18457.18c75.31,83.71 159.19,134.03 217.9,134.03 56.97,0 196.22,13.77 313.95,-227.08 117.26,236.26 255.26,222.97 311.75,222.97 58.71,0 142.58,-50.33 217.9,-134.2 75.48,-83.71 62.83,-230.4 37.04,-306.68 -25.8,-76.27 -564.32,-862.12 -564.32,-862.12 0,0 -545.46,790.12 -571.26,866.24 -25.95,76.27 -38.44,222.97 37.04,306.84z"/>
   <path class="fil1" d="M9958.01 14575.59c75.48,-83.87 159.19,-134.03 217.9,-134.03 56.97,0 196.21,-13.77 313.95,226.92 117.26,-236.26 255.09,-222.81 311.91,-222.81 58.55,0 142.26,50.32 217.74,134.04 75.48,83.87 62.83,230.56 37.19,306.83 -25.95,76.28 -564.62,862.12 -564.62,862.12 0,0 -545.31,-789.96 -571.26,-866.39 -25.64,-76.27 -38.31,-222.81 37.19,-306.68z"/>
   <path class="fil1" d="M7432.89 14575.59c75.31,-83.87 159.19,-134.03 217.9,-134.03 56.97,0 196.22,-13.77 313.95,226.92 117.26,-236.26 255.26,-222.81 311.75,-222.81 58.71,0 142.58,50.32 217.9,134.04 75.48,83.87 62.83,230.56 37.04,306.83 -25.8,76.28 -564.32,862.12 -564.32,862.12 0,0 -545.46,-789.96 -571.26,-866.39 -25.95,-76.27 -38.44,-222.81 37.04,-306.68z"/>
   <path class="fil1" d="M6723.32 12065.98c-106.5,0 -193.55,-87.03 -193.55,-193.53l0 -118.84c0,-3.96 0.17,-8.08 0.33,-12.03l-0.33 0 0 -339.12 0 -28.01 0 -26.9c0,-106.34 87.05,-193.54 193.55,-193.54 106.34,0 193.36,87.04 193.36,193.54l0 54.91 -73.11 0 0 -34.97c0,-66.31 -54.12,-120.43 -120.25,-120.43 -66.32,0 -120.27,54.28 -120.27,120.43l0 6.96 2.06 0 0 226.29c32.76,-25.48 73.73,-40.67 118.21,-40.67 106.34,0 193.36,87.04 193.36,193.54l0 118.84c0,106.5 -87.02,193.53 -193.36,193.53zm0 -99.85l0 0c66.13,0 120.25,-54.12 120.25,-120.27l0 -72.32c0,-66.14 -54.12,-120.26 -120.25,-120.26 -66.32,0 -120.27,54.12 -120.27,120.26l0 72.32c0,65.99 53.95,120.27 120.27,120.27z"/>
   <path class="fil1" d="M11716.43 18076.29c106.33,0 193.36,87.19 193.36,193.53l0 118.85c0,4.11 0,8.07 -0.31,12.02l0.31 0 0 339.12 0 28.01 0 26.9c0,106.5 -87.03,193.54 -193.36,193.54 -106.5,0 -193.54,-87.04 -193.54,-193.54l0 -54.91 73.26 0 0 35.13c0,66.15 54.12,120.27 120.28,120.27 66.14,0 120.25,-54.12 120.25,-120.27l0 -7.12 -2.2 0 0 -226.13c-32.77,25.32 -73.74,40.51 -118.05,40.51 -106.5,0 -193.54,-87.04 -193.54,-193.53l0 -118.85c0,-106.5 87.04,-193.53 193.54,-193.53zm0 100.01l0 0c-66.16,0 -120.28,54.12 -120.28,120.27l0 72.32c0,66.14 54.12,120.26 120.28,120.26 66.14,0 120.25,-54.28 120.25,-120.26l0 -72.32c0,-66.15 -54.11,-120.27 -120.25,-120.27z"/>
  </g>
 </g>
 <g id="Слой_x0020_1_1">
  <metadata id="CorelCorpID_2Corel-Layer"/>
  <g id="_2298685313088">
   <path class="fil0 str1" d="M6483.01 16276.89l5449.02 0c155.08,0 281.83,126.93 281.83,281.85l0 8417.99c0,154.92 -126.75,281.83 -281.83,281.83l-5449.02 0c-155.08,0 -281.98,-126.91 -281.98,-281.83l0 -8417.99c0,-154.92 126.93,-281.85 281.98,-281.85z"/>
   <path class="fil1" d="M7985.05 17274c0,0 -139.24,530.9 -505.26,726.81 0,0 438.18,278.36 510.49,695.96 0,0 139.08,-515.42 515.39,-701.03 0,0 -376.29,-201.12 -520.63,-721.75l0.01 0.01z"/>
   <path class="fil1" d="M10481.54 17245.67c0,0 -139.1,530.9 -505.12,726.65 0,0 438.18,278.52 510.34,696.11 0,0 139.28,-515.55 515.55,-701.17 0,0 -376.29,-200.97 -520.76,-721.6l-0.01 0.01z"/>
   <path class="fil1" d="M10481.54 22891.21c0,0 -139.1,531.08 -505.12,726.81 0,0 438.18,278.36 510.34,695.98 0,0 139.28,-515.42 515.55,-701.03 0,0 -376.29,-201.12 -520.76,-721.75l-0.01 -0.01z"/>
   <path class="fil1" d="M7956.75 22891.21c0,0 -139.26,531.08 -505.28,726.81 0,0 438.18,278.36 510.36,695.98 0,0 139.26,-515.42 515.39,-701.03 0,0 -376.14,-201.12 -520.47,-721.75l0 -0.01z"/>
   <path class="fil1" d="M6809.01 17784.65c0,0 -81.02,308.59 -293.87,422.52 0,0 254.93,161.72 296.71,404.46 0,0 81.02,-299.55 299.71,-407.48 0,0 -218.71,-116.95 -302.57,-419.52l0.02 0.02z"/>
   <path class="fil1" d="M11716.79 22834.4c0,0 -80.86,308.74 -293.53,422.52 0,0 254.62,161.88 296.71,404.62 0,0 80.86,-299.71 299.55,-407.64 0,0 -218.69,-116.77 -302.73,-419.52l0 0.02z"/>
   <path class="fil1" d="M6798.71 17747.47c-106.5,0 -193.54,-87.19 -193.54,-193.54l0 -118.83c0,-4.12 0.16,-8.23 0.47,-12.17l-0.47 0 0 -338.97 0 -28.17 0 -26.92c0,-106.35 87.04,-193.54 193.54,-193.54 106.35,0 193.54,87.19 193.54,193.54l0 55.06 -73.28 0 0 -35.13c0,-66.14 -54.12,-120.42 -120.26,-120.42 -66.14,0 -120.26,54.28 -120.26,120.42l0 6.98 2.06 0 0 226.29c32.76,-25.33 73.72,-40.52 118.2,-40.52 106.35,0 193.54,87.04 193.54,193.54l0 118.83c0,106.5 -87.19,193.54 -193.54,193.54l0 0.01zm0 -100.02l0 0c66.14,0 120.26,-54.12 120.26,-120.26l0 -72.31c0,-66.14 -54.12,-120.26 -120.26,-120.26 -66.14,0 -120.26,54.12 -120.26,120.26l0 72.31c0,66.14 54.12,120.26 120.26,120.26z"/>
   <path class="fil1" d="M11739.43 23761.88c106.5,0 193.54,87.19 193.54,193.54l0 118.85c0,4.12 -0.16,8.08 -0.47,12.17l0.47 0 0 339.13 0 28.01 0 26.89c0,106.35 -87.04,193.38 -193.54,193.38 -106.5,0 -193.54,-87.04 -193.54,-193.38l0 -54.91 73.25 0 0 34.97c0,66.14 54.12,120.26 120.26,120.26 66.14,0 120.26,-54.12 120.26,-120.26l0 -6.96 -2.06 0 0 -226.29c-32.76,25.33 -73.72,40.52 -118.2,40.52 -106.5,0 -193.54,-87.04 -193.54,-193.54l0 -118.85c0,-106.35 87.04,-193.54 193.54,-193.54l0.03 0.01zm0 100.02l0 0c-66.14,0 -120.26,54.12 -120.26,120.26l0 72.31c0,66.14 54.12,120.26 120.26,120.26 66.14,0 120.26,-54.12 120.26,-120.26l0 -72.31c0,-65.98 -54.12,-120.26 -120.26,-120.26z"/>
   <path class="fil1" d="M7985.05 20084.9c0,0 -139.24,531.08 -505.26,726.81 0,0 438.18,278.36 510.49,695.96 0,0 139.08,-515.42 515.39,-701.03 0,0 -376.29,-200.97 -520.63,-721.75l0.01 0.01z"/>
   <path class="fil1" d="M10481.54 20084.9c0,0 -139.1,531.08 -505.12,726.81 0,0 438.18,278.36 510.34,695.96 0,0 139.28,-515.42 515.55,-701.03 0,0 -376.29,-200.97 -520.76,-721.75l-0.01 0.01z"/>
  </g>
 </g>
</svg>
