<?xml version="1.0" encoding="UTF-8"?>
<!DOCTYPE svg PUBLIC "-//W3C//DTD SVG 1.1//EN" "http://www.w3.org/Graphics/SVG/1.1/DTD/svg11.dtd">
<!-- Creator: CorelDRAW -->
<svg xmlns="http://www.w3.org/2000/svg" xml:space="preserve" width="60.2046mm" height="89.893mm" version="1.1" style="shape-rendering:geometricPrecision; text-rendering:geometricPrecision; image-rendering:optimizeQuality; fill-rule:evenodd; clip-rule:evenodd"
viewBox="0 0 2690.78 4017.67"
 xmlns:xlink="http://www.w3.org/1999/xlink"
 xmlns:xodm="http://www.corel.com/coreldraw/odm/2003">
 <defs>
  <style type="text/css">
   <![CDATA[
    .str0 {stroke:#1F1A17;stroke-width:3.41;stroke-miterlimit:22.9256}
    .fil2 {fill:#171717}
    .fil1 {fill:#1F1A17}
    .fil0 {fill:white}
   ]]>
  </style>
 </defs>
 <g id="Слой_x0020_1">
  <metadata id="CorelCorpID_0Corel-Layer"/>
  <path class="fil0 str0" d="M127.74 1.7l2435.38 0c69.31,0 125.96,56.72 125.96,125.97l0 3762.33c0,69.31 -56.65,125.96 -125.96,125.96l-2435.38 0c-69.31,0 -126.03,-56.65 -126.03,-125.96l0 -3762.33c0,-69.24 56.73,-125.97 126.03,-125.97z"/>
  <path class="fil1" d="M305.19 223c47.6,0 86.5,38.9 86.5,86.5l0 236.09c0,47.53 -38.9,86.42 -86.5,86.42 -47.53,0 -86.43,-38.9 -86.43,-86.42l0 -236.09c0,-47.59 38.9,-86.5 86.43,-86.5zm0 44.7l0 0c-29.56,0 -53.75,24.12 -53.75,53.75l0 215.22c0,29.56 24.19,53.75 53.75,53.75 29.63,0 53.75,-24.19 53.75,-53.75l0 -215.22c0,-29.56 -24.12,-53.75 -53.75,-53.75z"/>
  <polygon class="fil1" points="131.41,222.86 165.09,222.86 165.09,631.8 131.41,631.8 "/>
  <path class="fil1" d="M2404.97 3746.14c-47.6,0 -86.5,-38.97 -86.5,-86.5l0 -236.08c0,-47.6 38.9,-86.5 86.5,-86.5 47.53,0 86.5,38.9 86.5,86.5l0 236.08c0,47.53 -38.96,86.5 -86.5,86.5zm0 -44.7l0 0c29.56,0 53.76,-24.19 53.76,-53.75l0 -215.22c0,-29.56 -24.19,-53.82 -53.76,-53.82 -29.56,0 -53.75,24.26 -53.75,53.82l0 215.22c0,29.56 24.18,53.75 53.75,53.75z"/>
  <polygon class="fil1" points="2578.81,3746.28 2545.08,3746.28 2545.08,3337.35 2578.81,3337.35 "/>
  <path class="fil2" d="M190.97 751.12c4.6,-31.9 19.38,-45.76 41.94,-53.54 41.09,-14.07 92.52,8.91 102.2,45.4 8.63,32.46 -9.41,54.32 -30.27,83.31 23.27,-6.93 32.18,-20.23 60.54,-15.13 25.18,4.53 42.51,32.32 45.4,45.4 11.11,49.93 -23.2,95.41 -64.29,94.63 -18.53,-0.35 -25.46,-8.13 -34.09,-15.13 -17.04,-13.94 -20.72,-25.67 -34.02,-41.66 -5.94,8.35 -1.7,18.6 0,26.52 2.12,10.47 8.28,17.9 11.31,26.45 3.4,9.62 4.1,21.22 7.57,30.34 2.97,7.78 14.99,14.36 7.57,22.63 -26.52,-2.4 -63.01,5.1 -83.24,-3.75 7.85,-29.99 31.19,-64.65 18.88,-102.2 -6.92,60.69 -81.11,68.68 -111.18,31.75 -21.92,-26.73 -30.98,-106.37 43.07,-115 14.15,-1.63 28.01,6.72 41.66,11.39 -7.15,-23.2 -23.13,-33.52 -23.06,-63.94 0,-2.48 0,-5.02 0,-7.5z"/>
  <path class="fil2" d="M2530.58 3257.22c-4.59,31.89 -19.38,45.76 -41.94,53.47 -41.1,14.15 -92.44,-8.77 -102.2,-45.4 -8.56,-32.39 9.41,-54.32 30.34,-83.25 -23.27,7 -32.18,20.23 -60.61,15.14 -25.11,-4.53 -42.44,-32.32 -45.4,-45.41 -11.11,-49.93 23.27,-95.41 64.35,-94.63 18.53,0.35 25.46,8.13 34.09,15.13 17.05,13.94 20.65,25.75 34.03,41.66 5.94,-8.34 1.7,-18.53 0,-26.52 -2.19,-10.4 -8.28,-17.9 -11.32,-26.52 -3.39,-9.48 -4.1,-21.15 -7.63,-30.2 -2.97,-7.85 -14.93,-14.43 -7.5,-22.7 26.53,2.48 63.02,-5.02 83.24,3.75 -7.84,30.06 -31.25,64.57 -18.95,102.2 7,-60.68 81.12,-68.67 111.25,-31.75 21.93,26.74 30.9,106.44 -43.08,115 -14.22,1.63 -28.08,-6.72 -41.65,-11.32 7.14,23.12 23.13,33.45 22.98,63.79 0,2.55 0,5.1 0,7.57z"/>
  <path class="fil2" d="M624.73 562.99c9.19,-63.66 38.69,-91.38 83.74,-106.87 82.18,-28.15 184.73,17.68 204.19,90.74 17.18,64.78 -18.82,108.49 -60.47,166.35 46.39,-13.94 64.22,-40.39 120.94,-30.27 50.22,9.05 84.87,64.57 90.74,90.74 22.14,99.79 -46.46,190.53 -128.58,189.05 -36.92,-0.71 -50.84,-16.27 -68.03,-30.27 -34.09,-27.8 -41.3,-51.35 -67.97,-83.18 -11.88,16.62 -3.39,37.06 0,52.9 4.32,20.86 16.55,35.79 22.64,52.9 6.71,19.16 8.2,42.43 15.13,60.54 5.94,15.63 29.92,28.72 15.14,45.34 -53.05,-4.95 -125.97,10.04 -166.36,-7.57 15.7,-59.91 62.32,-129.08 37.78,-204.12 -13.94,121.22 -162.03,137.21 -222.23,63.44 -43.71,-53.47 -61.67,-212.6 86.14,-229.79 28.3,-3.33 56.01,13.51 83.18,22.7 -14.22,-46.26 -46.18,-66.91 -45.97,-127.59 0,-5.02 0,-10.04 0,-15.06z"/>
  <path class="fil2" d="M1179.44 959.19c9.19,-63.65 38.62,-91.38 83.73,-106.86 82.19,-28.15 184.74,17.68 204.18,90.74 17.19,64.79 -18.88,108.49 -60.53,166.35 46.46,-13.94 64.29,-40.39 121.01,-30.27 50.21,8.98 84.87,64.5 90.74,90.74 22.14,99.72 -46.47,190.53 -128.58,189.05 -36.92,-0.71 -50.86,-16.27 -68.04,-30.27 -34.09,-27.87 -41.31,-51.35 -68.04,-83.18 -11.81,16.62 -3.33,37.06 0,52.98 4.32,20.79 16.62,35.71 22.7,52.9 6.73,19.1 8.21,42.37 15.14,60.47 5.94,15.56 29.85,28.72 15.07,45.34 -52.98,-4.95 -125.89,10.04 -166.28,-7.5 15.63,-59.97 62.31,-129.14 37.77,-204.18 -13.93,121.22 -162.04,137.21 -222.22,63.44 -43.72,-53.47 -61.75,-212.6 86.14,-229.79 28.29,-3.25 56.01,13.51 83.1,22.7 -14.14,-46.26 -46.12,-66.84 -45.9,-127.59 0,-5.02 0,-10.04 0,-15.07z"/>
  <path class="fil2" d="M1734.13 562.99c9.13,-63.66 38.62,-91.38 83.74,-106.87 82.18,-28.15 184.73,17.68 204.19,90.74 17.18,64.78 -18.89,108.49 -60.54,166.35 46.46,-13.94 64.29,-40.39 120.94,-30.27 50.29,9.05 84.95,64.57 90.81,90.74 22.14,99.79 -46.46,190.53 -128.58,189.05 -36.92,-0.71 -50.85,-16.27 -68.03,-30.27 -34.09,-27.8 -41.38,-51.35 -68.04,-83.18 -11.81,16.62 -3.32,37.06 0,52.9 4.31,20.86 16.62,35.79 22.63,52.9 6.78,19.16 8.27,42.43 15.21,60.54 5.94,15.63 29.85,28.72 15.06,45.34 -52.98,-4.95 -125.89,10.04 -166.35,-7.57 15.77,-59.91 62.38,-129.08 37.84,-204.12 -13.93,121.22 -162.03,137.21 -222.22,63.44 -43.71,-53.47 -61.74,-212.6 86.07,-229.79 28.36,-3.33 56.09,13.51 83.24,22.7 -14.21,-46.26 -46.18,-66.91 -45.97,-127.59 0,-5.02 0,-10.04 0,-15.06z"/>
  <path class="fil2" d="M1734.13 1379.16c9.13,-63.65 38.62,-91.38 83.74,-106.8 82.18,-28.22 184.73,17.61 204.19,90.67 17.18,64.79 -18.89,108.49 -60.54,166.42 46.46,-14.01 64.29,-40.46 120.94,-30.34 50.29,9.05 84.95,64.57 90.81,90.74 22.14,99.79 -46.46,190.53 -128.58,189.05 -36.92,-0.71 -50.85,-16.27 -68.03,-30.27 -34.09,-27.87 -41.38,-51.35 -68.04,-83.1 -11.81,16.55 -3.32,36.99 0,52.9 4.31,20.79 16.62,35.71 22.63,52.9 6.78,19.1 8.27,42.37 15.21,60.47 5.94,15.63 29.85,28.72 15.06,45.34 -52.98,-4.88 -125.89,10.04 -166.35,-7.5 15.77,-59.97 62.38,-129.07 37.84,-204.11 -13.93,121.15 -162.03,137.14 -222.22,63.37 -43.71,-53.47 -61.74,-212.6 86.07,-229.79 28.36,-3.25 56.09,13.51 83.24,22.7 -14.21,-46.25 -46.18,-66.84 -45.97,-127.59 0,-5.02 0,-10.04 0,-15.07z"/>
  <path class="fil2" d="M624.73 1387.08c9.19,-63.65 38.69,-91.38 83.74,-106.8 82.18,-28.22 184.73,17.61 204.19,90.67 17.18,64.78 -18.82,108.56 -60.47,166.42 46.39,-14 64.22,-40.46 120.94,-30.27 50.22,8.98 84.87,64.5 90.74,90.67 22.14,99.79 -46.46,190.53 -128.58,189.05 -36.92,-0.71 -50.84,-16.27 -68.03,-30.27 -34.09,-27.8 -41.3,-51.35 -67.97,-83.18 -11.88,16.62 -3.39,37.06 0,52.98 4.32,20.79 16.55,35.79 22.64,52.9 6.71,19.09 8.2,42.37 15.13,60.47 5.94,15.63 29.92,28.71 15.14,45.33 -53.05,-4.95 -125.97,10.04 -166.36,-7.5 15.7,-59.97 62.32,-129.15 37.78,-204.19 -13.94,121.23 -162.03,137.21 -222.23,63.44 -43.71,-53.47 -61.67,-212.6 86.14,-229.72 28.3,-3.33 56.01,13.44 83.18,22.7 -14.22,-46.33 -46.18,-66.91 -45.97,-127.59 0,-5.09 0,-10.11 0,-15.13z"/>
  <path class="fil2" d="M2022.98 3443.15c-9.19,63.65 -38.69,91.38 -83.81,106.87 -82.11,28.15 -184.66,-17.61 -204.12,-90.74 -17.18,-64.78 18.81,-108.49 60.54,-166.35 -46.47,13.93 -64.36,40.39 -121.01,30.27 -50.28,-8.98 -84.94,-64.5 -90.74,-90.74 -22.14,-99.73 46.39,-190.53 128.5,-188.98 37,0.63 50.92,16.27 68.05,30.2 34.16,27.87 41.37,51.35 68.11,83.18 11.8,-16.62 3.32,-37.06 0,-52.9 -4.32,-20.86 -16.62,-35.79 -22.7,-52.9 -6.79,-19.16 -8.21,-42.44 -15.14,-60.54 -5.94,-15.56 -29.84,-28.71 -15.06,-45.33 52.98,4.95 125.82,-9.97 166.28,7.5 -15.7,60.05 -62.38,129.15 -37.77,204.19 13.93,-121.23 161.96,-137.21 222.22,-63.44 43.64,53.47 61.68,212.6 -86.15,229.79 -28.29,3.25 -56.01,-13.51 -83.17,-22.7 14.21,46.25 46.18,66.91 45.97,127.59 0,5.02 0,10.11 0,15.06z"/>
  <path class="fil2" d="M1468.27 3046.95c-9.19,63.65 -38.69,91.38 -83.81,106.87 -82.11,28.15 -184.67,-17.68 -204.12,-90.74 -17.19,-64.78 18.81,-108.49 60.54,-166.35 -46.46,13.93 -64.29,40.39 -121.01,30.27 -50.29,-9.05 -84.87,-64.5 -90.74,-90.74 -22.14,-99.79 46.39,-190.53 128.5,-188.98 36.99,0.63 50.92,16.2 68.11,30.2 34.08,27.8 41.3,51.35 68.03,83.18 11.81,-16.62 3.25,-36.99 0,-52.9 -4.38,-20.86 -16.62,-35.86 -22.7,-52.98 -6.78,-19.02 -8.2,-42.37 -15.13,-60.47 -5.94,-15.56 -29.92,-28.71 -15.06,-45.33 52.98,4.95 125.82,-9.97 166.28,7.57 -15.7,59.9 -62.38,129.08 -37.78,204.12 13.94,-121.16 162.04,-137.21 222.23,-63.44 43.63,53.47 61.67,212.6 -86.14,229.79 -28.3,3.25 -56.02,-13.44 -83.18,-22.7 14.22,46.26 46.12,66.91 45.97,127.59 0,5.02 0,10.04 0,15.06z"/>
  <path class="fil2" d="M913.57 3443.15c-9.19,63.65 -38.69,91.45 -83.74,106.87 -82.19,28.15 -184.74,-17.61 -204.18,-90.74 -17.19,-64.78 18.81,-108.49 60.54,-166.35 -46.47,13.93 -64.29,40.39 -121.01,30.27 -50.28,-8.98 -84.87,-64.5 -90.74,-90.74 -22.14,-99.73 46.4,-190.53 128.51,-188.98 36.98,0.63 50.92,16.27 68.1,30.2 34.1,27.87 41.31,51.35 68.04,83.18 11.81,-16.62 3.25,-36.99 0,-52.9 -4.39,-20.86 -16.62,-35.79 -22.7,-52.9 -6.8,-19.16 -8.21,-42.44 -15.14,-60.54 -5.94,-15.56 -29.92,-28.71 -15.07,-45.33 52.97,4.95 125.89,-9.97 166.27,7.5 -15.7,60.05 -62.3,129.15 -37.84,204.19 14,-121.23 162.11,-137.21 222.29,-63.44 43.71,53.47 61.67,212.6 -86.14,229.79 -28.29,3.25 -56.01,-13.44 -83.18,-22.7 14.22,46.33 46.19,66.91 45.98,127.59 0,5.02 0,10.11 0,15.06z"/>
  <path class="fil2" d="M913.57 2626.98c-9.19,63.65 -38.69,91.38 -83.74,106.87 -82.19,28.15 -184.74,-17.68 -204.18,-90.74 -17.19,-64.78 18.81,-108.49 60.54,-166.35 -46.47,13.94 -64.29,40.39 -121.01,30.27 -50.28,-9.05 -84.87,-64.57 -90.74,-90.74 -22.14,-99.79 46.4,-190.61 128.51,-189.05 36.98,0.71 50.92,16.27 68.1,30.27 34.1,27.8 41.31,51.28 68.04,83.18 11.81,-16.62 3.25,-37.06 0,-52.98 -4.39,-20.79 -16.62,-35.79 -22.7,-52.9 -6.8,-19.09 -8.21,-42.36 -15.14,-60.47 -5.94,-15.56 -29.92,-28.71 -15.07,-45.33 52.97,4.95 125.89,-9.97 166.27,7.5 -15.7,59.98 -62.3,129.15 -37.84,204.19 14,-121.23 162.11,-137.21 222.29,-63.44 43.71,53.47 61.67,212.6 -86.14,229.79 -28.29,3.25 -56.01,-13.51 -83.18,-22.7 14.22,46.26 46.19,66.91 45.98,127.59 0,5.02 0,10.04 0,15.06z"/>
  <path class="fil2" d="M2022.98 2619.06c-9.19,63.65 -38.69,91.38 -83.81,106.87 -82.11,28.15 -184.66,-17.68 -204.12,-90.74 -17.18,-64.78 18.81,-108.49 60.54,-166.35 -46.47,13.93 -64.36,40.39 -121.01,30.27 -50.28,-9.05 -84.94,-64.5 -90.74,-90.74 -22.14,-99.73 46.39,-190.61 128.5,-188.98 37,0.63 50.92,16.19 68.05,30.2 34.16,27.8 41.37,51.34 68.11,83.17 11.8,-16.62 3.32,-37.06 0,-52.97 -4.32,-20.8 -16.62,-35.72 -22.7,-52.9 -6.79,-19.1 -8.21,-42.37 -15.14,-60.47 -5.94,-15.63 -29.84,-28.72 -15.06,-45.33 52.98,4.95 125.82,-10.04 166.28,7.5 -15.7,59.97 -62.38,129.08 -37.77,204.18 13.93,-121.22 161.96,-137.21 222.22,-63.44 43.64,53.47 61.68,212.6 -86.15,229.79 -28.29,3.25 -56.01,-13.51 -83.17,-22.7 14.21,46.25 46.18,66.84 45.97,127.59 0,5.02 0,10.04 0,15.07z"/>
 </g>
</svg>
