<?xml version="1.0" encoding="UTF-8"?>
<!DOCTYPE svg PUBLIC "-//W3C//DTD SVG 1.1//EN" "http://www.w3.org/Graphics/SVG/1.1/DTD/svg11.dtd">
<!-- Creator: CorelDRAW -->
<svg xmlns="http://www.w3.org/2000/svg" xml:space="preserve" width="60.2046mm" height="89.8914mm" version="1.1" style="shape-rendering:geometricPrecision; text-rendering:geometricPrecision; image-rendering:optimizeQuality; fill-rule:evenodd; clip-rule:evenodd"
viewBox="0 0 2913.89 4350.73"
 xmlns:xlink="http://www.w3.org/1999/xlink"
 xmlns:xodm="http://www.corel.com/coreldraw/odm/2003">
 <defs>
  <style type="text/css">
   <![CDATA[
    .str0 {stroke:#1F1A17;stroke-width:3.69;stroke-miterlimit:22.9256}
    .fil2 {fill:#171717}
    .fil1 {fill:#1F1A17}
    .fil0 {fill:white}
   ]]>
  </style>
 </defs>
 <g id="Слой_x0020_1">
  <metadata id="CorelCorpID_0Corel-Layer"/>
  <path class="fil0 str0" d="M138.25 1.84l2637.4 0c75.05,0 136.4,61.35 136.4,136.41l0 4074.22c0,75.06 -61.35,136.41 -136.4,136.41l-2637.4 0c-74.98,0 -136.41,-61.35 -136.41,-136.41l0 -4074.22c0,-75.06 61.43,-136.41 136.41,-136.41z"/>
  <path class="fil1" d="M330.49 241.42c51.55,0 93.67,42.13 93.67,93.67l0 255.66c0,51.55 -42.12,93.67 -93.67,93.67 -51.46,0 -93.59,-42.12 -93.59,-93.67l0 -255.66c0,-51.55 42.13,-93.67 93.59,-93.67zm0 48.4l0 0c-31.94,0 -58.21,26.19 -58.21,58.21l0 233.06c0,32.09 26.27,58.21 58.21,58.21 32.02,0 58.28,-26.19 58.28,-58.21l0 -233.06c0,-32.02 -26.27,-58.21 -58.28,-58.21z"/>
  <polygon class="fil1" points="142.31,241.27 178.77,241.27 178.77,684.11 142.31,684.11 "/>
  <path class="fil1" d="M2604.38 4056.69c-51.46,0 -93.66,-42.13 -93.66,-93.67l0 -255.66c0,-51.47 42.2,-93.67 93.66,-93.67 51.55,0 93.67,42.2 93.67,93.67l0 255.66c0,51.55 -42.12,93.67 -93.67,93.67zm0 -48.41l0 0c32.02,0 58.22,-26.19 58.22,-58.21l0 -233.06c0,-32.02 -26.19,-58.29 -58.22,-58.29 -32.02,0 -58.21,26.27 -58.21,58.29l0 233.06c0,32.01 26.19,58.21 58.21,58.21z"/>
  <polygon class="fil1" points="2792.57,4056.84 2756.11,4056.84 2756.11,3614 2792.57,3614 "/>
  <path class="fil2" d="M1108.43 880.57c-12.18,-35.92 -255.58,-389.46 -281.63,-427.3l0 -3.45c0,0 -0.46,0.69 -1.15,1.76 -0.76,-1.07 -1.23,-1.76 -1.31,-1.76l0 3.45c-26.03,37.83 -269.36,391.38 -281.54,427.3 -12.87,37.99 -19.08,110.9 18.38,152.57 37.53,41.67 79.19,66.64 108.37,66.64 13.17,0 35.31,1.45 61.12,-9.12 29.49,-18.45 59.44,-55.76 62.43,-131.66 0,0 5.28,129.75 -44.66,205.11 -3.21,5.9 -6.43,11.34 -10.11,15.78 0,0 67.94,-5.67 87.31,-5.51 19.22,-0.15 87.16,5.51 87.16,5.51 -3.6,-4.44 -6.9,-9.88 -10.03,-15.78 -49.94,-75.36 -44.66,-205.11 -44.66,-205.11 2.99,75.9 32.94,113.2 62.43,131.66 25.73,10.57 47.94,9.12 61.11,9.12 29.19,0 70.85,-24.97 108.3,-66.64 37.53,-41.66 31.25,-114.58 18.46,-152.57z"/>
  <path class="fil2" d="M2321.23 903.46c-12.1,-35.92 -255.58,-389.46 -281.55,-427.3l0 -3.45c-0.07,0 -0.61,0.69 -1.22,1.68 -0.7,-0.99 -1.23,-1.68 -1.23,-1.68l0 3.45c-26.04,37.84 -269.45,391.38 -281.7,427.3 -12.79,37.99 -19,110.9 18.45,152.57 37.53,41.66 79.2,66.63 108.38,66.63 13.25,0 35.3,1.38 61.12,-9.19 29.49,-18.38 59.43,-55.68 62.42,-131.58 0,0 5.29,129.74 -44.65,205.11 -3.14,5.9 -6.44,11.34 -10.11,15.77 0,0 67.93,-5.74 87.31,-5.59 19.22,-0.15 87.23,5.59 87.23,5.59 -3.68,-4.44 -6.89,-9.88 -10.03,-15.77 -50.02,-75.37 -44.73,-205.11 -44.73,-205.11 2.99,75.9 32.94,113.2 62.43,131.58 25.73,10.57 47.94,9.19 61.12,9.19 29.18,0 70.84,-24.97 108.37,-66.63 37.53,-41.67 31.25,-114.58 18.38,-152.57z"/>
  <path class="fil2" d="M1714.86 1292.47c-12.18,-35.84 -255.58,-389.46 -281.62,-427.3l0 -3.45c-0.08,0.08 -0.53,0.69 -1.22,1.76 -0.69,-1.07 -1.15,-1.68 -1.23,-1.76l0 3.45c-26.04,37.83 -269.44,391.45 -281.62,427.3 -12.79,37.91 -19.07,110.9 18.45,152.49 37.53,41.74 79.2,66.71 108.3,66.71 13.25,0 35.39,1.45 61.2,-9.19 29.41,-18.38 59.36,-55.68 62.42,-131.51 0,0 5.2,129.67 -44.74,205.03 -3.14,5.9 -6.43,11.34 -10.03,15.86 0,0 67.93,-5.75 87.24,-5.59 19.3,-0.15 87.23,5.59 87.23,5.59 -3.6,-4.52 -6.89,-9.96 -10.03,-15.86 -49.93,-75.36 -44.65,-205.03 -44.65,-205.03 2.99,75.82 32.93,113.12 62.43,131.51 25.73,10.64 47.86,9.19 61.12,9.19 29.1,0 70.84,-24.97 108.29,-66.71 37.53,-41.59 31.25,-114.58 18.45,-152.49z"/>
  <path class="fil2" d="M1108.43 1773c-12.18,-35.92 -255.58,-389.46 -281.63,-427.22l0 -3.52c0,0.08 -0.46,0.76 -1.15,1.76 -0.76,-1 -1.23,-1.68 -1.31,-1.76l0 3.52c-26.03,37.76 -269.36,391.3 -281.54,427.22 -12.87,37.99 -19.08,110.9 18.38,152.57 37.53,41.67 79.19,66.64 108.37,66.64 13.17,0 35.31,1.45 61.12,-9.11 29.49,-18.46 59.44,-55.68 62.43,-131.58 0,0 5.28,129.67 -44.66,205.03 -3.21,5.9 -6.43,11.34 -10.11,15.86 0,0 67.94,-5.75 87.31,-5.59 19.22,-0.15 87.16,5.59 87.16,5.59 -3.6,-4.52 -6.9,-9.96 -10.03,-15.86 -49.94,-75.36 -44.66,-205.03 -44.66,-205.03 2.99,75.9 32.94,113.12 62.43,131.58 25.73,10.57 47.94,9.11 61.11,9.11 29.19,0 70.85,-24.97 108.3,-66.64 37.53,-41.66 31.25,-114.58 18.46,-152.57z"/>
  <path class="fil2" d="M2321.23 1761.58c-12.1,-35.92 -255.58,-389.46 -281.55,-427.3l0 -3.45c-0.07,0 -0.61,0.69 -1.22,1.76 -0.7,-1.07 -1.23,-1.76 -1.23,-1.76l0 3.45c-26.04,37.83 -269.45,391.38 -281.7,427.3 -12.79,37.91 -19,110.83 18.45,152.49 37.53,41.74 79.2,66.71 108.38,66.71 13.25,0 35.3,1.46 61.12,-9.19 29.49,-18.38 59.43,-55.68 62.42,-131.58 0,0 5.29,129.67 -44.65,205.11 -3.14,5.82 -6.44,11.34 -10.11,15.78 0,0 67.93,-5.67 87.31,-5.51 19.22,-0.15 87.23,5.51 87.23,5.51 -3.68,-4.44 -6.89,-9.96 -10.03,-15.78 -50.02,-75.44 -44.73,-205.11 -44.73,-205.11 2.99,75.91 32.94,113.2 62.43,131.58 25.73,10.65 47.94,9.19 61.12,9.19 29.18,0 70.84,-24.97 108.37,-66.71 37.53,-41.67 31.25,-114.58 18.38,-152.49z"/>
  <path class="fil2" d="M1783.11 3426.66c12.1,35.92 255.5,389.46 281.55,427.3l0 3.45c0.07,-0.08 0.53,-0.69 1.22,-1.76 0.69,1.07 1.22,1.68 1.22,1.76l0 -3.45c26.04,-37.83 269.45,-391.38 281.63,-427.3 12.79,-37.99 18.99,-110.9 -18.46,-152.57 -37.45,-41.67 -79.11,-66.64 -108.3,-66.64 -13.25,0 -35.39,-1.45 -61.2,9.19 -29.4,18.38 -59.36,55.68 -62.34,131.58 0,0 -5.28,-129.75 44.66,-205.11 3.14,-5.9 6.35,-11.34 10.03,-15.78 0,0 -67.93,5.75 -87.24,5.59 -19.3,0.15 -87.24,-5.59 -87.24,-5.59 3.68,4.44 6.9,9.88 10.04,15.78 49.93,75.36 44.64,205.11 44.64,205.11 -2.99,-75.9 -32.93,-113.2 -62.34,-131.58 -25.81,-10.64 -47.94,-9.19 -61.12,-9.19 -29.18,0 -70.92,24.97 -108.37,66.64 -37.53,41.66 -31.26,114.58 -18.38,152.57z"/>
  <path class="fil2" d="M570.3 3403.76c12.1,35.92 255.5,389.46 281.55,427.3l0 3.45c0.07,0 0.53,-0.69 1.23,-1.76 0.68,1.07 1.15,1.76 1.22,1.76l0 -3.45c26.03,-37.84 269.44,-391.38 281.62,-427.3 12.79,-37.92 19,-110.9 -18.46,-152.57 -37.53,-41.59 -79.19,-66.63 -108.37,-66.63 -13.17,0 -35.31,-1.38 -61.12,9.19 -29.41,18.38 -59.36,55.68 -62.43,131.58 0,0 -5.21,-129.74 44.73,-205.11 3.15,-5.9 6.35,-11.34 10.03,-15.78 0,0 -67.94,5.75 -87.23,5.6 -19.31,0.15 -87.24,-5.6 -87.24,-5.6 3.6,4.44 6.9,9.88 10.03,15.78 49.93,75.37 44.65,205.11 44.65,205.11 -2.99,-75.9 -32.94,-113.2 -62.42,-131.58 -25.73,-10.57 -47.87,-9.19 -61.04,-9.19 -29.26,0 -70.92,25.04 -108.38,66.63 -37.53,41.67 -31.25,114.65 -18.38,152.57z"/>
  <path class="fil2" d="M1176.67 3014.76c12.17,35.92 255.58,389.46 281.62,427.3l0 3.45c0,0 0.46,-0.69 1.15,-1.76 0.77,1.07 1.23,1.76 1.23,1.76l0 -3.45c26.12,-37.83 269.44,-391.38 281.62,-427.3 12.79,-37.91 19.07,-110.83 -18.38,-152.57 -37.53,-41.66 -79.2,-66.63 -108.38,-66.63 -13.17,0 -35.31,-1.46 -61.19,9.11 -29.41,18.46 -59.28,55.76 -62.34,131.66 0,0 -5.29,-129.75 44.64,-205.11 3.15,-5.82 6.44,-11.34 10.12,-15.77 0,0 -67.93,5.67 -87.31,5.51 -19.3,0.15 -87.16,-5.51 -87.16,-5.51 3.6,4.44 6.89,9.96 10.03,15.77 49.94,75.37 44.65,205.11 44.65,205.11 -2.99,-75.91 -32.94,-113.2 -62.42,-131.66 -25.73,-10.57 -47.94,-9.11 -61.12,-9.11 -29.18,0 -70.85,24.97 -108.3,66.63 -37.53,41.74 -31.25,114.66 -18.46,152.57z"/>
  <path class="fil2" d="M1783.11 2534.23c12.1,35.92 255.5,389.46 281.55,427.22l0 3.52c0.07,-0.08 0.53,-0.76 1.22,-1.76 0.69,1 1.22,1.68 1.22,1.76l0 -3.52c26.04,-37.76 269.45,-391.3 281.63,-427.22 12.79,-37.99 18.99,-110.9 -18.46,-152.57 -37.45,-41.66 -79.11,-66.63 -108.3,-66.63 -13.25,0 -35.39,-1.46 -61.2,9.19 -29.4,18.38 -59.36,55.61 -62.34,131.51 0,0 -5.28,-129.67 44.66,-205.04 3.14,-5.9 6.35,-11.34 10.03,-15.85 0,0 -67.93,5.75 -87.24,5.59 -19.3,0.15 -87.24,-5.59 -87.24,-5.59 3.68,4.52 6.9,9.96 10.04,15.85 49.93,75.37 44.64,205.04 44.64,205.04 -2.99,-75.9 -32.93,-113.12 -62.34,-131.51 -25.81,-10.65 -47.94,-9.19 -61.12,-9.19 -29.18,0 -70.92,24.97 -108.37,66.63 -37.53,41.67 -31.26,114.58 -18.38,152.57z"/>
  <path class="fil2" d="M570.3 2545.64c12.1,35.92 255.5,389.46 281.55,427.3l0 3.45c0.07,0 0.53,-0.69 1.23,-1.68 0.68,0.99 1.15,1.68 1.22,1.68l0 -3.45c26.03,-37.84 269.44,-391.38 281.62,-427.3 12.79,-37.99 19,-110.9 -18.46,-152.57 -37.53,-41.66 -79.19,-66.63 -108.37,-66.63 -13.17,0 -35.31,-1.46 -61.12,9.19 -29.41,18.38 -59.36,55.68 -62.43,131.58 0,0 -5.21,-129.74 44.73,-205.11 3.15,-5.9 6.35,-11.34 10.03,-15.78 0,0 -67.94,5.75 -87.23,5.6 -19.31,0.15 -87.24,-5.6 -87.24,-5.6 3.6,4.44 6.9,9.88 10.03,15.78 49.93,75.37 44.65,205.11 44.65,205.11 -2.99,-75.9 -32.94,-113.2 -62.42,-131.58 -25.73,-10.65 -47.87,-9.19 -61.04,-9.19 -29.26,0 -70.92,24.97 -108.38,66.63 -37.53,41.67 -31.25,114.58 -18.38,152.57z"/>
  <path class="fil2" d="M432.44 947.5c-6.2,-18.23 -129.75,-197.76 -142.99,-216.9l0 -1.76c0,0 -0.23,0.31 -0.61,0.84 -0.31,-0.53 -0.53,-0.84 -0.61,-0.84l0 1.76c-13.17,19.15 -136.8,198.68 -142.92,216.9 -6.5,19.22 -9.72,56.29 9.35,77.43 18.99,21.14 40.21,33.85 54.99,33.85 6.67,0 17.93,0.69 31.02,-4.67 14.93,-9.34 30.18,-28.26 31.7,-66.79 0,0 2.69,65.87 -22.67,104.09 -1.61,2.99 -3.3,5.74 -5.14,8.04 0,0 34.47,-2.91 44.27,-2.83 9.81,-0.08 44.27,2.83 44.27,2.83 -1.84,-2.3 -3.45,-5.05 -5.05,-8.04 -25.36,-38.22 -22.68,-104.09 -22.68,-104.09 1.53,38.53 16.69,57.45 31.63,66.79 13.09,5.36 24.35,4.67 31.09,4.67 14.78,0 35.92,-12.71 55,-33.85 18.99,-21.14 15.86,-58.21 9.34,-77.43z"/>
  <path class="fil2" d="M2534.46 3393.57c6.21,18.23 129.75,197.76 142.92,216.9l0 1.76c0.07,0 0.3,-0.38 0.61,-0.92 0.39,0.54 0.61,0.92 0.61,0.92l0 -1.76c13.25,-19.15 136.86,-198.68 142.99,-216.9 6.5,-19.22 9.72,-56.29 -9.34,-77.43 -19,-21.14 -40.21,-33.85 -54.99,-33.85 -6.74,0 -17.92,-0.76 -31.02,4.67 -14.93,9.35 -30.18,28.26 -31.71,66.79 0,0 -2.68,-65.87 22.67,-104.08 1.61,-2.99 3.3,-5.75 5.14,-8.04 0,0 -34.54,2.91 -44.35,2.84 -9.8,0.07 -44.27,-2.84 -44.27,-2.84 1.92,2.3 3.53,5.05 5.14,8.04 25.35,38.22 22.67,104.08 22.67,104.08 -1.52,-38.53 -16.69,-57.44 -31.63,-66.79 -13.1,-5.44 -24.36,-4.67 -31.1,-4.67 -14.78,0 -36,12.71 -54.99,33.85 -19,21.14 -15.85,58.21 -9.35,77.43z"/>
 </g>
</svg>
