<?xml version="1.0" encoding="UTF-8"?>
<!DOCTYPE svg PUBLIC "-//W3C//DTD SVG 1.1//EN" "http://www.w3.org/Graphics/SVG/1.1/DTD/svg11.dtd">
<!-- Creator: CorelDRAW -->
<svg xmlns="http://www.w3.org/2000/svg" xml:space="preserve" width="60.203mm" height="89.893mm" version="1.1" style="shape-rendering:geometricPrecision; text-rendering:geometricPrecision; image-rendering:optimizeQuality; fill-rule:evenodd; clip-rule:evenodd"
viewBox="0 0 70256.67 104904.79"
 xmlns:xlink="http://www.w3.org/1999/xlink"
 xmlns:xodm="http://www.corel.com/coreldraw/odm/2003">
 <defs>
  <style type="text/css">
   <![CDATA[
    .str0 {stroke:#1F1A17;stroke-width:88.93;stroke-miterlimit:22.9256}
    .fil1 {fill:#B32520}
    .fil0 {fill:white}
   ]]>
  </style>
 </defs>
 <g id="Слой_x0020_1">
  <metadata id="CorelCorpID_0Corel-Layer"/>
  <path class="fil0 str0" d="M3333.41 44.46l63591.49 0c1808.03,0 3287.31,1479.28 3287.31,3289.06l0 98237.86c0,1807.91 -1479.28,3288.95 -3287.31,3288.95l-63591.49 0c-1809.78,0 -3288.95,-1481.03 -3288.95,-3288.95l0 -98237.86c0,-1809.78 1479.17,-3289.06 3288.95,-3289.06z"/>
  <path class="fil1" d="M7968.72 5820.98c1240.87,0 2258.49,1017.62 2258.49,2258.6l0 6164.31c0,1242.85 -1017.62,2258.49 -2258.49,2258.49 -1242.85,0 -2258.72,-1015.64 -2258.72,-2258.49l0 -6164.31c0,-1240.98 1015.87,-2258.6 2258.72,-2258.6zm0 1167.11l0 0c-771.97,0 -1403.55,631.58 -1403.55,1405.41l0 5619.55c0,771.85 631.58,1403.43 1403.55,1403.43 771.97,0 1403.31,-631.58 1403.31,-1403.43l0 -5619.55c0,-773.84 -631.34,-1405.41 -1403.31,-1405.41z"/>
  <polygon class="fil1" points="3429.45,5817.36 4310.18,5817.36 4310.18,16495.02 3429.45,16495.02 "/>
  <path class="fil1" d="M62793.96 97813.3c-1241.1,0 -2256.85,-1015.75 -2256.85,-2258.6l0 -6164.31c0,-1240.98 1015.75,-2256.74 2256.85,-2256.74 1242.85,0 2258.49,1015.75 2258.49,2256.74l0 6164.31c0,1242.85 -1015.64,2258.6 -2258.49,2258.6zm0 -1165.36l0 0c773.72,0 1405.3,-631.58 1405.3,-1403.43l0 -5621.42c0,-771.97 -631.58,-1403.55 -1405.3,-1403.55 -770.1,0 -1403.66,631.58 -1403.66,1403.55l0 5621.42c0,770.1 633.56,1403.43 1403.66,1403.43z"/>
  <polygon class="fil1" points="67333.23,97816.92 66452.15,97816.92 66452.15,87141.12 67333.23,87141.12 "/>
  <path class="fil1" d="M26485.68 13521.75c-851.32,-943.63 -1796.82,-1510.56 -2459.91,-1510.56 -642.55,0 -2214.26,-156.96 -3541.83,2561.44 -1322.44,-2666.7 -2879.21,-2515.23 -3518.14,-2515.23 -662.85,0 -1606.49,568.79 -2458.04,1512.43 -851.21,945.5 -709.07,2600.18 -417.2,3460.73 290,860.54 6367.36,9726.68 6367.36,9726.68 0,0 6153.34,-8914.1 6445.09,-9774.64 289.88,-860.66 432.26,-2513.48 -417.32,-3460.84z"/>
  <path class="fil1" d="M56003.45 13521.75c-851.32,-943.63 -1796.82,-1510.56 -2457.81,-1510.56 -642.78,0 -2214.38,-156.96 -3542.07,2561.44 -1322.32,-2666.7 -2878.98,-2515.23 -3518.03,-2515.23 -662.85,0 -1608.47,568.79 -2459.68,1512.43 -849.69,945.5 -707.32,2600.18 -417.55,3460.73 291.87,860.54 6367.6,9726.68 6367.6,9726.68 0,0 6155.09,-8914.1 6445.09,-9774.64 291.63,-860.66 433.89,-2513.48 -417.55,-3460.84z"/>
  <path class="fil1" d="M40829 24834.73c-849.34,-945.5 -1794.96,-1512.43 -2456.06,-1512.43 -642.55,0 -2214.14,-156.96 -3543.82,2559.57 -1322.32,-2664.84 -2878.98,-2513.36 -3518.03,-2513.36 -661.1,0 -1606.6,566.93 -2458.04,1512.43 -851.32,945.5 -708.95,2600.18 -419.19,3460.73 291.87,860.54 6369.35,9726.68 6369.35,9726.68 0,0 6155.2,-8914.1 6444.97,-9774.64 291.98,-860.54 432.26,-2515.23 -419.19,-3458.98z"/>
  <path class="fil1" d="M26485.68 35593.73c-851.32,-945.5 -1796.82,-1512.43 -2459.91,-1512.43 -642.55,0 -2214.26,-156.96 -3541.83,2559.57 -1322.44,-2664.84 -2879.21,-2513.48 -3518.14,-2513.48 -662.85,0 -1606.49,567.04 -2458.04,1512.54 -851.21,945.5 -709.07,2600.18 -417.2,3460.73 290,860.54 6367.36,9728.43 6367.36,9728.43 0,0 6153.34,-8914.1 6445.09,-9776.51 289.88,-860.54 432.26,-2515.23 -417.32,-3458.86z"/>
  <path class="fil1" d="M56003.45 35868.91c-851.32,-945.5 -1796.82,-1512.43 -2457.81,-1512.43 -642.78,0 -2214.38,-155.21 -3542.07,2561.32 -1322.32,-2666.59 -2878.98,-2515.23 -3518.03,-2515.23 -662.85,0 -1608.47,568.79 -2459.68,1514.29 -849.69,945.62 -707.32,2600.18 -417.55,3460.84 291.87,860.54 6367.6,9726.56 6367.6,9726.56 0,0 6155.09,-8914.1 6445.09,-9774.64 291.63,-860.54 433.89,-2515.23 -417.55,-3460.73z"/>
  <path class="fil1" d="M44025.87 91178c851.21,947.37 1796.82,1514.29 2459.68,1514.29 642.78,0 2214.26,155.21 3542.07,-2561.32 1322.32,2664.72 2878.98,2513.36 3518.03,2513.36 660.99,0 1606.49,-566.93 2457.81,-1512.43 849.57,-945.62 709.18,-2600.18 417.55,-3460.84 -290,-860.54 -6367.48,-9728.43 -6367.48,-9728.43 0,0 -6153.34,8914.1 -6445.2,9774.64 -289.77,862.41 -432.14,2517.09 417.55,3460.73z"/>
  <path class="fil1" d="M14507.75 91178c851.56,947.37 1795.19,1514.29 2458.04,1514.29 642.78,0 2214.14,155.21 3542.07,-2561.32 1322.21,2664.72 2878.98,2513.36 3517.91,2513.36 663.09,0 1608.59,-566.93 2459.91,-1512.43 849.57,-945.62 707.2,-2600.18 417.32,-3460.84 -291.75,-860.54 -6369.35,-9728.43 -6369.35,-9728.43 0,0 -6153.1,8914.1 -6443.1,9774.64 -291.87,862.41 -434.01,2517.09 417.2,3460.73z"/>
  <path class="fil1" d="M29680.56 79866.89c851.32,947.37 1796.82,1514.29 2457.81,1514.29 642.66,0 2214.38,155.09 3543.93,-2561.44 1322.21,2664.84 2878.98,2513.48 3517.91,2513.48 661.1,0 1606.72,-566.93 2457.93,-1512.54 851.56,-945.5 709.18,-2600.18 417.55,-3460.73 -291.87,-860.54 -6367.6,-9728.43 -6367.6,-9728.43 0,0 -6155.09,8914.1 -6445.09,9774.64 -291.63,860.54 -432.02,2515.23 417.55,3460.73z"/>
  <path class="fil1" d="M44025.87 69107.88c851.21,947.37 1796.82,1514.29 2459.68,1514.29 642.78,0 2214.26,153.34 3542.07,-2563.19 1322.32,2666.7 2878.98,2515.23 3518.03,2515.23 660.99,0 1606.49,-566.93 2457.81,-1512.43 849.57,-945.5 709.18,-2600.18 417.55,-3460.73 -290,-862.41 -6367.48,-9728.55 -6367.48,-9728.55 0,0 -6153.34,8914.1 -6445.2,9774.64 -289.77,860.54 -432.14,2515.23 417.55,3460.73z"/>
  <path class="fil1" d="M14507.75 68832.82c851.56,945.5 1795.19,1512.43 2458.04,1512.43 642.78,0 2214.14,155.09 3542.07,-2561.44 1322.21,2666.7 2878.98,2513.36 3517.91,2513.36 663.09,0 1608.59,-566.93 2459.91,-1510.56 849.57,-947.37 707.2,-2600.18 417.32,-3460.73 -291.75,-862.41 -6369.35,-9728.55 -6369.35,-9728.55 0,0 -6153.1,8914.1 -6443.1,9774.64 -291.87,860.66 -434.01,2515.23 417.2,3460.84z"/>
  <path class="fil1" d="M9974.08 18903.12c-463.41,-515.23 -976.89,-823.67 -1336.91,-823.67 -350.8,0 -1205.97,-84.96 -1927.99,1394.33 -722.02,-1451.51 -1567.74,-1368.42 -1916.91,-1368.42 -358.27,0 -873.5,308.44 -1336.91,821.8 -463.53,515.23 -386.04,1416.38 -227.21,1885.52 156.84,467.15 3466.21,5294.55 3466.21,5294.55 0,0 3350.1,-4853.19 3508.92,-5320.45 156.84,-469.02 234.33,-1370.29 -229.2,-1883.65z"/>
  <path class="fil1" d="M60838.31 85700.7c463.53,513.36 976.78,821.8 1336.91,821.8 350.8,0 1205.97,84.84 1927.99,-1392.46 720.27,1449.64 1567.98,1366.55 1916.79,1366.55 360.14,0 873.61,-308.44 1337.14,-821.8 463.41,-515.23 386.04,-1416.38 227.1,-1885.52 -156.96,-467.15 -3466.21,-5294.55 -3466.21,-5294.55 0,0 -3349.98,4853.19 -3508.81,5320.45 -156.96,469.02 -234.57,1370.29 229.08,1885.52z"/>
 </g>
</svg>
