<?xml version="1.0" encoding="UTF-8"?>
<!DOCTYPE svg PUBLIC "-//W3C//DTD SVG 1.1//EN" "http://www.w3.org/Graphics/SVG/1.1/DTD/svg11.dtd">
<!-- Creator: CorelDRAW -->
<svg xmlns="http://www.w3.org/2000/svg" xml:space="preserve" width="88.1672mm" height="147.977mm" version="1.1" style="shape-rendering:geometricPrecision; text-rendering:geometricPrecision; image-rendering:optimizeQuality; fill-rule:evenodd; clip-rule:evenodd"
viewBox="0 0 9033.23 15161.1"
 xmlns:xlink="http://www.w3.org/1999/xlink"
 xmlns:xodm="http://www.corel.com/coreldraw/odm/2003">
 <defs>
  <style type="text/css">
   <![CDATA[
    .str0 {stroke:#1F1A17;stroke-width:7.81;stroke-miterlimit:22.9256}
    .str1 {stroke:#1F1A17;stroke-width:7.82;stroke-miterlimit:22.9256}
    .fil1 {fill:#B32520}
    .fil0 {fill:white}
   ]]>
  </style>
 </defs>
 <g id="Слой_x0020_1">
  <metadata id="CorelCorpID_0Corel-Layer"/>
  <g id="_2298852971088">
   <path class="fil0 str0" d="M292.65 3.9l5582.97 0c158.73,0 288.61,130.03 288.61,288.75l0 8624.73c0,158.89 -129.87,288.75 -288.61,288.75l-5582.97 0c-158.89,0 -288.75,-129.86 -288.75,-288.75l0 -8624.73c0,-158.72 129.86,-288.75 288.75,-288.75z"/>
   <path class="fil1" d="M884.76 1713.1c-40.7,-45.08 -85.93,-72.15 -117.54,-72.15 -30.65,0 -105.71,-7.46 -169.28,122.4 -63.24,-127.43 -137.64,-120.14 -168.12,-120.14 -31.63,0 -76.86,27.08 -117.56,72.15 -40.53,45.23 -33.87,124.36 -19.93,165.54 13.94,41.02 304.3,464.83 304.3,464.83 0,0 294.12,-426.08 308.06,-467.11 13.77,-41.18 20.58,-120.29 -19.95,-165.53z"/>
   <path class="fil1" d="M5369.96 7534.42c40.52,45.23 85.76,72.3 117.37,72.3 30.81,0 105.87,7.31 169.43,-122.4 63.23,127.43 137.64,120.14 167.98,120.14 31.61,0 76.84,-27.08 117.54,-72.31 40.69,-45.23 33.89,-124.19 19.95,-165.37 -13.94,-41.18 -304.33,-464.83 -304.33,-464.83 0,0 -293.95,425.92 -308.03,467.11 -13.79,41.01 -20.6,120.14 20.1,165.37z"/>
   <path class="fil1" d="M2389.81 1197.35c-77.16,-85.93 -163.09,-137.33 -223.25,-137.33 -58.37,0 -201.03,-14.1 -321.66,232.5 -120.14,-242.06 -261.53,-228.28 -319.4,-228.28 -60.16,0 -146.09,51.56 -223.25,137.32 -77.34,85.93 -64.37,236.23 -37.94,314.37 26.42,78.14 578.31,883.29 578.31,883.29 0,0 558.7,-809.52 585.13,-887.67 26.42,-78.15 39.24,-228.45 -37.95,-314.21z"/>
   <path class="fil1" d="M4940.63 1197.35c-77.33,-85.93 -163.1,-137.33 -223.09,-137.33 -58.37,0 -201.21,-14.1 -321.84,232.5 -120.13,-242.06 -261.51,-228.28 -319.56,-228.28 -59.98,0 -145.74,51.56 -223.08,137.32 -77.35,85.93 -64.37,236.23 -38.1,314.37 26.59,78.14 578.49,883.29 578.49,883.29 0,0 558.7,-809.52 585.11,-887.67 26.44,-78.15 39.4,-228.45 -37.93,-314.21z"/>
   <path class="fil1" d="M3816.73 8061.17c77.34,85.77 163.11,137.32 223.26,137.32 58.37,0 201.04,14.11 321.67,-232.66 119.97,242.06 261.35,228.45 319.4,228.45 60.15,0 145.93,-51.57 223.26,-137.5 77.32,-85.77 64.36,-236.06 37.93,-314.21 -26.42,-78.14 -578.31,-883.29 -578.31,-883.29 0,0 -558.71,809.52 -585.14,887.51 -26.41,78.14 -39.39,228.45 37.94,314.37z"/>
   <path class="fil1" d="M1265.93 8061.17c77.16,85.77 163.1,137.32 223.25,137.32 58.37,0 201.04,14.11 321.66,-232.66 120.14,242.06 261.53,228.45 319.41,228.45 60.15,0 146.08,-51.57 223.25,-137.5 77.33,-85.77 64.37,-236.06 37.95,-314.21 -26.43,-78.14 -578.18,-883.29 -578.18,-883.29 0,0 -558.85,809.52 -585.29,887.51 -26.59,78.14 -39.38,228.45 37.95,314.37z"/>
   <path class="fil1" d="M3853.06 4084.26c77.33,-85.93 163.1,-137.32 223.25,-137.32 58.37,0 201.03,-14.11 321.66,232.49 120.14,-242.06 261.35,-228.28 319.57,-228.28 59.99,0 145.75,51.56 223.09,137.33 77.33,85.93 64.37,236.22 38.1,314.36 -26.59,78.15 -578.49,883.29 -578.49,883.29 0,0 -558.7,-809.36 -585.29,-887.67 -26.27,-78.14 -39.25,-228.28 38.1,-314.21z"/>
   <path class="fil1" d="M1265.93 4084.26c77.16,-85.93 163.1,-137.32 223.25,-137.32 58.37,0 201.04,-14.11 321.66,232.49 120.14,-242.06 261.53,-228.28 319.41,-228.28 60.15,0 146.08,51.56 223.25,137.33 77.33,85.93 64.37,236.22 37.95,314.36 -26.43,78.15 -578.18,883.29 -578.18,883.29 0,0 -558.85,-809.36 -585.29,-887.67 -26.59,-78.14 -39.38,-228.28 37.95,-314.21z"/>
   <path class="fil1" d="M538.94 1513.02c-109.12,0 -198.3,-89.17 -198.3,-198.28l0 -121.76c0,-4.06 0.17,-8.28 0.34,-12.33l-0.34 0 0 -347.45 0 -28.7 0 -27.56c0,-108.95 89.19,-198.29 198.3,-198.29 108.95,0 198.11,89.18 198.11,198.29l0 56.26 -74.91 0 0 -35.83c0,-67.94 -55.45,-123.39 -123.2,-123.39 -67.95,0 -123.22,55.61 -123.22,123.39l0 7.13 2.11 0 0 231.85c33.56,-26.11 75.54,-41.67 121.11,-41.67 108.95,0 198.11,89.18 198.11,198.29l0 121.76c0,109.12 -89.16,198.28 -198.11,198.28zm0 -102.3l0 0c67.75,0 123.2,-55.45 123.2,-123.22l0 -74.1c0,-67.76 -55.45,-123.21 -123.2,-123.21 -67.95,0 -123.22,55.45 -123.22,123.21l0 74.1c0,67.61 55.27,123.22 123.22,123.22z"/>
   <path class="fil1" d="M5654.66 7670.93c108.94,0 198.11,89.33 198.11,198.28l0 121.77c0,4.21 0,8.27 -0.32,12.32l0.32 0 0 347.45 0 28.7 0 27.56c0,109.12 -89.17,198.29 -198.11,198.29 -109.12,0 -198.29,-89.18 -198.29,-198.29l0 -56.26 75.06 0 0 35.99c0,67.77 55.45,123.22 123.23,123.22 67.76,0 123.2,-55.45 123.2,-123.22l0 -7.29 -2.25 0 0 -231.68c-33.57,25.94 -75.55,41.5 -120.95,41.5 -109.12,0 -198.29,-89.18 -198.29,-198.28l0 -121.77c0,-109.12 89.18,-198.28 198.29,-198.28zm0 102.47l0 0c-67.78,0 -123.23,55.45 -123.23,123.22l0 74.1c0,67.76 55.45,123.21 123.23,123.21 67.76,0 123.2,-55.61 123.2,-123.21l0 -74.1c0,-67.77 -55.44,-123.22 -123.2,-123.22z"/>
  </g>
 </g>
 <g id="Слой_x0020_1_0">
  <metadata id="CorelCorpID_1Corel-Layer"/>
  <g id="_2298852991440">
   <path class="fil0 str1" d="M3157.73 5954.96l5582.83 0c158.89,0 288.75,130.05 288.75,288.77l0 8624.71c0,158.72 -129.86,288.75 -288.75,288.75l-5582.83 0c-158.89,0 -288.9,-130.03 -288.9,-288.75l0 -8624.71c0,-158.72 130.05,-288.77 288.9,-288.77z"/>
   <path class="fil1" d="M4696.66 6976.55c0,0 -142.66,543.94 -517.67,744.66 0,0 448.94,285.2 523.03,713.05 0,0 142.5,-528.08 528.05,-718.24 0,0 -385.53,-206.06 -533.41,-739.47l0.01 0.01z"/>
   <path class="fil1" d="M7254.46 6947.53c0,0 -142.52,543.94 -517.52,744.49 0,0 448.94,285.36 522.87,713.2 0,0 142.7,-528.21 528.21,-718.39 0,0 -385.53,-205.91 -533.55,-739.32l-0.01 0.01z"/>
   <path class="fil1" d="M7254.46 12731.7c0,0 -142.52,544.12 -517.52,744.66 0,0 448.94,285.2 522.87,713.07 0,0 142.7,-528.08 528.21,-718.24 0,0 -385.53,-206.06 -533.55,-739.47l-0.01 -0.01z"/>
   <path class="fil1" d="M4667.67 12731.7c0,0 -142.68,544.12 -517.69,744.66 0,0 448.94,285.2 522.89,713.07 0,0 142.68,-528.08 528.05,-718.24 0,0 -385.38,-206.06 -533.25,-739.47l0 -0.01z"/>
   <path class="fil1" d="M3491.74 7499.74c0,0 -83.01,316.17 -301.09,432.9 0,0 261.19,165.69 304,414.39 0,0 83.01,-306.91 307.07,-417.49 0,0 -224.08,-119.82 -310,-429.82l0.02 0.02z"/>
   <path class="fil1" d="M8520.04 12673.5c0,0 -82.85,316.32 -300.74,432.9 0,0 260.87,165.86 304,414.56 0,0 82.85,-307.07 306.91,-417.65 0,0 -224.06,-119.64 -310.16,-429.82l0 0.02z"/>
   <path class="fil1" d="M3481.19 7461.65c-109.12,0 -198.29,-89.33 -198.29,-198.29l0 -121.75c0,-4.22 0.16,-8.43 0.48,-12.47l-0.48 0 0 -347.29 0 -28.86 0 -27.58c0,-108.96 89.18,-198.29 198.29,-198.29 108.96,0 198.29,89.33 198.29,198.29l0 56.41 -75.08 0 0 -35.99c0,-67.76 -55.45,-123.38 -123.21,-123.38 -67.76,0 -123.21,55.61 -123.21,123.38l0 7.15 2.11 0 0 231.85c33.56,-25.95 75.53,-41.52 121.1,-41.52 108.96,0 198.29,89.18 198.29,198.29l0 121.75c0,109.12 -89.33,198.29 -198.29,198.29l0 0.01zm0 -102.48l0 0c67.76,0 123.21,-55.45 123.21,-123.21l0 -74.09c0,-67.76 -55.45,-123.21 -123.21,-123.21 -67.76,0 -123.21,55.45 -123.21,123.21l0 74.09c0,67.76 55.45,123.21 123.21,123.21z"/>
   <path class="fil1" d="M8543.24 13623.76c109.12,0 198.29,89.33 198.29,198.29l0 121.77c0,4.22 -0.16,8.28 -0.48,12.47l0.48 0 0 347.46 0 28.7 0 27.55c0,108.96 -89.18,198.13 -198.29,198.13 -109.12,0 -198.29,-89.18 -198.29,-198.13l0 -56.26 75.05 0 0 35.83c0,67.76 55.45,123.21 123.21,123.21 67.76,0 123.21,-55.45 123.21,-123.21l0 -7.13 -2.11 0 0 -231.85c-33.56,25.95 -75.53,41.52 -121.1,41.52 -109.12,0 -198.29,-89.18 -198.29,-198.29l0 -121.77c0,-108.96 89.18,-198.29 198.29,-198.29l0.03 0.01zm0 102.48l0 0c-67.76,0 -123.21,55.45 -123.21,123.21l0 74.09c0,67.76 55.45,123.21 123.21,123.21 67.76,0 123.21,-55.45 123.21,-123.21l0 -74.09c0,-67.6 -55.45,-123.21 -123.21,-123.21z"/>
   <path class="fil1" d="M4696.66 9856.48c0,0 -142.66,544.12 -517.67,744.66 0,0 448.94,285.2 523.03,713.05 0,0 142.5,-528.08 528.05,-718.24 0,0 -385.53,-205.91 -533.41,-739.47l0.01 0.01z"/>
   <path class="fil1" d="M7254.46 9856.48c0,0 -142.52,544.12 -517.52,744.66 0,0 448.94,285.2 522.87,713.05 0,0 142.7,-528.08 528.21,-718.24 0,0 -385.53,-205.91 -533.55,-739.47l-0.01 0.01z"/>
  </g>
 </g>
</svg>
