<?xml version="1.0" encoding="UTF-8"?>
<!DOCTYPE svg PUBLIC "-//W3C//DTD SVG 1.1//EN" "http://www.w3.org/Graphics/SVG/1.1/DTD/svg11.dtd">
<!-- Creator: CorelDRAW -->
<svg xmlns="http://www.w3.org/2000/svg" xml:space="preserve" width="90.2056mm" height="146.628mm" version="1.1" style="shape-rendering:geometricPrecision; text-rendering:geometricPrecision; image-rendering:optimizeQuality; fill-rule:evenodd; clip-rule:evenodd"
viewBox="0 0 5235.08 8509.53"
 xmlns:xlink="http://www.w3.org/1999/xlink"
 xmlns:xodm="http://www.corel.com/coreldraw/odm/2003">
 <defs>
  <style type="text/css">
   <![CDATA[
    .str0 {stroke:#1F1A17;stroke-width:4.42;stroke-miterlimit:22.9256}
    .str1 {stroke:#1F1A17;stroke-width:4.43;stroke-miterlimit:22.9256}
    .fil1 {fill:#171717}
    .fil2 {fill:#1F1A17}
    .fil0 {fill:white}
   ]]>
  </style>
 </defs>
 <g id="Слой_x0020_1">
  <metadata id="CorelCorpID_0Corel-Layer"/>
  <g id="_2335186733088">
   <path class="fil0 str0" d="M165.78 2.21l3162.44 0c89.99,0 163.55,73.57 163.55,163.57l0 4885.39c0,89.91 -73.57,163.57 -163.55,163.57l-3162.44 0c-89.91,0 -163.57,-73.65 -163.57,-163.57l0 -4885.39c0,-90 73.66,-163.57 163.57,-163.57z"/>
   <path class="fil1" d="M240.46 982.04c5.97,-41.41 25.17,-59.42 54.46,-69.52 53.36,-18.28 120.03,11.47 132.7,59.06 11.1,42.06 -12.2,70.44 -39.31,108.1 30.12,-9.09 41.77,-26.27 78.61,-19.65 32.7,5.79 55.19,41.88 58.96,58.96 14.43,64.85 -30.12,123.81 -83.58,122.78 -23.97,-0.36 -33.06,-10.47 -44.16,-19.57 -22.23,-18.1 -26.91,-33.43 -44.27,-54.09 -7.61,10.84 -2.19,24.07 0,34.44 2.86,13.5 10.84,23.23 14.8,34.34 4.4,12.4 5.32,27.56 9.82,39.31 3.86,10.19 19.38,18.65 9.82,29.49 -34.45,-3.22 -81.82,6.52 -108.19,-4.87 10.2,-39.03 40.6,-83.95 24.62,-132.7 -9.09,78.79 -105.34,89.18 -144.47,41.23 -28.37,-34.71 -40.13,-138.22 56.03,-149.34 18.37,-2.21 36.37,8.72 54,14.69 -9.19,-30.04 -29.94,-43.44 -29.85,-82.93 0,-3.31 0,-6.52 0,-9.74l0.01 0.01z"/>
   <path class="fil1" d="M3295.6 4222.53c-6.06,41.33 -25.17,59.33 -54.46,69.43 -53.46,18.29 -120.11,-11.47 -132.7,-59.06 -11.21,-42.06 12.2,-70.43 39.31,-108.08 -30.22,9.09 -41.77,26.27 -78.61,19.65 -32.69,-5.79 -55.19,-41.88 -59.04,-58.96 -14.33,-64.84 30.22,-123.89 83.58,-122.88 24.07,0.46 33.06,10.56 44.26,19.65 22.13,18.1 26.92,33.43 44.27,54.09 7.63,-10.84 2.12,-24.07 0,-34.44 -2.86,-13.5 -10.84,-23.24 -14.79,-34.35 -4.41,-12.4 -5.32,-27.56 -9.82,-39.31 -3.86,-10.19 -19.47,-18.73 -9.83,-29.48 34.45,3.22 81.84,-6.52 108.1,4.87 -10.11,38.95 -40.5,83.95 -24.52,132.71 9.01,-78.81 105.34,-89.18 144.47,-41.23 28.38,34.71 40.04,138.22 -56.02,149.32 -18.36,2.21 -36.37,-8.72 -54.09,-14.69 9.27,30.04 30.04,43.44 29.94,82.93 0,3.22 0,6.52 0,9.82l-0.02 0.01z"/>
   <path class="fil1" d="M826 751.89c11.67,-81 49.22,-116.26 106.62,-136.01 104.61,-35.82 235.11,22.49 259.91,115.53 21.84,82.47 -24.07,138.12 -77.06,211.68 59.14,-17.74 81.82,-51.33 154.01,-38.48 63.93,11.47 108.01,82.1 115.45,115.53 28.19,126.92 -59.06,242.55 -163.65,240.62 -46.94,-0.92 -64.66,-20.75 -86.61,-38.48 -43.35,-35.44 -52.61,-65.39 -86.51,-105.89 -15.06,21.13 -4.32,47.11 0,67.31 5.43,26.53 21.13,45.55 28.84,67.41 8.64,24.25 10.47,53.91 19.2,76.95 7.61,19.83 38.11,36.55 19.28,57.77 -67.49,-6.34 -160.26,12.67 -211.68,-9.64 19.93,-76.32 79.36,-164.3 48.12,-259.82 -17.82,154.2 -206.26,174.59 -282.96,80.72 -55.56,-68.05 -78.52,-270.65 109.66,-292.5 36.01,-4.22 71.37,17.17 105.89,28.94 -18.08,-58.96 -58.77,-85.13 -58.49,-162.46 0,-6.42 0,-12.85 0,-19.2z"/>
   <path class="fil1" d="M2294.03 738.2c11.57,-81 49.22,-116.36 106.62,-136.01 104.5,-35.82 235.11,22.49 259.81,115.53 21.95,82.37 -23.97,138.02 -77.05,211.68 59.14,-17.72 81.81,-51.43 154.01,-38.58 64.01,11.47 108.1,82.19 115.53,115.53 28.19,127 -59.06,242.54 -163.66,240.62 -47.03,-0.83 -64.75,-20.67 -86.61,-38.48 -43.35,-35.44 -52.61,-65.39 -86.6,-105.89 -14.98,21.21 -4.22,47.11 0,67.41 5.51,26.53 21.13,45.55 28.84,67.31 8.64,24.34 10.48,54.01 19.29,77.05 7.53,19.83 38.02,36.55 19.2,57.68 -67.41,-6.24 -160.17,12.76 -211.69,-9.56 20.02,-76.4 79.36,-164.3 48.13,-259.9 -17.72,154.29 -206.26,174.67 -282.86,80.82 -55.56,-68.05 -78.61,-270.65 109.56,-292.6 36.09,-4.14 71.36,17.18 105.89,28.94 -18.1,-58.86 -58.68,-85.13 -58.41,-162.36 0,-6.42 0,-12.85 0,-19.2l0.02 0z"/>
   <path class="fil1" d="M826 2359.87c11.67,-81 49.22,-116.36 106.62,-136.01 104.61,-35.82 235.11,22.49 259.91,115.53 21.84,82.37 -24.07,138.04 -77.06,211.68 59.14,-17.72 81.82,-51.43 154.01,-38.48 63.93,11.49 108.01,82.11 115.45,115.53 28.19,126.92 -59.06,242.54 -163.65,240.52 -46.94,-0.83 -64.66,-20.66 -86.61,-38.48 -43.35,-35.46 -52.61,-65.3 -86.51,-105.89 -15.06,21.21 -4.32,47.21 0,67.41 5.43,26.53 21.13,45.55 28.84,67.41 8.64,24.25 10.47,53.91 19.2,76.95 7.61,19.83 38.11,36.55 19.28,57.68 -67.49,-6.24 -160.26,12.77 -211.68,-9.56 19.93,-76.32 79.36,-164.3 48.12,-259.9 -17.82,154.29 -206.26,174.67 -282.96,80.82 -55.56,-68.05 -78.52,-270.65 109.66,-292.5 36.01,-4.22 71.37,17.09 105.89,28.84 -18.08,-58.86 -58.77,-85.13 -58.49,-162.36 0,-6.42 0,-12.87 0,-19.2z"/>
   <path class="fil1" d="M2307.71 2373.55c11.65,-81 49.22,-116.26 106.62,-135.92 104.5,-35.9 235.11,22.41 259.9,115.44 21.86,82.47 -24.07,138.12 -77.05,211.68 59.14,-17.72 81.82,-51.33 154.01,-38.48 63.93,11.47 108.01,82.1 115.45,115.53 28.19,127 -59.07,242.54 -163.57,240.62 -47.01,-0.91 -64.74,-20.75 -86.69,-38.48 -43.35,-35.44 -52.61,-65.39 -86.51,-105.89 -15.06,21.11 -4.32,47.11 0,67.41 5.43,26.45 21.03,45.46 28.84,67.31 8.64,24.25 10.37,54.01 19.28,77.05 7.53,19.75 38.04,36.45 19.2,57.68 -67.51,-6.34 -160.26,12.67 -211.68,-9.64 19.93,-76.32 79.35,-164.3 48.12,-259.81 -17.82,154.29 -206.26,174.59 -282.94,80.72 -55.56,-68.05 -78.52,-270.65 109.66,-292.5 36,-4.14 71.27,17.18 105.89,28.94 -18.1,-58.86 -58.77,-85.13 -58.49,-162.46 0,-6.42 0,-12.85 0,-19.2l-0.01 -0.01z"/>
   <path class="fil1" d="M2675.33 4451.2c-11.65,81 -49.14,116.26 -106.52,136.01 -104.61,35.82 -235.2,-22.49 -259.9,-115.53 -21.86,-82.47 23.97,-138.12 77.05,-211.78 -59.14,17.82 -81.92,51.43 -154.01,38.58 -64.01,-11.57 -108.1,-82.19 -115.53,-115.53 -28.19,-127.02 59.06,-242.55 163.66,-240.62 47.03,0.83 64.75,20.66 86.61,38.48 43.43,35.44 52.61,65.39 86.6,105.89 15.06,-21.13 4.22,-47.11 0,-67.41 -5.51,-26.45 -21.13,-45.46 -28.84,-67.31 -8.64,-24.33 -10.47,-54.01 -19.28,-77.05 -7.61,-19.83 -38.11,-36.45 -19.2,-57.66 67.41,6.33 160.16,-12.77 211.68,9.55 -20.02,76.4 -79.35,164.4 -48.12,259.9 17.82,-154.3 206.26,-174.59 282.86,-80.72 55.65,68.05 78.52,270.65 -109.66,292.5 -36.01,4.14 -71.26,-17.17 -105.89,-28.94 18.18,58.96 58.78,85.13 58.51,162.36 0,6.42 0,12.85 0,19.28l-0.04 0.02z"/>
   <path class="fil1" d="M1207.4 4464.88c-11.75,81 -49.22,116.36 -106.62,136.01 -104.61,35.82 -235.2,-22.49 -259.91,-115.53 -21.84,-82.47 23.97,-138.12 77.06,-211.78 -59.14,17.82 -81.82,51.43 -154.01,38.58 -63.93,-11.47 -108,-82.1 -115.45,-115.45 -28.2,-127 59.04,-242.63 163.57,-240.62 47.01,0.83 64.74,20.57 86.6,38.48 43.44,35.44 52.63,65.29 86.61,105.89 15.05,-21.21 4.22,-47.19 0,-67.41 -5.51,-26.53 -21.13,-45.55 -28.84,-67.41 -8.64,-24.34 -10.47,-53.91 -19.28,-76.95 -7.54,-19.93 -38.04,-36.55 -19.2,-57.68 67.49,6.24 160.26,-12.76 211.68,9.56 -19.93,76.32 -79.36,164.3 -48.12,259.9 17.82,-154.29 206.26,-174.67 282.94,-80.82 55.56,68.05 78.52,270.65 -109.65,292.5 -36.09,4.22 -71.36,-17.17 -105.89,-28.84 18.08,58.86 58.77,85.13 58.51,162.36 0,6.34 0,12.76 0,19.2l-0.02 0.02z"/>
   <path class="fil2" d="M321.82 840.51c-61.81,0 -112.32,-50.52 -112.32,-112.23l0 -69.07c0,-2.3 0.1,-4.69 0.18,-6.98l-0.18 0 0 -196.8 0 -16.26 0 -15.61c0,-61.71 50.51,-112.32 112.32,-112.32 61.71,0 112.23,50.51 112.23,112.32l0 31.87 -42.44 0 0 -20.3c0,-38.48 -31.4,-69.88 -69.81,-69.88 -38.47,0 -69.88,31.5 -69.88,69.88l0 4.04 1.27 0 0 131.32c19.02,-14.79 42.81,-23.6 68.6,-23.6 61.71,0 112.23,50.6 112.23,112.32l0 69.07c0,61.71 -50.52,112.23 -112.23,112.23l0.02 0zm0 -57.95l0 0c38.4,0 69.81,-31.4 69.81,-69.8l0 -41.97c0,-38.4 -31.4,-69.8 -69.81,-69.8 -38.47,0 -69.88,31.4 -69.88,69.8l0 41.97c0,38.29 31.4,69.8 69.88,69.8z"/>
   <path class="fil2" d="M3203.04 4361.56c61.81,0 112.32,50.52 112.32,112.32l0 68.97c0,2.39 -0.1,4.69 -0.18,6.98l0.18 0 0 196.8 0 16.26 0 15.61c0,61.71 -50.52,112.32 -112.32,112.32 -61.71,0 -112.22,-50.51 -112.22,-112.32l0 -31.87 42.44 0 0 20.38c0,38.29 31.4,69.8 69.8,69.8 38.38,0 69.89,-31.5 69.89,-69.8l0 -4.14 -1.28 0 0 -131.32c-19.02,14.79 -42.79,23.6 -68.6,23.6 -61.71,0 -112.22,-50.51 -112.22,-112.32l0 -68.97c0,-61.81 50.51,-112.32 112.22,-112.32l-0.02 0.02zm0 57.95l0 0c-38.38,0 -69.8,31.5 -69.8,69.88l0 41.88c0,38.48 31.4,69.8 69.8,69.8 38.38,0 69.89,-31.4 69.89,-69.8l0 -41.88c0,-38.38 -31.51,-69.88 -69.89,-69.88z"/>
  </g>
  <g id="_2335186736736">
   <path class="fil0 str1" d="M1906.88 3294.91l3162.41 0c89.91,0 163.57,73.56 163.57,163.57l0 4885.27c0,90.01 -73.66,163.57 -163.57,163.57l-3162.41 0c-90.01,0 -163.57,-73.56 -163.57,-163.57l0 -4885.27c0,-90.01 73.56,-163.57 163.57,-163.57z"/>
   <path class="fil1" d="M2251 4428.75c-7.44,-21.86 -155.56,-237.03 -171.45,-260.08l0 -2.11c0,0 -0.27,0.46 -0.74,1.1 -0.37,-0.64 -0.64,-1.1 -0.74,-1.1l0 2.11c-15.79,23.06 -164.01,238.22 -171.37,260.08 -7.81,23.13 -11.68,67.51 11.21,92.84 22.79,25.43 48.2,40.58 65.95,40.58 8.08,0 21.49,0.91 37.18,-5.61 17.92,-11.21 36.18,-33.9 38.04,-80.09 0,0 3.21,78.97 -27.2,124.89 -1.93,3.57 -3.96,6.88 -6.17,9.55 0,0 41.32,-3.5 53.07,-3.4 11.75,-0.1 53.1,3.4 53.1,3.4 -2.21,-2.67 -4.14,-5.97 -6.07,-9.55 -30.4,-45.92 -27.2,-124.89 -27.2,-124.89 1.83,46.19 20.02,68.88 38.01,80.09 15.62,6.51 29.1,5.61 37.18,5.61 17.72,0 43.08,-15.15 65.95,-40.58 22.86,-25.36 19.02,-69.71 11.21,-92.84l0.02 0z"/>
   <path class="fil1" d="M4755.04 7378.18c7.34,21.86 155.59,237.13 171.37,260.18l0 2.03c0.08,0 0.37,-0.37 0.81,-1 0.37,0.64 0.64,1 0.74,1l0 -2.03c15.79,-23.06 163.93,-238.32 171.37,-260.18 7.81,-23.06 11.58,-67.51 -11.21,-92.84 -22.86,-25.33 -48.22,-40.49 -65.95,-40.49 -8.08,0 -21.59,-0.91 -37.3,5.51 -17.92,11.21 -36.08,33.97 -37.91,80.09 0,0 -3.21,-78.89 27.17,-124.82 1.93,-3.57 3.87,-6.88 6.17,-9.65 0,0 -41.34,3.5 -53.1,3.4 -11.84,0.1 -53.17,-3.4 -53.17,-3.4 2.21,2.77 4.24,6.07 6.15,9.65 30.4,45.92 27.2,124.82 27.2,124.82 -1.83,-46.09 -20.12,-68.88 -38.01,-80.09 -15.72,-6.41 -29.13,-5.51 -37.18,-5.51 -17.72,0 -43.08,15.15 -65.95,40.49 -22.86,25.36 -19.02,69.79 -11.21,92.84l0.02 0z"/>
   <path class="fil1" d="M3052.3 5969.76c-12.78,-37.84 -268.99,-409.96 -296.36,-449.82l0 -3.67c-0.1,0.1 -0.56,0.83 -1.37,1.93 -0.64,-1.1 -1.2,-1.83 -1.2,-1.93l0 3.67c-27.46,39.85 -283.68,411.97 -296.46,449.82 -13.51,39.95 -20.12,116.64 19.39,160.53 39.48,43.89 83.3,70.25 114.07,70.25 13.88,0 37.18,1.47 64.38,-9.74 30.94,-19.29 62.45,-58.6 65.68,-138.5 0,0 5.61,136.56 -47.03,215.9 -3.3,6.15 -6.78,11.94 -10.55,16.62 0,0 71.45,-6.07 91.75,-5.87 20.39,-0.17 91.94,5.87 91.94,5.87 -3.87,-4.68 -7.34,-10.48 -10.67,-16.62 -52.53,-79.33 -47.03,-215.9 -47.03,-215.9 3.23,79.9 34.71,119.21 65.77,138.5 27.1,11.21 50.4,9.74 64.28,9.74 30.77,0 74.66,-26.37 114.04,-70.25 39.48,-43.92 32.88,-120.58 19.39,-160.53l-0.02 0z"/>
   <path class="fil1" d="M4534 5997.22c-12.78,-37.84 -268.99,-409.96 -296.36,-449.82l0 -3.67c-0.1,0.1 -0.56,0.74 -1.3,1.83 -0.74,-1.1 -1.27,-1.74 -1.27,-1.83l0 3.67c-27.46,39.85 -283.68,411.97 -296.46,449.82 -13.51,39.95 -20.12,116.64 19.39,160.53 39.48,43.82 83.3,70.15 114.07,70.15 13.85,0 37.18,1.57 64.38,-9.65 30.97,-19.39 62.45,-58.6 65.68,-138.5 0,0 5.51,136.47 -47.03,215.83 -3.3,6.24 -6.78,11.94 -10.55,16.72 0,0 71.45,-6.07 91.84,-5.87 20.29,-0.2 91.75,5.87 91.75,5.87 -3.77,-4.77 -7.24,-10.48 -10.55,-16.72 -52.53,-79.36 -46.93,-215.83 -46.93,-215.83 3.13,79.9 34.64,119.11 65.58,138.5 27.2,11.21 50.53,9.65 64.38,9.65 30.77,0 74.66,-26.37 114.07,-70.15 39.48,-43.89 32.88,-120.58 19.39,-160.53l-0.07 0z"/>
   <path class="fil1" d="M4520.32 4361.8c-12.88,-37.84 -268.99,-409.96 -296.46,-449.82l0 -3.57c0,0 -0.56,0.74 -1.27,1.83 -0.74,-1.1 -1.2,-1.83 -1.3,-1.83l0 3.57c-27.37,39.85 -283.58,411.97 -296.46,449.82 -13.49,39.95 -20.02,116.74 19.46,160.63 39.41,43.82 83.3,70.15 113.97,70.15 13.95,0 37.18,1.47 64.38,-9.65 31.04,-19.46 62.54,-58.67 65.65,-138.57 0,0 5.61,136.56 -47.03,215.92 -3.3,6.15 -6.71,11.94 -10.55,16.62 0,0 71.53,-6.07 91.84,-5.87 20.29,-0.2 91.82,5.87 91.82,5.87 -3.87,-4.68 -7.24,-10.48 -10.55,-16.62 -52.6,-79.36 -47.03,-215.92 -47.03,-215.92 3.13,79.9 34.71,119.11 65.68,138.57 27.17,11.11 50.5,9.65 64.38,9.65 30.77,0 74.56,-26.37 114.07,-70.15 39.48,-43.89 32.88,-120.68 19.39,-160.63l0.02 0z"/>
   <path class="fil1" d="M3066.06 4361.8c-12.85,-37.84 -269.09,-409.96 -296.46,-449.82l0 -3.57c-0.1,0 -0.56,0.74 -1.3,1.83 -0.74,-1.1 -1.2,-1.83 -1.3,-1.83l0 3.57c-27.37,39.85 -283.58,411.97 -296.46,449.82 -13.51,39.95 -20.12,116.74 19.39,160.63 39.48,43.82 83.4,70.15 114.07,70.15 13.95,0 37.18,1.47 64.38,-9.65 31.04,-19.46 62.54,-58.67 65.68,-138.57 0,0 5.61,136.56 -47.03,215.92 -3.3,6.15 -6.71,11.94 -10.55,16.62 0,0 71.55,-6.07 91.84,-5.87 20.29,-0.2 91.84,5.87 91.84,5.87 -3.87,-4.68 -7.24,-10.48 -10.55,-16.62 -52.63,-79.36 -47.03,-215.92 -47.03,-215.92 3.13,79.9 34.61,119.11 65.65,138.57 27.2,11.11 50.53,9.65 64.38,9.65 30.67,0 74.59,-26.37 113.97,-70.15 39.48,-43.89 32.97,-120.68 19.46,-160.63l0.02 0z"/>
   <path class="fil1" d="M2456.92 7444.02c12.78,37.84 268.99,409.96 296.46,449.82l0 3.67c0,-0.1 0.56,-0.74 1.3,-1.83 0.64,1.1 1.2,1.74 1.2,1.83l0 -3.67c27.46,-39.85 283.68,-411.97 296.53,-449.82 13.41,-39.95 20.02,-116.64 -19.46,-160.53 -39.48,-43.82 -83.3,-70.15 -114.04,-70.15 -13.88,0 -37.18,-1.57 -64.38,9.65 -30.94,19.39 -62.45,58.6 -65.68,138.5 0,0 -5.51,-136.47 47.03,-215.9 3.3,-6.17 6.81,-11.84 10.67,-16.62 0,0 -71.55,6.07 -91.84,5.87 -20.39,0.2 -91.84,-5.87 -91.84,-5.87 3.77,4.77 7.24,10.48 10.55,16.62 52.53,79.43 47.03,215.9 47.03,215.9 -3.13,-79.9 -34.71,-119.11 -65.68,-138.5 -27.2,-11.21 -50.5,-9.65 -64.38,-9.65 -30.77,0 -74.59,26.37 -114.07,70.15 -39.48,43.89 -32.88,120.58 -19.39,160.53l-0.01 0z"/>
   <path class="fil1" d="M3938.62 7444.02c12.78,37.84 268.99,409.96 296.46,449.82l0 3.67c0,-0.1 0.56,-0.74 1.27,-1.83 0.64,1.1 1.2,1.74 1.2,1.83l0 -3.67c27.46,-39.85 283.68,-411.97 296.46,-449.82 13.49,-39.95 20.12,-116.64 -19.39,-160.53 -39.51,-43.82 -83.3,-70.15 -114.07,-70.15 -13.85,0 -37.18,-1.57 -64.38,9.65 -30.94,19.39 -62.45,58.6 -65.68,138.5 0,0 -5.61,-136.47 47.03,-215.9 3.3,-6.17 6.81,-11.84 10.55,-16.62 0,0 -71.45,6.07 -91.75,5.87 -20.39,0.2 -91.84,-5.87 -91.84,-5.87 3.77,4.77 7.24,10.48 10.55,16.62 52.53,79.43 47.03,215.9 47.03,215.9 -3.21,-79.9 -34.71,-119.11 -65.75,-138.5 -27.07,-11.21 -50.43,-9.65 -64.28,-9.65 -30.77,0 -74.59,26.37 -114.07,70.15 -39.48,43.89 -32.88,120.58 -19.39,160.53l0.04 0z"/>
   <path class="fil2" d="M2079.36 4133.2c-61.81,0 -112.31,-50.53 -112.31,-112.23l0 -69.06c0,-2.37 0.08,-4.68 0.17,-7.07l-0.17 0 0 -196.71 0 -16.26 0 -15.62c0,-61.71 50.5,-112.31 112.31,-112.31 61.71,0 112.21,50.5 112.21,112.31l0 31.87 -42.42 0 0 -20.39c0,-38.38 -31.5,-69.79 -69.79,-69.79 -38.48,0 -69.89,31.5 -69.89,69.79l0 4.14 1.3 0 0 131.33c19.02,-14.79 42.79,-23.6 68.61,-23.6 61.71,0 112.21,50.59 112.21,112.31l0 69.06c0,61.71 -50.5,112.23 -112.21,112.23l-0.03 -0.01zm0 -57.97l0 0c38.31,0 69.79,-31.5 69.79,-69.89l0 -41.88c0,-38.38 -31.5,-69.89 -69.79,-69.89 -38.48,0 -69.89,31.5 -69.89,69.89l0 41.88c0,38.38 31.41,69.89 69.89,69.89z"/>
   <path class="fil2" d="M4960.57 7670.69c61.81,0 112.31,50.53 112.31,112.33l0 68.98c0,2.37 -0.1,4.68 -0.27,6.98l0.27 0 0 196.81 0 16.26 0 15.62c0,61.71 -50.5,112.33 -112.31,112.33 -61.71,0 -112.31,-50.53 -112.31,-112.33l0 -31.87 42.52 0 0 20.39c0,38.31 31.41,69.79 69.79,69.79 38.38,0 69.79,-31.5 69.79,-69.79l0 -4.14 -1.3 0 0 -131.33c-19.02,14.79 -42.71,23.6 -68.52,23.6 -61.71,0 -112.31,-50.59 -112.31,-112.31l0 -68.98c0,-61.81 50.59,-112.33 112.31,-112.33l0.03 0.01zm0 57.94l0 0c-38.38,0 -69.79,31.5 -69.79,69.89l0 41.88c0,38.48 31.41,69.79 69.79,69.79 38.38,0 69.79,-31.41 69.79,-69.79l0 -41.88c0,-38.38 -31.41,-69.89 -69.79,-69.89z"/>
  </g>
 </g>
</svg>
