<?xml version="1.0" encoding="UTF-8"?>
<!DOCTYPE svg PUBLIC "-//W3C//DTD SVG 1.1//EN" "http://www.w3.org/Graphics/SVG/1.1/DTD/svg11.dtd">
<!-- Creator: CorelDRAW -->
<svg xmlns="http://www.w3.org/2000/svg" xml:space="preserve" width="60.2046mm" height="89.893mm" version="1.1" style="shape-rendering:geometricPrecision; text-rendering:geometricPrecision; image-rendering:optimizeQuality; fill-rule:evenodd; clip-rule:evenodd"
viewBox="0 0 1427.37 2131.23"
 xmlns:xlink="http://www.w3.org/1999/xlink"
 xmlns:xodm="http://www.corel.com/coreldraw/odm/2003">
 <defs>
  <style type="text/css">
   <![CDATA[
    .str0 {stroke:#1F1A17;stroke-width:1.81;stroke-miterlimit:22.9256}
    .fil1 {fill:#171717}
    .fil2 {fill:#1F1A17}
    .fil0 {fill:white}
   ]]>
  </style>
 </defs>
 <g id="Слой_x0020_1">
  <metadata id="CorelCorpID_0Corel-Layer"/>
  <path class="fil0 str0" d="M67.72 0.9l1291.92 0c36.73,0 66.82,30.09 66.82,66.82l0 1995.79c0,36.73 -30.09,66.82 -66.82,66.82l-1291.92 0c-36.77,0 -66.82,-30.09 -66.82,-66.82l0 -1995.79c0,-36.73 30.05,-66.82 66.82,-66.82z"/>
  <path class="fil1" d="M208.3 464.13c-3.04,-8.93 -63.55,-96.87 -70.04,-106.29l0 -0.86c0,0 -0.11,0.19 -0.3,0.45 -0.15,-0.26 -0.26,-0.45 -0.3,-0.45l0 0.86c-6.45,9.42 -67,97.36 -70.01,106.29 -3.19,9.42 -4.77,27.58 4.58,37.93 9.31,10.35 19.69,16.54 26.94,16.54 3.3,0 8.78,0.38 15.19,-2.25 7.32,-4.58 14.78,-13.88 15.54,-32.72 0,0 1.31,32.23 -11.11,50.99 -0.79,1.47 -1.62,2.81 -2.52,3.94 0,0 16.88,-1.42 21.68,-1.39 4.8,-0.04 21.69,1.39 21.69,1.39 -0.9,-1.13 -1.69,-2.48 -2.48,-3.94 -12.42,-18.76 -11.11,-50.99 -11.11,-50.99 0.75,18.83 8.18,28.14 15.53,32.72 6.38,2.63 11.89,2.25 15.19,2.25 7.24,0 17.6,-6.19 26.94,-16.54 9.34,-10.36 7.77,-28.51 4.58,-37.93z"/>
  <path class="fil1" d="M1231.26 1669.05c3,8.93 63.56,96.83 70.01,106.25l0 0.86c0.03,0 0.15,-0.19 0.33,-0.45 0.15,0.26 0.26,0.45 0.3,0.45l0 -0.86c6.45,-9.42 66.97,-97.32 70.01,-106.25 3.19,-9.45 4.73,-27.58 -4.58,-37.93 -9.34,-10.36 -19.7,-16.58 -26.94,-16.58 -3.3,0 -8.82,-0.37 -15.24,2.25 -7.32,4.61 -14.74,13.88 -15.49,32.75 0,0 -1.31,-32.27 11.1,-51.03 0.79,-1.42 1.58,-2.81 2.52,-3.9 0,0 -16.89,1.43 -21.69,1.35 -4.84,0.08 -21.72,-1.35 -21.72,-1.35 0.9,1.09 1.73,2.48 2.51,3.9 12.42,18.76 11.11,51.03 11.11,51.03 -0.75,-18.87 -8.22,-28.14 -15.53,-32.75 -6.42,-2.63 -11.9,-2.25 -15.19,-2.25 -7.24,0 -17.6,6.23 -26.94,16.58 -9.34,10.35 -7.77,28.47 -4.58,37.93z"/>
  <path class="fil1" d="M900.47 1707.02c5.25,15.46 109.93,167.48 121.11,183.76l0 1.5c0.04,-0.04 0.23,-0.34 0.53,-0.75 0.3,0.41 0.49,0.71 0.53,0.75l0 -1.5c11.22,-16.28 115.89,-168.3 121.11,-183.76 5.52,-16.32 8.18,-47.69 -7.92,-65.58 -16.13,-17.93 -34.07,-28.66 -46.6,-28.66 -5.7,0 -15.19,-0.64 -26.3,3.94 -12.64,7.92 -25.55,23.94 -26.83,56.58 0,0 -2.29,-55.79 19.21,-88.2 1.35,-2.51 2.74,-4.88 4.31,-6.79 0,0 -29.19,2.48 -37.52,2.4 -8.29,0.07 -37.52,-2.4 -37.52,-2.4 1.58,1.91 2.96,4.28 4.31,6.79 21.5,32.41 19.21,88.2 19.21,88.2 -1.28,-32.64 -14.14,-48.66 -26.83,-56.58 -11.07,-4.58 -20.59,-3.94 -26.26,-3.94 -12.57,0 -30.5,10.73 -46.59,28.66 -16.13,17.9 -13.47,49.26 -7.95,65.58z"/>
  <path class="fil1" d="M541.27 436.75c-5.25,-15.42 -109.93,-167.48 -121.11,-183.72l0 -1.5c-0.04,0.04 -0.23,0.3 -0.53,0.75 -0.3,-0.45 -0.49,-0.71 -0.53,-0.75l0 1.5c-11.18,16.25 -115.85,168.3 -121.11,183.72 -5.52,16.32 -8.22,47.69 7.92,65.62 16.13,17.9 34.07,28.66 46.6,28.66 5.7,0 15.19,0.6 26.3,-3.94 12.68,-7.92 25.55,-23.94 26.83,-56.58 0,0 2.29,55.75 -19.21,88.17 -1.35,2.55 -2.74,4.88 -4.31,6.83 0,0 29.23,-2.48 37.52,-2.4 8.29,-0.07 37.52,2.4 37.52,2.4 -1.58,-1.95 -2.96,-4.28 -4.31,-6.83 -21.5,-32.41 -19.21,-88.17 -19.21,-88.17 1.28,32.64 14.14,48.66 26.82,56.58 11.11,4.54 20.64,3.94 26.3,3.94 12.53,0 30.47,-10.77 46.56,-28.66 16.13,-17.93 13.47,-49.3 7.95,-65.62z"/>
  <path class="fil2" d="M136.91 127.19c-25.25,0 -45.89,20.67 -45.89,45.89l0 0.07 18.08 0c2.89,-12.68 14.25,-22.25 27.8,-22.25 15.68,0 28.51,12.83 28.51,28.51 0,8.1 -2.29,12.01 -5.81,19.36l-68.58 142.76 7.65 0.04 1.54 0.83 0.45 -0.83 64.19 0.38 17.9 0 0.04 0 0 -21.84 -0.04 0 0 -25.62 -17.9 0 0 25.62 -40.26 0 -0.11 0.07 -2.7 0.38 53.88 -110.23c7.13,-14.59 8.7,-24.12 7.54,-37.25 -0.37,-4.65 -1.13,-9.23 -2.48,-13.51l-0.04 -0.64 -0.11 0.19c-5.93,-18.46 -23.3,-31.93 -43.67,-31.93z"/>
  <path class="fil2" d="M1310.46 2103.65c25.25,0 45.88,-20.63 45.88,-45.85l0 -0.08 -18.05 0c-2.89,12.68 -14.29,22.25 -27.83,22.25 -15.68,0 -28.51,-12.83 -28.51,-28.51 0,-8.11 2.25,-12.01 5.82,-19.36l68.58 -142.75 -7.66 -0.04 -1.54 -0.83 -0.45 0.83 -64.19 -0.37 -17.9 0 -0.04 0 0 21.84 0.04 0 0 25.62 17.9 0 0 -25.62 40.3 0 0.08 -0.08 2.7 -0.37 -53.87 110.23c-7.13,14.59 -8.7,24.12 -7.58,37.26 0.41,4.65 1.16,9.23 2.52,13.54l0.04 0.64 0.11 -0.23c5.92,18.46 23.3,31.89 43.67,31.89z"/>
 </g>
</svg>
