<?xml version="1.0" encoding="UTF-8"?>
<!DOCTYPE svg PUBLIC "-//W3C//DTD SVG 1.1//EN" "http://www.w3.org/Graphics/SVG/1.1/DTD/svg11.dtd">
<!-- Creator: CorelDRAW -->
<svg xmlns="http://www.w3.org/2000/svg" xml:space="preserve" width="60.2046mm" height="89.8929mm" version="1.1" style="shape-rendering:geometricPrecision; text-rendering:geometricPrecision; image-rendering:optimizeQuality; fill-rule:evenodd; clip-rule:evenodd"
viewBox="0 0 2913.89 4350.8"
 xmlns:xlink="http://www.w3.org/1999/xlink"
 xmlns:xodm="http://www.corel.com/coreldraw/odm/2003">
 <defs>
  <style type="text/css">
   <![CDATA[
    .str0 {stroke:#1F1A17;stroke-width:3.69;stroke-miterlimit:22.9256}
    .fil2 {fill:#171717}
    .fil3 {fill:#1F1A17}
    .fil1 {fill:#B32520}
    .fil0 {fill:white}
   ]]>
  </style>
 </defs>
 <g id="Слой_x0020_1">
  <metadata id="CorelCorpID_0Corel-Layer"/>
  <path class="fil0 str0" d="M138.25 1.84l2637.4 0c75.05,0 136.4,61.42 136.4,136.48l0 4074.22c0,75.06 -61.35,136.41 -136.4,136.41l-2637.4 0c-74.98,0 -136.41,-61.35 -136.41,-136.41l0 -4074.22c0,-75.06 61.43,-136.48 136.41,-136.48z"/>
  <path class="fil1" d="M417.97 809.26c-19.22,-21.3 -40.53,-34.08 -55.46,-34.08 -14.55,0 -50.02,-3.52 -80.03,57.82 -29.88,-60.2 -64.95,-56.75 -79.43,-56.75 -14.93,0 -36.23,12.79 -55.45,34.08 -19.22,21.37 -16.01,58.75 -9.42,78.12 6.5,19.46 143.75,219.66 143.75,219.66 0,0 138.94,-201.28 145.45,-220.73 6.59,-19.38 9.81,-56.75 -9.41,-78.12z"/>
  <path class="fil1" d="M2536.76 3559.23c19.22,21.29 40.59,34.16 55.53,34.16 14.47,0 50.01,3.52 79.96,-57.83 29.87,60.12 65.03,56.75 79.43,56.75 14.93,0 36.3,-12.86 55.52,-34.16 19.14,-21.37 16.01,-58.74 9.42,-78.12 -6.59,-19.45 -143.77,-219.66 -143.77,-219.66 0,0 -138.93,201.28 -145.51,220.73 -6.52,19.37 -9.73,56.75 9.42,78.12z"/>
  <path class="fil1" d="M1129.02 565.62c-36.53,-40.59 -77.05,-64.87 -105.46,-64.87 -27.57,0 -94.97,-6.66 -151.95,109.83 -56.75,-114.35 -123.55,-107.84 -150.96,-107.84 -28.41,0 -68.93,24.35 -105.46,64.87 -36.45,40.59 -30.41,111.52 -17.92,148.51 12.49,36.91 273.2,417.26 273.2,417.26 0,0 264,-382.42 276.49,-419.33 12.48,-36.92 18.53,-107.84 -17.93,-148.43z"/>
  <path class="fil1" d="M1716.24 1899.21c-36.53,-40.59 -77.05,-64.87 -105.46,-64.87 -27.57,0 -94.97,-6.66 -151.95,109.83 -56.75,-114.35 -123.46,-107.84 -150.96,-107.84 -28.34,0 -68.93,24.36 -105.47,64.88 -36.45,40.59 -30.4,111.51 -17.92,148.51 12.56,36.91 273.19,417.26 273.19,417.26 0,0 264.01,-382.41 276.5,-419.33 12.48,-36.91 18.6,-107.91 -17.93,-148.43z"/>
  <path class="fil1" d="M2316.86 3305.26c-36.53,-40.59 -77.13,-64.95 -105.46,-64.95 -27.57,0 -94.97,-6.66 -152.03,109.91 -56.68,-114.35 -123.46,-107.84 -150.89,-107.84 -28.41,0 -68.93,24.35 -105.46,64.87 -36.45,40.59 -30.41,111.52 -17.92,148.51 12.48,36.91 273.19,417.26 273.19,417.26 0,0 264.01,-382.42 276.49,-419.33 12.49,-36.92 18.54,-107.92 -17.92,-148.43z"/>
  <path class="fil1" d="M357.99 460.23c26.12,18.23 43.35,48.56 43.35,82.72l0 45.34c0,55.37 -45.34,100.72 -100.8,100.72 -55.37,0 -100.72,-45.34 -100.72,-100.72l0 -8.96 38.14 0c0.76,33.77 28.65,61.19 62.58,61.19 34.47,0 62.65,-28.18 62.65,-62.57l0 -21.14c0,-34.39 -28.18,-62.58 -62.65,-62.58 -1.76,0 -3.6,0.08 -5.36,0.23l0 -59.74c1.76,0.15 3.6,0.23 5.36,0.23 32.02,0 58.28,-26.27 58.28,-58.21l0 -19.61c0,-32.02 -26.27,-58.21 -58.28,-58.21 -32.02,0 -58.21,26.19 -58.21,58.21l0 0.07 -35.46 0 0 -13.02c0,-51.55 42.2,-93.67 93.67,-93.67 51.55,0 93.67,42.12 93.67,93.67l0 42.13c0,29.94 -14.24,56.68 -36.22,73.91z"/>
  <path class="fil1" d="M2625.98 3852.5c-26.12,-18.23 -43.35,-48.56 -43.35,-82.64l0 -45.42c0,-55.37 45.34,-100.72 100.72,-100.72 55.45,0 100.79,45.34 100.79,100.72l0 9.04 -38.14 0c-0.77,-33.86 -28.64,-61.27 -62.65,-61.27 -34.39,0 -62.58,28.18 -62.58,62.65l0 21.06c0,34.39 28.19,62.58 62.58,62.58 1.84,0 3.67,-0.08 5.44,-0.23l0 59.82c-1.77,-0.23 -3.6,-0.3 -5.44,-0.3 -32.02,0 -58.22,26.27 -58.22,58.28l0 19.53c0,32.01 26.2,58.28 58.22,58.28 32.09,0 58.28,-26.27 58.28,-58.28l35.39 0 0 12.94c0,51.55 -42.12,93.67 -93.67,93.67 -51.47,0 -93.67,-42.12 -93.67,-93.67l0 -42.12c0,-29.95 14.32,-56.68 36.3,-73.91z"/>
  <path class="fil0 str0" d="M138.25 1.84l2637.4 0c75.05,0 136.4,61.42 136.4,136.48l0 4074.22c0,75.06 -61.35,136.41 -136.4,136.41l-2637.4 0c-74.98,0 -136.41,-61.35 -136.41,-136.41l0 -4074.22c0,-75.06 61.43,-136.48 136.41,-136.48z"/>
  <path class="fil2" d="M200.53 818.98c4.98,-34.54 20.99,-49.55 45.42,-57.9 44.5,-15.32 100.1,9.57 110.67,49.17 9.26,35.08 -10.18,58.83 -32.78,90.15 25.12,-7.51 34.84,-21.83 65.56,-16.39 27.27,4.9 46.03,35 49.17,49.17 12.03,54.07 -25.12,103.32 -69.7,102.48 -19.99,-0.38 -27.57,-8.81 -36.83,-16.39 -18.54,-15.09 -22.44,-27.81 -36.92,-45.11 -6.35,9.04 -1.83,20.07 0,28.72 2.38,11.26 9.04,19.38 12.34,28.64 3.67,10.42 4.44,22.98 8.19,32.86 3.22,8.43 16.16,15.55 8.19,24.59 -28.73,-2.68 -68.24,5.36 -90.23,-4.14 8.51,-32.47 33.86,-70 20.53,-110.67 -7.58,65.71 -87.85,74.37 -120.48,34.39 -23.66,-28.95 -33.47,-115.19 46.73,-124.54 15.32,-1.76 30.33,7.28 45.03,12.33 -7.66,-25.12 -24.97,-36.3 -24.89,-69.16 0,-2.76 0,-5.52 0,-8.2z"/>
  <path class="fil2" d="M2748.45 3521.47c-5.06,34.47 -20.99,49.56 -45.42,57.91 -44.58,15.24 -100.17,-9.57 -110.67,-49.17 -9.35,-35.08 10.18,-58.82 32.78,-90.22 -25.2,7.58 -34.84,21.91 -65.56,16.47 -27.26,-4.9 -46.03,-35 -49.24,-49.17 -11.95,-54.07 25.2,-103.32 69.7,-102.48 20.07,0.38 27.57,8.81 36.91,16.39 18.46,15.09 22.45,27.81 36.92,45.04 6.36,-8.96 1.77,-20.07 0,-28.64 -2.38,-11.34 -9.04,-19.46 -12.33,-28.72 -3.68,-10.34 -4.44,-22.98 -8.19,-32.78 -3.22,-8.43 -16.24,-15.55 -8.2,-24.59 28.73,2.68 68.25,-5.44 90.15,4.14 -8.43,32.47 -33.78,69.92 -20.45,110.59 7.51,-65.64 87.85,-74.37 120.48,-34.39 23.67,29.03 33.39,115.27 -46.72,124.61 -15.31,1.76 -30.33,-7.27 -45.11,-12.33 7.73,25.12 25.05,36.3 24.97,69.16 0,2.76 0,5.52 0,8.19z"/>
  <path class="fil2" d="M688.86 627.05c9.73,-67.55 41.05,-96.96 88.92,-113.35 87.24,-29.87 196.07,18.76 216.76,96.27 18.22,68.78 -20.07,115.19 -64.27,176.62 49.32,-14.78 68.24,-42.89 128.44,-32.17 53.31,9.65 90.08,68.55 96.28,96.35 23.51,105.92 -49.25,202.27 -136.48,200.67 -39.15,-0.69 -53.92,-17.24 -72.23,-32.09 -36.15,-29.56 -43.88,-54.53 -72.15,-88.31 -12.56,17.61 -3.6,39.36 0,56.22 4.53,22.13 17.62,37.99 24.05,56.14 7.2,20.3 8.73,45.04 16.01,64.26 6.35,16.54 31.78,30.48 16.08,48.1 -56.29,-5.21 -133.65,10.64 -176.54,-7.97 16.62,-63.65 66.18,-137.1 40.13,-216.75 -14.86,128.67 -172.02,145.67 -235.98,67.32 -46.34,-56.75 -65.48,-225.63 91.45,-243.94 30.03,-3.45 59.52,14.33 88.31,24.13 -15.08,-49.09 -49.01,-71 -48.78,-135.41 0,-5.36 0,-10.72 0,-16.08z"/>
  <path class="fil2" d="M2231.31 3773.92c-9.65,67.55 -40.98,96.96 -88.84,113.43 -87.24,29.87 -196.15,-18.76 -216.75,-96.35 -18.23,-68.78 19.99,-115.19 64.26,-176.54 -49.32,14.71 -68.24,42.81 -128.44,32.09 -53.38,-9.57 -90.14,-68.47 -96.35,-96.35 -23.51,-105.93 49.33,-202.28 136.48,-200.67 39.22,0.77 54,17.31 72.23,32.09 36.23,29.56 43.88,54.53 72.22,88.31 12.56,-17.61 3.53,-39.29 0,-56.22 -4.59,-22.06 -17.62,-37.91 -24.05,-56.14 -7.2,-20.22 -8.74,-45.04 -16.09,-64.26 -6.28,-16.54 -31.7,-30.4 -16.01,-48.1 56.22,5.29 133.65,-10.57 176.54,8.04 -16.7,63.65 -66.17,137.02 -40.14,216.67 14.86,-128.67 172.03,-145.6 235.98,-67.32 46.33,56.75 65.49,225.71 -91.53,243.94 -30.02,3.45 -59.43,-14.32 -88.23,-24.13 15.1,49.17 48.94,71 48.71,135.49 0,5.36 0,10.72 0,16.01z"/>
  <path class="fil3" d="M279.49 268.3c-51.47,0 -93.67,42.2 -93.67,93.67l0 0.15 36.92 0c5.89,-25.96 29.18,-45.42 56.75,-45.42 32.09,0 58.21,26.19 58.21,58.21 0,16.54 -4.6,24.43 -11.8,39.44l-140.08 291.43 15.62 0.08 3.15 1.76 0.91 -1.69 131.12 0.77 36.45 0 0.08 0 0 -44.65 -0.08 0 0 -52.31 -36.45 0 0 52.31 -82.27 0 -0.15 0.15 -5.59 0.76 109.99 -224.95c14.62,-29.87 17.77,-49.32 15.46,-76.05 -0.84,-9.58 -2.37,-18.92 -5.13,-27.65l-0.08 -1.3 -0.23 0.38c-12.1,-37.68 -47.56,-65.1 -89.15,-65.1z"/>
  <path class="fil3" d="M2683.88 4062.89c51.47,0 93.6,-42.2 93.6,-93.67l0 -0.15 -36.84 0c-5.9,25.89 -29.18,45.42 -56.83,45.42 -31.94,0 -58.21,-26.19 -58.21,-58.21 0,-16.54 4.68,-24.51 11.87,-39.52l140.01 -291.35 -15.55 -0.08 -3.14 -1.76 -0.91 1.69 -131.12 -0.77 -36.45 0 -0.08 0 0 44.65 0.08 0 0 52.23 36.45 0 0 -52.23 82.26 0 0.16 -0.15 5.59 -0.84 -110.07 225.03c-14.55,29.87 -17.69,49.32 -15.39,76.06 0.76,9.57 2.37,18.91 5.05,27.65l0.08 1.3 0.23 -0.38c12.18,37.68 47.64,65.1 89.23,65.1z"/>
 </g>
</svg>
