<?xml version="1.0" encoding="UTF-8"?>
<!DOCTYPE svg PUBLIC "-//W3C//DTD SVG 1.1//EN" "http://www.w3.org/Graphics/SVG/1.1/DTD/svg11.dtd">
<!-- Creator: CorelDRAW -->
<svg xmlns="http://www.w3.org/2000/svg" xml:space="preserve" width="60.203mm" height="89.893mm" version="1.1" style="shape-rendering:geometricPrecision; text-rendering:geometricPrecision; image-rendering:optimizeQuality; fill-rule:evenodd; clip-rule:evenodd"
viewBox="0 0 70256.67 104904.79"
 xmlns:xlink="http://www.w3.org/1999/xlink"
 xmlns:xodm="http://www.corel.com/coreldraw/odm/2003">
 <defs>
  <style type="text/css">
   <![CDATA[
    .str0 {stroke:#1F1A17;stroke-width:88.93;stroke-miterlimit:22.9256}
    .fil1 {fill:#B32520}
    .fil0 {fill:white}
   ]]>
  </style>
 </defs>
 <g id="Слой_x0020_1">
  <metadata id="CorelCorpID_0Corel-Layer"/>
  <path class="fil0 str0" d="M3333.41 44.46l63591.49 0c1808.03,0 3287.31,1481.03 3287.31,3290.81l0 98235.99c0,1807.91 -1479.28,3289.06 -3287.31,3289.06l-63591.49 0c-1809.78,0 -3288.95,-1481.15 -3288.95,-3289.06l0 -98235.99c0,-1809.78 1479.17,-3290.81 3288.95,-3290.81z"/>
  <path class="fil1" d="M20862.39 11680.58c0,0 -1623.29,6195.7 -5894.61,8481.96 0,0 5113.43,3248.33 5955.65,8121.83 0,0 1623.29,-6016.57 6016.57,-8180.88 0,0 -4393.27,-2347.18 -6077.6,-8422.91z"/>
  <path class="fil1" d="M49997.97 77233.44c0,0 -1625.16,6195.7 -5896.6,8481.96 0,0 5115.41,3248.33 5955.77,8121.83 0,0 1625.04,-6016.57 6016.68,-8180.99 0,0 -4391.64,-2347.18 -6075.85,-8422.8z"/>
  <path class="fil1" d="M7137.58 17639.96c0,0 -943.63,3601.12 -3427.35,4930.68 0,0 2973.04,1887.38 3462.48,4720.27 0,0 943.63,-3495.85 3495.74,-4755.39 0,0 -2552.1,-1364.69 -3530.86,-4895.55z"/>
  <path class="fil1" d="M64413.52 76570.47c0,0 -943.63,3602.87 -3425.6,4930.68 0,0 2971.29,1889.25 3460.61,4722.13 0,0 943.63,-3497.72 3497.6,-4757.14 0,0 -2553.97,-1362.93 -3532.61,-4895.67z"/>
  <path class="fil1" d="M6738.7 6469.13c-1242.85,0 -2258.49,1015.75 -2258.49,2258.6l0 1.75 888.2 0c142.26,-622.24 703.58,-1093.24 1370.29,-1093.24 771.97,0 1403.55,631.58 1403.55,1403.55 0,398.88 -112.73,589.1 -286.26,951.1l-3375.77 7026.72 376.82 1.87 73.75 42.48 23.92 -42.48 3159.76 18.44 879.1 0 3.62 0 0 -1074.8 -3.62 0 0 -1261.29 -879.1 0 0 1261.29 -1983.43 0 -3.5 3.73 -134.79 18.44 2653.63 -5425.6c350.8,-718.4 426.54,-1187.54 373.09,-1831.95 -20.31,-230.83 -59.05,-456.18 -123.82,-666.7l-1.75 -31.39 -5.6 9.22c-291.87,-908.62 -1148.67,-1569.73 -2149.61,-1569.73z"/>
  <path class="fil1" d="M64297.17 97962.8c1242.85,0 2258.49,-1017.5 2258.49,-2258.49l0 -3.73 -890.07 0c-140.27,624.23 -703.58,1095.11 -1368.42,1095.11 -771.97,0 -1403.55,-631.58 -1403.55,-1403.55 0,-398.88 110.75,-590.97 284.4,-952.85l3377.64 -7024.97 -376.82 -3.62 -75.5 -40.61 -22.17 40.61 -3159.88 -18.56 -880.85 0 -1.75 0 0 1076.67 1.75 0 0 1259.42 880.85 0 0 -1259.42 1981.56 -1.87 3.62 -1.87 134.79 -20.31 -2651.77 5425.72c-352.78,718.4 -428.4,1187.42 -373.09,1833.82 20.31,230.83 57.18,454.19 123.82,664.72l1.75 33.26 5.6 -11.09c291.75,908.62 1146.81,1571.59 2149.61,1571.59z"/>
 </g>
</svg>
