<?xml version="1.0" encoding="UTF-8"?>
<!DOCTYPE svg PUBLIC "-//W3C//DTD SVG 1.1//EN" "http://www.w3.org/Graphics/SVG/1.1/DTD/svg11.dtd">
<!-- Creator: CorelDRAW -->
<svg xmlns="http://www.w3.org/2000/svg" xml:space="preserve" width="60.2046mm" height="89.8914mm" version="1.1" style="shape-rendering:geometricPrecision; text-rendering:geometricPrecision; image-rendering:optimizeQuality; fill-rule:evenodd; clip-rule:evenodd"
viewBox="0 0 2690.78 4017.59"
 xmlns:xlink="http://www.w3.org/1999/xlink"
 xmlns:xodm="http://www.corel.com/coreldraw/odm/2003">
 <defs>
  <style type="text/css">
   <![CDATA[
    .str0 {stroke:#1F1A17;stroke-width:3.41;stroke-miterlimit:22.9256}
    .fil1 {fill:#B32520}
    .fil0 {fill:white}
   ]]>
  </style>
 </defs>
 <g id="Слой_x0020_1">
  <metadata id="CorelCorpID_0Corel-Layer"/>
  <path class="fil0 str0" d="M127.74 1.7l2435.38 0c69.31,0 125.96,56.65 125.96,125.97l0 3762.26c0,69.31 -56.65,125.96 -125.96,125.96l-2435.38 0c-69.31,0 -126.03,-56.65 -126.03,-125.96l0 -3762.26c0,-69.31 56.73,-125.97 126.03,-125.97z"/>
  <path class="fil1" d="M385.96 747.29c-17.75,-19.73 -37.48,-31.54 -51.21,-31.54 -13.44,0 -46.18,-3.25 -73.91,53.4 -27.59,-55.59 -59.97,-52.41 -73.28,-52.41 -13.86,0 -33.6,11.81 -51.27,31.47 -17.76,19.73 -14.78,54.25 -8.77,72.21 6.09,17.9 132.83,202.77 132.83,202.77 0,0 128.23,-185.87 134.31,-203.76 6.08,-17.96 9.05,-52.48 -8.7,-72.14z"/>
  <path class="fil1" d="M2342.52 3286.64c17.75,19.73 37.48,31.54 51.28,31.54 13.36,0 46.11,3.25 73.83,-53.4 27.58,55.59 60.04,52.41 73.34,52.41 13.79,0 33.52,-11.81 51.28,-31.54 17.68,-19.73 14.78,-54.24 8.7,-72.14 -6.08,-17.96 -132.75,-202.77 -132.75,-202.77 0,0 -128.3,185.8 -134.38,203.76 -6.08,17.89 -9.05,52.41 8.7,72.14z"/>
  <path class="fil1" d="M1042.5 522.25c-33.66,-37.41 -71.14,-59.91 -97.31,-59.91 -25.46,0 -87.7,-6.15 -140.33,101.42 -52.41,-105.59 -114.08,-99.58 -139.4,-99.58 -26.17,0 -63.65,22.49 -97.39,59.9 -33.67,37.48 -28.08,103.05 -16.55,137.14 11.53,34.09 252.28,385.31 252.28,385.31 0,0 243.79,-353.14 255.32,-387.22 11.53,-34.09 17.11,-99.58 -16.63,-137.07z"/>
  <path class="fil1" d="M1664.96 3516.43c33.73,37.41 71.22,59.9 97.39,59.9 25.46,0 87.7,6.15 140.33,-101.49 52.41,105.59 114.08,99.65 139.4,99.65 26.17,0 63.65,-22.49 97.33,-59.98 33.73,-37.41 28.14,-102.97 16.55,-137.07 -11.46,-34.09 -252.21,-385.31 -252.21,-385.31 0,0 -243.8,353.06 -255.32,387.15 -11.53,34.16 -17.11,99.72 16.55,137.14z"/>
  <path class="fil1" d="M238.14 233.97c-47.6,0 -86.5,38.97 -86.5,86.5l0 0.14 34.09 0c5.38,-23.91 26.87,-41.94 52.41,-41.94 29.56,0 53.75,24.19 53.75,53.75 0,15.28 -4.25,22.56 -10.96,36.49l-129.29 269.04 14.43 0.07 2.9 1.63 0.84 -1.56 121.01 0.71 33.73 0 0.07 0 0 -41.23 -0.07 0 0 -48.31 -33.73 0 0 48.31 -75.89 0 -0.15 0.14 -5.16 0.71 101.57 -207.72c13.51,-27.58 16.33,-45.55 14.29,-70.23 -0.78,-8.84 -2.27,-17.47 -4.75,-25.53l-0.07 -1.2 -0.21 0.35c-11.18,-34.8 -43.92,-60.12 -82.33,-60.12z"/>
  <path class="fil1" d="M2452.08 3771.82c47.52,0 86.43,-38.9 86.43,-86.5l0 -0.07 -34.02 0c-5.45,23.9 -26.95,41.94 -52.48,41.94 -29.49,0 -53.74,-24.26 -53.74,-53.82 0,-15.28 4.31,-22.56 10.95,-36.42l129.29 -269.12 -14.36 -0.07 -2.9 -1.56 -0.85 1.56 -121.08 -0.71 -33.67 0 -0.06 0 0 41.16 0.06 0 0 48.31 33.67 0 0 -48.31 75.95 0 0.14 -0.14 5.16 -0.71 -101.63 207.8c-13.43,27.51 -16.33,45.48 -14.21,70.16 0.71,8.84 2.19,17.47 4.67,25.53l0.08 1.2 0.21 -0.35c11.18,34.8 43.92,60.12 82.4,60.12z"/>
 </g>
</svg>
