<?xml version="1.0" encoding="UTF-8"?>
<!DOCTYPE svg PUBLIC "-//W3C//DTD SVG 1.1//EN" "http://www.w3.org/Graphics/SVG/1.1/DTD/svg11.dtd">
<!-- Creator: CorelDRAW -->
<svg xmlns="http://www.w3.org/2000/svg" xml:space="preserve" width="60.203mm" height="89.8929mm" version="1.1" style="shape-rendering:geometricPrecision; text-rendering:geometricPrecision; image-rendering:optimizeQuality; fill-rule:evenodd; clip-rule:evenodd"
viewBox="0 0 70256.67 104904.67"
 xmlns:xlink="http://www.w3.org/1999/xlink"
 xmlns:xodm="http://www.corel.com/coreldraw/odm/2003">
 <defs>
  <style type="text/css">
   <![CDATA[
    .str0 {stroke:#1F1A17;stroke-width:88.93;stroke-miterlimit:22.9256}
    .fil2 {fill:#171717}
    .fil3 {fill:#1F1A17}
    .fil1 {fill:#B32520}
    .fil0 {fill:white}
   ]]>
  </style>
 </defs>
 <g id="Слой_x0020_1">
  <metadata id="CorelCorpID_0Corel-Layer"/>
  <path class="fil0 str0" d="M3333.41 44.46l63591.49 0c1808.03,0 3287.31,1481.03 3287.31,3288.95l0 98237.86c0,1807.91 -1479.28,3288.95 -3287.31,3288.95l-63591.49 0c-1809.78,0 -3288.95,-1481.03 -3288.95,-3288.95l0 -98237.86c0,-1807.91 1479.17,-3288.95 3288.95,-3288.95z"/>
  <path class="fil1" d="M10077.6 19512.53c-463.53,-515.23 -978.76,-823.67 -1338.78,-823.67 -349.17,0 -1204.11,-84.96 -1928.11,1394.21 -720.27,-1451.51 -1567.74,-1368.42 -1914.92,-1368.42 -360.25,0 -875.48,308.44 -1339.01,823.67 -461.66,513.36 -385.81,1416.5 -226.98,1883.65 158.83,469.13 3466.1,5294.55 3466.1,5294.55 0,0 3350.1,-4851.32 3508.92,-5320.34 156.84,-467.27 234.45,-1370.29 -227.21,-1883.65z"/>
  <path class="fil1" d="M61165.19 85816.93c461.55,515.23 976.78,823.67 1336.91,823.67 350.92,0 1205.86,84.96 1929.86,-1394.33 720.15,1451.51 1567.74,1368.42 1913.29,1368.42 360.02,0 875.25,-308.44 1338.78,-823.67 463.41,-513.36 386.04,-1414.52 227.21,-1883.65 -158.83,-467.15 -3466.45,-5294.43 -3466.45,-5294.43 0,0 -3348.11,4851.32 -3508.57,5320.34 -157.08,469.02 -234.68,1370.29 228.96,1883.65z"/>
  <path class="fil1" d="M27220.54 13638.1c-878.86,-978.76 -1857.62,-1565.99 -2542.88,-1565.99 -664.84,0 -2289.76,-160.7 -3663.78,2650.01 -1368.42,-2757.15 -2978.87,-2600.18 -3637.99,-2600.18 -685.26,0 -1664.02,587.23 -2542.88,1564.13 -880.97,978.76 -733.22,2688.88 -432.14,3578.94 300.97,890.18 6587.11,10060.91 6587.11,10060.91 0,0 6363.75,-9218.8 6664.83,-10110.74 300.97,-890.07 446.96,-2600.18 -432.26,-3577.08z"/>
  <path class="fil1" d="M41379.35 45791.18c-880.85,-976.89 -1857.62,-1564.13 -2541.02,-1564.13 -664.72,0 -2291.86,-160.7 -3665.65,2650.01 -1368.42,-2759.01 -2978.76,-2600.18 -3639.98,-2600.18 -683.28,0 -1660.17,585.48 -2541.02,1564.24 -880.85,978.76 -733.11,2688.76 -432.26,3578.94 301.2,890.07 6587.34,10060.91 6587.34,10060.91 0,0 6363.75,-9218.8 6664.72,-10108.99 301.09,-891.94 448.71,-2602.05 -432.14,-3580.81z"/>
  <path class="fil1" d="M55861.42 79693.24c-880.85,-976.89 -1857.86,-1564.13 -2543,-1564.13 -664.72,0 -2290,-160.7 -3663.9,2650.01 -1368.42,-2759.01 -2976.89,-2602.05 -3637.99,-2602.05 -685.14,0 -1662.04,587.23 -2543,1565.99 -880.85,976.89 -732.99,2688.88 -432.14,3578.94 301.09,890.07 6587.34,10060.91 6587.34,10060.91 0,0 6363.75,-9220.67 6664.72,-10108.87 301.09,-892.05 448.71,-2602.05 -432.02,-3580.81z"/>
  <path class="fil1" d="M8629.7 11096.97c631.58,437.74 1045.4,1168.98 1045.4,1992.65l0 1093.24c0,1337.03 -1093.36,2430.27 -2430.39,2430.27 -1335.16,0 -2428.4,-1093.24 -2428.4,-2430.27l0 -216.01 919.59 0c18.44,816.2 690.75,1477.3 1508.81,1477.3 831.13,0 1510.56,-681.41 1510.56,-1510.56l0 -507.88c0,-829.15 -679.43,-1508.81 -1510.56,-1508.81 -42.36,0 -86.71,0 -129.19,3.73l0 -1440.42c42.48,3.73 86.82,7.35 129.19,7.35 773.72,0 1405.3,-633.45 1405.3,-1405.3l0 -472.75c0,-771.97 -631.58,-1403.55 -1405.3,-1403.55 -769.98,0 -1401.56,631.58 -1401.56,1403.55l0 1.87 -855.17 0 0 -314.04c0,-1240.98 1015.87,-2258.49 2256.74,-2258.49 1242.85,0 2258.49,1017.5 2258.49,2258.49l0 1017.62c0,722.02 -341.58,1366.55 -873.5,1782z"/>
  <path class="fil1" d="M63316.43 92889.86c-631.58,-439.49 -1045.16,-1170.85 -1045.16,-1994.51l0 -1093.24c0,-1335.16 1091.49,-2430.27 2428.4,-2430.27 1335.16,0 2428.4,1093.24 2428.4,2430.27l0 216.13 -917.73 0c-20.31,-814.45 -690.75,-1477.42 -1510.68,-1477.42 -830.9,0 -1510.56,681.41 -1510.56,1510.68l0 507.76c0,831.02 679.66,1510.68 1510.56,1510.68 44.35,0 86.82,-1.87 129.3,-5.6l0 1440.42c-42.48,-3.62 -84.96,-5.48 -129.3,-5.48 -771.97,0 -1403.43,631.58 -1403.43,1403.55l0 472.75c0,771.85 631.46,1403.43 1403.43,1403.43 771.97,0 1403.66,-631.58 1403.66,-1403.43l0 -1.87 854.82 0 0 313.92c0,1240.98 -1015.64,2258.49 -2258.49,2258.49 -1242.85,0 -2258.49,-1017.5 -2258.49,-2258.49l0 -1017.5c0,-722.14 343.56,-1366.55 875.25,-1780.25z"/>
  <path class="fil0 str0" d="M3333.41 44.46l63591.49 0c1808.03,0 3287.31,1481.03 3287.31,3288.95l0 98237.86c0,1807.91 -1479.28,3288.95 -3287.31,3288.95l-63591.49 0c-1809.78,0 -3288.95,-1481.03 -3288.95,-3288.95l0 -98237.86c0,-1807.91 1479.17,-3288.95 3288.95,-3288.95z"/>
  <path class="fil2" d="M4833 19746.98c121.72,-832.89 506.01,-1194.77 1094.99,-1397.94 1074.8,-367.49 2415.57,230.83 2668.45,1187.42 225.46,845.84 -245.54,1418.37 -790.41,2173.65 607.65,-182.87 840.35,-528.18 1580.81,-395.26 657.6,118.22 1110.05,842.1 1185.55,1185.67 290.12,1303.77 -605.55,2489.32 -1678.49,2469.01 -483.95,-7.35 -664.84,-210.53 -890.18,-393.39 -444.98,-363.75 -539.27,-672.19 -888.2,-1087.64 -155.21,217.88 -44.35,483.84 0,692.5 55.32,271.44 216.01,467.27 295.37,690.63 88.69,249.39 107.13,554.09 197.57,790.41 77.61,205.04 391.53,374.96 197.57,592.83 -692.5,-64.65 -1645.35,131.05 -2173.41,-97.91 204.81,-784.8 814.21,-1687.83 492.94,-2668.45 -180.88,1584.43 -2118.1,1793.09 -2904.89,829.15 -568.79,-698.1 -805.11,-2779.32 1126.5,-3002.8 371.22,-44.23 733.11,175.52 1087.87,295.48 -184.74,-605.67 -603.92,-873.5 -602.05,-1667.52 0,-66.52 0,-131.17 0,-195.82z"/>
  <path class="fil2" d="M66267.65 84908.31c-120.08,831.02 -506.01,1193.02 -1095.23,1396.19 -1072.82,367.49 -2413.7,-230.83 -2668.45,-1187.42 -223.48,-845.84 247.52,-1416.5 792.27,-2173.65 -607.54,182.87 -840.24,528.18 -1580.7,395.14 -657.6,-116.23 -1110.05,-841.99 -1187.65,-1185.55 -289.88,-1303.77 607.65,-2491.19 1680.59,-2470.88 481.97,9.22 664.72,212.39 888.32,395.14 446.84,363.87 541.14,672.31 890.07,1087.76 155.09,-217.88 42.48,-483.84 0,-692.5 -55.32,-271.44 -217.99,-467.27 -297.23,-690.75 -88.81,-249.27 -107.25,-553.97 -195.71,-790.29 -77.61,-205.04 -391.53,-376.82 -197.69,-592.83 692.61,64.65 1645.35,-131.17 2173.53,97.91 -204.92,782.94 -816.2,1687.83 -494.92,2668.45 182.75,-1584.43 2118.21,-1793.21 2904.89,-829.15 570.78,699.85 807.09,2779.32 -1124.52,3002.68 -371.22,44.35 -733.22,-175.4 -1087.87,-295.37 184.74,603.8 602.05,873.5 600.3,1667.52 0,64.65 0,131.17 0,197.57z"/>
  <path class="fil2" d="M16607.52 15119.14c236.32,-1628.78 989.96,-2337.96 2144.01,-2734.97 2103.51,-720.27 4729.6,452.44 5226.39,2323.14 439.37,1658.42 -482.2,2777.45 -1549.54,4256.74 1189.29,-356.4 1645.35,-1032.32 3096.97,-773.84 1287.2,230.83 2173.65,1650.95 2323.26,2323.26 565.06,2553.97 -1187.42,4877.11 -3290.93,4838.37 -945.62,-18.56 -1302.02,-417.43 -1741.39,-773.84 -873.5,-712.8 -1058.23,-1314.85 -1741.51,-2129.18 -302.84,424.67 -84.84,947.37 0,1355.47 110.75,531.8 424.79,914.11 579.88,1353.6 173.65,487.57 210.53,1084.02 387.68,1547.55 151.59,398.88 764.73,734.97 386.04,1161.63 -1355.35,-127.44 -3222.54,254.87 -4256.62,-193.95 400.63,-1534.6 1595.63,-3303.77 967.67,-5224.29 -356.4,3100.59 -4147.74,3510.56 -5687.82,1623.18 -1117.4,-1368.42 -1580.81,-5442.17 2202.94,-5881.78 725.99,-83.09 1434.94,345.31 2129.3,581.75 -363.64,-1185.55 -1180.07,-1711.87 -1176.33,-3266.89 0,-129.19 0,-258.49 0,-385.93z"/>
  <path class="fil2" d="M30995.42 46526.27c234.45,-1630.64 989.73,-2339.83 2144.01,-2734.97 2103.39,-720.27 4729.49,450.58 5224.29,2321.27 441.47,1658.3 -480.1,2777.45 -1547.55,4258.49 1189.4,-356.4 1645.46,-1034.08 3096.86,-773.72 1287.2,228.96 2173.65,1650.95 2323.26,2321.27 567.04,2554.09 -1189.29,4877.23 -3290.93,4838.37 -947.37,-18.44 -1301.78,-415.45 -1741.28,-773.72 -873.61,-712.8 -1058.23,-1314.85 -1741.63,-2129.3 -302.84,426.65 -84.84,947.37 0,1355.47 110.86,533.78 424.79,915.98 579.88,1353.72 171.78,489.32 210.53,1085.89 387.79,1549.42 151.48,398.88 764.73,734.97 386.04,1159.64 -1357.33,-125.57 -3222.54,256.74 -4256.74,-191.97 402.61,-1536.47 1595.63,-3305.63 967.67,-5226.28 -358.27,3102.46 -4147.74,3512.54 -5689.69,1625.16 -1117.28,-1370.29 -1578.95,-5442.29 2204.92,-5881.78 723.89,-84.96 1435.06,343.45 2129.42,579.88 -363.87,-1183.8 -1180.18,-1711.98 -1176.33,-3265.02 0,-129.3 0,-258.49 0,-385.93z"/>
  <path class="fil2" d="M46600.03 80808.65c234.68,-1628.78 989.96,-2339.83 2144.01,-2734.97 2101.53,-720.27 4727.62,452.44 5226.39,2323.14 439.37,1656.55 -482.2,2775.58 -1549.54,4256.74 1189.29,-356.52 1645.35,-1032.32 3096.86,-773.84 1285.33,230.83 2171.78,1650.95 2321.39,2323.14 567.04,2552.22 -1187.3,4877.23 -3289.06,4836.62 -945.5,-16.69 -1301.9,-415.57 -1741.28,-773.84 -873.5,-712.8 -1059.98,-1312.99 -1741.63,-2129.18 -302.72,426.54 -86.71,949.12 0,1355.47 109,533.67 422.92,915.98 580,1355.47 173.65,487.57 210.53,1084.02 386.04,1547.55 153.23,398.88 766.37,734.97 387.68,1159.76 -1357.22,-125.57 -3222.54,256.62 -4256.62,-192.09 400.75,-1534.6 1595.63,-3303.77 967.67,-5226.16 -358.38,3102.46 -4147.74,3512.43 -5689.69,1625.04 -1117.28,-1368.42 -1578.95,-5442.29 2204.81,-5881.78 724,-84.96 1434.94,345.31 2129.3,579.88 -363.64,-1183.8 -1181.82,-1711.87 -1176.33,-3265.02 0,-129.19 0,-258.49 0,-385.93z"/>
  <path class="fil3" d="M7920.64 11331.53c629.83,439.49 1045.28,1172.71 1045.28,1994.51l0 1093.24c0,1337.03 -1093.24,2430.27 -2428.4,2430.27 -1337.14,0 -2430.39,-1093.24 -2430.39,-2430.27l0 -216.13 919.59 0c18.67,816.31 690.75,1477.42 1510.79,1477.42 830.9,0 1508.69,-681.41 1508.69,-1510.68l0 -507.76c0,-829.27 -677.79,-1510.68 -1508.69,-1510.68 -44.35,0 -88.81,1.87 -131.17,7.35l0 -1442.29c42.36,3.73 86.82,7.47 131.17,7.47 771.97,0 1403.31,-633.45 1403.31,-1405.41l0 -472.75c0,-770.1 -631.34,-1403.43 -1403.31,-1403.43 -771.97,0 -1405.53,631.58 -1405.53,1403.43l0 1.87 -853.07 0 0 -313.92c0,-1240.98 1015.75,-2258.49 2258.6,-2258.49 1240.87,0 2258.49,1017.5 2258.49,2258.49l0 1017.5c0,720.27 -345.31,1366.55 -875.36,1780.25z"/>
  <path class="fil3" d="M62843.68 92889.86c-631.46,-439.49 -1046.91,-1170.85 -1046.91,-1994.51l0 -1093.24c0,-1335.16 1093.24,-2430.27 2430.15,-2430.27 1335.16,0 2428.4,1093.24 2428.4,2430.27l0 216.13 -919.71 0c-16.45,-814.45 -688.76,-1477.42 -1508.69,-1477.42 -830.9,0 -1510.56,681.41 -1510.56,1510.68l0 507.76c0,831.02 679.66,1510.68 1510.56,1510.68 44.35,0 86.82,-1.87 129.42,-5.6l0 1440.42c-42.6,-3.62 -85.07,-5.48 -129.42,-5.48 -771.85,0 -1403.43,631.58 -1403.43,1403.55l0 472.75c0,771.85 631.58,1403.43 1403.43,1403.43 771.97,0 1403.55,-631.58 1403.55,-1403.43l0 -1.87 854.94 0 0 313.92c0,1240.98 -1017.39,2258.49 -2258.49,2258.49 -1242.85,0 -2258.6,-1017.5 -2258.6,-2258.49l0 -1017.5c0,-722.14 343.68,-1366.55 875.36,-1780.25z"/>
 </g>
</svg>
