<?xml version="1.0" encoding="UTF-8"?>
<!DOCTYPE svg PUBLIC "-//W3C//DTD SVG 1.1//EN" "http://www.w3.org/Graphics/SVG/1.1/DTD/svg11.dtd">
<!-- Creator: CorelDRAW -->
<svg xmlns="http://www.w3.org/2000/svg" xml:space="preserve" width="60.2046mm" height="89.893mm" version="1.1" style="shape-rendering:geometricPrecision; text-rendering:geometricPrecision; image-rendering:optimizeQuality; fill-rule:evenodd; clip-rule:evenodd"
viewBox="0 0 2690.78 4017.67"
 xmlns:xlink="http://www.w3.org/1999/xlink"
 xmlns:xodm="http://www.corel.com/coreldraw/odm/2003">
 <defs>
  <style type="text/css">
   <![CDATA[
    .str0 {stroke:#1F1A17;stroke-width:3.41;stroke-miterlimit:22.9256}
    .fil1 {fill:#B32520}
    .fil0 {fill:white}
   ]]>
  </style>
 </defs>
 <g id="Слой_x0020_1">
  <metadata id="CorelCorpID_0Corel-Layer"/>
  <path class="fil0 str0" d="M127.74 1.7l2435.38 0c69.31,0 125.96,56.72 125.96,125.96l0 3762.33c0,69.24 -56.65,125.97 -125.96,125.97l-2435.38 0c-69.31,0 -126.03,-56.72 -126.03,-125.97l0 -3762.33c0,-69.24 56.73,-125.96 126.03,-125.96z"/>
  <path class="fil1" d="M385.96 747.29c-17.75,-19.66 -37.48,-31.47 -51.21,-31.47 -13.44,0 -46.18,-3.25 -73.91,53.4 -27.59,-55.59 -59.97,-52.48 -73.28,-52.48 -13.86,0 -33.6,11.88 -51.27,31.54 -17.76,19.73 -14.78,54.24 -8.77,72.14 6.09,17.96 132.83,202.84 132.83,202.84 0,0 128.23,-185.87 134.31,-203.83 6.08,-17.9 9.05,-52.41 -8.7,-72.14z"/>
  <path class="fil1" d="M2342.52 3286.71c17.75,19.73 37.48,31.54 51.28,31.54 13.36,0 46.11,3.18 73.83,-53.4 27.58,55.52 60.04,52.41 73.34,52.41 13.79,0 33.52,-11.88 51.28,-31.54 17.68,-19.73 14.78,-54.25 8.7,-72.14 -6.08,-17.97 -132.75,-202.84 -132.75,-202.84 0,0 -128.3,185.87 -134.38,203.83 -6.08,17.9 -9.05,52.41 8.7,72.14z"/>
  <path class="fil1" d="M1042.5 522.31c-33.66,-37.41 -71.14,-59.9 -97.31,-59.9 -25.46,0 -87.7,-6.15 -140.33,101.42 -52.41,-105.59 -114.08,-99.58 -139.4,-99.58 -26.17,0 -63.65,22.49 -97.39,59.91 -33.67,37.48 -28.08,103.05 -16.55,137.07 11.53,34.16 252.28,385.38 252.28,385.38 0,0 243.79,-353.13 255.32,-387.22 11.53,-34.09 17.11,-99.65 -16.63,-137.07z"/>
  <path class="fil1" d="M2139.4 3052.18c-33.67,-37.48 -71.16,-59.9 -97.33,-59.9 -25.52,0 -87.69,-6.23 -140.39,101.42 -52.41,-105.59 -114.01,-99.58 -139.33,-99.58 -26.17,0 -63.65,22.49 -97.39,59.91 -33.66,37.41 -28.08,102.97 -16.55,137.13 11.52,34.09 252.28,385.31 252.28,385.31 0,0 243.79,-353.14 255.25,-387.22 11.6,-34.09 17.19,-99.65 -16.55,-137.07z"/>
  <path class="fil1" d="M313.11 445.29c24.18,16.9 40.1,44.91 40.1,76.39l0 41.87c0,51.21 -41.87,93.07 -93.01,93.07 -51.2,0 -93.07,-41.87 -93.07,-93.07l0 -8.28 35.22 0c0.71,31.26 26.45,56.58 57.85,56.58 31.76,0 57.78,-26.1 57.78,-57.85l0 -19.45c0,-31.75 -26.03,-57.86 -57.78,-57.86 -1.69,0 -3.39,0.07 -5.01,0.29l0 -55.24c1.63,0.14 3.33,0.21 5.01,0.21 29.56,0 53.76,-24.19 53.76,-53.75l0 -18.11c0,-29.49 -24.19,-53.75 -53.76,-53.75 -29.63,0 -53.82,24.19 -53.82,53.75l0 0.07 -32.68 0 0 -11.95c0,-47.6 38.9,-86.5 86.5,-86.5 47.54,0 86.5,38.9 86.5,86.5l0 38.9c0,27.58 -13.22,52.34 -33.59,68.18z"/>
  <path class="fil1" d="M2407.16 3582.77c-24.12,-16.9 -40.03,-44.91 -40.03,-76.39l0 -41.87c0,-51.21 41.87,-93.07 93.08,-93.07 51.13,0 93,41.87 93,93.07l0 8.28 -35.22 0c-0.71,-31.26 -26.45,-56.58 -57.78,-56.58 -31.83,0 -57.86,26.1 -57.86,57.85l0 19.45c0,31.75 26.03,57.86 57.86,57.86 1.62,0 3.33,-0.07 4.95,-0.21l0 55.17c-1.62,-0.14 -3.33,-0.21 -4.95,-0.21 -29.64,0 -53.82,24.19 -53.82,53.75l0 18.11c0,29.49 24.18,53.75 53.82,53.75 29.56,0 53.74,-24.19 53.74,-53.75l0 -0.07 32.75 0 0 12.02c0,47.53 -38.97,86.42 -86.5,86.42 -47.6,0 -86.5,-38.9 -86.5,-86.42l0 -38.97c0,-27.58 13.15,-52.34 33.45,-68.18z"/>
  <path class="fil1" d="M1586.03 1771.9c-33.73,-37.41 -71.15,-59.91 -97.39,-59.91 -25.46,0 -87.7,-6.15 -140.32,101.5 -52.41,-105.59 -114.08,-99.58 -139.4,-99.58 -26.17,0 -63.65,22.42 -97.32,59.9 -33.74,37.41 -28.15,102.98 -16.55,137.07 11.46,34.16 252.21,385.39 252.21,385.39 0,0 243.8,-353.14 255.32,-387.22 11.53,-34.09 17.12,-99.65 -16.55,-137.14z"/>
 </g>
</svg>
