<?xml version="1.0" encoding="UTF-8"?>
<!DOCTYPE svg PUBLIC "-//W3C//DTD SVG 1.1//EN" "http://www.w3.org/Graphics/SVG/1.1/DTD/svg11.dtd">
<!-- Creator: CorelDRAW -->
<svg xmlns="http://www.w3.org/2000/svg" xml:space="preserve" width="60.2046mm" height="89.8914mm" version="1.1" style="shape-rendering:geometricPrecision; text-rendering:geometricPrecision; image-rendering:optimizeQuality; fill-rule:evenodd; clip-rule:evenodd"
viewBox="0 0 1427.37 2131.2"
 xmlns:xlink="http://www.w3.org/1999/xlink"
 xmlns:xodm="http://www.corel.com/coreldraw/odm/2003">
 <defs>
  <style type="text/css">
   <![CDATA[
    .str0 {stroke:#1F1A17;stroke-width:1.81;stroke-miterlimit:22.9256}
    .fil1 {fill:#B32520}
    .fil0 {fill:white}
   ]]>
  </style>
 </defs>
 <g id="Слой_x0020_1">
  <metadata id="CorelCorpID_0Corel-Layer"/>
  <path class="fil0 str0" d="M67.72 0.9l1291.92 0c36.73,0 66.82,30.05 66.82,66.82l0 1995.75c0,36.77 -30.09,66.82 -66.82,66.82l-1291.92 0c-36.77,0 -66.82,-30.05 -66.82,-66.82l0 -1995.75c0,-36.77 30.05,-66.82 66.82,-66.82z"/>
  <path class="fil1" d="M423.88 237.27c0,0 -33.02,125.87 -119.79,172.32 0,0 103.88,66.03 120.99,165 0,0 32.98,-122.23 122.23,-166.2 0,0 -89.25,-47.69 -123.43,-171.12z"/>
  <path class="fil1" d="M1015.76 1569.03c0,0 -33.02,125.87 -119.79,172.32 0,0 103.92,66.03 121.03,165 0,0 32.98,-122.2 122.2,-166.2 0,0 -89.22,-47.69 -123.43,-171.12z"/>
  <path class="fil1" d="M714.79 896.56c0,0 -32.98,125.87 -119.75,172.32 0,0 103.88,65.99 120.99,164.96 0,0 32.98,-122.19 122.2,-166.2 0,0 -89.22,-47.65 -123.44,-171.08z"/>
  <path class="fil1" d="M145.01 358.33c0,0 -19.17,73.2 -69.63,100.17 0,0 60.4,38.38 70.35,95.89 0,0 19.17,-71.02 71.06,-96.61 0,0 -51.89,-27.72 -71.77,-99.46z"/>
  <path class="fil1" d="M1308.66 1555.6c0,0 -19.21,73.16 -69.63,100.14 0,0 60.36,38.38 70.31,95.93 0,0 19.21,-71.06 71.06,-96.61 0,0 -51.85,-27.72 -71.74,-99.46z"/>
  <path class="fil1" d="M165.72 225.41c12.83,8.93 21.24,23.79 21.24,40.52l0 22.21c0,27.12 -22.17,49.34 -49.33,49.34 -27.17,0 -49.38,-22.21 -49.38,-49.34l0 -4.43 18.72 0c0.33,16.58 13.99,30.05 30.65,30.05 16.88,0 30.69,-13.84 30.69,-30.69l0 -10.35c0,-16.84 -13.81,-30.65 -30.69,-30.65 -0.9,0 -1.76,0.04 -2.66,0.11l0 -29.26c0.9,0.07 1.76,0.11 2.66,0.11 15.68,0 28.51,-12.87 28.51,-28.51l0 -9.6c0,-15.68 -12.83,-28.51 -28.51,-28.51 -15.68,0 -28.51,12.83 -28.51,28.51l0 0.04 -17.37 0 0 -6.38c0,-25.25 20.64,-45.88 45.89,-45.88 25.24,0 45.88,20.67 45.88,45.88l0 20.67c0,14.63 -6.98,27.76 -17.79,36.17z"/>
  <path class="fil1" d="M1276.73 1877.5c-12.83,-8.93 -21.23,-23.79 -21.23,-40.48l0 -22.21c0,-27.16 22.21,-49.37 49.34,-49.37 27.17,0 49.34,22.21 49.34,49.37l0 4.39 -18.64 0c-0.38,-16.58 -14.03,-30.01 -30.69,-30.01 -16.88,0 -30.69,13.81 -30.69,30.65l0 10.36c0,16.84 13.81,30.65 30.69,30.65 0.9,0 1.76,0 2.66,-0.11l0 29.3c-0.86,-0.08 -1.76,-0.15 -2.66,-0.15 -15.68,0 -28.51,12.87 -28.51,28.51l0 9.64c0,15.65 12.83,28.51 28.51,28.51 15.69,0 28.52,-12.87 28.52,-28.51l0 -0.04 17.37 0 0 6.34c0,25.25 -20.63,45.88 -45.88,45.88 -25.25,0 -45.88,-20.63 -45.88,-45.88l0 -20.64c0,-14.67 6.98,-27.76 17.78,-36.2z"/>
 </g>
</svg>
