<?xml version="1.0" encoding="UTF-8"?>
<!DOCTYPE svg PUBLIC "-//W3C//DTD SVG 1.1//EN" "http://www.w3.org/Graphics/SVG/1.1/DTD/svg11.dtd">
<!-- Creator: CorelDRAW -->
<svg xmlns="http://www.w3.org/2000/svg" xml:space="preserve" width="60.2046mm" height="89.8914mm" version="1.1" style="shape-rendering:geometricPrecision; text-rendering:geometricPrecision; image-rendering:optimizeQuality; fill-rule:evenodd; clip-rule:evenodd"
viewBox="0 0 2913.89 4350.73"
 xmlns:xlink="http://www.w3.org/1999/xlink"
 xmlns:xodm="http://www.corel.com/coreldraw/odm/2003">
 <defs>
  <style type="text/css">
   <![CDATA[
    .str0 {stroke:#1F1A17;stroke-width:3.69;stroke-miterlimit:22.9256}
    .fil1 {fill:#171717}
    .fil2 {fill:#1F1A17}
    .fil0 {fill:white}
   ]]>
  </style>
 </defs>
 <g id="Слой_x0020_1">
  <metadata id="CorelCorpID_0Corel-Layer"/>
  <path class="fil0 str0" d="M138.25 1.84l2637.4 0c75.05,0 136.4,61.35 136.4,136.41l0 4074.22c0,75.06 -61.35,136.41 -136.4,136.41l-2637.4 0c-74.98,0 -136.41,-61.35 -136.41,-136.41l0 -4074.22c0,-75.06 61.43,-136.41 136.41,-136.41z"/>
  <path class="fil1" d="M425.24 947.43c-6.12,-18.23 -129.67,-197.68 -142.92,-216.9l0 -1.76c-0.07,0 -0.22,0.38 -0.61,0.84 -0.38,-0.46 -0.61,-0.84 -0.61,-0.84l0 1.76c-13.24,19.22 -136.79,198.67 -142.99,216.9 -6.5,19.3 -9.65,56.29 9.34,77.43 19.07,21.14 40.21,33.86 54.99,33.86 6.74,0 18,0.76 31.1,-4.68 14.94,-9.26 30.1,-28.26 31.63,-66.79 0,0 2.69,65.87 -22.67,104.17 -1.61,2.99 -3.22,5.75 -5.14,7.97 0,0 34.54,-2.91 44.35,-2.84 9.8,-0.08 44.27,2.84 44.27,2.84 -1.84,-2.22 -3.53,-4.98 -5.13,-7.97 -25.28,-38.3 -22.68,-104.17 -22.68,-104.17 1.53,38.53 16.78,57.52 31.71,66.79 13.1,5.44 24.36,4.68 31.02,4.68 14.86,0 36,-12.71 55,-33.86 19.07,-21.14 15.85,-58.13 9.34,-77.43z"/>
  <path class="fil1" d="M2513.55 3407.21c6.2,18.3 129.82,197.76 142.99,216.9l0 1.76c0,0 0.23,-0.31 0.61,-0.84 0.3,0.53 0.61,0.84 0.61,0.84l0 -1.76c13.17,-19.15 136.78,-198.6 142.91,-216.9 6.51,-19.22 9.73,-56.29 -9.34,-77.43 -19,-21.14 -40.13,-33.85 -54.99,-33.85 -6.66,0 -17.93,-0.69 -31.02,4.67 -14.94,9.35 -30.1,28.26 -31.64,66.79 0,0 -2.75,-65.79 22.68,-104.08 1.53,-2.99 3.22,-5.75 5.05,-8.04 0,0 -34.46,2.91 -44.27,2.83 -9.81,0.08 -44.27,-2.83 -44.27,-2.83 1.83,2.3 3.52,5.05 5.05,8.04 25.43,38.29 22.68,104.08 22.68,104.08 -1.53,-38.53 -16.7,-57.44 -31.63,-66.79 -13.09,-5.36 -24.35,-4.67 -31.09,-4.67 -14.78,0 -35.93,12.71 -54.91,33.85 -19.07,21.14 -15.94,58.21 -9.42,77.43z"/>
  <path class="fil1" d="M2337.39 3597.99c-10.64,-31.56 -224.33,-341.9 -247.23,-375.06l0 -3.06c0,0 -0.38,0.61 -1.07,1.53 -0.53,-0.91 -1,-1.53 -1,-1.53l0 3.06c-22.9,33.16 -236.59,343.51 -247.23,375.06 -11.26,33.31 -16.77,97.35 16.16,133.88 32.94,36.61 69.55,58.59 95.12,58.59 11.57,0 31.01,1.22 53.69,-8.12 25.81,-16.08 52.08,-48.86 54.76,-115.5 0,0 4.59,113.89 -39.22,180.06 -2.75,5.14 -5.59,9.96 -8.81,13.87 0,0 59.66,-5.06 76.52,-4.9 17,-0.15 76.59,4.9 76.59,4.9 -3.14,-3.91 -6.05,-8.73 -8.81,-13.87 -43.81,-66.17 -39.14,-180.06 -39.14,-180.06 2.6,66.63 28.87,99.41 54.76,115.5 22.59,9.35 42.04,8.12 53.69,8.12 25.58,0 62.19,-21.98 95.05,-58.59 32.93,-36.53 27.42,-100.57 16.16,-133.88z"/>
  <path class="fil1" d="M1104.98 891.6c-10.65,-31.56 -224.33,-341.9 -247.24,-375.14l0 -2.99c0,0 -0.45,0.61 -1.07,1.46 -0.61,-0.84 -0.99,-1.46 -1.07,-1.46l0 2.99c-22.83,33.24 -236.51,343.59 -247.16,375.14 -11.26,33.31 -16.77,97.35 16.16,133.96 32.94,36.53 69.47,58.52 95.12,58.52 11.57,0 31.02,1.22 53.69,-8.04 25.81,-16.24 52.09,-48.94 54.76,-115.57 0,0 4.59,113.89 -39.29,180.06 -2.69,5.14 -5.59,9.96 -8.81,13.87 0,0 59.66,-4.98 76.59,-4.9 17,-0.08 76.59,4.9 76.59,4.9 -3.14,-3.91 -6.05,-8.73 -8.81,-13.87 -43.8,-66.17 -39.21,-180.06 -39.21,-180.06 2.68,66.63 28.95,99.34 54.76,115.57 22.67,9.27 42.13,8.04 53.69,8.04 25.66,0 62.19,-21.98 95.13,-58.52 32.93,-36.61 27.42,-100.64 16.16,-133.96z"/>
  <path class="fil1" d="M1719.61 2225.19c-10.64,-31.56 -224.33,-341.9 -247.15,-375.14l0 -2.99c-0.08,0 -0.46,0.61 -1.07,1.53 -0.61,-0.92 -1.08,-1.53 -1.08,-1.53l0 2.99c-22.89,33.24 -236.51,343.58 -247.23,375.14 -11.26,33.32 -16.78,97.35 16.16,133.88 32.93,36.61 69.55,58.59 95.12,58.59 11.56,0 31.01,1.22 53.69,-8.12 25.82,-16.16 52.08,-48.86 54.76,-115.5 0,0 4.68,113.89 -39.22,180.07 -2.75,5.13 -5.59,9.96 -8.81,13.86 0,0 59.67,-5.05 76.6,-4.9 16.92,-0.15 76.58,4.9 76.58,4.9 -3.21,-3.91 -6.05,-8.73 -8.8,-13.86 -43.89,-66.18 -39.22,-180.07 -39.22,-180.07 2.61,66.64 28.87,99.34 54.76,115.5 22.59,9.34 42.04,8.12 53.61,8.12 25.66,0 62.28,-21.98 95.12,-58.59 32.94,-36.53 27.42,-100.56 16.16,-133.88z"/>
  <path class="fil2" d="M2606.37 3852.5c-26.11,-18.3 -43.35,-48.55 -43.35,-82.72l0 -45.34c0,-55.37 45.34,-100.79 100.8,-100.79 55.37,0 100.71,45.34 100.71,100.79l0 8.96 -38.14 0c-0.76,-33.77 -28.64,-61.27 -62.57,-61.27 -34.47,0 -62.66,28.18 -62.66,62.65l0 21.06c0,34.39 28.19,62.65 62.66,62.65 1.76,0 3.6,-0.07 5.36,-0.23l0 59.74c-1.76,-0.23 -3.6,-0.3 -5.36,-0.3 -32.1,0 -58.29,26.27 -58.29,58.28l0 19.61c0,31.94 26.19,58.21 58.29,58.21 31.94,0 58.2,-26.19 58.2,-58.21l0 -0.08 35.39 0 0 13.02c0,51.47 -42.12,93.59 -93.59,93.59 -51.55,0 -93.68,-42.12 -93.68,-93.59l0 -42.2c0,-29.94 14.17,-56.68 36.23,-73.83z"/>
  <path class="fil2" d="M327.12 468.81c26.19,18.3 43.43,48.64 43.43,82.72l0 45.34c0,55.37 -45.34,100.79 -100.8,100.79 -55.37,0 -100.72,-45.34 -100.72,-100.79l0 -8.96 38.15 0c0.68,33.78 28.56,61.27 62.57,61.27 34.47,0 62.66,-28.18 62.66,-62.65l0 -21.06c0,-34.47 -28.19,-62.65 -62.66,-62.65 -1.84,0 -3.6,0.08 -5.36,0.23l0 -59.74c1.76,0.23 3.52,0.23 5.36,0.23 32.02,0 58.22,-26.19 58.22,-58.13l0 -19.68c0,-31.93 -26.2,-58.21 -58.22,-58.21 -32.01,0 -58.2,26.19 -58.2,58.21l0 0.08 -35.47 0 0 -12.94c0,-51.55 42.12,-93.67 93.67,-93.67 51.55,0 93.68,42.12 93.68,93.67l0 42.12c0,29.95 -14.25,56.68 -36.31,73.83z"/>
 </g>
</svg>
