<?xml version="1.0" encoding="UTF-8"?>
<!DOCTYPE svg PUBLIC "-//W3C//DTD SVG 1.1//EN" "http://www.w3.org/Graphics/SVG/1.1/DTD/svg11.dtd">
<!-- Creator: CorelDRAW -->
<svg xmlns="http://www.w3.org/2000/svg" xml:space="preserve" width="60.2046mm" height="89.893mm" version="1.1" style="shape-rendering:geometricPrecision; text-rendering:geometricPrecision; image-rendering:optimizeQuality; fill-rule:evenodd; clip-rule:evenodd"
viewBox="0 0 2690.78 4017.67"
 xmlns:xlink="http://www.w3.org/1999/xlink"
 xmlns:xodm="http://www.corel.com/coreldraw/odm/2003">
 <defs>
  <style type="text/css">
   <![CDATA[
    .str0 {stroke:#1F1A17;stroke-width:3.41;stroke-miterlimit:22.9256}
    .fil1 {fill:#B32520}
    .fil0 {fill:white}
   ]]>
  </style>
 </defs>
 <g id="Слой_x0020_1">
  <metadata id="CorelCorpID_0Corel-Layer"/>
  <path class="fil0 str0" d="M127.74 1.7l2435.38 0c69.31,0 125.96,56.73 125.96,125.97l0 3762.33c0,69.31 -56.65,125.96 -125.96,125.96l-2435.38 0c-69.31,0 -126.03,-56.65 -126.03,-125.96l0 -3762.33c0,-69.24 56.73,-125.97 126.03,-125.97z"/>
  <path class="fil1" d="M799.06 447.28c0,0 -62.23,237.36 -225.82,324.92 0,0 195.84,124.41 228.16,310.98 0,0 62.16,-230.35 230.35,-313.32 0,0 -168.18,-89.89 -232.69,-322.58z"/>
  <path class="fil1" d="M1914.84 434.62c0,0 -62.17,237.36 -225.76,324.92 0,0 195.84,124.41 228.09,310.98 0,0 62.25,-230.42 230.42,-313.31 0,0 -168.18,-89.82 -232.75,-322.58z"/>
  <path class="fil1" d="M1914.84 2957.9c0,0 -62.17,237.29 -225.76,324.84 0,0 195.84,124.41 228.09,311.06 0,0 62.25,-230.43 230.42,-313.39 0,0 -168.18,-89.82 -232.75,-322.51z"/>
  <path class="fil1" d="M786.41 2957.9c0,0 -62.24,237.29 -225.83,324.84 0,0 195.84,124.41 228.1,311.06 0,0 62.24,-230.43 230.35,-313.39 0,0 -168.11,-89.82 -232.62,-322.51z"/>
  <path class="fil1" d="M273.44 675.51c0,0 -36.21,137.98 -131.34,188.91 0,0 113.94,72.28 132.61,180.77 0,0 36.21,-133.95 133.95,-182.19 0,0 -97.75,-52.19 -135.23,-187.49z"/>
  <path class="fil1" d="M2466.92 2932.51c0,0 -36.14,137.99 -131.19,188.84 0,0 113.8,72.35 132.61,180.77 0,0 36.14,-133.88 133.88,-182.12 0,0 -97.74,-52.19 -135.3,-187.5z"/>
  <polygon class="fil1" points="183.54,600.33 173.14,600.33 137.14,600.33 245,251.01 279.66,251.01 188.92,559.16 242.1,559.16 242.1,491.7 275.77,491.7 275.77,559.24 333.69,559.24 333.69,600.33 333.62,600.33 299.88,600.33 275.77,600.33 275.77,656.84 242.1,656.84 242.1,600.33 "/>
  <polygon class="fil1" points="2510.78,3397.25 2521.17,3397.25 2557.17,3397.25 2449.39,3746.57 2414.73,3746.57 2505.48,3438.49 2452.29,3438.49 2452.29,3505.89 2418.55,3505.89 2418.55,3438.42 2360.69,3438.42 2360.69,3397.25 2360.77,3397.25 2394.43,3397.25 2418.55,3397.25 2418.55,3340.75 2452.29,3340.75 2452.29,3397.25 "/>
 </g>
</svg>
