<?xml version="1.0" encoding="UTF-8"?>
<!DOCTYPE svg PUBLIC "-//W3C//DTD SVG 1.1//EN" "http://www.w3.org/Graphics/SVG/1.1/DTD/svg11.dtd">
<!-- Creator: CorelDRAW -->
<svg xmlns="http://www.w3.org/2000/svg" xml:space="preserve" width="60.203mm" height="89.8914mm" version="1.1" style="shape-rendering:geometricPrecision; text-rendering:geometricPrecision; image-rendering:optimizeQuality; fill-rule:evenodd; clip-rule:evenodd"
viewBox="0 0 70256.67 104902.92"
 xmlns:xlink="http://www.w3.org/1999/xlink"
 xmlns:xodm="http://www.corel.com/coreldraw/odm/2003">
 <defs>
  <style type="text/css">
   <![CDATA[
    .str0 {stroke:#1F1A17;stroke-width:88.93;stroke-miterlimit:22.9256}
    .fil1 {fill:#B32520}
    .fil0 {fill:white}
   ]]>
  </style>
 </defs>
 <g id="Слой_x0020_1">
  <metadata id="CorelCorpID_0Corel-Layer"/>
  <path class="fil0 str0" d="M3333.41 44.46l63591.49 0c1808.03,0 3287.31,1479.28 3287.31,3289.06l0 98235.99c0,1809.78 -1479.28,3288.95 -3287.31,3288.95l-63591.49 0c-1809.78,0 -3288.95,-1479.17 -3288.95,-3288.95l0 -98235.99c0,-1809.78 1479.17,-3289.06 3288.95,-3289.06z"/>
  <path class="fil1" d="M10077.6 19512.53c-463.53,-515.23 -978.76,-823.55 -1338.78,-823.55 -349.17,0 -1204.11,-84.96 -1928.11,1394.21 -720.27,-1451.51 -1567.74,-1368.42 -1914.92,-1368.42 -360.25,0 -875.48,308.44 -1339.01,823.67 -461.66,513.36 -385.81,1414.63 -226.98,1881.78 158.83,469.13 3466.1,5294.55 3466.1,5294.55 0,0 3350.1,-4851.32 3508.92,-5320.34 156.84,-467.27 234.45,-1368.42 -227.21,-1881.9z"/>
  <path class="fil1" d="M61165.19 85817.05c461.55,513.36 976.78,823.67 1336.91,823.67 350.92,0 1205.86,84.96 1929.86,-1394.33 720.15,1449.64 1567.74,1368.42 1913.29,1368.42 360.02,0 875.25,-310.19 1338.78,-823.67 463.41,-515.23 386.04,-1414.52 227.21,-1883.65 -158.83,-469.02 -3466.45,-5294.55 -3466.45,-5294.55 0,0 -3348.11,4851.32 -3508.57,5320.45 -157.08,469.02 -234.68,1368.42 228.96,1883.65z"/>
  <path class="fil1" d="M27220.54 13636.35c-878.86,-978.76 -1857.62,-1564.13 -2542.88,-1564.13 -664.84,0 -2289.76,-160.7 -3663.78,2648.15 -1368.42,-2757.15 -2978.87,-2600.18 -3637.99,-2600.18 -685.26,0 -1664.02,587.23 -2542.88,1565.99 -880.97,976.89 -733.22,2687.01 -432.14,3578.94 300.97,890.07 6587.11,10060.91 6587.11,10060.91 0,0 6363.75,-9220.67 6664.83,-10110.74 300.97,-890.18 446.96,-2600.18 -432.26,-3578.94z"/>
  <path class="fil1" d="M56275.01 13636.35c-880.85,-978.76 -1857.74,-1564.13 -2541.02,-1564.13 -664.84,0 -2291.86,-160.7 -3665.89,2648.15 -1368.3,-2757.15 -2978.64,-2600.18 -3639.86,-2600.18 -683.16,0 -1660.05,587.23 -2540.9,1565.99 -881.08,976.89 -733.22,2687.01 -434.01,3578.94 302.84,890.07 6589.09,10060.91 6589.09,10060.91 0,0 6363.75,-9220.67 6664.6,-10110.74 301.2,-890.18 448.83,-2600.18 -432.02,-3578.94z"/>
  <path class="fil1" d="M43473.53 91817.04c880.97,978.76 1857.86,1564.13 2543,1564.13 664.84,0 2289.88,160.7 3663.9,-2648.15 1366.44,2757.15 2976.89,2598.32 3637.99,2598.32 685.14,0 1662.15,-585.48 2543,-1564.24 880.73,-976.89 733.11,-2688.76 432.02,-3578.83 -300.97,-890.18 -6587.11,-10060.91 -6587.11,-10060.91 0,0 -6363.86,9218.8 -6664.95,10110.74 -300.85,890.07 -448.71,2600.18 432.14,3578.94z"/>
  <path class="fil1" d="M14419.29 91817.04c878.86,978.76 1857.74,1564.13 2542.88,1564.13 664.84,0 2289.88,160.7 3663.78,-2648.15 1368.42,2757.15 2978.87,2598.32 3638.11,2598.32 685.14,0 1663.9,-585.48 2542.88,-1564.24 880.85,-976.89 733.22,-2688.76 432.26,-3578.83 -301.09,-890.18 -6585.59,-10060.91 -6585.59,-10060.91 0,0 -6365.5,9218.8 -6666.58,10110.74 -302.84,890.07 -448.59,2600.18 432.26,3578.94z"/>
  <polygon class="fil1" points="5025.09,15440.53 4753.41,15440.53 3813.51,15440.53 6627.95,6319.63 7534.71,6319.63 5163.49,14365.84 6553.97,14365.84 6553.97,12604.03 7433.18,12604.03 7433.18,14367.59 8943.63,14367.59 8943.63,15440.53 8941.87,15440.53 8062.78,15440.53 7433.18,15440.53 7433.18,16917.94 6553.97,16917.94 6553.97,15440.53 "/>
  <polygon class="fil1" points="65792.91,88937.95 66062.49,88937.95 67002.5,88937.95 64188.18,98058.96 63281.54,98058.96 65652.52,90012.75 64262.05,90012.75 64262.05,91774.57 63383.06,91774.57 63383.06,90010.88 61872.39,90010.88 61872.39,88937.95 61874.26,88937.95 62753.24,88937.95 63383.06,88937.95 63383.06,87462.4 64262.05,87462.4 64262.05,88937.95 "/>
 </g>
</svg>
