<?xml version="1.0" encoding="UTF-8"?>
<!DOCTYPE svg PUBLIC "-//W3C//DTD SVG 1.1//EN" "http://www.w3.org/Graphics/SVG/1.1/DTD/svg11.dtd">
<!-- Creator: CorelDRAW -->
<svg xmlns="http://www.w3.org/2000/svg" xml:space="preserve" width="60.2046mm" height="89.8914mm" version="1.1" style="shape-rendering:geometricPrecision; text-rendering:geometricPrecision; image-rendering:optimizeQuality; fill-rule:evenodd; clip-rule:evenodd"
viewBox="0 0 2913.89 4350.73"
 xmlns:xlink="http://www.w3.org/1999/xlink"
 xmlns:xodm="http://www.corel.com/coreldraw/odm/2003">
 <defs>
  <style type="text/css">
   <![CDATA[
    .str0 {stroke:#1F1A17;stroke-width:3.69;stroke-miterlimit:22.9256}
    .fil1 {fill:#171717}
    .fil2 {fill:#1F1A17}
    .fil0 {fill:white}
   ]]>
  </style>
 </defs>
 <g id="Слой_x0020_1">
  <metadata id="CorelCorpID_0Corel-Layer"/>
  <path class="fil0 str0" d="M138.25 1.84l2637.4 0c75.05,0 136.4,61.35 136.4,136.41l0 4074.22c0,75.06 -61.35,136.41 -136.4,136.41l-2637.4 0c-74.98,0 -136.41,-61.35 -136.41,-136.41l0 -4074.22c0,-75.06 61.43,-136.41 136.41,-136.41z"/>
  <path class="fil1" d="M200.53 818.91c4.98,-34.47 20.99,-49.48 45.42,-57.9 44.5,-15.25 100.1,9.57 110.67,49.17 9.26,35.15 -10.18,58.82 -32.78,90.22 25.12,-7.58 34.84,-21.91 65.56,-16.47 27.27,4.9 46.03,35 49.17,49.25 12.03,54.07 -25.12,103.32 -69.7,102.4 -19.99,-0.38 -27.57,-8.73 -36.83,-16.39 -18.54,-15.01 -22.44,-27.8 -36.92,-45.04 -6.35,8.96 -1.83,20.07 0,28.65 2.38,11.34 9.04,19.45 12.34,28.72 3.67,10.34 4.44,22.98 8.19,32.78 3.22,8.5 16.16,15.55 8.19,24.58 -28.73,-2.68 -68.24,5.44 -90.23,-4.06 8.51,-32.55 33.86,-70.01 20.53,-110.68 -7.58,65.72 -87.85,74.37 -120.48,34.39 -23.66,-29.03 -33.47,-115.27 46.73,-124.61 15.32,-1.76 30.33,7.35 45.03,12.33 -7.66,-25.05 -24.97,-36.23 -24.89,-69.16 0,-2.76 0,-5.44 0,-8.19z"/>
  <path class="fil1" d="M2748.45 3521.4c-5.06,34.54 -20.99,49.55 -45.42,57.98 -44.58,15.24 -100.17,-9.57 -110.67,-49.25 -9.35,-35.08 10.18,-58.82 32.78,-90.15 -25.2,7.58 -34.84,21.91 -65.56,16.39 -27.26,-4.9 -46.03,-34.93 -49.24,-49.17 -11.95,-54.07 25.2,-103.32 69.7,-102.48 20.07,0.38 27.57,8.81 36.91,16.39 18.46,15.09 22.45,27.88 36.92,45.11 6.36,-9.04 1.77,-20.07 0,-28.72 -2.38,-11.26 -9.04,-19.37 -12.33,-28.64 -3.68,-10.34 -4.44,-22.98 -8.19,-32.78 -3.22,-8.5 -16.24,-15.62 -8.2,-24.59 28.73,2.68 68.25,-5.44 90.15,4.06 -8.43,32.48 -33.78,70.01 -20.45,110.67 7.51,-65.71 87.85,-74.37 120.48,-34.39 23.67,28.95 33.39,115.27 -46.72,124.54 -15.31,1.84 -30.33,-7.27 -45.11,-12.25 7.73,25.05 25.05,36.23 24.97,69.09 0,2.75 0,5.51 0,8.19z"/>
  <path class="fil1" d="M688.86 627.05c9.73,-67.55 41.05,-96.96 88.92,-113.43 87.24,-29.87 196.07,18.76 216.76,96.35 18.22,68.78 -20.07,115.19 -64.27,176.54 49.32,-14.78 68.24,-42.81 128.44,-32.09 53.31,9.57 90.08,68.47 96.28,96.27 23.51,105.92 -49.25,202.35 -136.48,200.74 -39.15,-0.76 -53.92,-17.31 -72.23,-32.09 -36.15,-29.64 -43.88,-54.53 -72.15,-88.31 -12.56,17.62 -3.6,39.29 0,56.14 4.53,22.14 17.62,37.99 24.05,56.14 7.2,20.29 8.73,45.03 16.01,64.26 6.35,16.55 31.78,30.49 16.08,48.18 -56.29,-5.29 -133.65,10.57 -176.54,-8.04 16.62,-63.65 66.18,-137.02 40.13,-216.67 -14.86,128.59 -172.02,145.6 -235.98,67.32 -46.34,-56.83 -65.48,-225.71 91.45,-243.94 30.03,-3.52 59.52,14.32 88.31,24.12 -15.08,-49.17 -49.01,-71 -48.78,-135.49 0,-5.36 0,-10.73 0,-16.01z"/>
  <path class="fil1" d="M1913.16 615.64c9.65,-67.56 41.05,-97.04 88.92,-113.51 87.15,-29.79 196.07,18.84 216.67,96.43 18.31,68.7 -19.99,115.11 -64.26,176.54 49.32,-14.78 68.23,-42.89 128.44,-32.17 53.38,9.57 90.15,68.55 96.35,96.35 23.51,105.92 -49.25,202.35 -136.49,200.67 -39.22,-0.69 -54,-17.23 -72.23,-32.09 -36.15,-29.56 -43.88,-54.53 -72.22,-88.31 -12.49,17.69 -3.52,39.29 0,56.22 4.6,22.14 17.62,37.99 24.05,56.14 7.2,20.29 8.74,44.96 16.09,64.18 6.28,16.62 31.71,30.56 16.01,48.17 -56.22,-5.21 -133.58,10.65 -176.55,-7.96 16.7,-63.72 66.18,-137.02 40.14,-216.75 -14.78,128.67 -172.02,145.67 -235.9,67.32 -46.34,-56.75 -65.56,-225.63 91.37,-243.94 30.1,-3.45 59.51,14.32 88.31,24.13 -15.09,-49.1 -48.94,-71 -48.71,-135.41 0,-5.36 0,-10.73 0,-16.01z"/>
  <path class="fil1" d="M2231.16 3712.11c-9.72,67.55 -40.98,97.04 -88.84,113.51 -87.24,29.87 -196.15,-18.84 -216.75,-96.35 -18.23,-68.78 19.99,-115.19 64.26,-176.62 -49.32,14.78 -68.32,42.89 -128.44,32.17 -53.38,-9.58 -90.15,-68.55 -96.35,-96.35 -23.51,-105.92 49.25,-202.27 136.49,-200.67 39.22,0.69 54,17.24 72.23,32.09 36.22,29.56 43.88,54.53 72.22,88.31 12.56,-17.61 3.52,-39.29 0,-56.22 -4.6,-22.06 -17.62,-37.99 -24.05,-56.14 -7.2,-20.3 -8.73,-45.04 -16.08,-64.26 -6.35,-16.54 -31.78,-30.48 -16.01,-48.1 56.22,5.29 133.57,-10.65 176.54,7.97 -16.7,63.65 -66.17,137.1 -40.13,216.75 14.86,-128.67 172.02,-145.67 235.9,-67.32 46.41,56.75 65.48,225.71 -91.45,243.94 -30.03,3.45 -59.43,-14.33 -88.31,-24.13 15.16,49.09 49.02,71 48.79,135.41 0,5.36 0,10.72 0,16.01z"/>
  <path class="fil1" d="M1006.94 3723.6c-9.8,67.55 -41.05,96.96 -88.92,113.43 -87.24,29.87 -196.15,-18.76 -216.76,-96.35 -18.22,-68.78 19.99,-115.19 64.27,-176.62 -49.32,14.78 -68.24,42.89 -128.44,32.17 -53.31,-9.57 -90.07,-68.47 -96.28,-96.27 -23.52,-105.92 49.24,-202.35 136.41,-200.74 39.21,0.76 53.99,17.31 72.22,32.09 36.23,29.57 43.89,54.53 72.23,88.31 12.55,-17.62 3.52,-39.29 0,-56.14 -4.6,-22.14 -17.62,-37.99 -24.05,-56.14 -7.2,-20.37 -8.73,-45.03 -16.08,-64.26 -6.29,-16.62 -31.72,-30.49 -16.01,-48.18 56.29,5.29 133.65,-10.57 176.54,8.04 -16.62,63.65 -66.18,137.02 -40.13,216.67 14.86,-128.59 172.02,-145.67 235.97,-67.32 46.34,56.75 65.48,225.71 -91.44,243.94 -30.1,3.52 -59.51,-14.32 -88.31,-24.12 15.08,49.09 49.01,71 48.79,135.49 0,5.36 0,10.65 0,16.01z"/>
  <polygon class="fil2" points="208.41,659.76 197.22,659.76 158.24,659.76 274.96,281.47 312.49,281.47 214.23,615.18 271.83,615.18 271.83,542.11 308.36,542.11 308.36,615.25 371.01,615.25 371.01,659.76 370.94,659.76 334.48,659.76 308.36,659.76 308.36,720.95 271.83,720.95 271.83,659.76 "/>
  <polygon class="fil2" points="2738.34,3698.25 2749.6,3698.25 2788.58,3698.25 2671.86,4076.6 2634.33,4076.6 2732.52,3742.9 2674.93,3742.9 2674.93,3815.89 2638.47,3815.89 2638.47,3742.82 2575.74,3742.82 2575.74,3698.25 2575.82,3698.25 2612.35,3698.25 2638.47,3698.25 2638.47,3637.05 2674.93,3637.05 2674.93,3698.25 "/>
 </g>
</svg>
