<?xml version="1.0" encoding="UTF-8"?>
<!DOCTYPE svg PUBLIC "-//W3C//DTD SVG 1.1//EN" "http://www.w3.org/Graphics/SVG/1.1/DTD/svg11.dtd">
<!-- Creator: CorelDRAW -->
<svg xmlns="http://www.w3.org/2000/svg" xml:space="preserve" width="60.203mm" height="89.8913mm" version="1.1" style="shape-rendering:geometricPrecision; text-rendering:geometricPrecision; image-rendering:optimizeQuality; fill-rule:evenodd; clip-rule:evenodd"
viewBox="0 0 70256.67 104902.81"
 xmlns:xlink="http://www.w3.org/1999/xlink"
 xmlns:xodm="http://www.corel.com/coreldraw/odm/2003">
 <defs>
  <style type="text/css">
   <![CDATA[
    .str0 {stroke:#1F1A17;stroke-width:88.93;stroke-miterlimit:22.9256}
    .fil1 {fill:#171717}
    .fil2 {fill:#1F1A17}
    .fil0 {fill:white}
   ]]>
  </style>
 </defs>
 <g id="Слой_x0020_1">
  <metadata id="CorelCorpID_0Corel-Layer"/>
  <path class="fil0 str0" d="M3333.41 44.46l63591.49 0c1808.03,0 3287.31,1479.17 3287.31,3288.95l0 98235.99c0,1809.78 -1479.28,3288.95 -3287.31,3288.95l-63591.49 0c-1809.78,0 -3288.95,-1479.17 -3288.95,-3288.95l0 -98235.99c0,-1809.78 1479.17,-3288.95 3288.95,-3288.95z"/>
  <path class="fil1" d="M4833 19745.11c121.72,-831.02 506.01,-1192.9 1094.99,-1396.08 1074.8,-367.49 2415.57,230.83 2668.45,1185.55 225.46,847.71 -245.54,1418.37 -790.41,2175.51 607.65,-182.87 840.35,-528.18 1580.81,-395.26 657.6,116.35 1110.05,842.1 1185.55,1185.67 290.12,1303.77 -605.55,2489.32 -1678.49,2470.88 -483.95,-9.22 -664.84,-212.39 -890.18,-397.01 -444.98,-363.87 -539.27,-670.44 -888.2,-1085.89 -155.21,216.01 -44.35,483.84 0,692.5 55.32,271.44 216.01,467.27 295.37,690.63 88.69,249.39 107.13,554.09 197.57,790.41 77.61,205.04 391.53,376.71 197.57,592.83 -692.5,-64.65 -1645.35,131.05 -2173.41,-97.91 204.81,-784.8 814.21,-1687.83 492.94,-2668.45 -180.88,1584.43 -2118.1,1793.09 -2904.89,829.15 -568.79,-699.96 -805.11,-2779.32 1126.5,-3002.8 371.22,-44.35 733.11,175.52 1087.87,295.48 -184.74,-603.8 -603.92,-873.5 -602.05,-1667.52 0,-64.65 0,-131.17 0,-197.69z"/>
  <path class="fil1" d="M66267.65 84906.44c-120.08,832.89 -506.01,1194.89 -1095.23,1398.06 -1072.82,367.49 -2413.7,-230.83 -2668.45,-1185.67 -223.48,-847.59 247.52,-1418.25 792.27,-2175.4 -607.54,182.87 -840.24,528.18 -1580.7,395.14 -657.6,-118.1 -1110.05,-842.1 -1187.65,-1185.55 -289.88,-1303.77 607.65,-2489.32 1680.59,-2469.01 481.97,7.35 664.72,210.53 888.32,393.28 446.84,363.87 541.14,672.19 890.07,1087.76 155.09,-217.88 42.48,-483.84 0,-692.5 -55.32,-271.44 -217.99,-467.27 -297.23,-690.75 -88.81,-249.27 -107.25,-553.97 -195.71,-790.41 -77.61,-204.92 -391.53,-374.84 -197.69,-592.72 692.61,64.65 1645.35,-131.17 2173.53,97.91 -204.92,784.8 -816.2,1687.83 -494.92,2668.45 182.75,-1584.43 2118.21,-1793.21 2904.89,-829.15 570.78,697.98 807.09,2779.32 -1124.52,3002.68 -371.22,44.35 -733.22,-175.4 -1087.87,-295.48 184.74,603.92 602.05,873.5 600.3,1667.64 0,66.52 0,131.17 0,195.71z"/>
  <path class="fil1" d="M16607.52 15119.14c236.32,-1628.78 989.96,-2337.96 2144.01,-2734.97 2103.51,-720.27 4729.6,452.44 5226.39,2323.14 439.37,1658.42 -482.2,2777.45 -1549.54,4258.49 1189.29,-358.15 1645.35,-1034.08 3096.97,-775.59 1287.2,230.83 2173.65,1652.82 2323.26,2321.39 565.06,2553.97 -1187.42,4878.98 -3290.93,4840.23 -945.62,-18.56 -1302.02,-415.57 -1741.39,-775.7 -873.5,-712.8 -1058.23,-1312.99 -1741.51,-2127.32 -302.84,424.67 -84.84,947.25 0,1353.6 110.75,533.67 424.79,915.98 579.88,1355.47 173.65,489.44 210.53,1084.02 387.68,1547.55 151.59,400.75 764.73,734.97 386.04,1161.63 -1355.35,-127.44 -3222.54,254.76 -4256.62,-193.95 400.63,-1534.6 1595.63,-3303.77 967.67,-5224.29 -356.4,3100.59 -4147.74,3510.56 -5687.82,1623.18 -1117.4,-1368.42 -1580.81,-5442.29 2202.94,-5881.78 725.99,-84.96 1434.94,345.31 2129.3,579.88 -363.64,-1183.68 -1180.07,-1710 -1176.33,-3263.15 0,-129.3 0,-258.49 0,-387.79z"/>
  <path class="fil1" d="M46127.39 14843.96c234.57,-1628.78 989.73,-2339.71 2143.89,-2734.97 2103.51,-720.27 4729.6,452.44 5224.41,2323.14 441.36,1656.55 -480.1,2775.7 -1547.55,4256.74 1187.54,-356.4 1645.46,-1032.32 3095.22,-775.59 1287.08,232.58 2173.53,1652.7 2323.14,2323.14 566.93,2553.97 -1187.54,4878.98 -3289.18,4838.37 -947.25,-16.57 -1301.78,-415.57 -1741.28,-773.84 -873.61,-712.8 -1059.98,-1312.99 -1741.63,-2129.18 -302.84,426.54 -86.71,949.23 0,1355.47 110.86,531.8 422.92,915.98 580,1353.6 171.67,489.44 210.41,1085.89 387.68,1549.42 149.61,398.88 764.73,734.97 386.04,1161.63 -1357.33,-127.44 -3222.54,254.87 -4256.62,-193.95 400.75,-1534.6 1595.63,-3303.77 967.67,-5226.16 -358.38,3102.46 -4147.74,3512.43 -5689.81,1625.04 -1117.28,-1370.17 -1578.83,-5442.17 2204.92,-5883.53 724,-83.21 1435.06,345.31 2129.3,581.63 -365.62,-1183.68 -1180.07,-1711.87 -1176.22,-3265.02 0,-129.19 0,-258.49 0,-385.93z"/>
  <path class="fil1" d="M31920.61 47728.39c234.45,-1628.78 987.98,-2337.96 2142.14,-2734.97 2103.28,-720.15 4729.37,452.44 5226.16,2323.14 439.61,1658.42 -482.09,2777.45 -1547.55,4258.6 1187.54,-356.4 1643.6,-1034.19 3095.22,-775.7 1287.08,230.95 2173.53,1652.82 2323.14,2323.26 566.93,2552.1 -1189.29,4877.11 -3290.81,4838.37 -945.62,-18.44 -1302.02,-415.57 -1741.63,-773.84 -873.38,-712.8 -1058,-1314.85 -1741.39,-2129.18 -302.84,424.67 -84.96,947.37 0,1353.6 110.86,533.67 424.79,917.84 579.76,1355.47 173.65,489.44 210.64,1084.02 388.03,1547.55 151.24,400.75 764.38,736.84 387.68,1161.63 -1357.33,-127.44 -3224.29,254.87 -4258.6,-193.95 400.75,-1534.6 1595.63,-3303.77 967.67,-5224.29 -356.4,3100.59 -4147.5,3512.43 -5689.57,1623.29 -1115.53,-1368.42 -1579.06,-5442.29 2205.04,-5881.89 725.64,-83.09 1434.82,345.43 2129.18,581.75 -363.87,-1183.68 -1180.07,-1711.87 -1174.46,-3265.02 0,-129.19 0,-258.49 0,-387.79z"/>
  <path class="fil1" d="M53796.77 89504.76c-234.68,1630.76 -989.85,2339.83 -2144.01,2736.84 -2103.51,720.27 -4729.6,-452.44 -5226.39,-2323.14 -439.37,-1658.3 482.09,-2777.45 1549.54,-4258.49 -1189.29,356.4 -1645.58,1034.19 -3096.97,775.59 -1287.08,-230.83 -2173.53,-1652.82 -2323.14,-2323.14 -566.93,-2552.22 1189.17,-4877.23 3290.81,-4838.37 945.62,18.44 1303.77,415.45 1741.39,773.72 873.5,712.8 1058.23,1314.85 1741.63,2129.3 302.72,-424.79 84.72,-947.37 0,-1353.72 -110.86,-533.67 -424.9,-917.73 -580,-1355.47 -173.65,-489.32 -210.41,-1084.02 -387.79,-1547.55 -151.48,-400.75 -764.62,-736.84 -385.93,-1161.51 1357.22,125.57 3222.54,-256.74 4256.62,191.97 -400.75,1536.47 -1595.63,3305.63 -967.67,5226.28 358.38,-3100.71 4147.62,-3512.43 5689.69,-1623.29 1117.28,1368.42 1578.95,5442.29 -2204.92,5881.78 -725.87,84.96 -1433.07,-345.31 -2129.18,-581.75 363.64,1183.8 1180.07,1711.98 1176.33,3265.02 0,129.3 0,258.61 0,385.93z"/>
  <path class="fil1" d="M24276.91 89781.8c-234.45,1628.78 -989.73,2337.96 -2142.14,2734.97 -2103.28,720.27 -4729.37,-452.44 -5226.16,-2323.14 -439.61,-1656.55 482.09,-2775.58 1549.3,-4256.74 -1189.29,356.52 -1647.22,1032.32 -3098.61,773.84 -1285.45,-230.83 -2171.9,-1650.95 -2321.51,-2323.14 -566.93,-2552.22 1187.54,-4877.23 3290.81,-4838.48 943.75,18.56 1302.02,417.43 1741.63,773.84 871.63,712.8 1058,1314.85 1741.28,2129.3 301.2,-424.79 85.07,-947.37 0,-1353.72 -110.75,-533.67 -424.67,-915.98 -579.65,-1355.47 -175.63,-487.57 -210.64,-1084.02 -388.03,-1547.55 -153.11,-398.88 -766.37,-734.97 -385.93,-1161.51 1355.58,127.32 3220.79,-254.87 4254.87,193.84 -400.75,1534.6 -1595.63,3303.77 -965.69,5224.41 356.4,-3100.71 4145.87,-3510.67 5687.82,-1623.29 1119.15,1370.29 1578.83,5442.29 -2204.92,5881.78 -724,84.96 -1433.19,-345.31 -2129.3,-581.75 363.75,1185.67 1181.82,1711.98 1176.22,3266.89 0,129.3 0,258.49 0,385.93z"/>
  <path class="fil2" d="M6585.48 16934.52c-1241.1,0 -2256.74,-1015.75 -2256.74,-2258.6l0 -3.73 888.32 0c142.14,626.09 703.58,1096.98 1368.42,1096.98 773.72,0 1405.3,-633.45 1405.3,-1405.3l0 -1940.95c0,-771.85 -631.58,-1403.43 -1405.3,-1403.43 -683.28,0 -1257.56,496.67 -1377.64,1146.81l-879.1 0c0,-38.86 1.98,-77.61 3.62,-116.35l-3.62 0 0 -5663.9 3634.38 -20.31 880.85 0 0 1074.8 0 1259.42 -880.85 0 0 -1259.42 -2755.28 0 0 2967.67c382.19,-297.35 860.43,-474.62 1377.64,-474.62 1242.85,0 2258.49,1015.64 2258.49,2258.49l0 2483.83c0,1242.85 -1015.64,2258.6 -2258.49,2258.6z"/>
  <path class="fil2" d="M64520.54 87473.37c1242.85,0 2258.6,1015.75 2258.6,2258.6l0 1.87 -888.32 0c-144.01,-624.23 -703.58,-1095.11 -1370.29,-1095.11 -771.85,0 -1403.43,631.58 -1403.43,1403.43l0 1942.82c0,770.1 631.58,1403.43 1403.43,1403.43 685.14,0 1257.56,-498.54 1379.51,-1148.56l879.1 0c-1.87,38.74 -1.87,79.36 -3.73,116.35l3.73 0 0 5665.65 -3634.38 22.17 -879.1 0 -3.62 0 0 -1076.67 3.62 0 0 -1261.29 879.1 0 0 1261.29 2755.28 0 0 -2965.8c-382.31,295.48 -860.43,472.75 -1379.51,472.75 -1240.98,0 -2258.49,-1017.5 -2258.49,-2258.49l0 -2483.83c0,-1242.85 1017.5,-2258.6 2258.49,-2258.6z"/>
 </g>
</svg>
