<?xml version="1.0" encoding="UTF-8"?>
<!DOCTYPE svg PUBLIC "-//W3C//DTD SVG 1.1//EN" "http://www.w3.org/Graphics/SVG/1.1/DTD/svg11.dtd">
<!-- Creator: CorelDRAW -->
<svg xmlns="http://www.w3.org/2000/svg" xml:space="preserve" width="60.2046mm" height="89.893mm" version="1.1" style="shape-rendering:geometricPrecision; text-rendering:geometricPrecision; image-rendering:optimizeQuality; fill-rule:evenodd; clip-rule:evenodd"
viewBox="0 0 1427.37 2131.23"
 xmlns:xlink="http://www.w3.org/1999/xlink"
 xmlns:xodm="http://www.corel.com/coreldraw/odm/2003">
 <defs>
  <style type="text/css">
   <![CDATA[
    .str0 {stroke:#1F1A17;stroke-width:1.81;stroke-miterlimit:22.9256}
    .fil1 {fill:#B32520}
    .fil0 {fill:white}
   ]]>
  </style>
 </defs>
 <g id="Слой_x0020_1">
  <metadata id="CorelCorpID_0Corel-Layer"/>
  <path class="fil0 str0" d="M67.72 0.9l1291.92 0c36.73,0 66.82,30.09 66.82,66.82l0 1995.79c0,36.77 -30.09,66.82 -66.82,66.82l-1291.92 0c-36.77,0 -66.82,-30.05 -66.82,-66.82l0 -1995.79c0,-36.73 30.05,-66.82 66.82,-66.82z"/>
  <path class="fil1" d="M423.88 237.27c0,0 -33.02,125.91 -119.79,172.35 0,0 103.88,66 120.99,165 0,0 32.98,-122.2 122.23,-166.2 0,0 -89.25,-47.69 -123.43,-171.15z"/>
  <path class="fil1" d="M1015.76 230.59c0,0 -33.02,125.87 -119.79,172.28 0,0 103.92,66.03 121.03,165 0,0 32.98,-122.19 122.2,-166.2 0,0 -89.22,-47.65 -123.43,-171.08z"/>
  <path class="fil1" d="M711.38 914.95c0,0 -32.98,125.91 -119.79,172.32 0,0 103.92,65.99 121.03,165 0,0 32.98,-122.19 122.2,-166.2 0,0 -89.22,-47.69 -123.43,-171.12z"/>
  <path class="fil1" d="M1015.76 1569.07c0,0 -33.02,125.91 -119.79,172.32 0,0 103.92,66 121.03,165 0,0 32.98,-122.19 122.2,-166.2 0,0 -89.22,-47.69 -123.43,-171.12z"/>
  <path class="fil1" d="M417.16 1569.07c0,0 -33.02,125.91 -119.79,172.32 0,0 103.89,66 121,165 0,0 32.98,-122.19 122.23,-166.2 0,0 -89.25,-47.69 -123.43,-171.12z"/>
  <path class="fil1" d="M145.01 358.37c0,0 -19.17,73.16 -69.63,100.14 0,0 60.4,38.38 70.35,95.93 0,0 19.17,-71.02 71.06,-96.61 0,0 -51.89,-27.72 -71.77,-99.46z"/>
  <path class="fil1" d="M1308.66 1555.6c0,0 -19.21,73.2 -69.63,100.21 0,0 60.36,38.34 70.31,95.89 0,0 19.21,-71.06 71.06,-96.65 0,0 -51.85,-27.69 -71.74,-99.46z"/>
  <path class="fil1" d="M128.24 342.65c-25.25,0 -45.88,-20.64 -45.88,-45.89l0 -0.07 18.05 0c2.89,12.72 14.29,22.25 27.83,22.25 15.65,0 28.48,-12.83 28.48,-28.51l0 -39.43c0,-15.68 -12.83,-28.51 -28.48,-28.51 -13.91,0 -25.58,10.09 -28.02,23.3l-17.86 0c0,-0.79 0.04,-1.58 0.08,-2.36l-0.08 0 0 -115.07 73.84 -0.41 17.85 0 0.04 0 0 21.84 -0.04 0 0 25.59 -17.85 0 0 -25.59 -55.98 0 0 60.29c7.76,-6.04 17.48,-9.64 28.02,-9.64 25.21,0 45.85,20.63 45.85,45.88l0 50.46c0,25.25 -20.64,45.89 -45.85,45.89z"/>
  <path class="fil1" d="M1309.41 1784.12c25.25,0 45.89,20.64 45.89,45.89l0 0.04 -18.08 0c-2.89,-12.68 -14.26,-22.25 -27.8,-22.25 -15.68,0 -28.51,12.87 -28.51,28.55l0 39.43c0,15.64 12.83,28.47 28.51,28.47 13.92,0 25.55,-10.09 28.03,-23.3l17.82 0c0,0.79 -0.04,1.61 -0.08,2.36l0.11 0 0 115.11 -73.84 0.41 -17.9 0 -0.04 0 0 -21.84 0.04 0 0 -25.62 17.9 0 0 25.62 55.94 0 0 -60.29c-7.73,6.04 -17.48,9.64 -27.99,9.64 -25.25,0 -45.89,-20.63 -45.89,-45.88l0 -50.46c0,-25.25 20.64,-45.89 45.89,-45.89z"/>
 </g>
</svg>
