<?xml version="1.0" encoding="UTF-8"?>
<!DOCTYPE svg PUBLIC "-//W3C//DTD SVG 1.1//EN" "http://www.w3.org/Graphics/SVG/1.1/DTD/svg11.dtd">
<!-- Creator: CorelDRAW -->
<svg xmlns="http://www.w3.org/2000/svg" xml:space="preserve" width="60.2046mm" height="89.8929mm" version="1.1" style="shape-rendering:geometricPrecision; text-rendering:geometricPrecision; image-rendering:optimizeQuality; fill-rule:evenodd; clip-rule:evenodd"
viewBox="0 0 2913.89 4350.8"
 xmlns:xlink="http://www.w3.org/1999/xlink"
 xmlns:xodm="http://www.corel.com/coreldraw/odm/2003">
 <defs>
  <style type="text/css">
   <![CDATA[
    .str0 {stroke:#1F1A17;stroke-width:3.69;stroke-miterlimit:22.9256}
    .fil1 {fill:#B32520}
    .fil0 {fill:white}
   ]]>
  </style>
 </defs>
 <g id="Слой_x0020_1">
  <metadata id="CorelCorpID_0Corel-Layer"/>
  <path class="fil0 str0" d="M138.25 1.84l2637.4 0c75.05,0 136.4,61.35 136.4,136.41l0 4074.22c0,75.06 -61.35,136.48 -136.4,136.48l-2637.4 0c-74.98,0 -136.41,-61.42 -136.41,-136.48l0 -4074.22c0,-75.06 61.43,-136.41 136.41,-136.41z"/>
  <path class="fil1" d="M417.97 809.26c-19.22,-21.37 -40.53,-34.16 -55.46,-34.16 -14.55,0 -50.02,-3.52 -80.03,57.82 -29.88,-60.2 -64.95,-56.75 -79.43,-56.75 -14.93,0 -36.23,12.79 -55.45,34.16 -19.22,21.29 -16.01,58.67 -9.42,78.12 6.5,19.46 143.75,219.59 143.75,219.59 0,0 138.94,-201.2 145.45,-220.65 6.59,-19.46 9.81,-56.83 -9.41,-78.12z"/>
  <path class="fil1" d="M2536.76 3559.16c19.22,21.37 40.59,34.16 55.53,34.16 14.47,0 50.01,3.52 79.96,-57.83 29.87,60.2 65.03,56.75 79.43,56.75 14.93,0 36.3,-12.79 55.52,-34.16 19.14,-21.37 16.01,-58.67 9.42,-78.12 -6.59,-19.38 -143.77,-219.59 -143.77,-219.59 0,0 -138.93,201.28 -145.51,220.65 -6.52,19.45 -9.73,56.75 9.42,78.12z"/>
  <path class="fil1" d="M1129.02 565.55c-36.53,-40.52 -77.05,-64.87 -105.46,-64.87 -27.57,0 -94.97,-6.66 -151.95,109.83 -56.75,-114.35 -123.55,-107.76 -150.96,-107.76 -28.41,0 -68.93,24.28 -105.46,64.87 -36.45,40.52 -30.41,111.52 -17.92,148.43 12.49,36.92 273.2,417.26 273.2,417.26 0,0 264,-382.34 276.49,-419.33 12.48,-36.91 18.53,-107.84 -17.93,-148.43z"/>
  <path class="fil1" d="M2333.95 565.55c-36.46,-40.52 -76.98,-64.87 -105.4,-64.87 -27.57,0 -94.97,-6.66 -151.95,109.83 -56.75,-114.35 -123.54,-107.76 -150.96,-107.76 -28.34,0 -68.93,24.28 -105.46,64.87 -36.45,40.52 -30.41,111.52 -17.92,148.43 12.48,36.92 273.19,417.26 273.19,417.26 0,0 264.01,-382.34 276.49,-419.33 12.49,-36.91 18.54,-107.84 -17.99,-148.43z"/>
  <path class="fil1" d="M1803.02 3808c36.53,40.59 77.13,64.87 105.46,64.87 27.57,0 95.05,6.66 151.96,-109.83 56.75,114.35 123.54,107.84 150.96,107.84 28.42,0 68.93,-24.35 105.46,-64.95 36.46,-40.52 30.41,-111.44 17.92,-148.43 -12.48,-36.92 -273.19,-417.26 -273.19,-417.26 0,0 -264.01,382.42 -276.49,419.33 -12.49,36.91 -18.53,107.84 17.92,148.43z"/>
  <path class="fil1" d="M598.11 3808c36.45,40.59 76.98,64.87 105.38,64.87 27.57,0 95.06,6.66 152.03,-109.83 56.68,114.35 123.46,107.84 150.88,107.84 28.34,0 68.93,-24.35 105.47,-64.95 36.46,-40.52 30.4,-111.44 17.93,-148.43 -12.49,-36.92 -273.2,-417.26 -273.2,-417.26 0,0 -264,382.42 -276.49,419.33 -12.49,36.91 -18.53,107.84 18,148.43z"/>
  <path class="fil1" d="M1185.24 1929.39c36.46,-40.59 77.05,-64.95 105.39,-64.95 27.57,0 94.97,-6.66 151.95,109.91 56.75,-114.35 123.55,-107.84 150.96,-107.84 28.42,0 68.93,24.28 105.47,64.88 36.45,40.59 30.4,111.51 17.92,148.43 -12.49,36.91 -273.2,417.26 -273.2,417.26 0,0 -264,-382.34 -276.41,-419.26 -12.56,-36.99 -18.61,-107.92 17.92,-148.43z"/>
  <path class="fil1" d="M287.52 699.5c-51.54,0 -93.67,-42.2 -93.67,-93.67l0 -0.15 36.91 0c5.82,25.89 29.11,45.42 56.75,45.42 32.02,0 58.22,-26.19 58.22,-58.21l0 -80.49c0,-32.02 -26.2,-58.21 -58.22,-58.21 -28.41,0 -52.16,20.6 -57.2,47.56l-36.46 0c0.08,-1.61 0.08,-3.21 0.15,-4.83l-0.15 0 0 -234.9 150.74 -0.92 36.53 0 0.08 0 0 44.58 -0.08 0 0 52.31 -36.53 0 0 -52.31 -114.2 0 -0.07 123.08c15.85,-12.33 35.69,-19.68 57.2,-19.68 51.48,0 93.68,42.2 93.68,93.67l0 103.09c0,51.47 -42.2,93.67 -93.68,93.67z"/>
  <path class="fil1" d="M2690.24 3642.1c51.55,0 93.68,42.2 93.68,93.67l0 0.15 -36.84 0c-5.9,-25.89 -29.18,-45.42 -56.84,-45.42 -32.01,0 -58.2,26.19 -58.2,58.21l0 80.49c0,32.02 26.19,58.21 58.2,58.21 28.42,0 52.24,-20.6 57.22,-47.56l36.46 0c0,1.61 -0.08,3.22 -0.16,4.83l0.16 0 0 234.9 -150.73 0.92 -36.46 0 -0.15 0 0 -44.65 0.15 0 0 -52.23 36.46 0 0 52.23 114.27 0 0 -123c-15.86,12.25 -35.69,19.68 -57.22,19.68 -51.46,0 -93.67,-42.2 -93.67,-93.67l0.08 -103.09c0,-51.55 42.12,-93.67 93.59,-93.67z"/>
 </g>
</svg>
