<?xml version="1.0" encoding="UTF-8"?>
<!DOCTYPE svg PUBLIC "-//W3C//DTD SVG 1.1//EN" "http://www.w3.org/Graphics/SVG/1.1/DTD/svg11.dtd">
<!-- Creator: CorelDRAW -->
<svg xmlns="http://www.w3.org/2000/svg" xml:space="preserve" width="60.2046mm" height="89.893mm" version="1.1" style="shape-rendering:geometricPrecision; text-rendering:geometricPrecision; image-rendering:optimizeQuality; fill-rule:evenodd; clip-rule:evenodd"
viewBox="0 0 2690.78 4017.67"
 xmlns:xlink="http://www.w3.org/1999/xlink"
 xmlns:xodm="http://www.corel.com/coreldraw/odm/2003">
 <defs>
  <style type="text/css">
   <![CDATA[
    .str0 {stroke:#1F1A17;stroke-width:3.41;stroke-miterlimit:22.9256}
    .fil1 {fill:#171717}
    .fil2 {fill:#1F1A17}
    .fil0 {fill:white}
   ]]>
  </style>
 </defs>
 <g id="Слой_x0020_1">
  <metadata id="CorelCorpID_0Corel-Layer"/>
  <path class="fil0 str0" d="M127.74 1.7l2435.38 0c69.31,0 125.96,56.65 125.96,125.96l0 3762.33c0,69.24 -56.65,125.97 -125.96,125.97l-2435.38 0c-69.31,0 -126.03,-56.73 -126.03,-125.97l0 -3762.33c0,-69.31 56.73,-125.96 126.03,-125.96z"/>
  <path class="fil1" d="M392.68 874.88c-5.73,-16.83 -119.81,-182.61 -131.97,-200.3l0 -1.63c-0.07,0 -0.29,0.35 -0.56,0.85 -0.35,-0.5 -0.57,-0.85 -0.57,-0.85l0 1.63c-12.24,17.68 -126.32,183.46 -132.05,200.3 -6.01,17.75 -8.91,51.98 8.63,71.51 17.61,19.52 37.13,31.26 50.78,31.26 6.23,0 16.62,0.71 28.64,-4.31 13.86,-8.63 27.87,-26.1 29.29,-61.67 0,0 2.47,60.82 -20.94,96.12 -1.48,2.76 -3.04,5.3 -4.74,7.42 0,0 31.9,-2.69 40.95,-2.61 8.98,-0.07 40.87,2.61 40.87,2.61 -1.7,-2.12 -3.25,-4.67 -4.73,-7.42 -23.41,-35.29 -20.94,-96.12 -20.94,-96.12 1.42,35.58 15.49,53.04 29.28,61.67 12.02,5.02 22.49,4.31 28.64,4.31 13.65,0 33.18,-11.74 50.78,-31.26 17.62,-19.52 14.65,-53.75 8.63,-71.51z"/>
  <path class="fil1" d="M2321.09 3146.39c5.73,16.76 119.81,182.54 132.04,200.22l0 1.7c0,-0.07 0.21,-0.35 0.57,-0.85 0.29,0.5 0.57,0.78 0.57,0.85l0 -1.7c12.24,-17.68 126.31,-183.46 132.04,-200.22 6.02,-17.82 8.91,-52.05 -8.69,-71.57 -17.54,-19.52 -37.07,-31.26 -50.78,-31.26 -6.23,0 -16.55,-0.63 -28.65,4.32 -13.79,8.63 -27.87,26.1 -29.28,61.67 0,0 -2.48,-60.76 20.93,-96.12 1.49,-2.76 3.05,-5.31 4.75,-7.42 0,0 -31.83,2.69 -40.89,2.61 -9.05,0.07 -40.88,-2.61 -40.88,-2.61 1.69,2.12 3.19,4.67 4.67,7.42 23.42,35.36 20.94,96.12 20.94,96.12 -1.42,-35.58 -15.42,-53.05 -29.22,-61.67 -12.09,-4.95 -22.49,-4.32 -28.71,-4.32 -13.65,0 -33.25,11.74 -50.79,31.26 -17.61,19.52 -14.64,53.75 -8.63,71.57z"/>
  <path class="fil1" d="M1580.38 2077.5c-9.91,-29.14 -207.23,-315.72 -228.31,-346.41l0 -2.83c-0.06,0.07 -0.42,0.63 -0.98,1.41 -0.57,-0.78 -0.92,-1.34 -0.99,-1.41l0 2.83c-21.08,30.7 -218.48,317.28 -228.31,346.41 -10.39,30.77 -15.49,89.89 14.93,123.7 30.41,33.74 64.21,54.03 87.84,54.03 10.68,0 28.64,1.14 49.58,-7.5 23.9,-14.92 48.16,-45.12 50.56,-106.65 0,0 4.32,105.1 -36.21,166.27 -2.55,4.74 -5.16,9.19 -8.13,12.8 0,0 55.09,-4.67 70.73,-4.53 15.63,-0.14 70.72,4.53 70.72,4.53 -2.97,-3.61 -5.59,-8.06 -8.13,-12.8 -40.52,-61.18 -36.21,-166.27 -36.21,-166.27 2.4,61.53 26.67,91.73 50.57,106.65 20.86,8.63 38.83,7.5 49.58,7.5 23.62,0 57.42,-20.3 87.77,-54.03 30.41,-33.81 25.39,-92.93 14.99,-123.7z"/>
  <path class="fil1" d="M2140.32 823.32c-9.84,-29.14 -207.16,-315.72 -228.23,-346.34l0 -2.9c-0.08,0.07 -0.43,0.63 -1,1.48 -0.56,-0.85 -0.98,-1.41 -0.98,-1.48l0 2.9c-21.15,30.62 -218.47,317.2 -228.31,346.34 -10.4,30.77 -15.49,89.89 14.92,123.63 30.35,33.81 64.15,54.11 87.85,54.11 10.68,0 28.64,1.13 49.51,-7.5 23.9,-14.85 48.23,-45.12 50.64,-106.66 0,0 4.24,105.17 -36.21,166.28 -2.55,4.74 -5.23,9.19 -8.13,12.87 0,0 55.02,-4.74 70.72,-4.6 15.64,-0.14 70.73,4.6 70.73,4.6 -2.97,-3.68 -5.59,-8.13 -8.21,-12.87 -40.45,-61.11 -36.21,-166.28 -36.21,-166.28 2.47,61.53 26.74,91.81 50.57,106.66 20.93,8.63 38.9,7.5 49.58,7.5 23.69,0 57.42,-20.3 87.84,-54.11 30.41,-33.73 25.31,-92.86 14.92,-123.63z"/>
  <path class="fil1" d="M1020.37 823.32c-9.83,-29.14 -207.15,-315.72 -228.3,-346.34l0 -2.9c0,0.07 -0.42,0.63 -0.99,1.48 -0.49,-0.85 -0.92,-1.41 -0.92,-1.48l0 2.9c-21.15,30.62 -218.48,317.2 -228.38,346.34 -10.32,30.77 -15.42,89.89 14.92,123.63 30.41,33.81 64.22,54.11 87.84,54.11 10.75,0 28.71,1.13 49.58,-7.5 23.9,-14.85 48.17,-45.12 50.57,-106.66 0,0 4.31,105.17 -36.14,166.28 -2.54,4.74 -5.24,9.19 -8.21,12.87 0,0 55.1,-4.74 70.73,-4.6 15.7,-0.14 70.73,4.6 70.73,4.6 -2.91,-3.68 -5.59,-8.13 -8.13,-12.87 -40.46,-61.11 -36.21,-166.28 -36.21,-166.28 2.4,61.53 26.73,91.81 50.57,106.66 20.93,8.63 38.83,7.5 49.57,7.5 23.63,0 57.44,-20.3 87.77,-54.11 30.41,-33.73 25.4,-92.86 14.99,-123.63z"/>
  <path class="fil1" d="M551.25 3197.03c9.9,29.14 207.16,315.79 228.3,346.41l0 2.83c0,-0.07 0.42,-0.63 0.99,-1.41 0.57,0.78 0.92,1.34 0.99,1.41l0 -2.83c21.07,-30.62 218.4,-317.28 228.3,-346.41 10.4,-30.7 15.42,-89.89 -14.92,-123.63 -30.41,-33.81 -64.22,-54.03 -87.84,-54.03 -10.75,0 -28.64,-1.13 -49.57,7.43 -23.91,14.92 -48.17,45.12 -50.58,106.65 0,0 -4.31,-105.17 36.22,-166.27 2.55,-4.74 5.16,-9.12 8.13,-12.8 0,0 -55.1,4.67 -70.73,4.52 -15.63,0.14 -70.73,-4.52 -70.73,-4.52 2.97,3.68 5.59,8.06 8.13,12.8 40.46,61.11 36.21,166.27 36.21,166.27 -2.4,-61.53 -26.73,-91.73 -50.57,-106.65 -20.93,-8.56 -38.82,-7.43 -49.57,-7.43 -23.62,0 -57.43,20.23 -87.77,54.03 -30.41,33.74 -25.4,92.94 -14.99,123.63z"/>
  <path class="fil1" d="M1692.34 3197.03c9.83,29.14 207.15,315.79 228.3,346.41l0 2.83c0,-0.07 0.42,-0.63 0.99,-1.41 0.5,0.78 0.92,1.34 0.92,1.41l0 -2.83c21.14,-30.62 218.48,-317.28 228.37,-346.41 10.33,-30.7 15.42,-89.89 -14.92,-123.63 -30.41,-33.81 -64.22,-54.03 -87.84,-54.03 -10.74,0 -28.64,-1.13 -49.57,7.43 -23.9,14.92 -48.17,45.12 -50.57,106.65 0,0 -4.32,-105.17 36.22,-166.27 2.47,-4.74 5.16,-9.12 8.13,-12.8 0,0 -55.1,4.67 -70.73,4.52 -15.62,0.14 -70.72,-4.52 -70.72,-4.52 2.97,3.68 5.59,8.06 8.13,12.8 40.46,61.11 36.22,166.27 36.22,166.27 -2.4,-61.53 -26.73,-91.73 -50.57,-106.65 -20.93,-8.56 -38.83,-7.43 -49.57,-7.43 -23.62,0 -57.43,20.23 -87.77,54.03 -30.42,33.74 -25.4,92.94 -14.99,123.63z"/>
  <path class="fil2" d="M268.13 632.72c-47.6,0 -86.5,-38.97 -86.5,-86.5l0 -0.14 34.09 0c5.45,23.91 26.88,41.94 52.41,41.94 29.56,0 53.75,-24.19 53.75,-53.75l0 -74.33c0,-29.56 -24.19,-53.75 -53.75,-53.75 -26.17,0 -48.17,19.03 -52.83,43.92l-33.67 0c0.08,-1.48 0.14,-2.97 0.21,-4.46l-0.21 0 0 -216.91 139.19 -0.85 33.73 0 0.07 0 0 41.23 -0.07 0 0 48.24 -33.73 0 0 -48.24 -105.46 0 0 113.58c14.64,-11.31 32.96,-18.11 52.76,-18.11 47.53,0 86.5,38.9 86.5,86.5l0 95.13c0,47.53 -38.96,86.5 -86.5,86.5z"/>
  <path class="fil2" d="M2455.26 3350.01c47.52,0 86.42,38.97 86.5,86.5l0 0.14 -34.09 0c-5.45,-23.91 -26.95,-41.94 -52.41,-41.94 -29.56,0 -53.82,24.19 -53.82,53.75l0 74.33c0,29.56 24.26,53.75 53.82,53.75 26.17,0 48.17,-19.03 52.76,-43.92l33.66 0c0,1.48 -0.07,2.97 -0.14,4.46l0.22 0 0 216.92 -139.26 0.84 -33.67 0 -0.07 0 0 -41.16 0.07 0 0 -48.31 33.67 0 0 48.31 105.52 0 0 -113.66c-14.64,11.38 -32.96,18.11 -52.76,18.11 -47.6,0 -86.5,-38.9 -86.5,-86.43l0 -95.2c0,-47.53 38.9,-86.5 86.5,-86.5z"/>
 </g>
</svg>
