<?xml version="1.0" encoding="UTF-8"?>
<!DOCTYPE svg PUBLIC "-//W3C//DTD SVG 1.1//EN" "http://www.w3.org/Graphics/SVG/1.1/DTD/svg11.dtd">
<!-- Creator: CorelDRAW -->
<svg xmlns="http://www.w3.org/2000/svg" xml:space="preserve" width="66.5661mm" height="94.8578mm" version="1.1" style="shape-rendering:geometricPrecision; text-rendering:geometricPrecision; image-rendering:optimizeQuality; fill-rule:evenodd; clip-rule:evenodd"
viewBox="0 0 5149.15 7337.62"
 xmlns:xlink="http://www.w3.org/1999/xlink"
 xmlns:xodm="http://www.corel.com/coreldraw/odm/2003">
 <defs>
  <style type="text/css">
   <![CDATA[
    .str0 {stroke:#1F1A17;stroke-width:5.89;stroke-miterlimit:22.9256}
    .str1 {stroke:#1F1A17;stroke-width:5.9;stroke-miterlimit:22.9256}
    .fil1 {fill:#B32520}
    .fil0 {fill:white}
   ]]>
  </style>
 </defs>
 <g id="Слой_x0020_1">
  <metadata id="CorelCorpID_0Corel-Layer"/>
  <g id="_2299320765920">
   <path class="fil0 str0" d="M220.95 2.95l4215.14 0c119.84,0 217.9,98.17 217.9,218.01l0 6511.66c0,119.96 -98.05,218.01 -217.9,218.01l-4215.14 0c-119.96,0 -218.01,-98.05 -218.01,-218.01l0 -6511.66c0,-119.84 98.05,-218.01 218.01,-218.01z"/>
   <path class="fil1" d="M667.99 1293.39c-30.72,-34.04 -64.88,-54.47 -88.74,-54.47 -23.14,0 -79.81,-5.63 -127.8,92.41 -47.74,-96.21 -103.92,-90.71 -126.93,-90.71 -23.88,0 -58.03,20.44 -88.76,54.47 -30.6,34.15 -25.57,93.89 -15.05,124.98 10.53,30.97 229.75,350.95 229.75,350.95 0,0 222.06,-321.69 232.59,-352.66 10.4,-31.09 15.54,-90.82 -15.06,-124.97z"/>
   <path class="fil1" d="M4054.31 5688.47c30.59,34.15 64.75,54.59 88.62,54.59 23.26,0 79.93,5.52 127.92,-92.41 47.74,96.21 103.92,90.71 126.82,90.71 23.86,0 58.02,-20.44 88.74,-54.6 30.72,-34.15 25.59,-93.76 15.06,-124.86 -10.53,-31.09 -229.77,-350.95 -229.77,-350.95 0,0 -221.93,321.57 -232.56,352.66 -10.41,30.96 -15.56,90.71 15.18,124.86z"/>
   <path class="fil1" d="M1804.3 904c-58.26,-64.88 -123.13,-103.69 -168.55,-103.69 -44.07,0 -151.78,-10.64 -242.85,175.54 -90.71,-182.76 -197.45,-172.35 -241.14,-172.35 -45.42,0 -110.3,38.92 -168.55,103.68 -58.39,64.88 -48.6,178.35 -28.64,237.35 19.95,59 436.62,666.88 436.62,666.88 0,0 421.82,-611.19 441.78,-670.19 19.95,-59.01 29.63,-172.48 -28.65,-237.23z"/>
   <path class="fil1" d="M3730.17 904c-58.39,-64.88 -123.14,-103.69 -168.43,-103.69 -44.07,0 -151.92,-10.64 -242.99,175.54 -90.7,-182.76 -197.44,-172.35 -241.27,-172.35 -45.28,0 -110.04,38.92 -168.42,103.68 -58.4,64.88 -48.6,178.35 -28.77,237.35 20.07,59 436.76,666.88 436.76,666.88 0,0 421.82,-611.19 441.76,-670.19 19.97,-59.01 29.75,-172.48 -28.64,-237.23z"/>
   <path class="fil1" d="M2881.63 6086.17c58.39,64.75 123.15,103.68 168.56,103.68 44.07,0 151.78,10.65 242.86,-175.66 90.57,182.76 197.32,172.48 241.14,172.48 45.41,0 110.18,-38.93 168.56,-103.81 58.38,-64.75 48.59,-178.22 28.64,-237.23 -19.95,-59 -436.62,-666.88 -436.62,-666.88 0,0 -421.83,611.19 -441.78,670.07 -19.94,59 -29.74,172.48 28.64,237.35z"/>
   <path class="fil1" d="M955.78 6086.17c58.26,64.75 123.14,103.68 168.55,103.68 44.07,0 151.78,10.65 242.85,-175.66 90.71,182.76 197.45,172.48 241.15,172.48 45.41,0 110.29,-38.93 168.55,-103.81 58.39,-64.75 48.6,-178.22 28.65,-237.23 -19.96,-59 -436.52,-666.88 -436.52,-666.88 0,0 -421.93,611.19 -441.89,670.07 -20.07,59 -29.73,172.48 28.65,237.35z"/>
   <path class="fil1" d="M2909.05 3083.61c58.39,-64.88 123.14,-103.68 168.55,-103.68 44.07,0 151.78,-10.65 242.85,175.53 90.71,-182.76 197.32,-172.35 241.27,-172.35 45.29,0 110.04,38.92 168.43,103.69 58.39,64.88 48.6,178.35 28.77,237.34 -20.07,59.01 -436.76,666.88 -436.76,666.88 0,0 -421.82,-611.06 -441.89,-670.19 -19.83,-59 -29.63,-172.35 28.77,-237.23z"/>
   <path class="fil1" d="M955.78 3083.61c58.26,-64.88 123.14,-103.68 168.55,-103.68 44.07,0 151.78,-10.65 242.85,175.53 90.71,-182.76 197.45,-172.35 241.15,-172.35 45.41,0 110.29,38.92 168.55,103.69 58.39,64.88 48.6,178.35 28.65,237.34 -19.96,59.01 -436.52,666.88 -436.52,666.88 0,0 -421.93,-611.06 -441.89,-670.19 -20.07,-59 -29.73,-172.35 28.65,-237.23z"/>
   <path class="fil1" d="M406.9 1142.33c-82.38,0 -149.72,-67.32 -149.72,-149.7l0 -91.93c0,-3.06 0.13,-6.25 0.26,-9.31l-0.26 0 0 -262.32 0 -21.67 0 -20.81c0,-82.26 67.34,-149.71 149.72,-149.71 82.26,0 149.57,67.33 149.57,149.71l0 42.48 -56.55 0 0 -27.05c0,-51.29 -41.86,-93.16 -93.02,-93.16 -51.3,0 -93.03,41.99 -93.03,93.16l0 5.38 1.59 0 0 175.04c25.34,-19.71 57.03,-31.46 91.44,-31.46 82.26,0 149.57,67.33 149.57,149.71l0 91.93c0,82.38 -67.31,149.7 -149.57,149.7zm0 -77.24l0 0c51.15,0 93.02,-41.86 93.02,-93.03l0 -55.94c0,-51.16 -41.86,-93.03 -93.02,-93.03 -51.3,0 -93.03,41.86 -93.03,93.03l0 55.94c0,51.05 41.73,93.03 93.03,93.03z"/>
   <path class="fil1" d="M4269.26 5791.54c82.25,0 149.57,67.44 149.57,149.7l0 91.94c0,3.18 0,6.24 -0.24,9.3l0.24 0 0 262.32 0 21.67 0 20.81c0,82.38 -67.32,149.71 -149.57,149.71 -82.38,0 -149.71,-67.33 -149.71,-149.71l0 -42.48 56.67 0 0 27.17c0,51.17 41.86,93.03 93.04,93.03 51.16,0 93.02,-41.86 93.02,-93.03l0 -5.51 -1.7 0 0 -174.92c-25.35,19.59 -57.04,31.34 -91.32,31.34 -82.38,0 -149.71,-67.33 -149.71,-149.7l0 -91.94c0,-82.38 67.33,-149.7 149.71,-149.7zm0 77.36l0 0c-51.18,0 -93.04,41.86 -93.04,93.03l0 55.94c0,51.16 41.86,93.03 93.04,93.03 51.16,0 93.02,-41.99 93.02,-93.03l0 -55.94c0,-51.17 -41.86,-93.03 -93.02,-93.03z"/>
  </g>
 </g>
 <g id="Слой_x0020_1_0">
  <metadata id="CorelCorpID_1Corel-Layer"/>
  <g id="_2299320791984">
   <path class="fil0 str1" d="M713.16 386.99l4215.03 0c119.96,0 218.01,98.19 218.01,218.02l0 6511.64c0,119.84 -98.05,218.01 -218.01,218.01l-4215.03 0c-119.96,0 -218.12,-98.17 -218.12,-218.01l0 -6511.64c0,-119.84 98.19,-218.02 218.12,-218.02z"/>
   <path class="fil1" d="M1875.04 1158.3c0,0 -107.71,410.67 -390.84,562.22 0,0 338.95,215.32 394.88,538.35 0,0 107.58,-398.7 398.67,-542.27 0,0 -291.07,-155.57 -402.73,-558.3l0.01 0.01z"/>
   <path class="fil1" d="M3806.17 1136.38c0,0 -107.6,410.67 -390.73,562.09 0,0 338.95,215.45 394.77,538.47 0,0 107.74,-398.8 398.8,-542.38 0,0 -291.07,-155.46 -402.83,-558.19l-0.01 0.01z"/>
   <path class="fil1" d="M3806.17 5503.43c0,0 -107.6,410.81 -390.73,562.22 0,0 338.95,215.32 394.77,538.37 0,0 107.74,-398.7 398.8,-542.27 0,0 -291.07,-155.57 -402.83,-558.3l-0.01 -0.01z"/>
   <path class="fil1" d="M1853.15 5503.43c0,0 -107.72,410.81 -390.85,562.22 0,0 338.95,215.32 394.78,538.37 0,0 107.72,-398.7 398.67,-542.27 0,0 -290.96,-155.57 -402.6,-558.3l0 -0.01z"/>
   <path class="fil1" d="M965.33 1553.3c0,0 -62.67,238.71 -227.32,326.84 0,0 197.2,125.1 229.52,312.87 0,0 62.67,-231.71 231.84,-315.2 0,0 -169.18,-90.47 -234.05,-324.51l0.02 0.02z"/>
   <path class="fil1" d="M4761.69 5459.48c0,0 -62.55,238.82 -227.06,326.84 0,0 196.96,125.22 229.52,312.99 0,0 62.55,-231.84 231.71,-315.33 0,0 -169.17,-90.33 -234.17,-324.51l0 0.02z"/>
   <path class="fil1" d="M957.36 1524.54c-82.38,0 -149.71,-67.44 -149.71,-149.71l0 -91.92c0,-3.19 0.12,-6.37 0.36,-9.41l-0.36 0 0 -262.21 0 -21.79 0 -20.82c0,-82.27 67.33,-149.71 149.71,-149.71 82.27,0 149.71,67.44 149.71,149.71l0 42.59 -56.68 0 0 -27.17c0,-51.16 -41.86,-93.15 -93.03,-93.15 -51.16,0 -93.03,41.99 -93.03,93.15l0 5.4 1.59 0 0 175.04c25.34,-19.59 57.03,-31.34 91.43,-31.34 82.27,0 149.71,67.33 149.71,149.71l0 91.92c0,82.38 -67.44,149.71 -149.71,149.71l0 0.01zm0 -77.37l0 0c51.16,0 93.03,-41.86 93.03,-93.03l0 -55.93c0,-51.16 -41.86,-93.03 -93.03,-93.03 -51.16,0 -93.03,41.86 -93.03,93.03l0 55.93c0,51.16 41.86,93.03 93.03,93.03z"/>
   <path class="fil1" d="M4779.2 6176.92c82.38,0 149.71,67.44 149.71,149.71l0 91.94c0,3.19 -0.12,6.25 -0.36,9.41l0.36 0 0 262.33 0 21.67 0 20.8c0,82.27 -67.33,149.59 -149.71,149.59 -82.38,0 -149.71,-67.33 -149.71,-149.59l0 -42.48 56.66 0 0 27.05c0,51.16 41.86,93.03 93.03,93.03 51.16,0 93.03,-41.86 93.03,-93.03l0 -5.38 -1.59 0 0 -175.04c-25.34,19.59 -57.03,31.34 -91.43,31.34 -82.38,0 -149.71,-67.33 -149.71,-149.71l0 -91.94c0,-82.27 67.33,-149.71 149.71,-149.71l0.02 0.01zm0 77.37l0 0c-51.16,0 -93.03,41.86 -93.03,93.03l0 55.93c0,51.16 41.86,93.03 93.03,93.03 51.16,0 93.03,-41.86 93.03,-93.03l0 -55.93c0,-51.04 -41.86,-93.03 -93.03,-93.03z"/>
   <path class="fil1" d="M1875.04 3332.64c0,0 -107.71,410.81 -390.84,562.22 0,0 338.95,215.32 394.88,538.35 0,0 107.58,-398.7 398.67,-542.27 0,0 -291.07,-155.46 -402.73,-558.3l0.01 0.01z"/>
   <path class="fil1" d="M3806.17 3332.64c0,0 -107.6,410.81 -390.73,562.22 0,0 338.95,215.32 394.77,538.35 0,0 107.74,-398.7 398.8,-542.27 0,0 -291.07,-155.46 -402.83,-558.3l-0.01 0.01z"/>
  </g>
 </g>
</svg>
