<?xml version="1.0" encoding="UTF-8"?>
<!DOCTYPE svg PUBLIC "-//W3C//DTD SVG 1.1//EN" "http://www.w3.org/Graphics/SVG/1.1/DTD/svg11.dtd">
<!-- Creator: CorelDRAW -->
<svg xmlns="http://www.w3.org/2000/svg" xml:space="preserve" width="65.6261mm" height="95.4859mm" version="1.1" style="shape-rendering:geometricPrecision; text-rendering:geometricPrecision; image-rendering:optimizeQuality; fill-rule:evenodd; clip-rule:evenodd"
viewBox="0 0 2770.83 4031.55"
 xmlns:xlink="http://www.w3.org/1999/xlink"
 xmlns:xodm="http://www.corel.com/coreldraw/odm/2003">
 <defs>
  <style type="text/css">
   <![CDATA[
    .str0 {stroke:#1F1A17;stroke-width:3.22;stroke-miterlimit:22.9256}
    .str1 {stroke:#1F1A17;stroke-width:3.22;stroke-miterlimit:22.9256}
    .fil1 {fill:#171717}
    .fil2 {fill:#1F1A17}
    .fil0 {fill:white}
   ]]>
  </style>
 </defs>
 <g id="Слой_x0020_1">
  <metadata id="CorelCorpID_0Corel-Layer"/>
  <g id="_2299345630096">
   <path class="fil0 str0" d="M120.61 1.61l2300.73 0c65.47,0 118.99,53.52 118.99,119l0 3554.2c0,65.41 -53.52,119 -118.99,119l-2300.73 0c-65.41,0 -119,-53.58 -119,-119l0 -3554.2c0,-65.48 53.59,-119 119,-119z"/>
   <path class="fil1" d="M174.94 714.45c4.34,-30.13 18.31,-43.23 39.62,-50.58 38.82,-13.3 87.32,8.35 96.54,42.96 8.08,30.6 -8.88,51.25 -28.6,78.64 21.91,-6.61 30.39,-19.11 57.19,-14.3 23.79,4.21 40.15,30.47 42.89,42.89 10.5,47.18 -21.91,90.07 -60.8,89.33 -17.44,-0.26 -24.05,-7.62 -32.13,-14.24 -16.18,-13.16 -19.57,-24.32 -32.21,-39.35 -5.54,7.89 -1.6,17.51 0,25.05 2.08,9.82 7.89,16.9 10.77,24.98 3.2,9.02 3.87,20.05 7.14,28.6 2.81,7.41 14.1,13.57 7.14,21.45 -25.06,-2.34 -59.53,4.75 -78.71,-3.54 7.42,-28.39 29.54,-61.07 17.91,-96.54 -6.61,57.32 -76.64,64.88 -105.1,30 -20.64,-25.25 -29.2,-100.55 40.76,-108.64 13.36,-1.6 26.46,6.34 39.28,10.69 -6.68,-21.85 -21.78,-31.61 -21.71,-60.33 0,-2.41 0,-4.75 0,-7.08l0 0.01z"/>
   <path class="fil1" d="M2397.61 3071.96c-4.41,30.07 -18.31,43.16 -39.62,50.51 -38.89,13.3 -87.38,-8.35 -96.54,-42.96 -8.16,-30.6 8.88,-51.24 28.6,-78.63 -21.98,6.61 -30.39,19.11 -57.19,14.3 -23.78,-4.21 -40.15,-30.47 -42.96,-42.89 -10.42,-47.17 21.98,-90.13 60.8,-89.4 17.51,0.33 24.05,7.68 32.2,14.3 16.1,13.16 19.58,24.32 32.21,39.35 5.55,-7.89 1.55,-17.51 0,-25.05 -2.08,-9.82 -7.89,-16.91 -10.76,-24.99 -3.21,-9.02 -3.87,-20.05 -7.14,-28.6 -2.81,-7.41 -14.17,-13.62 -7.15,-21.44 25.06,2.34 59.54,-4.75 78.64,3.54 -7.35,28.33 -29.47,61.07 -17.84,96.55 6.55,-57.33 76.64,-64.88 105.1,-30 20.65,25.25 29.13,100.55 -40.76,108.63 -13.35,1.6 -26.46,-6.34 -39.35,-10.69 6.74,21.85 21.85,31.61 21.78,60.33 0,2.34 0,4.75 0,7.14l-0.02 0.01z"/>
   <path class="fil1" d="M600.93 547.01c8.49,-58.93 35.81,-84.58 77.57,-98.95 76.1,-26.06 171.04,16.37 189.09,84.05 15.89,60 -17.51,100.49 -56.07,154 43.02,-12.9 59.53,-37.34 112.04,-27.99 46.51,8.35 78.58,59.73 83.99,84.05 20.51,92.34 -42.96,176.46 -119.06,175.05 -34.15,-0.67 -47.04,-15.1 -63.01,-27.99 -31.54,-25.78 -38.28,-47.57 -62.94,-77.04 -10.96,15.37 -3.14,34.28 0,48.97 3.95,19.3 15.37,33.14 20.98,49.04 6.28,17.64 7.62,39.22 13.97,55.99 5.54,14.43 27.72,26.59 14.03,42.03 -49.1,-4.61 -116.59,9.22 -154,-7.01 14.5,-55.53 57.73,-119.53 35.01,-189.02 -12.96,112.18 -150.06,127.01 -205.85,58.73 -40.42,-49.5 -57.12,-196.9 79.78,-212.8 26.2,-3.07 51.92,12.49 77.04,21.05 -13.16,-42.89 -42.75,-61.93 -42.55,-118.19 0,-4.67 0,-9.35 0,-13.97z"/>
   <path class="fil1" d="M1668.95 537.06c8.42,-58.93 35.81,-84.65 77.57,-98.95 76.02,-26.06 171.04,16.37 189.01,84.05 15.97,59.93 -17.44,100.42 -56.06,154 43.02,-12.89 59.52,-37.42 112.04,-28.06 46.57,8.35 78.64,59.8 84.05,84.05 20.51,92.4 -42.96,176.45 -119.07,175.05 -34.21,-0.6 -47.11,-15.04 -63.01,-27.99 -31.54,-25.78 -38.28,-47.57 -63,-77.04 -10.9,15.43 -3.07,34.28 0,49.04 4.01,19.3 15.37,33.14 20.98,48.97 6.28,17.71 7.63,39.29 14.03,56.06 5.48,14.43 27.66,26.59 13.97,41.96 -49.04,-4.54 -116.53,9.28 -154.01,-6.95 14.57,-55.58 57.73,-119.53 35.01,-189.08 -12.89,112.25 -150.06,127.07 -205.79,58.8 -40.42,-49.5 -57.19,-196.9 79.71,-212.87 26.26,-3.01 51.92,12.5 77.04,21.05 -13.16,-42.83 -42.69,-61.93 -42.49,-118.12 0,-4.67 0,-9.35 0,-13.97l0.02 0z"/>
   <path class="fil1" d="M600.93 1716.85c8.49,-58.93 35.81,-84.65 77.57,-98.95 76.1,-26.06 171.04,16.37 189.09,84.05 15.89,59.93 -17.51,100.42 -56.07,154 43.02,-12.89 59.53,-37.42 112.04,-27.99 46.51,8.36 78.58,59.74 83.99,84.05 20.51,92.34 -42.96,176.45 -119.06,174.98 -34.15,-0.6 -47.04,-15.03 -63.01,-27.99 -31.54,-25.8 -38.28,-47.51 -62.94,-77.04 -10.96,15.43 -3.14,34.34 0,49.04 3.95,19.3 15.37,33.14 20.98,49.04 6.28,17.64 7.62,39.22 13.97,55.99 5.54,14.43 27.72,26.59 14.03,41.96 -49.1,-4.54 -116.59,9.29 -154,-6.95 14.5,-55.53 57.73,-119.53 35.01,-189.08 -12.96,112.25 -150.06,127.07 -205.85,58.8 -40.42,-49.5 -57.12,-196.9 79.78,-212.8 26.2,-3.07 51.92,12.43 77.04,20.98 -13.16,-42.83 -42.75,-61.93 -42.55,-118.12 0,-4.67 0,-9.36 0,-13.97z"/>
   <path class="fil1" d="M1678.9 1726.8c8.48,-58.93 35.81,-84.58 77.57,-98.88 76.02,-26.12 171.04,16.31 189.08,83.98 15.9,60 -17.51,100.49 -56.06,154 43.02,-12.89 59.53,-37.34 112.04,-27.99 46.51,8.35 78.58,59.73 83.99,84.05 20.51,92.4 -42.97,176.45 -119,175.05 -34.2,-0.66 -47.1,-15.1 -63.07,-27.99 -31.54,-25.78 -38.28,-47.57 -62.94,-77.04 -10.96,15.36 -3.14,34.28 0,49.04 3.95,19.24 15.3,33.07 20.98,48.97 6.28,17.64 7.54,39.29 14.03,56.06 5.48,14.37 27.67,26.52 13.97,41.96 -49.11,-4.61 -116.59,9.22 -154,-7.01 14.5,-55.53 57.73,-119.53 35.01,-189.01 -12.96,112.25 -150.06,127.01 -205.85,58.73 -40.42,-49.5 -57.12,-196.9 79.78,-212.8 26.19,-3.01 51.85,12.5 77.04,21.05 -13.16,-42.83 -42.75,-61.93 -42.55,-118.19 0,-4.67 0,-9.35 0,-13.97l-0.01 -0.01z"/>
   <path class="fil1" d="M1946.35 3238.32c-8.48,58.93 -35.75,84.58 -77.5,98.95 -76.1,26.06 -171.11,-16.37 -189.08,-84.05 -15.9,-60 17.44,-100.49 56.06,-154.07 -43.02,12.96 -59.6,37.42 -112.04,28.06 -46.57,-8.42 -78.64,-59.8 -84.05,-84.05 -20.51,-92.41 42.96,-176.46 119.07,-175.05 34.21,0.6 47.11,15.03 63.01,27.99 31.6,25.78 38.28,47.57 63,77.04 10.96,-15.37 3.07,-34.28 0,-49.04 -4.01,-19.24 -15.37,-33.07 -20.98,-48.97 -6.28,-17.7 -7.62,-39.29 -14.03,-56.06 -5.54,-14.43 -27.72,-26.52 -13.97,-41.95 49.04,4.61 116.52,-9.29 154,6.95 -14.57,55.58 -57.73,119.6 -35.01,189.08 12.96,-112.25 150.06,-127.01 205.79,-58.73 40.49,49.5 57.12,196.9 -79.78,212.8 -26.2,3.01 -51.84,-12.49 -77.04,-21.05 13.22,42.89 42.76,61.93 42.56,118.12 0,4.67 0,9.35 0,14.03l-0.03 0.01z"/>
   <path class="fil1" d="M878.4 3248.28c-8.55,58.93 -35.81,84.65 -77.57,98.95 -76.1,26.06 -171.11,-16.37 -189.09,-84.05 -15.89,-60 17.44,-100.49 56.07,-154.07 -43.02,12.96 -59.53,37.42 -112.04,28.06 -46.51,-8.35 -78.57,-59.73 -83.99,-83.99 -20.52,-92.4 42.96,-176.52 119,-175.05 34.2,0.6 47.1,14.97 63,27.99 31.61,25.78 38.29,47.5 63.01,77.04 10.95,-15.43 3.07,-34.33 0,-49.04 -4.01,-19.3 -15.37,-33.14 -20.98,-49.04 -6.28,-17.71 -7.62,-39.22 -14.03,-55.99 -5.49,-14.5 -27.67,-26.59 -13.97,-41.96 49.1,4.54 116.59,-9.28 154,6.95 -14.5,55.53 -57.73,119.53 -35.01,189.08 12.96,-112.25 150.06,-127.07 205.85,-58.8 40.42,49.5 57.12,196.9 -79.77,212.8 -26.26,3.07 -51.92,-12.49 -77.04,-20.98 13.16,42.83 42.75,61.93 42.56,118.12 0,4.61 0,9.28 0,13.97l-0.01 0.01z"/>
   <path class="fil2" d="M234.13 611.48c-44.97,0 -81.71,-36.75 -81.71,-81.65l0 -50.25c0,-1.68 0.07,-3.41 0.13,-5.08l-0.13 0 0 -143.18 0 -11.83 0 -11.36c0,-44.9 36.75,-81.71 81.71,-81.71 44.9,0 81.65,36.75 81.65,81.71l0 23.19 -30.87 0 0 -14.77c0,-27.99 -22.85,-50.84 -50.79,-50.84 -27.98,0 -50.84,22.92 -50.84,50.84l0 2.94 0.92 0 0 95.54c13.84,-10.76 31.14,-17.17 49.91,-17.17 44.9,0 81.65,36.81 81.65,81.71l0 50.25c0,44.9 -36.75,81.65 -81.65,81.65l0.02 0zm0 -42.16l0 0c27.93,0 50.79,-22.85 50.79,-50.78l0 -30.53c0,-27.93 -22.85,-50.78 -50.79,-50.78 -27.98,0 -50.84,22.85 -50.84,50.78l0 30.53c0,27.85 22.85,50.78 50.84,50.78z"/>
   <path class="fil2" d="M2330.26 3173.11c44.97,0 81.71,36.75 81.71,81.71l0 50.18c0,1.74 -0.07,3.41 -0.13,5.08l0.13 0 0 143.18 0 11.83 0 11.36c0,44.9 -36.75,81.71 -81.71,81.71 -44.9,0 -81.64,-36.75 -81.64,-81.71l0 -23.19 30.87 0 0 14.83c0,27.85 22.85,50.78 50.78,50.78 27.93,0 50.85,-22.92 50.85,-50.78l0 -3.01 -0.93 0 0 -95.54c-13.84,10.76 -31.13,17.17 -49.91,17.17 -44.9,0 -81.64,-36.75 -81.64,-81.71l0 -50.18c0,-44.97 36.75,-81.71 81.64,-81.71l-0.02 0.01zm0 42.16l0 0c-27.93,0 -50.78,22.92 -50.78,50.84l0 30.47c0,27.99 22.85,50.78 50.78,50.78 27.93,0 50.85,-22.85 50.85,-50.78l0 -30.47c0,-27.93 -22.93,-50.84 -50.85,-50.84z"/>
  </g>
  <g id="_2299345641328">
   <path class="fil0 str1" d="M349.51 237.82l2300.71 0c65.41,0 119,53.52 119,119l0 3554.12c0,65.48 -53.59,119 -119,119l-2300.71 0c-65.48,0 -119,-53.52 -119,-119l0 -3554.12c0,-65.48 53.52,-119 119,-119z"/>
   <path class="fil1" d="M599.86 1062.71c-5.41,-15.9 -113.17,-172.44 -124.73,-189.22l0 -1.53c0,0 -0.19,0.34 -0.54,0.8 -0.27,-0.46 -0.46,-0.8 -0.54,-0.8l0 1.53c-11.49,16.77 -119.32,173.31 -124.68,189.22 -5.68,16.83 -8.49,49.12 8.16,67.55 16.58,18.5 35.06,29.53 47.98,29.53 5.88,0 15.63,0.66 27.05,-4.08 13.03,-8.16 26.32,-24.67 27.68,-58.27 0,0 2.33,57.45 -19.78,90.86 -1.41,2.6 -2.88,5 -4.49,6.95 0,0 30.06,-2.55 38.61,-2.47 8.55,-0.07 38.63,2.47 38.63,2.47 -1.6,-1.94 -3.01,-4.34 -4.42,-6.95 -22.12,-33.41 -19.78,-90.86 -19.78,-90.86 1.33,33.6 14.57,50.11 27.66,58.27 11.36,4.74 21.17,4.08 27.05,4.08 12.89,0 31.34,-11.02 47.98,-29.53 16.63,-18.45 13.84,-50.72 8.16,-67.55l0.02 0z"/>
   <path class="fil1" d="M2421.59 3208.47c5.34,15.9 113.19,172.51 124.68,189.29l0 1.48c0.05,0 0.27,-0.27 0.59,-0.73 0.27,0.46 0.46,0.73 0.54,0.73l0 -1.48c11.49,-16.77 119.26,-173.38 124.68,-189.29 5.68,-16.77 8.42,-49.12 -8.16,-67.55 -16.63,-18.43 -35.08,-29.45 -47.98,-29.45 -5.88,0 -15.71,-0.66 -27.14,4.01 -13.03,8.16 -26.25,24.72 -27.58,58.27 0,0 -2.33,-57.4 19.77,-90.81 1.41,-2.6 2.81,-5 4.49,-7.02 0,0 -30.08,2.55 -38.63,2.47 -8.62,0.07 -38.68,-2.47 -38.68,-2.47 1.6,2.01 3.08,4.42 4.47,7.02 22.12,33.41 19.78,90.81 19.78,90.81 -1.33,-33.53 -14.64,-50.11 -27.66,-58.27 -11.43,-4.67 -21.19,-4.01 -27.05,-4.01 -12.89,0 -31.34,11.02 -47.98,29.45 -16.63,18.45 -13.84,50.77 -8.16,67.55l0.02 0z"/>
   <path class="fil1" d="M1182.82 2183.82c-9.3,-27.53 -195.7,-298.26 -215.61,-327.25l0 -2.67c-0.07,0.07 -0.41,0.6 -1,1.41 -0.46,-0.8 -0.87,-1.33 -0.87,-1.41l0 2.67c-19.98,28.99 -206.38,299.72 -215.68,327.25 -9.83,29.07 -14.64,84.86 14.11,116.79 28.72,31.93 60.6,51.11 82.99,51.11 10.1,0 27.05,1.07 46.84,-7.09 22.51,-14.03 45.43,-42.64 47.78,-100.76 0,0 4.08,99.35 -34.21,157.07 -2.4,4.47 -4.93,8.69 -7.68,12.09 0,0 51.98,-4.42 66.75,-4.27 14.83,-0.13 66.89,4.27 66.89,4.27 -2.81,-3.4 -5.34,-7.62 -7.76,-12.09 -38.22,-57.72 -34.21,-157.07 -34.21,-157.07 2.35,58.13 25.25,86.73 47.85,100.76 19.71,8.16 36.67,7.09 46.76,7.09 22.39,0 54.32,-19.18 82.97,-51.11 28.72,-31.95 23.92,-87.72 14.11,-116.79l-0.01 0z"/>
   <path class="fil1" d="M2260.78 2203.8c-9.3,-27.53 -195.7,-298.26 -215.61,-327.25l0 -2.67c-0.07,0.07 -0.41,0.54 -0.95,1.33 -0.54,-0.8 -0.92,-1.26 -0.92,-1.33l0 2.67c-19.98,28.99 -206.38,299.72 -215.68,327.25 -9.83,29.07 -14.64,84.86 14.11,116.79 28.72,31.88 60.6,51.04 82.99,51.04 10.08,0 27.05,1.14 46.84,-7.02 22.53,-14.11 45.43,-42.64 47.78,-100.76 0,0 4.01,99.28 -34.21,157.02 -2.4,4.54 -4.93,8.69 -7.68,12.16 0,0 51.98,-4.42 66.82,-4.27 14.76,-0.14 66.75,4.27 66.75,4.27 -2.74,-3.47 -5.27,-7.62 -7.68,-12.16 -38.22,-57.73 -34.14,-157.02 -34.14,-157.02 2.28,58.13 25.2,86.66 47.71,100.76 19.78,8.16 36.76,7.02 46.84,7.02 22.39,0 54.32,-19.18 82.99,-51.04 28.72,-31.93 23.92,-87.72 14.11,-116.79l-0.05 0z"/>
   <path class="fil1" d="M2250.83 1014c-9.37,-27.53 -195.7,-298.26 -215.68,-327.25l0 -2.6c0,0 -0.41,0.54 -0.92,1.33 -0.54,-0.8 -0.87,-1.33 -0.95,-1.33l0 2.6c-19.91,28.99 -206.31,299.72 -215.68,327.25 -9.81,29.07 -14.57,84.93 14.16,116.86 28.67,31.88 60.6,51.04 82.91,51.04 10.15,0 27.05,1.07 46.84,-7.02 22.58,-14.16 45.5,-42.69 47.76,-100.81 0,0 4.08,99.35 -34.21,157.09 -2.4,4.47 -4.88,8.69 -7.68,12.09 0,0 52.04,-4.42 66.82,-4.27 14.76,-0.14 66.8,4.27 66.8,4.27 -2.81,-3.4 -5.27,-7.62 -7.68,-12.09 -38.27,-57.73 -34.21,-157.09 -34.21,-157.09 2.28,58.13 25.25,86.66 47.78,100.81 19.77,8.09 36.74,7.02 46.84,7.02 22.39,0 54.25,-19.18 82.99,-51.04 28.72,-31.93 23.92,-87.8 14.11,-116.86l0.01 0z"/>
   <path class="fil1" d="M1192.83 1014c-9.35,-27.53 -195.77,-298.26 -215.68,-327.25l0 -2.6c-0.07,0 -0.41,0.54 -0.95,1.33 -0.54,-0.8 -0.87,-1.33 -0.95,-1.33l0 2.6c-19.91,28.99 -206.31,299.72 -215.68,327.25 -9.83,29.07 -14.64,84.93 14.11,116.86 28.72,31.88 60.67,51.04 82.99,51.04 10.15,0 27.05,1.07 46.84,-7.02 22.58,-14.16 45.5,-42.69 47.78,-100.81 0,0 4.08,99.35 -34.21,157.09 -2.4,4.47 -4.88,8.69 -7.68,12.09 0,0 52.05,-4.42 66.82,-4.27 14.76,-0.14 66.82,4.27 66.82,4.27 -2.81,-3.4 -5.27,-7.62 -7.68,-12.09 -38.29,-57.73 -34.21,-157.09 -34.21,-157.09 2.28,58.13 25.18,86.66 47.76,100.81 19.78,8.09 36.76,7.02 46.84,7.02 22.31,0 54.26,-19.18 82.91,-51.04 28.72,-31.93 23.99,-87.8 14.16,-116.86l0.02 0z"/>
   <path class="fil1" d="M749.67 3256.37c9.3,27.53 195.7,298.26 215.68,327.25l0 2.67c0,-0.07 0.41,-0.54 0.95,-1.33 0.46,0.8 0.87,1.26 0.87,1.33l0 -2.67c19.98,-28.99 206.38,-299.72 215.73,-327.25 9.76,-29.07 14.57,-84.86 -14.16,-116.79 -28.72,-31.88 -60.6,-51.04 -82.97,-51.04 -10.1,0 -27.05,-1.14 -46.84,7.02 -22.51,14.11 -45.43,42.64 -47.78,100.76 0,0 -4.01,-99.28 34.21,-157.07 2.4,-4.49 4.95,-8.62 7.76,-12.09 0,0 -52.05,4.42 -66.82,4.27 -14.83,0.14 -66.82,-4.27 -66.82,-4.27 2.74,3.47 5.27,7.62 7.68,12.09 38.22,57.79 34.21,157.07 34.21,157.07 -2.28,-58.13 -25.25,-86.66 -47.78,-100.76 -19.78,-8.16 -36.74,-7.02 -46.84,-7.02 -22.39,0 -54.26,19.18 -82.99,51.04 -28.72,31.93 -23.92,87.72 -14.11,116.79l-0.01 0z"/>
   <path class="fil1" d="M1827.63 3256.37c9.3,27.53 195.7,298.26 215.68,327.25l0 2.67c0,-0.07 0.41,-0.54 0.92,-1.33 0.46,0.8 0.87,1.26 0.87,1.33l0 -2.67c19.98,-28.99 206.38,-299.72 215.68,-327.25 9.81,-29.07 14.64,-84.86 -14.11,-116.79 -28.74,-31.88 -60.6,-51.04 -82.99,-51.04 -10.08,0 -27.05,-1.14 -46.84,7.02 -22.51,14.11 -45.43,42.64 -47.78,100.76 0,0 -4.08,-99.28 34.21,-157.07 2.4,-4.49 4.95,-8.62 7.68,-12.09 0,0 -51.98,4.42 -66.75,4.27 -14.83,0.14 -66.82,-4.27 -66.82,-4.27 2.74,3.47 5.27,7.62 7.68,12.09 38.22,57.79 34.21,157.07 34.21,157.07 -2.33,-58.13 -25.25,-86.66 -47.83,-100.76 -19.7,-8.16 -36.69,-7.02 -46.76,-7.02 -22.39,0 -54.26,19.18 -82.99,51.04 -28.72,31.93 -23.92,87.72 -14.11,116.79l0.03 0z"/>
   <path class="fil2" d="M474.99 847.69c-44.97,0 -81.71,-36.76 -81.71,-81.65l0 -50.24c0,-1.73 0.05,-3.4 0.13,-5.15l-0.13 0 0 -143.11 0 -11.83 0 -11.36c0,-44.89 36.74,-81.71 81.71,-81.71 44.89,0 81.64,36.74 81.64,81.71l0 23.19 -30.86 0 0 -14.83c0,-27.93 -22.92,-50.77 -50.77,-50.77 -27.99,0 -50.84,22.92 -50.84,50.77l0 3.01 0.95 0 0 95.54c13.84,-10.76 31.13,-17.17 49.92,-17.17 44.89,0 81.64,36.81 81.64,81.71l0 50.24c0,44.89 -36.74,81.65 -81.64,81.65l-0.02 -0zm0 -42.17l0 0c27.87,0 50.77,-22.92 50.77,-50.84l0 -30.47c0,-27.93 -22.92,-50.84 -50.77,-50.84 -27.99,0 -50.84,22.92 -50.84,50.84l0 30.47c0,27.93 22.85,50.84 50.84,50.84z"/>
   <path class="fil2" d="M2571.12 3421.28c44.97,0 81.71,36.76 81.71,81.72l0 50.18c0,1.73 -0.07,3.4 -0.19,5.08l0.19 0 0 143.18 0 11.83 0 11.36c0,44.89 -36.74,81.72 -81.71,81.72 -44.89,0 -81.71,-36.76 -81.71,-81.72l0 -23.19 30.93 0 0 14.83c0,27.87 22.85,50.77 50.77,50.77 27.93,0 50.77,-22.92 50.77,-50.77l0 -3.01 -0.95 0 0 -95.54c-13.84,10.76 -31.07,17.17 -49.85,17.17 -44.89,0 -81.71,-36.81 -81.71,-81.71l0 -50.18c0,-44.97 36.81,-81.72 81.71,-81.72l0.03 0zm0 42.15l0 0c-27.93,0 -50.77,22.92 -50.77,50.84l0 30.47c0,27.99 22.85,50.77 50.77,50.77 27.93,0 50.77,-22.85 50.77,-50.77l0 -30.47c0,-27.93 -22.85,-50.84 -50.77,-50.84z"/>
  </g>
 </g>
</svg>
