<?xml version="1.0" encoding="UTF-8"?>
<!DOCTYPE svg PUBLIC "-//W3C//DTD SVG 1.1//EN" "http://www.w3.org/Graphics/SVG/1.1/DTD/svg11.dtd">
<!-- Creator: CorelDRAW -->
<svg xmlns="http://www.w3.org/2000/svg" xml:space="preserve" width="60.203mm" height="89.8929mm" version="1.1" style="shape-rendering:geometricPrecision; text-rendering:geometricPrecision; image-rendering:optimizeQuality; fill-rule:evenodd; clip-rule:evenodd"
viewBox="0 0 70256.67 104904.67"
 xmlns:xlink="http://www.w3.org/1999/xlink"
 xmlns:xodm="http://www.corel.com/coreldraw/odm/2003">
 <defs>
  <style type="text/css">
   <![CDATA[
    .str0 {stroke:#1F1A17;stroke-width:88.93;stroke-miterlimit:22.9256}
    .fil1 {fill:#B32520}
    .fil0 {fill:white}
   ]]>
  </style>
 </defs>
 <g id="Слой_x0020_1">
  <metadata id="CorelCorpID_0Corel-Layer"/>
  <path class="fil0 str0" d="M3333.41 44.46l63591.49 0c1808.03,0 3287.31,1481.03 3287.31,3288.95l0 98237.86c0,1809.78 -1479.28,3288.95 -3287.31,3288.95l-63591.49 0c-1809.78,0 -3288.95,-1479.17 -3288.95,-3288.95l0 -98237.86c0,-1807.91 1479.17,-3288.95 3288.95,-3288.95z"/>
  <path class="fil1" d="M10077.6 19512.53c-463.53,-513.48 -978.76,-821.8 -1338.78,-821.8 -349.17,0 -1204.11,-84.96 -1928.11,1394.21 -720.27,-1451.51 -1567.74,-1368.42 -1914.92,-1368.42 -360.25,0 -875.48,308.44 -1339.01,821.8 -461.66,515.23 -385.81,1416.5 -226.98,1885.52 158.83,467.27 3466.1,5294.55 3466.1,5294.55 0,0 3350.1,-4853.19 3508.92,-5320.45 156.84,-469.02 234.45,-1370.17 -227.21,-1885.4z"/>
  <path class="fil1" d="M61165.19 85818.8c461.55,515.23 976.78,823.55 1336.91,823.55 350.92,0 1205.86,83.21 1929.86,-1394.21 720.15,1451.51 1567.74,1368.42 1913.29,1368.42 360.02,0 875.25,-308.44 1338.78,-823.67 463.41,-515.23 386.04,-1414.52 227.21,-1883.65 -158.83,-469.02 -3466.45,-5294.55 -3466.45,-5294.55 0,0 -3348.11,4851.32 -3508.57,5320.45 -157.08,467.15 -234.68,1368.42 228.96,1883.65z"/>
  <path class="fil1" d="M27220.54 13638.1c-878.86,-978.76 -1857.62,-1564.24 -2542.88,-1564.24 -664.84,0 -2289.76,-160.58 -3663.78,2648.26 -1368.42,-2757.15 -2978.87,-2600.18 -3637.99,-2600.18 -685.26,0 -1664.02,587.23 -2542.88,1564.13 -880.97,978.76 -733.22,2690.74 -432.14,3580.81 300.97,890.07 6587.11,10060.91 6587.11,10060.91 0,0 6363.75,-9220.67 6664.83,-10110.74 300.97,-890.18 446.96,-2602.05 -432.26,-3578.94z"/>
  <path class="fil1" d="M56275.01 13638.1c-880.85,-978.76 -1857.74,-1564.24 -2541.02,-1564.24 -664.84,0 -2291.86,-160.58 -3665.89,2648.26 -1368.3,-2757.15 -2978.64,-2600.18 -3639.86,-2600.18 -683.16,0 -1660.05,587.23 -2540.9,1564.13 -881.08,978.76 -733.22,2690.74 -434.01,3580.81 302.84,890.07 6589.09,10060.91 6589.09,10060.91 0,0 6363.75,-9220.67 6664.6,-10110.74 301.2,-890.18 448.83,-2602.05 -432.02,-3578.94z"/>
  <path class="fil1" d="M43473.53 91818.79c880.97,976.89 1857.86,1564.13 2543,1564.13 664.84,0 2289.88,160.7 3663.9,-2650.01 1366.44,2757.15 2976.89,2602.05 3637.99,2602.05 685.14,0 1662.15,-587.35 2543,-1566.11 880.73,-976.89 733.11,-2688.76 432.02,-3578.94 -300.97,-890.07 -6587.11,-10060.91 -6587.11,-10060.91 0,0 -6363.86,9220.67 -6664.95,10108.99 -300.85,890.07 -448.71,2602.05 432.14,3580.81z"/>
  <path class="fil1" d="M14419.29 91818.79c878.86,976.89 1857.74,1564.13 2542.88,1564.13 664.84,0 2289.88,160.7 3663.78,-2650.01 1368.42,2757.15 2978.87,2602.05 3638.11,2602.05 685.14,0 1663.9,-587.35 2542.88,-1566.11 880.85,-976.89 733.22,-2688.76 432.26,-3578.94 -301.09,-890.07 -6585.59,-10060.91 -6585.59,-10060.91 0,0 -6365.5,9220.67 -6666.58,10108.99 -302.84,890.07 -448.59,2602.05 432.26,3580.81z"/>
  <path class="fil1" d="M43887.34 46520.67c880.85,-978.76 1857.74,-1564.13 2542.88,-1564.13 664.84,0 2289.76,-160.7 3663.78,2648.15 1368.42,-2757.15 2976.89,-2600.18 3639.98,-2600.18 683.28,0 1660.17,587.23 2541.02,1564.24 880.85,978.76 733.22,2690.63 434.01,3580.69 -302.84,890.18 -6589.09,10060.91 -6589.09,10060.91 0,0 -6363.75,-9218.8 -6666.58,-10110.74 -299.22,-890.07 -447.08,-2600.18 434.01,-3578.94z"/>
  <path class="fil1" d="M14419.29 46520.67c878.86,-978.76 1857.74,-1564.13 2542.88,-1564.13 664.84,0 2289.88,-160.7 3663.78,2648.15 1368.42,-2757.15 2978.87,-2600.18 3638.11,-2600.18 685.14,0 1663.9,587.23 2542.88,1564.24 880.85,978.76 733.22,2690.63 432.26,3580.69 -301.09,890.18 -6585.59,10060.91 -6585.59,10060.91 0,0 -6365.5,-9218.8 -6666.58,-10110.74 -302.84,-890.07 -448.59,-2600.18 432.26,-3578.94z"/>
  <path class="fil1" d="M6138.63 17233.62c-1242.85,0 -2258.72,-1015.64 -2258.72,-2258.49l0 -1386.86c0,-46.21 1.98,-94.29 3.85,-140.39l-3.85 0 0 -3957.52 0 -326.88 0 -313.92c0,-1240.98 1015.87,-2258.6 2258.72,-2258.6 1240.98,0 2256.5,1015.75 2256.5,2258.6l0 640.8 -853.19 0 0 -408.1c0,-773.84 -631.58,-1405.41 -1403.31,-1405.41 -773.95,0 -1403.55,633.45 -1403.55,1405.41l0 81.22 24.04 0 0 2640.8c382.31,-297.35 860.43,-474.62 1379.51,-474.62 1240.98,0 2256.5,1015.75 2256.5,2258.6l0 1386.86c0,1242.85 -1015.52,2258.49 -2256.5,2258.49zm0 -1165.25l0 0c771.73,0 1403.31,-631.58 1403.31,-1403.55l0 -843.97c0,-771.85 -631.58,-1403.43 -1403.31,-1403.43 -773.95,0 -1403.55,631.58 -1403.55,1403.43l0 843.97c0,770.1 629.59,1403.55 1403.55,1403.55z"/>
  <path class="fil1" d="M64408.04 87373.71c1240.87,0 2256.5,1017.5 2256.5,2258.49l0 1386.97c0,47.96 0,94.18 -3.62,140.27l3.62 0 0 3957.52 0 326.88 0 313.92c0,1242.85 -1015.64,2258.6 -2256.5,2258.6 -1242.85,0 -2258.6,-1015.75 -2258.6,-2258.6l0 -640.8 854.94 0 0 409.97c0,771.97 631.58,1403.55 1403.66,1403.55 771.85,0 1403.31,-631.58 1403.31,-1403.55l0 -83.09 -25.67 0 0 -2638.93c-382.42,295.48 -860.54,472.75 -1377.64,472.75 -1242.85,0 -2258.6,-1015.75 -2258.6,-2258.49l0 -1386.97c0,-1242.85 1015.75,-2258.49 2258.6,-2258.49zm0 1167.11l0 0c-772.08,0 -1403.66,631.58 -1403.66,1403.55l0 843.97c0,771.85 631.58,1403.43 1403.66,1403.43 771.85,0 1403.31,-633.45 1403.31,-1403.43l0 -843.97c0,-771.97 -631.46,-1403.55 -1403.31,-1403.55z"/>
 </g>
</svg>
