<?xml version="1.0" encoding="UTF-8"?>
<!DOCTYPE svg PUBLIC "-//W3C//DTD SVG 1.1//EN" "http://www.w3.org/Graphics/SVG/1.1/DTD/svg11.dtd">
<!-- Creator: CorelDRAW -->
<svg xmlns="http://www.w3.org/2000/svg" xml:space="preserve" width="60.2046mm" height="89.893mm" version="1.1" style="shape-rendering:geometricPrecision; text-rendering:geometricPrecision; image-rendering:optimizeQuality; fill-rule:evenodd; clip-rule:evenodd"
viewBox="0 0 2690.78 4017.67"
 xmlns:xlink="http://www.w3.org/1999/xlink"
 xmlns:xodm="http://www.corel.com/coreldraw/odm/2003">
 <defs>
  <style type="text/css">
   <![CDATA[
    .str0 {stroke:#1F1A17;stroke-width:3.41;stroke-miterlimit:22.9256}
    .fil1 {fill:#B32520}
    .fil0 {fill:white}
   ]]>
  </style>
 </defs>
 <g id="Слой_x0020_1">
  <metadata id="CorelCorpID_0Corel-Layer"/>
  <path class="fil0 str0" d="M127.74 1.7l2435.38 0c69.31,0 125.96,56.73 125.96,125.97l0 3762.33c0,69.24 -56.65,125.96 -125.96,125.96l-2435.38 0c-69.31,0 -126.03,-56.72 -126.03,-125.96l0 -3762.33c0,-69.24 56.73,-125.97 126.03,-125.97z"/>
  <path class="fil1" d="M799.06 447.35c0,0 -62.23,237.28 -225.82,324.84 0,0 195.84,124.41 228.16,311.05 0,0 62.16,-230.36 230.35,-313.32 0,0 -168.18,-89.89 -232.69,-322.58z"/>
  <path class="fil1" d="M1914.84 434.69c0,0 -62.17,237.28 -225.76,324.77 0,0 195.84,124.48 228.09,311.12 0,0 62.25,-230.42 230.42,-313.38 0,0 -168.18,-89.82 -232.75,-322.51z"/>
  <path class="fil1" d="M1914.84 2957.9c0,0 -62.17,237.36 -225.76,324.84 0,0 195.84,124.41 228.09,311.06 0,0 62.25,-230.36 230.42,-313.32 0,0 -168.18,-89.89 -232.75,-322.58z"/>
  <path class="fil1" d="M786.41 2957.9c0,0 -62.24,237.36 -225.83,324.84 0,0 195.84,124.41 228.1,311.06 0,0 62.24,-230.36 230.35,-313.32 0,0 -168.11,-89.89 -232.62,-322.58z"/>
  <path class="fil1" d="M273.44 675.58c0,0 -36.21,137.92 -131.34,188.84 0,0 113.94,72.28 132.61,180.77 0,0 36.21,-133.88 133.95,-182.12 0,0 -97.75,-52.27 -135.23,-187.5z"/>
  <path class="fil1" d="M2466.92 2932.51c0,0 -36.14,137.99 -131.19,188.84 0,0 113.8,72.35 132.61,180.84 0,0 36.14,-133.95 133.88,-182.19 0,0 -97.74,-52.19 -135.3,-187.5z"/>
  <path class="fil1" d="M268.84 658.96c-47.6,0 -86.5,-38.97 -86.5,-86.5l0 -53.11c0,-1.84 0.07,-3.68 0.21,-5.44l-0.21 0 0 -151.5 0 -12.59 0 -12.03c0,-47.53 38.9,-86.5 86.5,-86.5 47.53,0 86.5,38.97 86.5,86.5l0 24.61 -32.75 0 0 -15.7c0,-29.56 -24.19,-53.82 -53.75,-53.82 -29.56,0 -53.75,24.26 -53.75,53.82l0 3.12 0.92 0 0 101.14c14.64,-11.32 32.95,-18.11 52.83,-18.11 47.53,0 86.5,38.9 86.5,86.5l0 53.11c0,47.6 -38.97,86.5 -86.5,86.5zm0 -44.7l0 0c29.56,0 53.75,-24.19 53.75,-53.75l0 -32.32c0,-29.56 -24.19,-53.75 -53.75,-53.75 -29.56,0 -53.75,24.19 -53.75,53.75l0 32.32c0,29.56 24.19,53.75 53.75,53.75z"/>
  <path class="fil1" d="M2477.04 3347.04c47.6,0 86.5,38.97 86.5,86.5l0 53.12c0,1.84 -0.07,3.61 -0.21,5.44l0.21 0 0 151.57 0 12.52 0 12.02c0,47.53 -38.9,86.43 -86.5,86.43 -47.6,0 -86.5,-38.9 -86.5,-86.43l0 -24.54 32.74 0 0 15.63c0,29.56 24.19,53.75 53.75,53.75 29.56,0 53.75,-24.19 53.75,-53.75l0 -3.11 -0.92 0 0 -101.14c-14.64,11.32 -32.95,18.11 -52.83,18.11 -47.6,0 -86.5,-38.9 -86.5,-86.5l0 -53.12c0,-47.53 38.9,-86.5 86.5,-86.5zm0 44.7l0 0c-29.56,0 -53.75,24.19 -53.75,53.75l0 32.32c0,29.56 24.19,53.75 53.75,53.75 29.56,0 53.75,-24.19 53.75,-53.75l0 -32.32c0,-29.49 -24.19,-53.75 -53.75,-53.75z"/>
  <path class="fil1" d="M799.06 1703.65c0,0 -62.23,237.36 -225.82,324.84 0,0 195.84,124.41 228.16,311.05 0,0 62.16,-230.36 230.35,-313.32 0,0 -168.18,-89.82 -232.69,-322.58z"/>
  <path class="fil1" d="M1914.84 1703.65c0,0 -62.17,237.36 -225.76,324.84 0,0 195.84,124.41 228.09,311.05 0,0 62.25,-230.36 230.42,-313.32 0,0 -168.18,-89.82 -232.75,-322.58z"/>
 </g>
</svg>
