<?xml version="1.0" encoding="UTF-8"?>
<!DOCTYPE svg PUBLIC "-//W3C//DTD SVG 1.1//EN" "http://www.w3.org/Graphics/SVG/1.1/DTD/svg11.dtd">
<!-- Creator: CorelDRAW -->
<svg xmlns="http://www.w3.org/2000/svg" xml:space="preserve" width="94.9876mm" height="105.854mm" version="1.1" style="shape-rendering:geometricPrecision; text-rendering:geometricPrecision; image-rendering:optimizeQuality; fill-rule:evenodd; clip-rule:evenodd"
viewBox="0 0 9440.95 10520.99"
 xmlns:xlink="http://www.w3.org/1999/xlink"
 xmlns:xodm="http://www.corel.com/coreldraw/odm/2003">
 <defs>
  <style type="text/css">
   <![CDATA[
    .str0 {stroke:#1F1A17;stroke-width:7.57;stroke-miterlimit:22.9256}
    .str1 {stroke:#1F1A17;stroke-width:7.58;stroke-miterlimit:22.9256}
    .fil1 {fill:#B32520}
    .fil0 {fill:white}
   ]]>
  </style>
 </defs>
 <g id="Слой_x0020_1">
  <metadata id="CorelCorpID_0Corel-Layer"/>
  <g id="_2299289250352">
   <path class="fil0 str0" d="M756.77 796.99l5416 0c153.99,0 279.98,126.14 279.98,280.11l0 8366.78c0,154.14 -125.99,280.11 -279.98,280.11l-5416 0c-154.14,0 -280.11,-125.98 -280.11,-280.11l0 -8366.78c0,-153.98 125.98,-280.11 280.11,-280.11z"/>
   <path class="fil1" d="M1331.16 2455.07c-39.48,-43.73 -83.36,-69.99 -114.02,-69.99 -29.74,0 -102.55,-7.24 -164.21,118.74 -61.34,-123.62 -133.52,-116.55 -163.09,-116.55 -30.68,0 -74.56,26.27 -114.04,69.99 -39.32,43.88 -32.86,120.64 -19.33,160.59 13.53,39.8 295.2,450.93 295.2,450.93 0,0 285.32,-413.34 298.85,-453.14 13.36,-39.95 19.97,-116.7 -19.35,-160.58z"/>
   <path class="fil1" d="M5682.22 8102.28c39.31,43.88 83.19,70.14 113.86,70.14 29.89,0 102.7,7.09 164.36,-118.74 61.33,123.62 133.52,116.55 162.95,116.55 30.66,0 74.54,-26.27 114.02,-70.15 39.47,-43.88 32.88,-120.47 19.35,-160.43 -13.53,-39.95 -295.23,-450.93 -295.23,-450.93 0,0 -285.15,413.18 -298.82,453.14 -13.38,39.79 -19.99,116.55 19.5,160.43z"/>
   <path class="fil1" d="M2791.2 1954.74c-74.85,-83.36 -158.21,-133.22 -216.57,-133.22 -56.62,0 -195.02,-13.68 -312.04,225.55 -116.55,-234.82 -253.71,-221.45 -309.84,-221.45 -58.36,0 -141.72,50.01 -216.57,133.21 -75.03,83.36 -62.45,229.17 -36.8,304.97 25.63,75.81 561.01,856.87 561.01,856.87 0,0 541.99,-785.31 567.63,-861.12 25.63,-75.82 38.07,-221.61 -36.81,-304.81z"/>
   <path class="fil1" d="M5265.73 1954.74c-75.02,-83.36 -158.22,-133.22 -216.41,-133.22 -56.62,0 -195.19,-13.68 -312.22,225.55 -116.54,-234.82 -253.69,-221.45 -310,-221.45 -58.18,0 -141.38,50.01 -216.4,133.21 -75.04,83.36 -62.45,229.17 -36.96,304.97 25.79,75.81 561.18,856.87 561.18,856.87 0,0 541.99,-785.31 567.61,-861.12 25.65,-75.82 38.23,-221.61 -36.79,-304.81z"/>
   <path class="fil1" d="M4175.44 8613.28c75.03,83.2 158.23,133.21 216.58,133.21 56.62,0 195.03,13.69 312.05,-225.7 116.38,234.82 253.54,221.61 309.84,221.61 58.35,0 141.56,-50.02 216.58,-133.38 75.01,-83.2 62.44,-229 36.79,-304.81 -25.63,-75.81 -561.01,-856.87 -561.01,-856.87 0,0 -542,785.31 -567.64,860.97 -25.62,75.81 -38.22,221.61 36.8,304.97z"/>
   <path class="fil1" d="M1700.94 8613.28c74.85,83.2 158.22,133.21 216.57,133.21 56.62,0 195.03,13.69 312.04,-225.7 116.55,234.82 253.71,221.61 309.85,221.61 58.35,0 141.71,-50.02 216.57,-133.38 75.02,-83.2 62.45,-229 36.81,-304.81 -25.64,-75.81 -560.89,-856.87 -560.89,-856.87 0,0 -542.14,785.31 -567.78,860.97 -25.79,75.81 -38.21,221.61 36.81,304.97z"/>
   <path class="fil1" d="M4210.69 4755.31c75.02,-83.36 158.22,-133.21 216.57,-133.21 56.62,0 195.02,-13.69 312.04,225.54 116.55,-234.82 253.54,-221.45 310.01,-221.45 58.19,0 141.39,50.01 216.41,133.22 75.02,83.36 62.45,229.16 36.96,304.96 -25.79,75.82 -561.18,856.87 -561.18,856.87 0,0 -541.99,-785.15 -567.78,-861.12 -25.48,-75.81 -38.08,-221.45 36.96,-304.81z"/>
   <path class="fil1" d="M1700.94 4755.31c74.85,-83.36 158.22,-133.21 216.57,-133.21 56.62,0 195.03,-13.69 312.04,225.54 116.55,-234.82 253.71,-221.45 309.85,-221.45 58.35,0 141.71,50.01 216.57,133.22 75.02,83.36 62.45,229.16 36.81,304.96 -25.64,75.82 -560.89,856.87 -560.89,856.87 0,0 -542.14,-785.15 -567.78,-861.12 -25.79,-75.81 -38.21,-221.45 36.81,-304.81z"/>
   <path class="fil1" d="M995.68 2260.98c-105.85,0 -192.37,-86.5 -192.37,-192.35l0 -118.12c0,-3.94 0.17,-8.03 0.33,-11.96l-0.33 0 0 -337.06 0 -27.84 0 -26.74c0,-105.69 86.52,-192.36 192.37,-192.36 105.69,0 192.18,86.51 192.18,192.36l0 54.58 -72.67 0 0 -34.76c0,-65.91 -53.79,-119.7 -119.52,-119.7 -65.92,0 -119.54,53.95 -119.54,119.7l0 6.92 2.05 0 0 224.91c32.56,-25.32 73.28,-40.42 117.49,-40.42 105.69,0 192.18,86.51 192.18,192.36l0 118.12c0,105.85 -86.49,192.35 -192.18,192.35zm0 -99.24l0 0c65.73,0 119.52,-53.79 119.52,-119.54l0 -71.88c0,-65.74 -53.79,-119.53 -119.52,-119.53 -65.92,0 -119.54,53.79 -119.54,119.53l0 71.88c0,65.59 53.62,119.54 119.54,119.54z"/>
   <path class="fil1" d="M5958.41 8234.71c105.68,0 192.18,86.66 192.18,192.35l0 118.13c0,4.08 0,8.02 -0.31,11.95l0.31 0 0 337.06 0 27.84 0 26.74c0,105.85 -86.5,192.36 -192.18,192.36 -105.85,0 -192.36,-86.51 -192.36,-192.36l0 -54.58 72.81 0 0 34.92c0,65.75 53.79,119.54 119.55,119.54 65.74,0 119.52,-53.79 119.52,-119.54l0 -7.08 -2.19 0 0 -224.75c-32.57,25.17 -73.29,40.26 -117.33,40.26 -105.85,0 -192.36,-86.51 -192.36,-192.35l0 -118.13c0,-105.85 86.51,-192.35 192.36,-192.35zm0 99.4l0 0c-65.76,0 -119.55,53.79 -119.55,119.54l0 71.88c0,65.74 53.79,119.53 119.55,119.53 65.74,0 119.52,-53.95 119.52,-119.53l0 -71.88c0,-65.75 -53.78,-119.54 -119.52,-119.54z"/>
  </g>
 </g>
 <g id="Слой_x0020_1_0">
  <metadata id="CorelCorpID_1Corel-Layer"/>
  <g id="_2299289276176">
   <path class="fil0 str1" d="M4607.14 41.03l4690.27 2707.93c133.48,77.07 179.51,249.31 102.52,382.66l-4183.39 7245.82c-76.99,133.35 -249.15,179.6 -382.64,102.53l-4690.27 -2707.93c-133.49,-77.07 -179.65,-249.37 -102.66,-382.72l4183.38 -7245.82c76.99,-133.35 249.32,-179.53 382.79,-102.47z"/>
   <path class="fil1" d="M5404.51 1645.74c0,0 -383.68,387.78 -796.1,374.52 0,0 238.83,457.35 93.54,852.74 0,0 375.86,-374.54 792.01,-347.29 0,0 -223.95,-360.12 -89.45,-879.97l0 0.01z"/>
   <path class="fil1" d="M7567.46 2862.01c0,0 -383.56,387.85 -795.9,374.45 0,0 238.75,457.49 93.34,852.8 0,0 376.09,-374.55 792.21,-347.33 0,0 -224.02,-359.99 -89.64,-879.91l-0.01 0z"/>
   <path class="fil1" d="M4761.86 7721.43c0,0 -383.65,388 -795.98,374.59 0,0 238.83,457.35 93.4,852.68 0,0 376.03,-374.43 792.15,-347.2 0,0 -223.95,-360.12 -89.57,-880.05l0 -0.01z"/>
   <path class="fil1" d="M2588.64 6466.72c0,0 -383.8,387.92 -796.12,374.5 0,0 238.83,457.36 93.42,852.7 0,0 376.01,-374.45 792.01,-347.29 0,0 -223.82,-360.04 -89.32,-879.9l0.01 0z"/>
   <path class="fil1" d="M4138.46 1500.85c0,0 -223.1,225.35 -462.93,217.64 0,0 139.06,265.89 54.39,495.6 0,0 218.6,-217.58 460.48,-201.79 0,0 -130.13,-209.36 -51.95,-511.47l0.01 0.03z"/>
   <path class="fil1" d="M5853.34 8286.4c0,0 -223.02,225.56 -462.63,217.82 0,0 138.72,265.87 54.32,495.72 0,0 218.54,-217.79 460.41,-202.01 0,0 -130.2,-209.19 -52.09,-511.55l-0.01 0.02z"/>
   <path class="fil1" d="M4148.06 1463.73c-91.67,-52.93 -123.26,-171.23 -70.41,-262.77l59.06 -102.28c2.05,-3.55 4.22,-7.01 6.45,-10.25l-0.41 -0.23 168.46 -291.77 13.99 -24.25 13.38 -23.17c52.86,-91.54 171.1,-123.33 262.77,-70.41 91.55,52.86 123.27,171.23 70.42,262.77l-27.36 47.39 -63.08 -36.42 17.46 -30.23c32.87,-56.93 13.26,-130.55 -43.67,-163.42 -56.93,-32.87 -130.49,-13.04 -163.36,43.89l-3.47 6.01 1.78 1.02 -112.46 194.78c40.79,-5.53 83.59,1.76 121.87,23.86 91.55,52.85 123.34,171.1 70.42,262.77l-59.06 102.28c-52.93,91.67 -171.23,123.26 -262.77,70.41l-0.01 0.01zm49.71 -86.09l0 0c56.93,32.87 130.41,13.18 163.28,-43.75l35.94 -62.24c32.87,-56.93 13.18,-130.41 -43.75,-163.28 -56.93,-32.87 -130.41,-13.18 -163.28,43.75l-35.93 62.24c-32.87,56.93 -13.18,130.41 43.74,163.28z"/>
   <path class="fil1" d="M5411.91 9095.99c91.67,52.93 123.26,171.23 70.41,262.77l-59.07 102.3c-2.05,3.54 -4.14,6.87 -6.45,10.24l0.41 0.24 -168.54 291.9 -13.91 24.11 -13.37 23.15c-52.85,91.54 -171.01,123.2 -262.69,70.27 -91.67,-52.93 -123.33,-171.1 -70.49,-262.63l27.29 -47.27 63.04 36.41 -17.37 30.1c-32.87,56.93 -13.18,130.41 43.75,163.28 56.93,32.87 130.41,13.18 163.28,-43.75l3.46 -5.99 -1.78 -1.02 112.46 -194.78c-40.79,5.53 -83.6,-1.76 -121.88,-23.86 -91.67,-52.93 -123.33,-171.1 -70.41,-262.77l59.07 -102.29c52.85,-91.55 171.1,-123.34 262.77,-70.42l0.02 0.03zm-49.71 86.09l0 0c-56.93,-32.87 -130.41,-13.18 -163.28,43.75l-35.93 62.24c-32.87,56.93 -13.18,130.41 43.74,163.28 56.93,32.87 130.41,13.18 163.28,-43.75l35.94 -62.24c32.79,-56.79 13.18,-130.41 -43.75,-163.28z"/>
   <path class="fil1" d="M4007.61 4065.24c0,0 -383.77,387.93 -796.1,374.52 0,0 238.83,457.35 93.54,852.74 0,0 375.86,-374.54 792.01,-347.28 0,0 -224.02,-359.99 -89.45,-879.98l0 0.01z"/>
   <path class="fil1" d="M6156.47 5305.89c0,0 -383.65,387.99 -795.98,374.58 0,0 238.84,457.36 93.42,852.67 0,0 376.03,-374.44 792.14,-347.2 0,0 -224.02,-359.99 -89.56,-880.05l-0.02 0.01z"/>
  </g>
 </g>
</svg>
