<?xml version="1.0" encoding="UTF-8"?>
<!DOCTYPE svg PUBLIC "-//W3C//DTD SVG 1.1//EN" "http://www.w3.org/Graphics/SVG/1.1/DTD/svg11.dtd">
<!-- Creator: CorelDRAW -->
<svg xmlns="http://www.w3.org/2000/svg" xml:space="preserve" width="94.9875mm" height="105.853mm" version="1.1" style="shape-rendering:geometricPrecision; text-rendering:geometricPrecision; image-rendering:optimizeQuality; fill-rule:evenodd; clip-rule:evenodd"
viewBox="0 0 5686.59 6337.1"
 xmlns:xlink="http://www.w3.org/1999/xlink"
 xmlns:xodm="http://www.corel.com/coreldraw/odm/2003">
 <defs>
  <style type="text/css">
   <![CDATA[
    .str0 {stroke:#1F1A17;stroke-width:4.56;stroke-miterlimit:22.9256}
    .str1 {stroke:#1F1A17;stroke-width:4.57;stroke-miterlimit:22.9256}
    .fil1 {fill:#171717}
    .fil2 {fill:#1F1A17}
    .fil0 {fill:white}
   ]]>
  </style>
 </defs>
 <g id="Слой_x0020_1">
  <metadata id="CorelCorpID_0Corel-Layer"/>
  <g id="_2335178614416">
   <path class="fil0 str0" d="M267.75 480.03l3262.26 0c92.83,0 168.72,75.89 168.72,168.73l0 5039.58c0,92.75 -75.89,168.73 -168.72,168.73l-3262.26 0c-92.75,0 -168.73,-75.97 -168.73,-168.73l0 -5039.58c0,-92.84 75.98,-168.73 168.73,-168.73z"/>
   <path class="fil1" d="M344.78 1490.78c6.16,-42.72 25.96,-61.29 56.18,-71.71 55.04,-18.85 123.82,11.84 136.89,60.92 11.45,43.39 -12.59,72.67 -40.55,111.51 31.07,-9.38 43.09,-27.1 81.1,-20.27 33.73,5.97 56.93,43.21 60.82,60.82 14.88,66.9 -31.07,127.71 -86.21,126.66 -24.72,-0.37 -34.1,-10.8 -45.56,-20.19 -22.93,-18.67 -27.75,-34.48 -45.67,-55.8 -7.85,11.18 -2.26,24.83 0,35.52 2.95,13.92 11.18,23.96 15.27,35.42 4.54,12.79 5.49,28.42 10.13,40.55 3.98,10.51 19.99,19.24 10.13,30.42 -35.54,-3.32 -84.41,6.73 -111.61,-5.02 10.52,-40.26 41.88,-86.6 25.4,-136.89 -9.38,81.28 -108.66,91.99 -149.03,42.54 -29.26,-35.81 -41.4,-142.58 57.8,-154.05 18.95,-2.27 37.52,8.99 55.7,15.15 -9.48,-30.99 -30.89,-44.82 -30.79,-85.54 0,-3.41 0,-6.73 0,-10.05l0.01 0.01z"/>
   <path class="fil1" d="M3496.36 4833.55c-6.26,42.64 -25.96,61.2 -56.18,71.62 -55.14,18.86 -123.9,-11.84 -136.89,-60.92 -11.57,-43.39 12.59,-72.65 40.55,-111.5 -31.17,9.38 -43.09,27.1 -81.1,20.27 -33.72,-5.97 -56.93,-43.21 -60.91,-60.82 -14.78,-66.88 31.17,-127.8 86.21,-126.76 24.83,0.47 34.1,10.9 45.65,20.27 22.83,18.67 27.77,34.48 45.67,55.8 7.87,-11.18 2.19,-24.83 0,-35.52 -2.95,-13.92 -11.18,-23.97 -15.25,-35.44 -4.55,-12.79 -5.49,-28.42 -10.13,-40.55 -3.98,-10.51 -20.09,-19.32 -10.14,-30.41 35.54,3.32 84.42,-6.73 111.51,5.02 -10.43,40.18 -41.78,86.6 -25.29,136.9 9.29,-81.29 108.66,-91.99 149.03,-42.54 29.28,35.81 41.3,142.58 -57.79,154.03 -18.94,2.27 -37.52,-8.99 -55.8,-15.15 9.56,30.99 30.99,44.82 30.89,85.54 0,3.32 0,6.73 0,10.13l-0.02 0.01z"/>
   <path class="fil1" d="M948.81 1253.37c12.03,-83.56 50.77,-119.93 109.99,-140.3 107.91,-36.95 242.53,23.2 268.11,119.18 22.53,85.08 -24.83,142.48 -79.5,218.36 61,-18.3 84.41,-52.95 158.87,-39.69 65.94,11.84 111.42,84.69 119.09,119.18 29.08,130.93 -60.92,250.21 -168.81,248.21 -48.43,-0.95 -66.7,-21.41 -89.35,-39.69 -44.71,-36.56 -54.28,-67.45 -89.24,-109.23 -15.54,21.8 -4.45,48.6 0,69.44 5.6,27.37 21.8,46.99 29.75,69.54 8.91,25.01 10.8,55.61 19.8,79.38 7.85,20.46 39.31,37.7 19.89,59.6 -69.62,-6.54 -165.32,13.07 -218.36,-9.94 20.56,-78.73 81.86,-169.48 49.64,-268.02 -18.38,159.07 -212.77,180.1 -291.89,83.27 -57.32,-70.19 -80.99,-279.19 113.12,-301.73 37.15,-4.35 73.62,17.71 109.23,29.85 -18.65,-60.82 -60.62,-87.82 -60.34,-167.59 0,-6.63 0,-13.26 0,-19.8z"/>
   <path class="fil1" d="M2463.17 1239.25c11.94,-83.56 50.77,-120.03 109.99,-140.3 107.8,-36.95 242.53,23.2 268.01,119.18 22.65,84.97 -24.72,142.38 -79.49,218.36 61,-18.28 84.39,-53.05 158.87,-39.79 66.03,11.84 111.51,84.79 119.18,119.18 29.08,131.01 -60.92,250.19 -168.83,248.21 -48.51,-0.86 -66.79,-21.32 -89.35,-39.69 -44.71,-36.56 -54.28,-67.45 -89.33,-109.23 -15.45,21.88 -4.35,48.6 0,69.54 5.69,27.37 21.8,46.99 29.75,69.44 8.91,25.11 10.81,55.71 19.9,79.49 7.77,20.46 39.22,37.7 19.8,59.5 -69.54,-6.44 -165.23,13.16 -218.38,-9.86 20.65,-78.81 81.86,-169.48 49.65,-268.1 -18.28,159.16 -212.77,180.18 -291.79,83.37 -57.32,-70.19 -81.1,-279.19 113.02,-301.84 37.23,-4.27 73.61,17.73 109.23,29.85 -18.67,-60.72 -60.54,-87.82 -60.25,-167.49 0,-6.63 0,-13.26 0,-19.8l0.02 0z"/>
   <path class="fil1" d="M948.81 2912.1c12.03,-83.56 50.77,-120.03 109.99,-140.3 107.91,-36.95 242.53,23.2 268.11,119.18 22.53,84.97 -24.83,142.39 -79.5,218.36 61,-18.28 84.41,-53.05 158.87,-39.69 65.94,11.85 111.42,84.71 119.09,119.18 29.08,130.93 -60.92,250.19 -168.81,248.11 -48.43,-0.86 -66.7,-21.31 -89.35,-39.69 -44.71,-36.58 -54.28,-67.36 -89.24,-109.23 -15.54,21.88 -4.45,48.7 0,69.54 5.6,27.37 21.8,46.99 29.75,69.54 8.91,25.01 10.8,55.61 19.8,79.38 7.85,20.46 39.31,37.7 19.89,59.5 -69.62,-6.44 -165.32,13.17 -218.36,-9.86 20.56,-78.73 81.86,-169.48 49.64,-268.1 -18.38,159.16 -212.77,180.18 -291.89,83.37 -57.32,-70.19 -80.99,-279.19 113.12,-301.73 37.15,-4.35 73.62,17.62 109.23,29.75 -18.65,-60.72 -60.62,-87.82 -60.34,-167.49 0,-6.63 0,-13.27 0,-19.8z"/>
   <path class="fil1" d="M2477.28 2926.22c12.02,-83.56 50.77,-119.93 109.99,-140.21 107.8,-37.03 242.53,23.12 268.1,119.08 22.55,85.08 -24.83,142.48 -79.49,218.36 61,-18.28 84.41,-52.95 158.87,-39.69 65.94,11.84 111.42,84.69 119.09,119.18 29.08,131.01 -60.93,250.19 -168.73,248.21 -48.5,-0.94 -66.78,-21.41 -89.43,-39.69 -44.71,-36.56 -54.28,-67.45 -89.24,-109.23 -15.54,21.78 -4.45,48.6 0,69.54 5.6,27.29 21.7,46.89 29.75,69.44 8.91,25.01 10.7,55.71 19.89,79.49 7.77,20.37 39.24,37.6 19.8,59.5 -69.64,-6.54 -165.32,13.07 -218.36,-9.94 20.56,-78.73 81.85,-169.48 49.64,-268.01 -18.38,159.16 -212.77,180.1 -291.87,83.27 -57.32,-70.19 -80.99,-279.19 113.12,-301.73 37.14,-4.27 73.52,17.73 109.23,29.85 -18.67,-60.72 -60.62,-87.82 -60.34,-167.59 0,-6.63 0,-13.26 0,-19.8l-0.01 -0.01z"/>
   <path class="fil1" d="M2856.51 5069.44c-12.02,83.56 -50.69,119.93 -109.89,140.3 -107.91,36.95 -242.62,-23.2 -268.1,-119.18 -22.55,-85.08 24.72,-142.48 79.49,-218.47 -61,18.38 -84.51,53.05 -158.87,39.79 -66.03,-11.94 -111.51,-84.79 -119.18,-119.18 -29.08,-131.02 60.92,-250.21 168.83,-248.21 48.51,0.86 66.79,21.31 89.35,39.69 44.8,36.56 54.28,67.45 89.33,109.23 15.54,-21.8 4.35,-48.6 0,-69.54 -5.69,-27.29 -21.8,-46.89 -29.75,-69.44 -8.91,-25.1 -10.8,-55.71 -19.89,-79.49 -7.85,-20.46 -39.31,-37.6 -19.8,-59.48 69.54,6.53 165.21,-13.17 218.36,9.85 -20.65,78.81 -81.85,169.58 -49.64,268.1 18.38,-159.17 212.77,-180.1 291.79,-83.27 57.41,70.19 80.99,279.19 -113.12,301.73 -37.15,4.27 -73.51,-17.71 -109.23,-29.85 18.75,60.82 60.63,87.82 60.35,167.49 0,6.63 0,13.26 0,19.89l-0.04 0.02z"/>
   <path class="fil1" d="M1342.25 5083.55c-12.12,83.56 -50.77,120.03 -109.99,140.3 -107.91,36.95 -242.62,-23.2 -268.11,-119.18 -22.53,-85.08 24.72,-142.48 79.5,-218.47 -61,18.38 -84.41,53.05 -158.87,39.79 -65.94,-11.84 -111.41,-84.69 -119.09,-119.09 -29.1,-131.01 60.91,-250.29 168.73,-248.21 48.5,0.86 66.78,21.22 89.33,39.69 44.82,36.56 54.29,67.35 89.35,109.23 15.52,-21.88 4.35,-48.68 0,-69.54 -5.69,-27.37 -21.8,-46.99 -29.75,-69.54 -8.91,-25.11 -10.8,-55.61 -19.89,-79.38 -7.78,-20.56 -39.24,-37.7 -19.8,-59.5 69.62,6.44 165.32,-13.16 218.36,9.86 -20.56,78.73 -81.86,169.48 -49.64,268.1 18.38,-159.16 212.77,-180.18 291.87,-83.37 57.32,70.19 80.99,279.19 -113.11,301.73 -37.23,4.35 -73.61,-17.71 -109.23,-29.75 18.65,60.72 60.62,87.82 60.35,167.49 0,6.54 0,13.16 0,19.8l-0.02 0.02z"/>
   <path class="fil2" d="M428.71 1344.79c-63.76,0 -115.86,-52.11 -115.86,-115.78l0 -71.25c0,-2.38 0.1,-4.84 0.19,-7.2l-0.19 0 0 -203.01 0 -16.77 0 -16.1c0,-63.66 52.1,-115.86 115.86,-115.86 63.66,0 115.78,52.1 115.78,115.86l0 32.88 -43.77 0 0 -20.94c0,-39.69 -32.39,-72.09 -72.01,-72.09 -39.68,0 -72.09,32.5 -72.09,72.09l0 4.17 1.31 0 0 135.47c19.62,-15.25 44.16,-24.34 70.76,-24.34 63.66,0 115.78,52.2 115.78,115.86l0 71.25c0,63.66 -52.11,115.78 -115.78,115.78l0.02 0zm0 -59.78l0 0c39.61,0 72.01,-32.39 72.01,-72l0 -43.29c0,-39.61 -32.39,-72 -72.01,-72 -39.68,0 -72.09,32.39 -72.09,72l0 43.29c0,39.49 32.39,72 72.09,72z"/>
   <path class="fil2" d="M3400.87 4976.97c63.76,0 115.86,52.11 115.86,115.86l0 71.15c0,2.46 -0.1,4.84 -0.19,7.2l0.19 0 0 203.01 0 16.77 0 16.1c0,63.66 -52.11,115.86 -115.86,115.86 -63.66,0 -115.76,-52.1 -115.76,-115.86l0 -32.88 43.77 0 0 21.03c0,39.49 32.39,72 72,72 39.6,0 72.1,-32.5 72.1,-72l0 -4.27 -1.32 0 0 -135.47c-19.62,15.25 -44.15,24.34 -70.76,24.34 -63.66,0 -115.76,-52.1 -115.76,-115.86l0 -71.15c0,-63.76 52.1,-115.86 115.76,-115.86l-0.02 0.02zm0 59.78l0 0c-39.6,0 -72,32.5 -72,72.09l0 43.21c0,39.69 32.39,72 72,72 39.6,0 72.1,-32.39 72.1,-72l0 -43.21c0,-39.6 -32.51,-72.09 -72.1,-72.09z"/>
  </g>
  <g id="_2335178627568">
   <path class="fil0 str1" d="M2774.95 24.73l2825.18 1631.11c80.32,46.37 108.18,150.08 61.76,230.49l-2519.74 4364.31c-46.42,80.41 -150.16,108.13 -230.49,61.76l-2825.17 -1631.12c-80.41,-46.42 -108.19,-150.08 -61.76,-230.49l2519.73 -4364.3c46.43,-80.41 150.08,-108.19 230.49,-61.76z"/>
   <path class="fil1" d="M2497.56 1215.14c4.63,-23.37 -16.72,-291.98 -19.02,-320.78l1.09 -1.88c0,0 -0.48,0.28 -1.23,0.6 0,-0.76 0,-1.32 -0.09,-1.36l-1.09 1.88c-26,12.46 -269.39,128.23 -287.24,143.96 -18.91,16.64 -45.25,54.29 -37.87,88.72 7.24,34.48 22.13,61.12 37.98,70.27 7.22,4.17 18.73,11.9 36.11,14.17 21.79,-0.78 49.81,-11.63 75.29,-51.93 0,0 -37.86,72.21 -88.71,97.55 -3.57,2.2 -7.09,4.1 -10.43,5.35 0,0 38.72,18.19 49.16,24.34 10.55,5.97 45.68,30.42 45.68,30.42 -0.59,-3.52 -0.62,-7.47 -0.5,-11.66 -3.48,-56.71 40.12,-125.6 40.12,-125.6 -22.19,42.21 -17.64,71.86 -7.35,91.16 10.59,13.88 23.11,20.03 30.32,24.19 15.83,9.14 46.3,8.68 79.84,-2.25 33.51,-10.87 52.95,-52.47 57.9,-77.16l0.02 0.01z"/>
   <path class="fil1" d="M3213.31 5141.58c-4.72,23.32 16.69,292.08 18.9,320.83l-1.05 1.81c0.07,0.04 0.51,-0.14 1.24,-0.48 -0.01,0.75 0.05,1.22 0.14,1.28l1.05 -1.81c26,-12.45 269.37,-128.35 287.29,-144.05 18.87,-16.57 45.16,-54.34 37.87,-88.73 -7.36,-34.42 -22.2,-61.04 -38.03,-70.18 -7.21,-4.17 -18.82,-11.94 -36.17,-14.32 -21.79,0.78 -49.76,11.74 -75.18,52 0,0 37.82,-72.14 88.65,-97.49 3.57,-2.2 7,-4.15 10.48,-5.44 0,0 -38.74,-18.2 -49.19,-24.35 -10.63,-6.02 -45.74,-30.46 -45.74,-30.46 0.54,3.61 0.66,7.61 0.52,11.79 3.47,56.71 -40.09,125.53 -40.09,125.53 22.14,-42.12 17.55,-71.92 7.35,-91.16 -10.73,-13.84 -23.18,-19.95 -30.38,-24.1 -15.83,-9.14 -46.3,-8.68 -79.8,2.16 -33.5,10.87 -52.98,52.54 -57.9,77.16l0.02 0.01z"/>
   <path class="fil1" d="M2418.58 3005.12c8.1,-40.4 -28.86,-504.99 -32.75,-554.71l1.9 -3.28c-0.14,0.04 -0.93,0.45 -2.22,1.02 0,-1.32 -0.13,-2.26 -0.08,-2.35l-1.89 3.28c-45.09,21.44 -465.92,221.72 -496.85,248.94 -32.68,28.72 -78.14,93.82 -65.48,153.41 12.63,59.58 38.18,105.72 65.67,121.6 12.4,7.16 32.46,20.49 62.54,24.5 37.59,-1.28 86.01,-20.15 130.11,-89.86 0,0 -65.43,124.89 -153.37,168.63 -6.12,3.78 -12.22,7.17 -18,9.41 0,0 66.97,31.43 84.99,42.07 18.31,10.36 79.11,52.67 79.11,52.67 -1.04,-6.18 -1.16,-13.15 -0.96,-20.35 -6.01,-97.97 69.35,-217.14 69.35,-217.14 -38.32,73.04 -30.48,124.4 -12.68,157.66 18.43,23.99 40,34.7 52.4,41.86 27.48,15.87 80.3,14.95 138.11,-3.94 57.93,-18.87 91.57,-90.76 100.12,-133.41l-0.01 -0.01z"/>
   <path class="fil1" d="M3728.11 3793.88c8.11,-40.4 -28.85,-504.99 -32.75,-554.71l1.9 -3.28c-0.14,0.04 -0.89,0.37 -2.11,0.96 -0.09,-1.36 -0.25,-2.2 -0.19,-2.29l-1.9 3.28c-45.09,21.44 -465.91,221.72 -496.85,248.94 -32.68,28.72 -78.13,93.82 -65.48,153.41 12.67,59.51 38.23,105.63 65.72,121.51 12.37,7.15 32.41,20.58 62.49,24.59 37.66,-1.35 86.01,-20.15 130.11,-89.86 0,0 -65.47,124.76 -153.33,168.55 -6.17,3.88 -12.21,7.18 -18.05,9.49 0,0 66.97,31.44 85.08,42.13 18.23,10.29 78.93,52.56 78.93,52.56 -0.91,-6.2 -1.07,-13.09 -0.8,-20.38 -6,-97.99 69.4,-217.01 69.4,-217.01 -38.41,72.99 -30.5,124.27 -12.85,157.56 18.52,24.04 40.16,34.67 52.54,41.82 27.49,15.87 80.3,14.96 138.09,-3.84 57.91,-18.85 91.56,-90.76 100.12,-133.41l-0.07 -0.04z"/>
   <path class="fil1" d="M4559.41 2325.8c8.02,-40.45 -28.85,-504.99 -32.84,-554.76l1.84 -3.19c0,0 -0.88,0.37 -2.08,0.98 -0.09,-1.36 -0.13,-2.26 -0.22,-2.31l-1.84 3.2c-45.01,21.49 -465.83,221.77 -496.86,248.94 -32.65,28.74 -78.1,93.96 -65.46,153.54 12.61,59.47 38.23,105.63 65.63,121.45 12.46,7.2 32.46,20.49 62.49,24.59 37.76,-1.37 86.14,-20.16 130.12,-89.93 0,0 -65.43,124.89 -153.38,168.64 -6.12,3.79 -12.16,7.21 -18,9.41 0,0 67.03,31.47 85.08,42.12 18.23,10.3 78.99,52.6 78.99,52.6 -1.04,-6.17 -1.07,-13.09 -0.85,-20.29 -6.06,-98.03 69.36,-217.15 69.36,-217.15 -38.41,73 -30.43,124.31 -12.8,157.67 18.54,23.94 40.13,34.66 52.54,41.82 27.48,15.87 80.21,14.9 138.08,-3.84 57.91,-18.85 91.61,-90.85 100.17,-133.5l0.01 0.01z"/>
   <path class="fil1" d="M3260.23 1575.72c8.04,-40.43 -28.94,-505.04 -32.84,-554.75l1.84 -3.2c-0.09,-0.05 -0.89,0.37 -2.11,0.97 -0.09,-1.36 -0.13,-2.26 -0.22,-2.31l-1.84 3.2c-45.01,21.49 -465.83,221.77 -496.85,248.94 -32.68,28.72 -78.19,93.91 -65.53,153.5 12.67,59.51 38.32,105.68 65.72,121.51 12.46,7.2 32.46,20.49 62.49,24.59 37.76,-1.38 86.14,-20.16 130.14,-89.92 0,0 -65.43,124.89 -153.38,168.64 -6.12,3.79 -12.15,7.21 -18,9.41 0,0 67.05,31.48 85.08,42.12 18.24,10.3 79.02,52.62 79.02,52.62 -1.04,-6.17 -1.07,-13.09 -0.86,-20.29 -6.08,-98.04 69.36,-217.15 69.36,-217.15 -38.41,73 -30.51,124.27 -12.82,157.65 18.56,23.96 40.16,34.68 52.54,41.82 27.4,15.82 80.23,14.92 138,-3.89 57.91,-18.85 91.7,-90.81 100.23,-133.47l0.02 0.01z"/>
   <path class="fil1" d="M1126.29 4015.07c-8.1,40.4 28.86,504.99 32.84,554.75l-1.9 3.28c0.05,-0.08 0.89,-0.37 2.11,-0.96 0,1.31 0.18,2.17 0.13,2.26l1.9 -3.28c45.09,-21.44 465.91,-221.73 496.91,-248.91 32.59,-28.77 78.05,-93.87 65.42,-153.44 -12.67,-59.51 -38.23,-105.63 -65.7,-121.49 -12.4,-7.16 -32.41,-20.58 -62.49,-24.59 -37.64,1.36 -86.01,20.15 -130.11,89.86 0,0 65.46,-124.76 153.37,-168.63 6.13,-3.81 12.19,-7.07 18.11,-9.35 0,0 -67.06,-31.48 -85.08,-42.12 -18.31,-10.34 -79.02,-52.62 -79.02,-52.62 0.91,6.21 1.07,13.1 0.85,20.29 5.96,98.06 -69.34,217.13 -69.34,217.13 38.41,-73 30.42,-124.31 12.76,-157.61 -18.52,-24.04 -40.14,-34.66 -52.54,-41.82 -27.49,-15.87 -80.23,-14.92 -138.09,3.84 -57.91,18.85 -91.57,90.76 -100.12,133.41l-0.01 -0.01z"/>
   <path class="fil1" d="M2449.98 4779.31c-8.1,40.4 28.86,504.99 32.84,554.75l-1.89 3.28c0.05,-0.08 0.88,-0.37 2.08,-0.98 0.01,1.32 0.18,2.17 0.13,2.26l1.89 -3.28c45.09,-21.44 465.92,-221.72 496.85,-248.94 32.66,-28.74 78.14,-93.82 65.48,-153.41 -12.69,-59.52 -38.23,-105.63 -65.72,-121.51 -12.37,-7.14 -32.41,-20.58 -62.49,-24.59 -37.64,1.36 -86.02,20.15 -130.11,89.85 0,0 65.38,-124.81 153.37,-168.62 6.13,-3.81 12.19,-7.07 18,-9.41 0,0 -66.96,-31.43 -84.99,-42.07 -18.31,-10.34 -79.01,-52.62 -79.01,-52.62 0.9,6.21 1.07,13.1 0.85,20.29 5.96,98.06 -69.35,217.13 -69.35,217.13 38.34,-73.03 30.43,-124.31 12.7,-157.64 -18.4,-23.98 -40.07,-34.63 -52.45,-41.77 -27.49,-15.87 -80.23,-14.92 -138.09,3.84 -57.91,18.85 -91.57,90.76 -100.12,133.41l0.04 0.02z"/>
   <path class="fil2" d="M2496.66 862.58c-55.22,-31.88 -74.27,-103.07 -42.45,-158.2l35.62 -61.69c1.22,-2.13 2.48,-4.14 3.8,-6.23l-0.16 -0.09 101.46 -175.73 8.38 -14.52 8.06 -13.95c31.83,-55.13 103.04,-74.29 158.26,-42.41 55.13,31.83 74.2,102.99 42.32,158.21l-16.44 28.48 -37.9 -21.88 10.52 -18.22c19.8,-34.29 7.85,-78.59 -26.35,-98.34 -34.38,-19.85 -78.68,-7.9 -98.43,26.3l-2.13 3.69 1.16 0.67 -67.74 117.32c24.62,-3.4 50.4,0.99 73.47,14.31 55.13,31.83 74.15,103.07 42.32,158.21l-35.62 61.69c-31.83,55.13 -103,74.22 -158.13,42.39l-0.02 -0.02zm29.9 -51.78l0 0c34.23,19.76 78.59,7.85 98.39,-26.44l21.61 -37.42c19.8,-34.29 7.9,-78.68 -26.3,-98.43 -34.38,-19.85 -78.68,-7.9 -98.48,26.39l-21.6 37.42c-19.8,34.29 -7.99,78.63 26.38,98.48z"/>
   <path class="fil2" d="M3246.04 5508.9c55.22,31.88 74.27,103.07 42.39,158.28l-35.58 61.62c-1.22,2.13 -2.5,4.13 -3.84,6.09l0.24 0.14 -101.51 175.82 -8.38 14.52 -8.06 13.95c-31.83,55.13 -103.05,74.31 -158.27,42.43 -55.13,-31.83 -74.28,-103.07 -42.4,-158.28l16.44 -28.47 37.99 21.93 -10.52 18.21c-19.76,34.23 -7.93,78.55 26.35,98.34 34.29,19.8 78.59,7.85 98.34,-26.35l2.14 -3.69 -1.16 -0.67 67.73 -117.32c-24.62,3.4 -50.33,-0.95 -73.38,-14.26 -55.13,-31.83 -74.23,-103.13 -42.4,-158.26l35.58 -61.63c31.88,-55.22 103.14,-74.26 158.27,-42.43l0.03 0.02zm-29.89 51.76l0 0c-34.29,-19.8 -78.59,-7.85 -98.39,26.44l-21.61 37.42c-19.85,34.37 -7.93,78.55 26.35,98.34 34.29,19.8 78.55,7.94 98.34,-26.35l21.61 -37.42c19.8,-34.29 7.99,-78.63 -26.3,-98.43z"/>
  </g>
 </g>
</svg>
