<?xml version="1.0" encoding="UTF-8"?>
<!DOCTYPE svg PUBLIC "-//W3C//DTD SVG 1.1//EN" "http://www.w3.org/Graphics/SVG/1.1/DTD/svg11.dtd">
<!-- Creator: CorelDRAW -->
<svg xmlns="http://www.w3.org/2000/svg" xml:space="preserve" width="60.2046mm" height="89.893mm" version="1.1" style="shape-rendering:geometricPrecision; text-rendering:geometricPrecision; image-rendering:optimizeQuality; fill-rule:evenodd; clip-rule:evenodd"
viewBox="0 0 1427.37 2131.23"
 xmlns:xlink="http://www.w3.org/1999/xlink"
 xmlns:xodm="http://www.corel.com/coreldraw/odm/2003">
 <defs>
  <style type="text/css">
   <![CDATA[
    .str0 {stroke:#1F1A17;stroke-width:1.81;stroke-miterlimit:22.9256}
    .fil1 {fill:#B32520}
    .fil0 {fill:white}
   ]]>
  </style>
 </defs>
 <g id="Слой_x0020_1">
  <metadata id="CorelCorpID_0Corel-Layer"/>
  <path class="fil0 str0" d="M67.72 0.9l1291.92 0c36.73,0 66.82,30.09 66.82,66.82l0 1995.79c0,36.73 -30.09,66.82 -66.82,66.82l-1291.92 0c-36.77,0 -66.82,-30.09 -66.82,-66.82l0 -1995.79c0,-36.73 30.05,-66.82 66.82,-66.82z"/>
  <path class="fil1" d="M423.88 237.3c0,0 -33.02,125.87 -119.79,172.32 0,0 103.88,66 120.99,165 0,0 32.98,-122.23 122.23,-166.2 0,0 -89.25,-47.69 -123.43,-171.12z"/>
  <path class="fil1" d="M1015.76 230.55c0,0 -33.02,125.91 -119.79,172.36 0,0 103.92,65.99 121.03,164.96 0,0 32.98,-122.19 122.2,-166.2 0,0 -89.22,-47.65 -123.43,-171.12z"/>
  <path class="fil1" d="M1015.76 889.74c0,0 -33.02,125.87 -119.79,172.32 0,0 103.92,65.99 121.03,165 0,0 32.98,-122.23 122.2,-166.24 0,0 -89.22,-47.65 -123.43,-171.08z"/>
  <path class="fil1" d="M417.16 889.74c0,0 -33.02,125.87 -119.79,172.32 0,0 103.89,65.99 121,165 0,0 32.98,-122.23 122.23,-166.24 0,0 -89.25,-47.65 -123.43,-171.08z"/>
  <path class="fil1" d="M1015.76 1569.07c0,0 -33.02,125.87 -119.79,172.32 0,0 103.92,65.99 121.03,165 0,0 32.98,-122.23 122.2,-166.2 0,0 -89.22,-47.69 -123.43,-171.12z"/>
  <path class="fil1" d="M417.16 1569.07c0,0 -33.02,125.87 -119.79,172.32 0,0 103.89,65.99 121,165 0,0 32.98,-122.23 122.23,-166.2 0,0 -89.25,-47.69 -123.43,-171.12z"/>
  <path class="fil1" d="M145.01 358.37c0,0 -19.17,73.16 -69.63,100.14 0,0 60.4,38.38 70.35,95.93 0,0 19.17,-71.06 71.06,-96.61 0,0 -51.89,-27.73 -71.77,-99.46z"/>
  <path class="fil1" d="M1308.66 1555.6c0,0 -19.21,73.2 -69.63,100.17 0,0 60.36,38.38 70.31,95.89 0,0 19.21,-71.02 71.06,-96.61 0,0 -51.85,-27.69 -71.74,-99.46z"/>
  <path class="fil1" d="M726.53 560.14c0,0 -32.98,125.87 -119.75,172.32 0,0 103.88,66 120.99,165 0,0 32.98,-122.19 122.2,-166.2 0,0 -89.22,-47.69 -123.44,-171.12z"/>
  <polygon class="fil1" points="171.01,132.25 176.52,132.25 190.59,132.25 137.88,353.08 118.3,353.08 163.47,154.09 109.29,154.09 109.29,179.71 91.43,179.71 91.43,154.09 91.4,154.09 91.4,132.25 91.43,132.25 109.29,132.25 "/>
  <polygon class="fil1" points="1271.1,2000.86 1265.63,2000.86 1251.55,2000.86 1304.27,1780.03 1323.85,1780.03 1278.68,1978.99 1332.86,1978.99 1332.86,1953.4 1350.71,1953.4 1350.71,1978.99 1350.75,1978.99 1350.75,2000.86 1350.71,2000.86 1332.86,2000.86 "/>
 </g>
</svg>
