<?xml version="1.0" encoding="UTF-8"?>
<!DOCTYPE svg PUBLIC "-//W3C//DTD SVG 1.1//EN" "http://www.w3.org/Graphics/SVG/1.1/DTD/svg11.dtd">
<!-- Creator: CorelDRAW -->
<svg xmlns="http://www.w3.org/2000/svg" xml:space="preserve" width="60.2046mm" height="89.893mm" version="1.1" style="shape-rendering:geometricPrecision; text-rendering:geometricPrecision; image-rendering:optimizeQuality; fill-rule:evenodd; clip-rule:evenodd"
viewBox="0 0 2690.78 4017.67"
 xmlns:xlink="http://www.w3.org/1999/xlink"
 xmlns:xodm="http://www.corel.com/coreldraw/odm/2003">
 <defs>
  <style type="text/css">
   <![CDATA[
    .str0 {stroke:#1F1A17;stroke-width:3.41;stroke-miterlimit:22.9256}
    .fil1 {fill:#171717}
    .fil2 {fill:#1F1A17}
    .fil0 {fill:white}
   ]]>
  </style>
 </defs>
 <g id="Слой_x0020_1">
  <metadata id="CorelCorpID_0Corel-Layer"/>
  <path class="fil0 str0" d="M127.74 1.7l2435.38 0c69.31,0 125.96,56.72 125.96,125.96l0 3762.26c0,69.31 -56.65,126.04 -125.96,126.04l-2435.38 0c-69.31,0 -126.03,-56.73 -126.03,-126.04l0 -3762.26c0,-69.24 56.73,-125.96 126.03,-125.96z"/>
  <path class="fil1" d="M392.68 874.95c-5.73,-16.83 -119.81,-182.61 -131.97,-200.37l0 -1.63c-0.07,0.07 -0.29,0.35 -0.56,0.85 -0.35,-0.5 -0.57,-0.78 -0.57,-0.85l0 1.63c-12.24,17.75 -126.32,183.54 -132.05,200.37 -6.01,17.75 -8.91,51.98 8.63,71.51 17.61,19.52 37.13,31.26 50.78,31.26 6.23,0 16.62,0.64 28.64,-4.31 13.86,-8.63 27.87,-26.1 29.29,-61.67 0,0 2.47,60.75 -20.94,96.11 -1.48,2.76 -3.04,5.31 -4.74,7.43 0,0 31.9,-2.69 40.95,-2.62 8.98,-0.07 40.87,2.62 40.87,2.62 -1.7,-2.12 -3.25,-4.67 -4.73,-7.43 -23.41,-35.36 -20.94,-96.11 -20.94,-96.11 1.42,35.58 15.49,53.04 29.28,61.67 12.02,4.95 22.49,4.31 28.64,4.31 13.65,0 33.18,-11.74 50.78,-31.26 17.62,-19.52 14.65,-53.75 8.63,-71.51z"/>
  <path class="fil1" d="M2321.09 3146.39c5.73,16.83 119.81,182.54 132.04,200.3l0 1.63c0,0 0.21,-0.35 0.57,-0.85 0.29,0.5 0.57,0.85 0.57,0.85l0 -1.63c12.24,-17.75 126.31,-183.46 132.04,-200.3 6.02,-17.82 8.91,-51.98 -8.69,-71.5 -17.54,-19.59 -37.07,-31.26 -50.78,-31.26 -6.23,0 -16.55,-0.71 -28.65,4.31 -13.79,8.56 -27.87,26.1 -29.28,61.67 0,0 -2.48,-60.82 20.93,-96.19 1.49,-2.76 3.05,-5.31 4.75,-7.36 0,0 -31.83,2.69 -40.89,2.62 -9.05,0.07 -40.88,-2.62 -40.88,-2.62 1.69,2.05 3.19,4.6 4.67,7.36 23.42,35.36 20.94,96.19 20.94,96.19 -1.42,-35.57 -15.42,-53.11 -29.22,-61.67 -12.09,-5.02 -22.49,-4.31 -28.71,-4.31 -13.65,0 -33.25,11.67 -50.79,31.26 -17.61,19.52 -14.64,53.68 -8.63,71.5z"/>
  <path class="fil1" d="M1009.83 2061.67c-9.9,-29.14 -207.23,-315.72 -228.3,-346.35l0 -2.83c-0.07,0 -0.42,0.57 -1.06,1.41 -0.5,-0.84 -0.92,-1.41 -0.92,-1.41l0 2.83c-21.14,30.62 -218.4,317.21 -228.3,346.35 -10.4,30.76 -15.42,89.89 14.92,123.7 30.41,33.73 64.22,54.03 87.84,54.03 10.75,0 28.64,1.13 49.57,-7.43 23.91,-14.92 48.17,-45.19 50.57,-106.72 0,0 4.32,105.17 -36.21,166.27 -2.55,4.74 -5.16,9.19 -8.13,12.8 0,0 55.1,-4.67 70.66,-4.53 15.7,-0.14 70.8,4.53 70.8,4.53 -2.97,-3.61 -5.59,-8.06 -8.13,-12.8 -40.53,-61.11 -36.22,-166.27 -36.22,-166.27 2.41,61.53 26.67,91.8 50.58,106.72 20.93,8.56 38.82,7.43 49.57,7.43 23.62,0 57.43,-20.3 87.84,-54.03 30.34,-33.81 25.32,-92.94 14.92,-123.7z"/>
  <path class="fil1" d="M2150.85 2082.81c-9.83,-29.14 -207.16,-315.72 -228.23,-346.35l0 -2.82c-0.08,0 -0.43,0.56 -1,1.41 -0.56,-0.85 -0.99,-1.41 -0.99,-1.41l0 2.82c-21.15,30.63 -218.47,317.21 -228.3,346.35 -10.4,30.77 -15.42,89.89 14.92,123.63 30.41,33.81 64.22,54.11 87.84,54.11 10.75,0 28.64,1.13 49.57,-7.42 23.91,-14.92 48.17,-45.19 50.57,-106.73 0,0 4.32,105.17 -36.22,166.28 -2.54,4.74 -5.16,9.19 -8.13,12.8 0,0 55.1,-4.67 70.72,-4.53 15.63,-0.14 70.66,4.53 70.66,4.53 -2.9,-3.61 -5.59,-8.06 -8.06,-12.8 -40.53,-61.11 -36.22,-166.28 -36.22,-166.28 2.4,61.53 26.67,91.81 50.57,106.73 20.93,8.55 38.83,7.42 49.57,7.42 23.63,0 57.43,-20.3 87.84,-54.11 30.35,-33.73 25.25,-92.86 14.86,-123.63z"/>
  <path class="fil1" d="M2140.32 823.4c-9.84,-29.14 -207.16,-315.79 -228.23,-346.41l0 -2.83c-0.08,0.07 -0.43,0.56 -1,1.41 -0.56,-0.85 -0.98,-1.35 -0.98,-1.41l0 2.83c-21.15,30.62 -218.47,317.27 -228.31,346.41 -10.4,30.7 -15.49,89.82 14.92,123.63 30.35,33.81 64.15,54.03 87.85,54.03 10.68,0 28.64,1.2 49.51,-7.42 23.9,-14.92 48.23,-45.19 50.64,-106.66 0,0 4.24,105.1 -36.21,166.21 -2.55,4.81 -5.23,9.19 -8.13,12.87 0,0 55.02,-4.67 70.72,-4.53 15.64,-0.14 70.73,4.53 70.73,4.53 -2.97,-3.68 -5.59,-8.06 -8.21,-12.87 -40.45,-61.11 -36.21,-166.21 -36.21,-166.21 2.47,61.46 26.74,91.73 50.57,106.66 20.93,8.63 38.9,7.42 49.58,7.42 23.69,0 57.42,-20.23 87.84,-54.03 30.41,-33.81 25.31,-92.93 14.92,-123.63z"/>
  <path class="fil1" d="M1020.37 823.4c-9.83,-29.14 -207.15,-315.79 -228.3,-346.41l0 -2.83c0,0.07 -0.42,0.56 -0.99,1.41 -0.49,-0.85 -0.92,-1.35 -0.92,-1.41l0 2.83c-21.15,30.62 -218.48,317.27 -228.38,346.41 -10.32,30.7 -15.42,89.82 14.92,123.63 30.41,33.81 64.22,54.03 87.84,54.03 10.75,0 28.71,1.2 49.58,-7.42 23.9,-14.92 48.17,-45.19 50.57,-106.66 0,0 4.31,105.1 -36.14,166.21 -2.54,4.81 -5.24,9.19 -8.21,12.87 0,0 55.1,-4.67 70.73,-4.53 15.7,-0.14 70.73,4.53 70.73,4.53 -2.91,-3.68 -5.59,-8.06 -8.13,-12.87 -40.46,-61.11 -36.21,-166.21 -36.21,-166.21 2.4,61.46 26.73,91.73 50.57,106.66 20.93,8.63 38.83,7.42 49.57,7.42 23.63,0 57.44,-20.23 87.77,-54.03 30.41,-33.81 25.4,-92.93 14.99,-123.63z"/>
  <path class="fil1" d="M551.25 3197.1c9.9,29.07 207.16,315.72 228.3,346.35l0 2.83c0,0 0.42,-0.57 0.99,-1.41 0.57,0.84 0.92,1.41 0.99,1.41l0 -2.83c21.07,-30.62 218.4,-317.28 228.3,-346.35 10.4,-30.76 15.42,-89.89 -14.92,-123.7 -30.41,-33.73 -64.22,-54.03 -87.84,-54.03 -10.75,0 -28.64,-1.13 -49.57,7.5 -23.91,14.85 -48.17,45.12 -50.58,106.58 0,0 -4.31,-105.1 36.22,-166.2 2.55,-4.81 5.16,-9.19 8.13,-12.8 0,0 -55.1,4.67 -70.73,4.46 -15.63,0.21 -70.73,-4.46 -70.73,-4.46 2.97,3.61 5.59,8 8.13,12.8 40.46,61.11 36.21,166.2 36.21,166.2 -2.4,-61.46 -26.73,-91.73 -50.57,-106.58 -20.93,-8.63 -38.82,-7.5 -49.57,-7.5 -23.62,0 -57.43,20.3 -87.77,54.03 -30.41,33.81 -25.4,92.94 -14.99,123.7z"/>
  <path class="fil1" d="M1692.34 3197.1c9.83,29.07 207.15,315.72 228.3,346.35l0 2.83c0,0 0.42,-0.57 0.99,-1.41 0.5,0.84 0.92,1.41 0.92,1.41l0 -2.83c21.14,-30.62 218.48,-317.28 228.37,-346.35 10.33,-30.76 15.42,-89.89 -14.92,-123.7 -30.41,-33.73 -64.22,-54.03 -87.84,-54.03 -10.74,0 -28.64,-1.13 -49.57,7.5 -23.9,14.85 -48.17,45.12 -50.57,106.58 0,0 -4.32,-105.1 36.22,-166.2 2.47,-4.81 5.16,-9.19 8.13,-12.8 0,0 -55.1,4.67 -70.73,4.46 -15.62,0.21 -70.72,-4.46 -70.72,-4.46 2.97,3.61 5.59,8 8.13,12.8 40.46,61.11 36.22,166.2 36.22,166.2 -2.4,-61.46 -26.73,-91.73 -50.57,-106.58 -20.93,-8.63 -38.83,-7.5 -49.57,-7.5 -23.62,0 -57.43,20.3 -87.77,54.03 -30.42,33.81 -25.4,92.94 -14.99,123.7z"/>
  <polygon class="fil2" points="2383.82,3747.06 2373.5,3747.06 2337.42,3747.06 2474.85,3349.79 2521.24,3349.79 2398.04,3705.9 2500.17,3705.9 2500.17,3657.59 2533.83,3657.59 2533.83,3705.9 2533.97,3705.9 2533.97,3747.06 2533.83,3747.06 2500.17,3747.06 "/>
  <polygon class="fil2" points="317.56,259.99 327.9,259.99 363.89,259.99 226.54,657.33 180.14,657.33 303.28,301.23 201.15,301.23 201.15,349.46 167.49,349.46 167.49,301.23 167.41,301.23 167.41,259.99 167.49,259.99 201.15,259.99 "/>
  <path class="fil1" d="M1569.7 1393.94c-9.83,-29.14 -207.09,-315.72 -228.23,-346.41l0 -2.76c-0.08,0 -0.43,0.56 -1,1.41 -0.56,-0.85 -0.99,-1.41 -0.99,-1.41l0 2.76c-21.15,30.7 -218.41,317.28 -228.3,346.41 -10.4,30.77 -15.42,89.89 14.92,123.63 30.41,33.81 64.22,54.1 87.84,54.1 10.68,0 28.64,1.14 49.57,-7.5 23.84,-14.92 48.1,-45.12 50.57,-106.65 0,0 4.32,105.17 -36.22,166.27 -2.54,4.74 -5.16,9.19 -8.13,12.8 0,0 55.1,-4.67 70.72,-4.52 15.63,-0.14 70.66,4.52 70.66,4.52 -2.9,-3.61 -5.52,-8.06 -8.06,-12.8 -40.46,-61.11 -36.22,-166.27 -36.22,-166.27 2.4,61.53 26.73,91.73 50.57,106.65 20.86,8.63 38.83,7.5 49.57,7.5 23.63,0 57.44,-20.3 87.77,-54.1 30.42,-33.74 25.4,-92.86 14.93,-123.63z"/>
 </g>
</svg>
