<?xml version="1.0" encoding="UTF-8"?>
<!DOCTYPE svg PUBLIC "-//W3C//DTD SVG 1.1//EN" "http://www.w3.org/Graphics/SVG/1.1/DTD/svg11.dtd">
<!-- Creator: CorelDRAW -->
<svg xmlns="http://www.w3.org/2000/svg" xml:space="preserve" width="60.203mm" height="89.893mm" version="1.1" style="shape-rendering:geometricPrecision; text-rendering:geometricPrecision; image-rendering:optimizeQuality; fill-rule:evenodd; clip-rule:evenodd"
viewBox="0 0 70256.67 104904.79"
 xmlns:xlink="http://www.w3.org/1999/xlink"
 xmlns:xodm="http://www.corel.com/coreldraw/odm/2003">
 <defs>
  <style type="text/css">
   <![CDATA[
    .str0 {stroke:#1F1A17;stroke-width:88.93;stroke-miterlimit:22.9256}
    .fil1 {fill:#171717}
    .fil2 {fill:#1F1A17}
    .fil0 {fill:white}
   ]]>
  </style>
 </defs>
 <g id="Слой_x0020_1">
  <metadata id="CorelCorpID_0Corel-Layer"/>
  <path class="fil0 str0" d="M3333.41 44.46l63591.49 0c1808.03,0 3287.31,1481.15 3287.31,3289.06l0 98237.86c0,1807.91 -1479.28,3288.95 -3287.31,3288.95l-63591.49 0c-1809.78,0 -3288.95,-1481.03 -3288.95,-3288.95l0 -98237.86c0,-1807.91 1479.17,-3289.06 3288.95,-3289.06z"/>
  <path class="fil1" d="M4833 19747.09c121.72,-832.89 506.01,-1194.77 1094.99,-1397.94 1074.8,-367.49 2415.57,230.83 2668.45,1185.55 225.46,847.71 -245.54,1418.37 -790.41,2175.51 607.65,-182.87 840.35,-528.18 1580.81,-395.26 657.6,116.35 1110.05,842.1 1185.55,1185.67 290.12,1303.77 -605.55,2491.19 -1678.49,2470.88 -483.95,-9.22 -664.84,-212.39 -890.18,-395.26 -444.98,-363.75 -539.27,-672.19 -888.2,-1087.64 -155.21,217.88 -44.35,483.84 0,692.5 55.32,271.44 216.01,467.15 295.37,690.63 88.69,249.27 107.13,554.09 197.57,790.41 77.61,205.04 391.53,376.71 197.57,592.83 -692.5,-64.65 -1645.35,131.05 -2173.41,-97.91 204.81,-783.05 814.21,-1687.94 492.94,-2668.45 -180.88,1584.43 -2118.1,1793.09 -2904.89,829.15 -568.79,-699.96 -805.11,-2779.32 1126.5,-3002.8 371.22,-44.35 733.11,175.4 1087.87,295.48 -184.74,-603.92 -603.92,-873.5 -602.05,-1667.52 0,-64.65 0,-131.17 0,-195.82z"/>
  <path class="fil1" d="M66267.65 84908.43c-120.08,831.02 -506.01,1193.02 -1095.23,1396.08 -1072.82,367.6 -2413.7,-230.83 -2668.45,-1185.55 -223.48,-847.59 247.52,-1418.25 792.27,-2175.4 -607.54,182.75 -840.24,528.18 -1580.7,397.01 -657.6,-118.22 -1110.05,-843.97 -1187.65,-1187.42 -289.88,-1303.77 607.65,-2489.32 1680.59,-2470.88 481.97,9.22 664.72,212.39 888.32,395.14 446.84,365.62 541.14,672.19 890.07,1087.76 155.09,-216.13 42.48,-483.84 0,-690.75 -55.32,-273.31 -217.99,-469.02 -297.23,-692.5 -88.81,-249.27 -107.25,-553.97 -195.71,-790.41 -77.61,-204.92 -391.53,-374.84 -197.69,-592.72 692.61,64.65 1645.35,-131.17 2173.53,97.79 -204.92,784.92 -816.2,1687.94 -494.92,2668.57 182.75,-1584.55 2118.21,-1793.21 2904.89,-829.15 570.78,699.85 807.09,2779.32 -1124.52,3004.55 -371.22,42.48 -733.22,-177.27 -1087.87,-297.35 184.74,603.92 602.05,873.5 600.3,1667.64 0,64.65 0,131.05 0,197.57z"/>
  <path class="fil1" d="M16607.52 15119.25c236.32,-1628.78 989.96,-2337.96 2144.01,-2734.97 2103.51,-720.27 4729.6,452.44 5226.39,2323.14 439.37,1658.3 -482.2,2777.45 -1549.54,4258.49 1189.29,-356.4 1645.35,-1034.08 3096.97,-775.59 1287.2,230.83 2173.65,1652.82 2323.26,2323.14 565.06,2552.22 -1187.42,4877.23 -3290.93,4838.48 -945.62,-18.56 -1302.02,-415.57 -1741.39,-773.84 -873.5,-712.8 -1058.23,-1314.85 -1741.51,-2129.3 -302.84,424.79 -84.84,947.37 0,1355.58 110.75,531.8 424.79,914.11 579.88,1353.6 173.65,489.32 210.53,1084.02 387.68,1547.55 151.59,400.75 764.73,734.97 386.04,1161.63 -1355.35,-127.44 -3222.54,254.76 -4256.62,-192.09 400.63,-1536.47 1595.63,-3305.63 967.67,-5226.28 -356.4,3102.58 -4147.74,3512.54 -5687.82,1623.29 -1117.4,-1368.42 -1580.81,-5442.29 2202.94,-5881.78 725.99,-83.09 1434.94,345.31 2129.3,581.75 -363.64,-1183.8 -1180.07,-1711.98 -1176.33,-3265.02 0,-129.3 0,-258.49 0,-387.79z"/>
  <path class="fil1" d="M46127.39 14844.07c234.57,-1628.78 989.73,-2337.96 2143.89,-2734.97 2103.51,-720.27 4729.6,452.44 5224.41,2323.14 441.36,1656.55 -480.1,2775.58 -1547.55,4256.74 1187.54,-356.4 1645.46,-1032.32 3095.22,-773.84 1287.08,230.83 2173.53,1650.95 2323.14,2321.39 566.93,2553.97 -1187.54,4878.98 -3289.18,4838.37 -947.25,-16.69 -1301.78,-415.57 -1741.28,-773.84 -873.61,-712.8 -1059.98,-1312.99 -1741.63,-2129.18 -302.84,426.54 -86.71,949.23 0,1355.47 110.86,533.67 422.92,915.98 580,1353.6 171.67,489.44 210.41,1085.89 387.68,1549.42 149.61,398.88 764.73,734.97 386.04,1159.76 -1357.33,-125.57 -3222.54,256.62 -4256.62,-192.09 400.75,-1534.6 1595.63,-3303.77 967.67,-5226.16 -358.38,3102.46 -4147.74,3512.43 -5689.81,1625.04 -1117.28,-1370.17 -1578.83,-5442.29 2204.92,-5881.78 724,-84.96 1435.06,345.31 2129.3,581.75 -365.62,-1185.55 -1180.07,-1711.87 -1176.22,-3266.89 0,-129.19 0,-258.49 0,-385.93z"/>
  <path class="fil1" d="M16607.52 47453.33c236.32,-1628.78 989.96,-2339.71 2144.01,-2734.97 2103.51,-720.15 4729.6,452.44 5226.39,2323.14 439.37,1658.42 -482.2,2777.57 -1549.54,4256.74 1189.29,-356.4 1645.35,-1032.32 3096.97,-773.72 1287.2,230.83 2173.65,1650.95 2323.26,2323.14 565.06,2552.1 -1187.42,4877.11 -3290.93,4838.37 -945.62,-18.44 -1302.02,-417.32 -1741.39,-775.59 -873.5,-711.05 -1058.23,-1313.1 -1741.51,-2127.43 -302.84,424.67 -84.84,947.37 0,1353.6 110.75,533.67 424.79,915.98 579.88,1355.47 173.65,487.57 210.53,1084.02 387.68,1547.55 151.59,400.75 764.73,735.09 386.04,1161.63 -1355.35,-127.44 -3222.54,254.87 -4256.62,-193.95 400.63,-1534.6 1595.63,-3303.77 967.67,-5224.29 -356.4,3100.59 -4147.74,3510.56 -5687.82,1623.29 -1117.4,-1368.42 -1580.81,-5442.29 2202.94,-5881.78 725.99,-84.96 1434.94,345.31 2129.3,579.76 -363.64,-1183.68 -1180.07,-1710 -1176.33,-3264.91 0,-129.3 0,-258.61 0,-386.04z"/>
  <path class="fil1" d="M46402.57 47728.51c236.2,-1628.78 989.73,-2337.96 2143.89,-2734.97 2103.51,-720.15 4729.49,452.44 5226.16,2323.14 439.61,1658.42 -481.85,2777.45 -1549.3,4258.6 1189.29,-356.4 1645.46,-1034.19 3096.86,-775.7 1285.33,230.83 2173.65,1652.82 2321.39,2323.26 567.04,2553.97 -1187.42,4877.11 -3289.06,4838.37 -945.5,-16.69 -1301.9,-415.57 -1741.28,-773.84 -873.61,-712.8 -1058.35,-1314.85 -1741.63,-2129.18 -300.85,424.67 -84.84,947.37 0,1355.47 110.86,533.67 424.9,915.98 580,1353.6 173.65,489.44 210.41,1084.02 387.68,1549.42 151.59,398.88 764.73,733.11 386.04,1159.76 -1355.58,-127.44 -3222.54,256.62 -4256.62,-192.09 400.75,-1536.47 1595.4,-3305.63 967.67,-5226.16 -356.4,3102.46 -4147.74,3512.43 -5687.82,1623.18 -1119.15,-1368.42 -1580.81,-5442.17 2202.94,-5881.78 725.87,-83.09 1434.94,345.43 2129.3,581.75 -363.75,-1183.68 -1180.07,-1711.87 -1176.22,-3265.02 0,-129.19 0,-258.49 0,-387.79z"/>
  <path class="fil1" d="M53796.77 89506.74c-234.68,1628.78 -989.85,2337.96 -2144.01,2734.97 -2103.51,720.27 -4729.6,-452.44 -5226.39,-2323.14 -439.37,-1658.3 482.09,-2777.45 1549.54,-4258.49 -1189.29,358.27 -1645.58,1034.08 -3096.97,775.59 -1287.08,-230.83 -2173.53,-1652.82 -2323.14,-2323.14 -566.93,-2554.09 1189.17,-4877.23 3290.81,-4838.37 945.62,18.44 1303.77,417.32 1741.39,773.72 873.5,712.8 1058.23,1314.85 1741.63,2129.3 302.72,-424.79 84.72,-947.37 0,-1355.58 -110.86,-531.8 -424.9,-914.11 -580,-1353.6 -173.65,-487.57 -210.41,-1084.02 -387.79,-1549.42 -151.48,-398.88 -764.62,-733.11 -385.93,-1159.64 1357.22,127.32 3222.54,-254.87 4256.62,193.84 -400.75,1534.6 -1595.63,3303.77 -967.67,5224.41 358.38,-3102.46 4147.62,-3510.67 5689.69,-1623.29 1117.28,1368.42 1578.95,5442.29 -2204.92,5881.78 -725.87,83.09 -1433.07,-345.31 -2129.18,-581.75 363.64,1183.8 1180.07,1711.98 1176.33,3266.89 0,129.3 0,256.62 0,385.93z"/>
  <path class="fil1" d="M24276.91 89781.92c-234.45,1628.78 -989.73,2339.83 -2142.14,2734.97 -2103.28,720.27 -4729.37,-452.44 -5226.16,-2323.14 -439.61,-1656.55 482.09,-2775.58 1549.3,-4256.74 -1189.29,356.52 -1647.22,1034.19 -3098.61,773.84 -1285.45,-228.96 -2171.9,-1650.95 -2321.51,-2321.39 -566.93,-2553.97 1187.54,-4878.98 3290.81,-4838.37 943.75,16.69 1302.02,415.57 1741.63,773.84 871.63,712.8 1058,1312.99 1741.28,2129.18 301.2,-426.54 85.07,-947.37 0,-1355.47 -110.75,-533.67 -424.67,-915.98 -579.65,-1353.6 -175.63,-489.44 -210.64,-1085.89 -388.03,-1549.42 -153.11,-398.88 -766.37,-734.97 -385.93,-1159.76 1355.58,125.57 3220.79,-256.62 4254.87,192.09 -400.75,1534.6 -1595.63,3303.77 -965.69,5226.16 356.4,-3102.46 4145.87,-3512.43 5687.82,-1625.04 1119.15,1368.42 1578.83,5442.29 -2204.92,5881.78 -724,84.96 -1433.19,-343.45 -2129.3,-579.88 363.75,1183.68 1181.82,1711.87 1176.22,3265.02 0,129.19 0,258.49 0,385.93z"/>
  <path class="fil1" d="M31506.91 30568.88c234.57,-1628.78 989.73,-2337.96 2143.89,-2734.97 2103.63,-720.27 4729.6,452.44 5224.53,2323.14 441.24,1656.55 -480.1,2775.58 -1547.67,4256.62 1189.29,-356.4 1645.58,-1034.08 3096.97,-773.72 1285.45,230.83 2173.53,1650.95 2323.14,2321.27 565.18,2554.09 -1189.17,4879.09 -3290.81,4838.48 -947.25,-16.69 -1303.65,-415.57 -1741.39,-773.84 -873.61,-710.93 -1058.23,-1312.99 -1743.26,-2129.3 -301.2,426.65 -83.09,949.23 0,1355.58 112.5,533.67 426.54,915.98 581.75,1353.6 171.55,489.44 210.41,1085.89 387.68,1549.42 151.48,398.88 764.62,734.97 385.93,1159.76 -1357.22,-125.57 -3222.54,256.62 -4258.49,-192.09 402.61,-1534.6 1597.5,-3303.77 969.54,-5226.28 -358.27,3102.58 -4147.74,3512.54 -5689.81,1625.16 -1117.17,-1370.29 -1578.83,-5442.29 2205.04,-5881.78 723.89,-84.96 1433.07,343.45 2129.18,581.75 -363.64,-1185.67 -1180.07,-1711.98 -1176.22,-3266.89 0,-129.3 0,-258.49 0,-385.93z"/>
  <polygon class="fil2" points="9457.1,6860.77 9728.55,6860.77 10668.45,6860.77 7082.27,17233.73 5870.69,17233.73 9086,7935.57 6419.18,7935.57 6419.18,9196.86 5540.31,9196.86 5540.31,7935.57 5538.33,7935.57 5538.33,6860.77 5540.31,6860.77 6419.18,6860.77 "/>
  <polygon class="fil2" points="62038.69,97685.87 61767.13,97685.87 60827.11,97685.87 64415.27,87312.91 65624.86,87312.91 62409.91,96609.2 65076.38,96609.2 65076.38,95349.77 65957.22,95349.77 65957.22,96609.2 65959.21,96609.2 65959.21,97685.87 65957.22,97685.87 65076.38,97685.87 "/>
 </g>
</svg>
