<?xml version="1.0" encoding="UTF-8"?>
<!DOCTYPE svg PUBLIC "-//W3C//DTD SVG 1.1//EN" "http://www.w3.org/Graphics/SVG/1.1/DTD/svg11.dtd">
<!-- Creator: CorelDRAW -->
<svg xmlns="http://www.w3.org/2000/svg" xml:space="preserve" width="60.2046mm" height="89.893mm" version="1.1" style="shape-rendering:geometricPrecision; text-rendering:geometricPrecision; image-rendering:optimizeQuality; fill-rule:evenodd; clip-rule:evenodd"
viewBox="0 0 2913.89 4350.8"
 xmlns:xlink="http://www.w3.org/1999/xlink"
 xmlns:xodm="http://www.corel.com/coreldraw/odm/2003">
 <defs>
  <style type="text/css">
   <![CDATA[
    .str0 {stroke:#1F1A17;stroke-width:3.69;stroke-miterlimit:22.9256}
    .fil1 {fill:#B32520}
    .fil0 {fill:white}
   ]]>
  </style>
 </defs>
 <g id="Слой_x0020_1">
  <metadata id="CorelCorpID_0Corel-Layer"/>
  <path class="fil0 str0" d="M138.25 1.84l2637.4 0c75.05,0 136.4,61.42 136.4,136.41l0 4074.29c0,74.99 -61.35,136.41 -136.4,136.41l-2637.4 0c-74.98,0 -136.41,-61.42 -136.41,-136.41l0 -4074.29c0,-74.99 61.43,-136.41 136.41,-136.41z"/>
  <path class="fil1" d="M417.97 809.26c-19.22,-21.37 -40.53,-34.16 -55.46,-34.16 -14.55,0 -50.02,-3.52 -80.03,57.83 -29.88,-60.2 -64.95,-56.75 -79.43,-56.75 -14.93,0 -36.23,12.79 -55.45,34.16 -19.22,21.37 -16.01,58.67 -9.42,78.12 6.5,19.45 143.75,219.59 143.75,219.59 0,0 138.94,-201.2 145.45,-220.66 6.59,-19.45 9.81,-56.75 -9.41,-78.12z"/>
  <path class="fil1" d="M2536.76 3559.16c19.22,21.37 40.59,34.16 55.53,34.16 14.47,0 50.01,3.52 79.96,-57.82 29.87,60.2 65.03,56.75 79.43,56.75 14.93,0 36.3,-12.79 55.52,-34.16 19.14,-21.29 16.01,-58.67 9.42,-78.12 -6.59,-19.38 -143.77,-219.59 -143.77,-219.59 0,0 -138.93,201.28 -145.51,220.65 -6.52,19.46 -9.73,56.83 9.42,78.13z"/>
  <path class="fil1" d="M1129.02 565.62c-36.53,-40.59 -77.05,-64.95 -105.46,-64.95 -27.57,0 -94.97,-6.66 -151.95,109.91 -56.75,-114.35 -123.55,-107.84 -150.96,-107.84 -28.41,0 -68.93,24.36 -105.46,64.88 -36.45,40.52 -30.41,111.51 -17.92,148.43 12.49,36.99 273.2,417.34 273.2,417.34 0,0 264,-382.41 276.49,-419.33 12.48,-36.91 18.53,-107.91 -17.93,-148.43z"/>
  <path class="fil1" d="M2333.95 565.62c-36.46,-40.59 -76.98,-64.95 -105.4,-64.95 -27.57,0 -94.97,-6.66 -151.95,109.91 -56.75,-114.35 -123.54,-107.84 -150.96,-107.84 -28.34,0 -68.93,24.36 -105.46,64.88 -36.45,40.52 -30.41,111.51 -17.92,148.43 12.48,36.99 273.19,417.34 273.19,417.34 0,0 264.01,-382.41 276.49,-419.33 12.49,-36.91 18.54,-107.91 -17.99,-148.43z"/>
  <path class="fil1" d="M1803.02 3808c36.53,40.59 77.13,64.88 105.46,64.88 27.57,0 95.05,6.74 151.96,-109.83 56.75,114.35 123.54,107.84 150.96,107.84 28.42,0 68.93,-24.35 105.46,-64.87 36.46,-40.59 30.41,-111.52 17.92,-148.51 -12.48,-36.91 -273.19,-417.26 -273.19,-417.26 0,0 -264.01,382.42 -276.49,419.33 -12.49,36.92 -18.53,107.92 17.92,148.43z"/>
  <path class="fil1" d="M598.11 3808c36.45,40.59 76.98,64.88 105.38,64.88 27.57,0 95.06,6.74 152.03,-109.83 56.68,114.35 123.46,107.84 150.88,107.84 28.34,0 68.93,-24.35 105.47,-64.87 36.46,-40.59 30.4,-111.52 17.93,-148.51 -12.49,-36.91 -273.2,-417.26 -273.2,-417.26 0,0 -264,382.42 -276.49,419.33 -12.49,36.92 -18.53,107.92 18,148.43z"/>
  <path class="fil1" d="M1820.18 1929.39c36.53,-40.59 77.13,-64.95 105.46,-64.95 27.57,0 95.05,-6.66 151.96,109.91 56.83,-114.35 123.54,-107.84 150.95,-107.84 28.42,0 68.93,24.35 105.4,64.87 36.53,40.52 30.48,111.52 17.99,148.43 -12.48,36.99 -273.19,417.34 -273.19,417.34 0,0 -264.01,-382.42 -276.49,-419.33 -12.49,-36.92 -18.54,-107.92 17.92,-148.43z"/>
  <path class="fil1" d="M598.11 1929.39c36.45,-40.59 76.98,-64.95 105.38,-64.95 27.57,0 95.06,-6.66 152.03,109.91 56.68,-114.35 123.46,-107.84 150.88,-107.84 28.34,0 68.93,24.35 105.47,64.87 36.46,40.52 30.4,111.52 17.93,148.43 -12.49,36.99 -273.2,417.34 -273.2,417.34 0,0 -264,-382.42 -276.49,-419.33 -12.49,-36.92 -18.53,-107.92 18,-148.43z"/>
  <path class="fil1" d="M1202.32 1242.84c36.45,-40.59 77.05,-64.95 105.47,-64.95 27.57,0 94.97,-6.59 151.95,109.91 56.75,-114.35 123.46,-107.84 150.89,-107.84 28.42,0 69.01,24.35 105.46,64.87 36.46,40.59 30.48,111.52 17.92,148.51 -12.48,36.84 -273.12,417.26 -273.12,417.26 0,0 -264,-382.42 -276.49,-419.33 -12.48,-36.92 -18.61,-107.92 17.92,-148.43z"/>
  <polygon class="fil1" points="351.1,270.75 362.36,270.75 401.35,270.75 252.53,701.04 202.36,701.04 335.7,315.41 225.11,315.41 225.11,367.72 188.65,367.72 188.65,315.41 188.58,315.41 188.58,270.75 188.65,270.75 225.11,270.75 "/>
  <polygon class="fil1" points="2572.98,4065.11 2561.8,4065.11 2522.82,4065.11 2671.56,3634.91 2721.8,3634.91 2588.46,4020.46 2699.05,4020.46 2699.05,3968.23 2735.51,3968.23 2735.51,4020.46 2735.58,4020.46 2735.58,4065.11 2735.51,4065.11 2699.05,4065.11 "/>
 </g>
</svg>
