<?xml version="1.0" encoding="UTF-8"?>
<!DOCTYPE svg PUBLIC "-//W3C//DTD SVG 1.1//EN" "http://www.w3.org/Graphics/SVG/1.1/DTD/svg11.dtd">
<!-- Creator: CorelDRAW -->
<svg xmlns="http://www.w3.org/2000/svg" xml:space="preserve" width="60.2048mm" height="120.053mm" version="1.1" style="shape-rendering:geometricPrecision; text-rendering:geometricPrecision; image-rendering:optimizeQuality; fill-rule:evenodd; clip-rule:evenodd"
viewBox="0 0 2331.95 4650.09"
 xmlns:xlink="http://www.w3.org/1999/xlink"
 xmlns:xodm="http://www.corel.com/coreldraw/odm/2003">
 <defs>
  <style type="text/css">
   <![CDATA[
    .str0 {stroke:#1F1A17;stroke-width:2.95;stroke-miterlimit:22.9256}
    .str1 {stroke:#1F1A17;stroke-width:2.96;stroke-miterlimit:22.9256}
    .fil1 {fill:#171717}
    .fil2 {fill:#1F1A17}
    .fil0 {fill:white}
   ]]>
  </style>
 </defs>
 <g id="Слой_x0020_1">
  <metadata id="CorelCorpID_0Corel-Layer"/>
  <g id="_2335180909120">
   <path class="fil0 str0" d="M110.64 1.48l2110.67 0c60.06,0 109.16,49.1 109.16,109.17l0 3260.59c0,60.01 -49.1,109.17 -109.16,109.17l-2110.67 0c-60.01,0 -109.17,-49.15 -109.17,-109.17l0 -3260.59c0,-60.07 49.16,-109.17 109.17,-109.17z"/>
   <path class="fil1" d="M160.48 655.43c3.99,-27.64 16.8,-39.66 36.35,-46.4 35.61,-12.2 80.11,7.66 88.57,39.42 7.41,28.07 -8.15,47.01 -26.23,72.15 20.1,-6.07 27.88,-17.53 52.47,-13.12 21.82,3.87 36.84,27.95 39.35,39.35 9.63,43.28 -20.1,82.63 -55.78,81.95 -16,-0.24 -22.06,-6.99 -29.48,-13.06 -14.84,-12.08 -17.96,-22.31 -29.55,-36.1 -5.08,7.24 -1.46,16.06 0,22.98 1.91,9.01 7.24,15.5 9.88,22.92 2.94,8.27 3.55,18.39 6.55,26.23 2.58,6.8 12.93,12.45 6.55,19.68 -22.99,-2.15 -54.61,4.35 -72.21,-3.25 6.81,-26.05 27.1,-56.03 16.43,-88.57 -6.07,52.59 -70.31,59.52 -96.42,27.52 -18.93,-23.17 -26.78,-92.25 37.4,-99.67 12.26,-1.47 24.27,5.82 36.04,9.8 -6.13,-20.05 -19.98,-29 -19.92,-55.35 0,-2.21 0,-4.35 0,-6.5l0 0.01z"/>
   <path class="fil1" d="M2199.54 2818.19c-4.05,27.59 -16.8,39.6 -36.35,46.34 -35.68,12.2 -80.16,-7.66 -88.57,-39.42 -7.48,-28.07 8.15,-47.01 26.23,-72.14 -20.17,6.07 -27.88,17.53 -52.47,13.12 -21.81,-3.87 -36.84,-27.95 -39.41,-39.35 -9.56,-43.27 20.17,-82.68 55.78,-82.01 16.06,0.31 22.06,7.05 29.54,13.12 14.77,12.08 17.96,22.31 29.55,36.1 5.09,-7.24 1.42,-16.06 0,-22.98 -1.91,-9.01 -7.24,-15.51 -9.87,-22.93 -2.94,-8.27 -3.55,-18.39 -6.55,-26.23 -2.58,-6.8 -13,-12.5 -6.56,-19.67 22.99,2.15 54.62,-4.35 72.15,3.25 -6.75,25.99 -27.03,56.03 -16.36,88.58 6.01,-52.6 70.31,-59.52 96.42,-27.52 18.94,23.17 26.72,92.25 -37.39,99.66 -12.25,1.47 -24.27,-5.82 -36.1,-9.8 6.19,20.05 20.05,29 19.98,55.35 0,2.15 0,4.35 0,6.55l-0.02 0.01z"/>
   <path class="fil1" d="M551.29 501.82c7.79,-54.06 32.85,-77.59 71.16,-90.78 69.82,-23.91 156.91,15.01 173.47,77.11 14.58,55.04 -16.06,92.19 -51.43,141.28 39.47,-11.84 54.61,-34.26 102.79,-25.68 42.67,7.66 72.09,54.8 77.05,77.11 18.81,84.71 -39.42,161.88 -109.22,160.59 -31.33,-0.62 -43.15,-13.85 -57.81,-25.68 -28.93,-23.65 -35.12,-43.64 -57.74,-70.67 -10.05,14.1 -2.88,31.44 0,44.93 3.63,17.71 14.1,30.4 19.25,44.99 5.76,16.18 6.99,35.98 12.81,51.36 5.08,13.24 25.43,24.39 12.87,38.56 -45.05,-4.23 -106.96,8.46 -141.28,-6.43 13.3,-50.94 52.96,-109.65 32.11,-173.41 -11.89,102.92 -137.66,116.52 -188.85,53.87 -37.08,-45.42 -52.4,-180.63 73.19,-195.22 24.03,-2.82 47.63,11.46 70.67,19.31 -12.07,-39.35 -39.22,-56.82 -39.04,-108.43 0,-4.29 0,-8.58 0,-12.81z"/>
   <path class="fil1" d="M1531.08 492.69c7.72,-54.06 32.85,-77.66 71.16,-90.78 69.74,-23.91 156.91,15.01 173.4,77.11 14.65,54.98 -16,92.12 -51.43,141.28 39.47,-11.83 54.6,-34.33 102.79,-25.75 42.72,7.66 72.15,54.86 77.11,77.11 18.81,84.76 -39.42,161.88 -109.23,160.59 -31.39,-0.55 -43.22,-13.8 -57.81,-25.68 -28.93,-23.65 -35.12,-43.64 -57.8,-70.67 -10,14.16 -2.82,31.44 0,44.99 3.68,17.71 14.1,30.4 19.25,44.93 5.76,16.24 7,36.05 12.88,51.43 5.03,13.24 25.38,24.39 12.81,38.49 -44.99,-4.17 -106.9,8.51 -141.29,-6.38 13.36,-50.99 52.96,-109.65 32.12,-173.46 -11.83,102.97 -137.66,116.58 -188.79,53.94 -37.08,-45.42 -52.47,-180.63 73.12,-195.29 24.09,-2.76 47.63,11.47 70.67,19.31 -12.08,-39.29 -39.17,-56.82 -38.98,-108.36 0,-4.29 0,-8.58 0,-12.81l0.02 0z"/>
   <path class="fil1" d="M551.29 1575.02c7.79,-54.06 32.85,-77.66 71.16,-90.78 69.82,-23.91 156.91,15.01 173.47,77.11 14.58,54.98 -16.06,92.13 -51.43,141.28 39.47,-11.83 54.61,-34.33 102.79,-25.68 42.67,7.67 72.09,54.8 77.05,77.11 18.81,84.71 -39.42,161.88 -109.22,160.53 -31.33,-0.55 -43.15,-13.79 -57.81,-25.68 -28.93,-23.67 -35.12,-43.58 -57.74,-70.67 -10.05,14.16 -2.88,31.51 0,44.99 3.63,17.71 14.1,30.4 19.25,44.99 5.76,16.18 6.99,35.98 12.81,51.36 5.08,13.24 25.43,24.39 12.87,38.49 -45.05,-4.17 -106.96,8.52 -141.28,-6.38 13.3,-50.94 52.96,-109.65 32.11,-173.46 -11.89,102.97 -137.66,116.58 -188.85,53.94 -37.08,-45.42 -52.4,-180.63 73.19,-195.22 24.03,-2.82 47.63,11.4 70.67,19.25 -12.07,-39.29 -39.22,-56.82 -39.04,-108.36 0,-4.29 0,-8.59 0,-12.81z"/>
   <path class="fil1" d="M1540.2 1584.15c7.78,-54.06 32.85,-77.59 71.16,-90.71 69.74,-23.96 156.91,14.96 173.46,77.04 14.59,55.04 -16.06,92.19 -51.43,141.28 39.47,-11.83 54.61,-34.26 102.79,-25.68 42.67,7.66 72.09,54.8 77.05,77.11 18.81,84.76 -39.42,161.88 -109.17,160.59 -31.38,-0.61 -43.21,-13.85 -57.86,-25.68 -28.93,-23.65 -35.12,-43.64 -57.74,-70.67 -10.05,14.09 -2.88,31.44 0,44.99 3.63,17.65 14.04,30.34 19.25,44.93 5.76,16.18 6.92,36.05 12.87,51.43 5.03,13.18 25.39,24.33 12.81,38.49 -45.05,-4.23 -106.96,8.46 -141.28,-6.43 13.3,-50.94 52.96,-109.65 32.11,-173.4 -11.89,102.97 -137.66,116.52 -188.84,53.87 -37.08,-45.42 -52.4,-180.63 73.19,-195.22 24.03,-2.76 47.57,11.47 70.67,19.31 -12.08,-39.29 -39.22,-56.82 -39.04,-108.43 0,-4.29 0,-8.58 0,-12.81l-0.01 -0.01z"/>
   <path class="fil1" d="M1785.56 2970.81c-7.78,54.06 -32.8,77.59 -71.1,90.78 -69.82,23.91 -156.98,-15.01 -173.46,-77.11 -14.59,-55.04 16,-92.19 51.43,-141.35 -39.47,11.89 -54.68,34.33 -102.79,25.75 -42.72,-7.72 -72.15,-54.86 -77.11,-77.11 -18.81,-84.77 39.42,-161.88 109.23,-160.59 31.39,0.55 43.22,13.79 57.81,25.68 28.99,23.65 35.12,43.64 57.8,70.67 10.05,-14.1 2.82,-31.44 0,-44.99 -3.68,-17.65 -14.1,-30.34 -19.25,-44.93 -5.76,-16.24 -6.99,-36.05 -12.87,-51.43 -5.08,-13.24 -25.43,-24.33 -12.81,-38.49 44.99,4.23 106.89,-8.52 141.28,6.37 -13.36,50.99 -52.96,109.72 -32.11,173.46 11.89,-102.98 137.66,-116.52 188.79,-53.87 37.14,45.42 52.4,180.63 -73.19,195.22 -24.03,2.76 -47.56,-11.46 -70.67,-19.31 12.13,39.35 39.23,56.82 39.05,108.36 0,4.29 0,8.58 0,12.87l-0.03 0.01z"/>
   <path class="fil1" d="M805.84 2979.94c-7.84,54.06 -32.85,77.66 -71.16,90.78 -69.82,23.91 -156.98,-15.01 -173.47,-77.11 -14.58,-55.04 16,-92.19 51.43,-141.35 -39.47,11.89 -54.61,34.33 -102.79,25.75 -42.67,-7.66 -72.08,-54.8 -77.05,-77.05 -18.82,-84.76 39.41,-161.94 109.17,-160.59 31.38,0.55 43.21,13.73 57.8,25.68 29,23.65 35.12,43.58 57.81,70.67 10.04,-14.16 2.82,-31.5 0,-44.99 -3.68,-17.71 -14.1,-30.4 -19.25,-44.99 -5.76,-16.24 -6.99,-35.98 -12.87,-51.36 -5.04,-13.3 -25.39,-24.39 -12.81,-38.49 45.05,4.17 106.96,-8.51 141.28,6.38 -13.3,50.94 -52.96,109.65 -32.11,173.46 11.89,-102.97 137.66,-116.58 188.84,-53.94 37.08,45.42 52.4,180.63 -73.18,195.22 -24.09,2.82 -47.63,-11.46 -70.67,-19.25 12.07,39.29 39.22,56.82 39.05,108.36 0,4.23 0,8.51 0,12.81l-0.01 0.01z"/>
   <path class="fil2" d="M214.79 560.97c-41.26,0 -74.96,-33.72 -74.96,-74.91l0 -46.1c0,-1.54 0.07,-3.13 0.12,-4.66l-0.12 0 0 -131.35 0 -10.85 0 -10.42c0,-41.19 33.71,-74.96 74.96,-74.96 41.19,0 74.91,33.71 74.91,74.96l0 21.27 -28.32 0 0 -13.55c0,-25.68 -20.96,-46.64 -46.59,-46.64 -25.67,0 -46.64,21.02 -46.64,46.64l0 2.7 0.85 0 0 87.65c12.69,-9.87 28.57,-15.75 45.78,-15.75 41.19,0 74.91,33.77 74.91,74.96l0 46.1c0,41.19 -33.72,74.91 -74.91,74.91l0.02 0zm0 -38.68l0 0c25.63,0 46.59,-20.96 46.59,-46.58l0 -28.01c0,-25.63 -20.96,-46.58 -46.59,-46.58 -25.67,0 -46.64,20.96 -46.64,46.58l0 28.01c0,25.55 20.96,46.58 46.64,46.58z"/>
   <path class="fil2" d="M2137.76 2910.98c41.26,0 74.96,33.72 74.96,74.96l0 46.03c0,1.59 -0.07,3.13 -0.12,4.66l0.12 0 0 131.35 0 10.85 0 10.42c0,41.19 -33.72,74.96 -74.96,74.96 -41.19,0 -74.9,-33.71 -74.9,-74.96l0 -21.27 28.32 0 0 13.6c0,25.55 20.96,46.58 46.58,46.58 25.62,0 46.65,-21.02 46.65,-46.58l0 -2.76 -0.86 0 0 -87.65c-12.69,9.87 -28.56,15.75 -45.78,15.75 -41.19,0 -74.9,-33.71 -74.9,-74.96l0 -46.03c0,-41.26 33.71,-74.96 74.9,-74.96l-0.02 0.01zm0 38.68l0 0c-25.62,0 -46.58,21.02 -46.58,46.64l0 27.95c0,25.68 20.96,46.58 46.58,46.58 25.62,0 46.65,-20.96 46.65,-46.58l0 -27.95c0,-25.62 -21.03,-46.64 -46.65,-46.64z"/>
  </g>
  <g id="_2335180911232">
   <path class="fil0 str1" d="M110.65 1169.76l2110.65 0c60.01,0 109.17,49.09 109.17,109.17l0 3260.52c0,60.07 -49.16,109.17 -109.17,109.17l-2110.65 0c-60.07,0 -109.17,-49.09 -109.17,-109.17l0 -3260.52c0,-60.07 49.09,-109.17 109.17,-109.17z"/>
   <path class="fil1" d="M340.32 1926.51c-4.97,-14.59 -103.83,-158.2 -114.43,-173.58l0 -1.41c0,0 -0.18,0.31 -0.49,0.74 -0.24,-0.43 -0.43,-0.74 -0.49,-0.74l0 1.41c-10.54,15.39 -109.46,158.99 -114.38,173.58 -5.21,15.44 -7.79,45.06 7.48,61.97 15.21,16.97 32.17,27.09 44.01,27.09 5.39,0 14.34,0.6 24.82,-3.74 11.96,-7.48 24.15,-22.63 25.39,-53.46 0,0 2.14,52.7 -18.15,83.35 -1.29,2.39 -2.65,4.59 -4.12,6.37 0,0 27.58,-2.34 35.42,-2.27 7.84,-0.07 35.44,2.27 35.44,2.27 -1.47,-1.78 -2.76,-3.99 -4.05,-6.37 -20.29,-30.65 -18.15,-83.35 -18.15,-83.35 1.22,30.83 13.36,45.97 25.37,53.46 10.42,4.35 19.42,3.74 24.82,3.74 11.83,0 28.75,-10.11 44.01,-27.09 15.26,-16.93 12.69,-46.53 7.48,-61.97l0.02 0z"/>
   <path class="fil1" d="M2011.56 3895.01c4.9,14.59 103.84,158.26 114.38,173.65l0 1.36c0.05,0 0.24,-0.24 0.54,-0.67 0.24,0.43 0.43,0.67 0.49,0.67l0 -1.36c10.54,-15.39 109.41,-159.06 114.38,-173.65 5.21,-15.39 7.73,-45.06 -7.48,-61.97 -15.26,-16.91 -32.18,-27.02 -44.01,-27.02 -5.39,0 -14.41,-0.6 -24.9,3.68 -11.96,7.48 -24.08,22.67 -25.3,53.46 0,0 -2.14,-52.65 18.14,-83.3 1.29,-2.39 2.58,-4.59 4.12,-6.44 0,0 -27.59,2.34 -35.44,2.27 -7.91,0.07 -35.48,-2.27 -35.48,-2.27 1.47,1.85 2.83,4.05 4.1,6.44 20.29,30.65 18.15,83.3 18.15,83.3 -1.22,-30.76 -13.43,-45.97 -25.37,-53.46 -10.49,-4.28 -19.44,-3.68 -24.82,-3.68 -11.83,0 -28.75,10.11 -44.01,27.02 -15.26,16.93 -12.69,46.58 -7.48,61.97l0.02 0z"/>
   <path class="fil1" d="M875.12 2955.01c-8.53,-25.26 -179.53,-273.62 -197.8,-300.22l0 -2.45c-0.07,0.07 -0.38,0.55 -0.91,1.29 -0.43,-0.74 -0.8,-1.22 -0.8,-1.29l0 2.45c-18.33,26.6 -189.33,274.96 -197.86,300.22 -9.02,26.66 -13.43,77.85 12.94,107.14 26.35,29.29 55.59,46.89 76.13,46.89 9.27,0 24.82,0.98 42.97,-6.5 20.65,-12.88 41.68,-39.11 43.83,-92.44 0,0 3.74,91.14 -31.39,144.1 -2.2,4.1 -4.52,7.97 -7.04,11.09 0,0 47.69,-4.05 61.23,-3.92 13.61,-0.12 61.36,3.92 61.36,3.92 -2.58,-3.12 -4.9,-6.99 -7.12,-11.09 -35.06,-52.95 -31.39,-144.1 -31.39,-144.1 2.16,53.32 23.17,79.56 43.9,92.44 18.08,7.48 33.64,6.5 42.9,6.5 20.54,0 49.83,-17.6 76.12,-46.89 26.35,-29.31 21.94,-80.48 12.94,-107.14l-0.01 0z"/>
   <path class="fil1" d="M1864.03 2973.33c-8.53,-25.26 -179.53,-273.62 -197.8,-300.22l0 -2.45c-0.07,0.07 -0.38,0.49 -0.87,1.22 -0.49,-0.74 -0.85,-1.16 -0.85,-1.22l0 2.45c-18.33,26.6 -189.33,274.96 -197.86,300.22 -9.02,26.66 -13.43,77.85 12.94,107.14 26.35,29.24 55.59,46.82 76.13,46.82 9.25,0 24.82,1.05 42.97,-6.44 20.67,-12.94 41.68,-39.11 43.83,-92.44 0,0 3.68,91.08 -31.39,144.05 -2.2,4.17 -4.52,7.97 -7.04,11.16 0,0 47.69,-4.05 61.3,-3.92 13.55,-0.13 61.23,3.92 61.23,3.92 -2.52,-3.18 -4.83,-6.99 -7.04,-11.16 -35.06,-52.96 -31.32,-144.05 -31.32,-144.05 2.09,53.32 23.12,79.5 43.77,92.44 18.15,7.48 33.72,6.44 42.97,6.44 20.54,0 49.83,-17.6 76.13,-46.82 26.35,-29.29 21.94,-80.48 12.94,-107.14l-0.05 0z"/>
   <path class="fil1" d="M1854.9 1881.82c-8.59,-25.26 -179.53,-273.62 -197.86,-300.22l0 -2.39c0,0 -0.38,0.49 -0.85,1.22 -0.49,-0.74 -0.8,-1.22 -0.87,-1.22l0 2.39c-18.27,26.6 -189.27,274.96 -197.86,300.22 -9,26.66 -13.36,77.91 12.99,107.21 26.3,29.24 55.59,46.82 76.06,46.82 9.31,0 24.82,0.98 42.97,-6.44 20.71,-12.99 41.74,-39.16 43.82,-92.48 0,0 3.74,91.14 -31.39,144.11 -2.2,4.1 -4.48,7.97 -7.04,11.09 0,0 47.74,-4.05 61.3,-3.92 13.55,-0.13 61.28,3.92 61.28,3.92 -2.58,-3.12 -4.83,-6.99 -7.04,-11.09 -35.11,-52.96 -31.39,-144.11 -31.39,-144.11 2.09,53.32 23.17,79.5 43.83,92.48 18.14,7.42 33.7,6.44 42.97,6.44 20.54,0 49.76,-17.6 76.13,-46.82 26.35,-29.29 21.94,-80.54 12.94,-107.21l0.01 0z"/>
   <path class="fil1" d="M884.3 1881.82c-8.58,-25.26 -179.6,-273.62 -197.86,-300.22l0 -2.39c-0.07,0 -0.38,0.49 -0.87,1.22 -0.49,-0.74 -0.8,-1.22 -0.87,-1.22l0 2.39c-18.27,26.6 -189.27,274.96 -197.86,300.22 -9.02,26.66 -13.43,77.91 12.94,107.21 26.35,29.24 55.66,46.82 76.13,46.82 9.31,0 24.82,0.98 42.97,-6.44 20.71,-12.99 41.74,-39.16 43.83,-92.48 0,0 3.74,91.14 -31.39,144.11 -2.2,4.1 -4.48,7.97 -7.04,11.09 0,0 47.75,-4.05 61.3,-3.92 13.55,-0.13 61.3,3.92 61.3,3.92 -2.58,-3.12 -4.83,-6.99 -7.04,-11.09 -35.12,-52.96 -31.39,-144.11 -31.39,-144.11 2.09,53.32 23.1,79.5 43.82,92.48 18.15,7.42 33.72,6.44 42.97,6.44 20.47,0 49.78,-17.6 76.06,-46.82 26.35,-29.29 22,-80.54 12.99,-107.21l0.02 0z"/>
   <path class="fil1" d="M477.75 3938.95c8.53,25.26 179.53,273.62 197.86,300.22l0 2.45c0,-0.07 0.38,-0.49 0.87,-1.22 0.43,0.74 0.8,1.16 0.8,1.22l0 -2.45c18.33,-26.6 189.33,-274.96 197.91,-300.22 8.95,-26.66 13.36,-77.85 -12.99,-107.14 -26.35,-29.24 -55.59,-46.82 -76.12,-46.82 -9.27,0 -24.82,-1.05 -42.97,6.44 -20.65,12.94 -41.68,39.11 -43.83,92.44 0,0 -3.68,-91.08 31.39,-144.1 2.2,-4.12 4.54,-7.91 7.12,-11.09 0,0 -47.75,4.05 -61.3,3.92 -13.61,0.13 -61.3,-3.92 -61.3,-3.92 2.52,3.18 4.83,6.99 7.04,11.09 35.06,53.01 31.39,144.1 31.39,144.1 -2.09,-53.32 -23.17,-79.5 -43.83,-92.44 -18.15,-7.48 -33.7,-6.44 -42.97,-6.44 -20.54,0 -49.78,17.6 -76.13,46.82 -26.35,29.29 -21.94,80.48 -12.94,107.14l-0.01 0z"/>
   <path class="fil1" d="M1466.66 3938.95c8.53,25.26 179.53,273.62 197.86,300.22l0 2.45c0,-0.07 0.38,-0.49 0.85,-1.22 0.43,0.74 0.8,1.16 0.8,1.22l0 -2.45c18.33,-26.6 189.33,-274.96 197.86,-300.22 9,-26.66 13.43,-77.85 -12.94,-107.14 -26.37,-29.24 -55.59,-46.82 -76.13,-46.82 -9.25,0 -24.82,-1.05 -42.97,6.44 -20.65,12.94 -41.68,39.11 -43.83,92.44 0,0 -3.74,-91.08 31.39,-144.1 2.2,-4.12 4.54,-7.91 7.04,-11.09 0,0 -47.69,4.05 -61.23,3.92 -13.61,0.13 -61.3,-3.92 -61.3,-3.92 2.52,3.18 4.83,6.99 7.04,11.09 35.06,53.01 31.39,144.1 31.39,144.1 -2.14,-53.32 -23.17,-79.5 -43.88,-92.44 -18.07,-7.48 -33.66,-6.44 -42.9,-6.44 -20.54,0 -49.78,17.6 -76.13,46.82 -26.35,29.29 -21.94,80.48 -12.94,107.14l0.03 0z"/>
   <path class="fil2" d="M225.76 1729.25c-41.25,0 -74.96,-33.72 -74.96,-74.91l0 -46.09c0,-1.58 0.05,-3.12 0.12,-4.72l-0.12 0 0 -131.29 0 -10.85 0 -10.42c0,-41.19 33.7,-74.96 74.96,-74.96 41.19,0 74.89,33.7 74.89,74.96l0 21.27 -28.31 0 0 -13.61c0,-25.62 -21.02,-46.58 -46.58,-46.58 -25.68,0 -46.64,21.02 -46.64,46.58l0 2.76 0.87 0 0 87.65c12.69,-9.87 28.56,-15.75 45.79,-15.75 41.19,0 74.89,33.77 74.89,74.96l0 46.09c0,41.19 -33.7,74.91 -74.89,74.91l-0.02 -0zm0 -38.69l0 0c25.57,0 46.58,-21.02 46.58,-46.64l0 -27.95c0,-25.62 -21.02,-46.64 -46.58,-46.64 -25.68,0 -46.64,21.02 -46.64,46.64l0 27.95c0,25.62 20.96,46.64 46.64,46.64z"/>
   <path class="fil2" d="M2148.73 4090.24c41.25,0 74.96,33.72 74.96,74.97l0 46.04c0,1.58 -0.07,3.12 -0.18,4.66l0.18 0 0 131.35 0 10.85 0 10.42c0,41.19 -33.7,74.97 -74.96,74.97 -41.19,0 -74.96,-33.72 -74.96,-74.97l0 -21.27 28.38 0 0 13.61c0,25.57 20.96,46.58 46.58,46.58 25.62,0 46.58,-21.02 46.58,-46.58l0 -2.76 -0.87 0 0 -87.65c-12.69,9.87 -28.51,15.75 -45.73,15.75 -41.19,0 -74.96,-33.77 -74.96,-74.96l0 -46.04c0,-41.25 33.77,-74.97 74.96,-74.97l0.02 0zm0 38.67l0 0c-25.62,0 -46.58,21.02 -46.58,46.64l0 27.95c0,25.68 20.96,46.58 46.58,46.58 25.62,0 46.58,-20.96 46.58,-46.58l0 -27.95c0,-25.62 -20.96,-46.64 -46.58,-46.64z"/>
  </g>
 </g>
</svg>
