<?xml version="1.0" encoding="UTF-8"?>
<!DOCTYPE svg PUBLIC "-//W3C//DTD SVG 1.1//EN" "http://www.w3.org/Graphics/SVG/1.1/DTD/svg11.dtd">
<!-- Creator: CorelDRAW -->
<svg xmlns="http://www.w3.org/2000/svg" xml:space="preserve" width="60.203mm" height="89.8913mm" version="1.1" style="shape-rendering:geometricPrecision; text-rendering:geometricPrecision; image-rendering:optimizeQuality; fill-rule:evenodd; clip-rule:evenodd"
viewBox="0 0 70256.67 104902.81"
 xmlns:xlink="http://www.w3.org/1999/xlink"
 xmlns:xodm="http://www.corel.com/coreldraw/odm/2003">
 <defs>
  <style type="text/css">
   <![CDATA[
    .str0 {stroke:#1F1A17;stroke-width:88.93;stroke-miterlimit:22.9256}
    .fil1 {fill:#B32520}
    .fil0 {fill:white}
   ]]>
  </style>
 </defs>
 <g id="Слой_x0020_1">
  <metadata id="CorelCorpID_0Corel-Layer"/>
  <path class="fil0 str0" d="M3333.41 44.46l63591.49 0c1808.03,0 3287.31,1479.28 3287.31,3289.06l0 98235.87c0,1809.78 -1479.28,3288.95 -3287.31,3288.95l-63591.49 0c-1809.78,0 -3288.95,-1479.17 -3288.95,-3288.95l0 -98235.87c0,-1809.78 1479.17,-3289.06 3288.95,-3289.06z"/>
  <path class="fil1" d="M10077.6 19512.53c-463.53,-515.23 -978.76,-823.55 -1338.78,-823.55 -349.17,0 -1204.11,-84.96 -1928.11,1394.21 -720.27,-1451.51 -1567.74,-1368.42 -1914.92,-1368.42 -360.25,0 -875.48,308.44 -1339.01,821.8 -461.66,515.23 -385.81,1416.38 -226.98,1885.52 158.83,467.15 3466.1,5294.55 3466.1,5294.55 0,0 3350.1,-4853.19 3508.92,-5320.45 156.84,-469.02 234.45,-1368.42 -227.21,-1883.65z"/>
  <path class="fil1" d="M61165.19 85816.93c461.55,515.23 976.78,823.55 1336.91,823.55 350.92,0 1205.86,84.96 1929.86,-1394.21 720.15,1451.51 1567.74,1368.42 1913.29,1368.42 360.02,0 875.25,-308.44 1338.78,-823.67 463.41,-515.23 386.04,-1414.52 227.21,-1883.65 -158.83,-469.02 -3466.45,-5294.55 -3466.45,-5294.55 0,0 -3348.11,4851.32 -3508.57,5320.45 -157.08,469.02 -234.68,1368.42 228.96,1883.65z"/>
  <path class="fil1" d="M27220.54 13636.35c-878.86,-976.89 -1857.62,-1564.24 -2542.88,-1564.24 -664.84,0 -2289.76,-160.58 -3663.78,2650.13 -1368.42,-2759.01 -2978.87,-2602.05 -3637.99,-2602.05 -685.26,0 -1664.02,587.23 -2542.88,1565.99 -880.97,976.89 -733.22,2688.76 -432.14,3578.94 300.97,890.07 6587.11,10060.91 6587.11,10060.91 0,0 6363.75,-9218.8 6664.83,-10108.99 300.97,-891.94 446.96,-2603.8 -432.26,-3580.69z"/>
  <path class="fil1" d="M56275.01 13636.35c-880.85,-976.89 -1857.74,-1564.24 -2541.02,-1564.24 -664.84,0 -2291.86,-160.58 -3665.89,2650.13 -1368.3,-2759.01 -2978.64,-2602.05 -3639.86,-2602.05 -683.16,0 -1660.05,587.23 -2540.9,1565.99 -881.08,976.89 -733.22,2688.76 -434.01,3578.94 302.84,890.07 6589.09,10060.91 6589.09,10060.91 0,0 6363.75,-9218.8 6664.6,-10108.99 301.2,-891.94 448.83,-2603.8 -432.02,-3580.69z"/>
  <path class="fil1" d="M43473.53 91816.93c880.97,976.89 1857.86,1564.13 2543,1564.13 664.84,0 2289.88,160.7 3663.9,-2650.01 1366.44,2759.01 2976.89,2601.93 3637.99,2601.93 685.14,0 1662.15,-587.23 2543,-1565.99 880.73,-976.89 733.11,-2688.76 432.02,-3578.94 -300.97,-890.07 -6587.11,-10060.91 -6587.11,-10060.91 0,0 -6363.86,9220.67 -6664.95,10110.86 -300.85,890.07 -448.71,2600.18 432.14,3578.94z"/>
  <path class="fil1" d="M14419.29 91816.93c878.86,976.89 1857.74,1564.13 2542.88,1564.13 664.84,0 2289.88,160.7 3663.78,-2650.01 1368.42,2759.01 2978.87,2601.93 3638.11,2601.93 685.14,0 1663.9,-587.23 2542.88,-1565.99 880.85,-976.89 733.22,-2688.76 432.26,-3578.94 -301.09,-890.07 -6585.59,-10060.91 -6585.59,-10060.91 0,0 -6365.5,9220.67 -6666.58,10110.86 -302.84,890.07 -448.59,2600.18 432.26,3578.94z"/>
  <path class="fil1" d="M43887.34 46518.92c880.85,-976.89 1857.74,-1564.13 2542.88,-1564.13 664.84,0 2289.76,-160.7 3663.78,2650.01 1368.42,-2759.01 2976.89,-2602.05 3639.98,-2602.05 683.28,0 1660.17,587.23 2541.02,1565.99 880.85,976.89 733.22,2688.88 434.01,3578.94 -302.84,890.18 -6589.09,10060.79 -6589.09,10060.79 0,0 -6363.75,-9218.69 -6666.58,-10108.75 -299.22,-892.05 -447.08,-2602.05 434.01,-3580.81z"/>
  <path class="fil1" d="M14419.29 46518.92c878.86,-976.89 1857.74,-1564.13 2542.88,-1564.13 664.84,0 2289.88,-160.7 3663.78,2650.01 1368.42,-2759.01 2978.87,-2602.05 3638.11,-2602.05 685.14,0 1663.9,587.23 2542.88,1565.99 880.85,976.89 733.22,2688.88 432.26,3578.94 -301.09,890.18 -6585.59,10060.79 -6585.59,10060.79 0,0 -6365.5,-9218.69 -6666.58,-10108.75 -302.84,-892.05 -448.59,-2602.05 432.26,-3580.81z"/>
  <path class="fil1" d="M8157.07 11483.01c629.71,439.61 1045.28,1170.85 1045.28,1994.51l0 1093.24c0,1335.16 -1093.24,2428.4 -2428.52,2428.4 -1337.14,0 -2430.39,-1091.37 -2430.39,-2428.4l0 -1093.24c0,-823.67 415.68,-1554.91 1045.28,-1994.51 -530.05,-413.58 -873.38,-1059.98 -873.38,-1782l0 -1015.75c0,-1242.85 1015.75,-2258.49 2258.49,-2258.49 1240.87,0 2256.62,1015.64 2256.62,2258.49l0 1015.75c0,722.02 -341.7,1366.55 -873.38,1782zm-1383.24 -3889.13l0 0c-771.85,0 -1405.41,631.58 -1405.41,1403.55l0 472.75c0,771.85 633.56,1403.43 1405.41,1403.43 771.85,0 1403.43,-631.58 1403.43,-1403.43l0 -472.75c0,-771.97 -631.58,-1403.55 -1403.43,-1403.55zm0 4709.06l0 0c-831.13,0 -1510.68,679.66 -1510.68,1510.68l0 507.88c0,829.15 679.54,1508.69 1510.68,1508.69 830.9,0 1508.81,-679.54 1508.81,-1508.69l0 -507.88c0,-831.02 -677.91,-1510.68 -1508.81,-1510.68z"/>
  <path class="fil1" d="M62997.14 93057.91c-631.58,-439.61 -1045.28,-1172.71 -1045.28,-1994.51l0 -1093.24c0,-1337.03 1093.24,-2430.27 2428.4,-2430.27 1337.03,0 2428.52,1093.24 2428.52,2430.27l0 1093.24c0,823.67 -413.82,1554.91 -1045.4,1994.51 531.92,413.58 875.48,1058.12 875.48,1780.14l0 1017.62c0,1242.85 -1015.75,2258.49 -2258.6,2258.49 -1242.97,0 -2258.6,-1017.5 -2258.6,-2258.49l0 -1017.62c0,-720.15 345.43,-1366.55 875.48,-1780.14zm1383.12 3889.13l0 0c773.84,0 1403.43,-631.58 1403.43,-1403.55l0 -472.75c0,-771.85 -629.59,-1405.3 -1403.43,-1405.3 -771.85,0 -1403.43,633.45 -1403.43,1405.3l0 472.75c0,770.1 631.58,1403.55 1403.43,1403.55zm0 -4709.06l0 0c831.02,0 1510.56,-679.66 1510.56,-1510.68l0 -507.88c0,-831.02 -679.54,-1510.56 -1510.56,-1510.56 -831.13,0 -1510.68,681.41 -1510.68,1510.56l0 507.88c0,829.15 679.54,1510.68 1510.68,1510.68z"/>
  <path class="fil1" d="M28987.84 29964.96c881.08,-976.89 1859.73,-1564.13 2543.12,-1564.13 664.84,0 2291.75,-160.7 3663.78,2650.01 1368.54,-2759.01 2978.87,-2600.18 3639.86,-2600.18 685.14,0 1662.04,585.37 2541.13,1564.13 880.85,976.89 734.86,2688.88 432.02,3578.94 -299.1,890.18 -6585.36,10060.91 -6585.36,10060.91 0,0 -6365.5,-9218.8 -6666.58,-10108.87 -300.97,-891.94 -446.84,-2602.05 432.02,-3580.81z"/>
  <path class="fil1" d="M41045.24 74865.84c-879.1,976.89 -1855.99,1564.24 -2541.13,1564.24 -664.84,0 -2290,160.58 -3665.77,-2650.13 -1366.55,2759.01 -2976.89,2602.05 -3638.11,2602.05 -685.14,0 -1662.04,-587.23 -2542.88,-1565.99 -879.1,-976.89 -733.11,-2688.76 -432.02,-3578.94 300.85,-890.07 6587.11,-10060.91 6587.11,-10060.91 0,0 6365.73,9220.67 6666.58,10110.74 299.22,890.18 447.08,2600.18 -433.77,3578.94z"/>
 </g>
</svg>
