<?xml version="1.0" encoding="UTF-8"?>
<!DOCTYPE svg PUBLIC "-//W3C//DTD SVG 1.1//EN" "http://www.w3.org/Graphics/SVG/1.1/DTD/svg11.dtd">
<!-- Creator: CorelDRAW -->
<svg xmlns="http://www.w3.org/2000/svg" xml:space="preserve" width="60.2046mm" height="89.8913mm" version="1.1" style="shape-rendering:geometricPrecision; text-rendering:geometricPrecision; image-rendering:optimizeQuality; fill-rule:evenodd; clip-rule:evenodd"
viewBox="0 0 2690.78 4017.59"
 xmlns:xlink="http://www.w3.org/1999/xlink"
 xmlns:xodm="http://www.corel.com/coreldraw/odm/2003">
 <defs>
  <style type="text/css">
   <![CDATA[
    .str0 {stroke:#1F1A17;stroke-width:3.41;stroke-miterlimit:22.9256}
    .fil1 {fill:#B32520}
    .fil0 {fill:white}
   ]]>
  </style>
 </defs>
 <g id="Слой_x0020_1">
  <metadata id="CorelCorpID_0Corel-Layer"/>
  <path class="fil0 str0" d="M127.74 1.7l2435.38 0c69.31,0 125.96,56.65 125.96,125.97l0 3762.26c0,69.31 -56.65,125.96 -125.96,125.96l-2435.38 0c-69.31,0 -126.03,-56.65 -126.03,-125.96l0 -3762.26c0,-69.31 56.73,-125.97 126.03,-125.97z"/>
  <path class="fil1" d="M799.06 447.35c0,0 -62.23,237.29 -225.82,324.78 0,0 195.84,124.41 228.16,311.05 0,0 62.16,-230.36 230.35,-313.32 0,0 -168.18,-89.89 -232.69,-322.51z"/>
  <path class="fil1" d="M1914.84 434.62c0,0 -62.17,237.36 -225.76,324.84 0,0 195.84,124.41 228.09,311.05 0,0 62.25,-230.42 230.42,-313.31 0,0 -168.18,-89.89 -232.75,-322.58z"/>
  <path class="fil1" d="M1914.84 1677.2c0,0 -62.17,237.36 -225.76,324.84 0,0 195.84,124.4 228.09,311.05 0,0 62.25,-230.35 230.42,-313.31 0,0 -168.18,-89.83 -232.75,-322.58z"/>
  <path class="fil1" d="M786.41 1677.2c0,0 -62.24,237.36 -225.83,324.84 0,0 195.84,124.4 228.1,311.05 0,0 62.24,-230.35 230.35,-313.31 0,0 -168.11,-89.83 -232.62,-322.58z"/>
  <path class="fil1" d="M1914.84 2957.9c0,0 -62.17,237.29 -225.76,324.84 0,0 195.84,124.41 228.09,310.98 0,0 62.25,-230.36 230.42,-313.32 0,0 -168.18,-89.82 -232.75,-322.51z"/>
  <path class="fil1" d="M786.41 2957.9c0,0 -62.24,237.29 -225.83,324.84 0,0 195.84,124.41 228.1,310.98 0,0 62.24,-230.36 230.35,-313.32 0,0 -168.11,-89.82 -232.62,-322.51z"/>
  <path class="fil1" d="M273.44 675.51c0,0 -36.21,137.99 -131.34,188.84 0,0 113.94,72.35 132.61,180.84 0,0 36.21,-133.96 133.95,-182.19 0,0 -97.75,-52.19 -135.23,-187.5z"/>
  <path class="fil1" d="M2466.92 2932.51c0,0 -36.14,137.92 -131.19,188.84 0,0 113.8,72.28 132.61,180.77 0,0 36.14,-133.88 133.88,-182.12 0,0 -97.74,-52.27 -135.3,-187.5z"/>
  <path class="fil1" d="M312.4 439.78c24.19,16.83 40.03,44.84 40.03,76.39l0 41.87c0,51.13 -41.8,93.07 -93.01,93.07 -51.13,0 -93,-41.87 -93,-93.07l0 -41.87c0,-31.54 15.84,-59.55 40.03,-76.39 -20.37,-15.84 -33.53,-40.6 -33.53,-68.25l0 -38.9c0,-47.6 38.91,-86.5 86.5,-86.5 47.6,0 86.5,38.9 86.5,86.5l0 38.9c0,27.65 -13.16,52.41 -33.53,68.25zm-52.98 -148.95l0 0c-29.56,0 -53.74,24.19 -53.74,53.75l0 18.11c0,29.56 24.19,53.75 53.74,53.75 29.56,0 53.75,-24.19 53.75,-53.75l0 -18.11c0,-29.56 -24.19,-53.75 -53.75,-53.75zm0 180.35l0 0c-31.82,0 -57.85,26.03 -57.85,57.86l0 19.45c0,31.83 26.03,57.78 57.85,57.78 31.83,0 57.86,-26.03 57.86,-57.78l0 -19.45c0,-31.83 -26.03,-57.86 -57.86,-57.86z"/>
  <path class="fil1" d="M2412.75 3563.95c-24.19,-16.84 -40.1,-44.84 -40.1,-76.39l0 -41.87c0,-51.21 41.87,-93.07 93.08,-93.07 51.13,0 93,41.87 93,93.07l0 41.87c0,31.54 -15.92,59.55 -40.03,76.39 20.3,15.84 33.52,40.6 33.52,68.18l0 38.97c0,47.53 -38.97,86.5 -86.5,86.5 -47.6,0 -86.5,-38.97 -86.5,-86.5l0 -38.97c0,-27.58 13.15,-52.34 33.52,-68.18zm52.98 148.95l0 0c29.56,0 53.75,-24.19 53.75,-53.75l0 -18.11c0,-29.56 -24.19,-53.75 -53.75,-53.75 -29.56,0 -53.75,24.19 -53.75,53.75l0 18.11c0,29.56 24.19,53.75 53.75,53.75zm0 -180.35l0 0c31.82,0 57.78,-26.03 57.78,-57.85l0 -19.45c0,-31.83 -25.96,-57.85 -57.78,-57.85 -31.83,0 -57.85,26.1 -57.85,57.85l0 19.45c0,31.75 26.02,57.85 57.85,57.85z"/>
  <path class="fil1" d="M1369.69 1055.87c0,0 -62.25,237.36 -225.83,324.91 0,0 195.84,124.41 228.09,311.06 0,0 62.17,-230.43 230.36,-313.32 0,0 -168.18,-89.89 -232.61,-322.65z"/>
  <path class="fil1" d="M1356.95 2361.89c0,0 -62.24,237.36 -225.76,324.92 0,0 195.84,124.41 228.03,310.98 0,0 62.23,-230.35 230.42,-313.31 0,0 -168.19,-89.89 -232.69,-322.58z"/>
 </g>
</svg>
