<?xml version="1.0" encoding="UTF-8"?>
<!DOCTYPE svg PUBLIC "-//W3C//DTD SVG 1.1//EN" "http://www.w3.org/Graphics/SVG/1.1/DTD/svg11.dtd">
<!-- Creator: CorelDRAW -->
<svg xmlns="http://www.w3.org/2000/svg" xml:space="preserve" width="60.2046mm" height="89.8913mm" version="1.1" style="shape-rendering:geometricPrecision; text-rendering:geometricPrecision; image-rendering:optimizeQuality; fill-rule:evenodd; clip-rule:evenodd"
viewBox="0 0 1427.37 2131.19"
 xmlns:xlink="http://www.w3.org/1999/xlink"
 xmlns:xodm="http://www.corel.com/coreldraw/odm/2003">
 <defs>
  <style type="text/css">
   <![CDATA[
    .str0 {stroke:#1F1A17;stroke-width:1.81;stroke-miterlimit:22.9256}
    .fil2 {fill:#171717}
    .fil1 {fill:#1F1A17}
    .fil0 {fill:white}
   ]]>
  </style>
 </defs>
 <g id="Слой_x0020_1">
  <metadata id="CorelCorpID_0Corel-Layer"/>
  <path class="fil0 str0" d="M67.72 0.9l1291.92 0c36.73,0 66.82,30.05 66.82,66.82l0 1995.75c0,36.77 -30.09,66.82 -66.82,66.82l-1291.92 0c-36.77,0 -66.82,-30.05 -66.82,-66.82l0 -1995.75c0,-36.77 30.05,-66.82 66.82,-66.82z"/>
  <path class="fil1" d="M163.17 237.53c13.81,9.6 22.92,25.62 22.92,43.67l0 23.97c0,29.23 -23.93,53.2 -53.2,53.2 -29.3,0 -53.24,-23.94 -53.24,-53.2l0 -23.97c0,-18.04 9.08,-34.06 22.92,-43.67 -11.63,-9.08 -19.17,-23.22 -19.17,-39.06l0 -22.25c0,-27.24 22.25,-49.48 49.49,-49.48 27.2,0 49.44,22.25 49.44,49.48l0 22.25c0,15.83 -7.5,29.94 -19.17,39.06zm-30.27 -85.24l0 0c-16.92,0 -30.77,13.85 -30.77,30.76l0 10.36c0,16.92 13.85,30.76 30.77,30.76 16.88,0 30.73,-13.88 30.73,-30.76l0 -10.36c0,-16.88 -13.85,-30.76 -30.73,-30.76zm0 103.17l0 0c-18.24,0 -33.13,14.89 -33.13,33.09l0 11.14c0,18.2 14.89,33.09 33.13,33.09 18.16,0 33.05,-14.93 33.05,-33.09l0 -11.14c0,-18.16 -14.89,-33.09 -33.05,-33.09z"/>
  <path class="fil1" d="M1272.9 1888.75c-13.81,-9.64 -22.92,-25.66 -22.92,-43.67l0 -23.97c0,-29.23 23.97,-53.2 53.24,-53.2 29.26,0 53.2,23.94 53.2,53.2l0 23.97c0,18.05 -9.08,34.03 -22.88,43.67 11.63,9.08 19.17,23.22 19.17,39.06l0 22.25c0,27.2 -22.29,49.49 -49.48,49.49 -27.24,0 -49.49,-22.29 -49.49,-49.49l0 -22.25c0,-15.83 7.54,-29.97 19.17,-39.06zm30.32 85.24l0 0c16.92,0 30.76,-13.84 30.76,-30.76l0 -10.35c0,-16.92 -13.84,-30.76 -30.76,-30.76 -16.92,0 -30.77,13.88 -30.77,30.76l0 10.35c0,16.88 13.85,30.76 30.77,30.76zm0 -103.17l0 0c18.19,0 33.09,-14.89 33.09,-33.09l0 -11.14c0,-18.2 -14.9,-33.09 -33.09,-33.09 -18.2,0 -33.09,14.93 -33.09,33.09l0 11.14c0,18.2 14.9,33.09 33.09,33.09z"/>
  <path class="fil2" d="M208.3 464.1c-3.04,-8.93 -63.55,-96.83 -70.04,-106.25l0 -0.86c0,0 -0.11,0.15 -0.3,0.45 -0.15,-0.3 -0.26,-0.45 -0.3,-0.45l0 0.86c-6.45,9.42 -67,97.32 -70.01,106.25 -3.19,9.42 -4.77,27.58 4.58,37.93 9.31,10.36 19.69,16.58 26.94,16.58 3.3,0 8.78,0.34 15.19,-2.29 7.32,-4.58 14.78,-13.85 15.54,-32.72 0,0 1.31,32.26 -11.11,51.02 -0.79,1.42 -1.62,2.78 -2.52,3.9 0,0 16.88,-1.43 21.68,-1.39 4.8,-0.04 21.69,1.39 21.69,1.39 -0.9,-1.13 -1.69,-2.48 -2.48,-3.9 -12.42,-18.76 -11.11,-51.02 -11.11,-51.02 0.75,18.87 8.18,28.14 15.53,32.72 6.38,2.62 11.89,2.29 15.19,2.29 7.24,0 17.6,-6.23 26.94,-16.58 9.34,-10.35 7.77,-28.51 4.58,-37.93z"/>
  <path class="fil2" d="M1231.26 1669.01c3,8.93 63.56,96.87 70.01,106.29l0 0.83c0.03,0 0.15,-0.15 0.33,-0.41 0.15,0.26 0.26,0.41 0.3,0.41l0 -0.83c6.45,-9.42 66.97,-97.36 70.01,-106.29 3.19,-9.42 4.73,-27.58 -4.58,-37.93 -9.34,-10.35 -19.7,-16.58 -26.94,-16.58 -3.3,0 -8.82,-0.34 -15.24,2.29 -7.32,4.58 -14.74,13.84 -15.49,32.72 0,0 -1.31,-32.23 11.1,-50.99 0.79,-1.47 1.58,-2.81 2.52,-3.94 0,0 -16.89,1.42 -21.69,1.39 -4.84,0.04 -21.72,-1.39 -21.72,-1.39 0.9,1.13 1.73,2.48 2.51,3.94 12.42,18.76 11.11,50.99 11.11,50.99 -0.75,-18.87 -8.22,-28.14 -15.53,-32.72 -6.42,-2.63 -11.9,-2.29 -15.19,-2.29 -7.24,0 -17.6,6.23 -26.94,16.58 -9.34,10.36 -7.77,28.51 -4.58,37.93z"/>
  <path class="fil2" d="M535.65 1093.64c-5.22,-15.46 -109.89,-167.47 -121.07,-183.76l0 -1.5c-0.04,0.04 -0.23,0.3 -0.56,0.75 -0.26,-0.45 -0.49,-0.71 -0.49,-0.75l0 1.5c-11.22,16.28 -115.89,168.3 -121.11,183.76 -5.52,16.32 -8.22,47.69 7.92,65.58 16.13,17.94 34.03,28.66 46.6,28.66 5.67,0 15.19,0.64 26.3,-3.94 12.64,-7.92 25.51,-23.94 26.83,-56.58 0,0 2.29,55.75 -19.21,88.21 -1.35,2.51 -2.77,4.84 -4.31,6.79 0,0 29.19,-2.48 37.48,-2.4 8.33,-0.07 37.56,2.4 37.56,2.4 -1.58,-1.95 -3,-4.28 -4.36,-6.79 -21.46,-32.45 -19.21,-88.21 -19.21,-88.21 1.32,32.64 14.18,48.66 26.87,56.58 11.07,4.58 20.59,3.94 26.26,3.94 12.57,0 30.5,-10.73 46.59,-28.66 16.13,-17.9 13.43,-49.26 7.92,-65.58z"/>
  <path class="fil2" d="M1140.96 1104.86c-5.22,-15.46 -109.89,-167.52 -121.07,-183.76l0 -1.5c-0.04,0.04 -0.23,0.3 -0.53,0.75 -0.3,-0.45 -0.52,-0.71 -0.52,-0.75l0 1.5c-11.22,16.25 -115.89,168.3 -121.11,183.76 -5.52,16.28 -8.22,47.65 7.92,65.58 16.13,17.9 34.03,28.66 46.6,28.66 5.66,0 15.19,0.64 26.3,-3.94 12.65,-7.92 25.51,-23.94 26.83,-56.58 0,0 2.25,55.75 -19.21,88.2 -1.35,2.52 -2.77,4.84 -4.31,6.79 0,0 29.19,-2.48 37.52,-2.4 8.29,-0.08 37.48,2.4 37.48,2.4 -1.54,-1.95 -2.96,-4.28 -4.31,-6.79 -21.46,-32.45 -19.17,-88.2 -19.17,-88.2 1.28,32.64 14.15,48.66 26.79,56.58 11.11,4.58 20.64,3.94 26.3,3.94 12.57,0 30.5,-10.77 46.6,-28.66 16.13,-17.93 13.43,-49.3 7.92,-65.58z"/>
  <path class="fil2" d="M1135.37 436.75c-5.26,-15.46 -109.89,-167.52 -121.11,-183.72l0 -1.5c0,0 -0.23,0.3 -0.52,0.75 -0.3,-0.45 -0.49,-0.75 -0.53,-0.75l0 1.5c-11.18,16.21 -115.85,168.27 -121.11,183.72 -5.51,16.32 -8.18,47.69 7.95,65.58 16.1,17.93 34.03,28.66 46.56,28.66 5.7,0 15.19,0.64 26.3,-3.94 12.68,-7.88 25.55,-23.94 26.82,-56.58 0,0 2.29,55.79 -19.21,88.2 -1.35,2.52 -2.74,4.88 -4.31,6.79 0,0 29.22,-2.48 37.52,-2.4 8.29,-0.08 37.51,2.4 37.51,2.4 -1.58,-1.91 -2.96,-4.28 -4.31,-6.79 -21.49,-32.41 -19.21,-88.2 -19.21,-88.2 1.28,32.64 14.18,48.7 26.83,56.58 11.1,4.58 20.63,3.94 26.3,3.94 12.57,0 30.46,-10.73 46.6,-28.66 16.13,-17.9 13.43,-49.26 7.92,-65.58z"/>
  <path class="fil2" d="M541.27 436.75c-5.25,-15.46 -109.93,-167.52 -121.11,-183.72l0 -1.5c-0.04,0 -0.23,0.3 -0.53,0.75 -0.3,-0.45 -0.49,-0.75 -0.53,-0.75l0 1.5c-11.18,16.21 -115.85,168.27 -121.11,183.72 -5.52,16.32 -8.22,47.69 7.92,65.58 16.13,17.93 34.07,28.66 46.6,28.66 5.7,0 15.19,0.64 26.3,-3.94 12.68,-7.88 25.55,-23.94 26.83,-56.58 0,0 2.29,55.79 -19.21,88.2 -1.35,2.52 -2.74,4.88 -4.31,6.79 0,0 29.23,-2.48 37.52,-2.4 8.29,-0.08 37.52,2.4 37.52,2.4 -1.58,-1.91 -2.96,-4.28 -4.31,-6.79 -21.5,-32.41 -19.21,-88.2 -19.21,-88.2 1.28,32.64 14.14,48.7 26.82,56.58 11.11,4.58 20.64,3.94 26.3,3.94 12.53,0 30.47,-10.73 46.56,-28.66 16.13,-17.9 13.47,-49.26 7.95,-65.58z"/>
  <path class="fil2" d="M292.42 1695.91c5.22,15.46 109.89,167.52 121.11,183.72l0 1.54c0,-0.04 0.23,-0.34 0.53,-0.79 0.26,0.45 0.49,0.75 0.49,0.79l0 -1.54c11.22,-16.21 115.89,-168.27 121.14,-183.72 5.48,-16.32 8.18,-47.65 -7.95,-65.58 -16.13,-17.93 -34.03,-28.66 -46.59,-28.66 -5.67,0 -15.19,-0.64 -26.3,3.94 -12.64,7.88 -25.51,23.94 -26.83,56.58 0,0 -2.25,-55.75 19.21,-88.21 1.35,-2.51 2.78,-4.88 4.36,-6.79 0,0 -29.23,2.48 -37.52,2.4 -8.33,0.08 -37.52,-2.4 -37.52,-2.4 1.54,1.91 2.96,4.28 4.31,6.79 21.46,32.45 19.21,88.21 19.21,88.21 -1.28,-32.64 -14.18,-48.7 -26.83,-56.58 -11.11,-4.58 -20.63,-3.94 -26.3,-3.94 -12.57,0 -30.47,10.73 -46.6,28.66 -16.13,17.93 -13.43,49.26 -7.92,65.58z"/>
  <path class="fil2" d="M897.73 1695.91c5.22,15.46 109.89,167.52 121.11,183.72l0 1.54c0,-0.04 0.23,-0.34 0.52,-0.79 0.26,0.45 0.49,0.75 0.49,0.79l0 -1.54c11.22,-16.21 115.89,-168.27 121.11,-183.72 5.51,-16.32 8.22,-47.65 -7.92,-65.58 -16.14,-17.93 -34.03,-28.66 -46.6,-28.66 -5.66,0 -15.19,-0.64 -26.3,3.94 -12.64,7.88 -25.51,23.94 -26.83,56.58 0,0 -2.29,-55.75 19.21,-88.21 1.35,-2.51 2.78,-4.88 4.31,-6.79 0,0 -29.19,2.48 -37.48,2.4 -8.33,0.08 -37.52,-2.4 -37.52,-2.4 1.54,1.91 2.96,4.28 4.31,6.79 21.46,32.45 19.21,88.21 19.21,88.21 -1.31,-32.64 -14.18,-48.7 -26.86,-56.58 -11.06,-4.58 -20.6,-3.94 -26.26,-3.94 -12.57,0 -30.47,10.73 -46.6,28.66 -16.13,17.93 -13.43,49.26 -7.92,65.58z"/>
  <path class="fil2" d="M846.14 759.62c-5.22,-15.49 -109.89,-167.52 -121.11,-183.76l0 -1.5c0,0 -0.22,0.3 -0.52,0.75 -0.3,-0.45 -0.49,-0.75 -0.53,-0.75l0 1.5c-11.18,16.25 -115.85,168.27 -121.11,183.76 -5.48,16.28 -8.18,47.65 7.95,65.58 16.1,17.9 34.03,28.66 46.56,28.66 5.7,0 15.23,0.6 26.3,-3.94 12.68,-7.92 25.55,-23.97 26.83,-56.58 0,0 2.29,55.75 -19.21,88.17 -1.35,2.55 -2.74,4.88 -4.31,6.83 0,0 29.23,-2.48 37.52,-2.4 8.33,-0.08 37.52,2.4 37.52,2.4 -1.58,-1.95 -2.96,-4.28 -4.31,-6.83 -21.46,-32.41 -19.21,-88.17 -19.21,-88.17 1.28,32.6 14.18,48.66 26.82,56.58 11.11,4.54 20.64,3.94 26.3,3.94 12.53,0 30.47,-10.77 46.6,-28.66 16.13,-17.93 13.43,-49.3 7.91,-65.58z"/>
  <path class="fil2" d="M832.67 1380.24c-5.21,15.49 -109.89,167.52 -121.11,183.76l0 1.5c0,0 -0.18,-0.3 -0.53,-0.75 -0.26,0.45 -0.49,0.75 -0.49,0.75l0 -1.5c-11.22,-16.25 -115.89,-168.27 -121.11,-183.76 -5.52,-16.28 -8.22,-47.65 7.92,-65.58 16.13,-17.9 34.03,-28.66 46.6,-28.66 5.67,0 15.19,-0.6 26.3,3.94 12.65,7.92 25.51,23.97 26.83,56.58 0,0 2.25,-55.75 -19.21,-88.17 -1.35,-2.55 -2.77,-4.88 -4.31,-6.83 0,0 29.19,2.51 37.48,2.4 8.33,0.11 37.52,-2.4 37.52,-2.4 -1.54,1.95 -2.96,4.28 -4.31,6.83 -21.46,32.41 -19.17,88.17 -19.17,88.17 1.28,-32.6 14.15,-48.66 26.83,-56.58 11.07,-4.54 20.6,-3.94 26.26,-3.94 12.57,0 30.46,10.77 46.6,28.66 16.13,17.93 13.47,49.3 7.91,65.58z"/>
 </g>
</svg>
