<?xml version="1.0" encoding="UTF-8"?>
<!DOCTYPE svg PUBLIC "-//W3C//DTD SVG 1.1//EN" "http://www.w3.org/Graphics/SVG/1.1/DTD/svg11.dtd">
<!-- Creator: CorelDRAW -->
<svg xmlns="http://www.w3.org/2000/svg" xml:space="preserve" width="60.2046mm" height="89.8929mm" version="1.1" style="shape-rendering:geometricPrecision; text-rendering:geometricPrecision; image-rendering:optimizeQuality; fill-rule:evenodd; clip-rule:evenodd"
viewBox="0 0 2913.89 4350.8"
 xmlns:xlink="http://www.w3.org/1999/xlink"
 xmlns:xodm="http://www.corel.com/coreldraw/odm/2003">
 <defs>
  <style type="text/css">
   <![CDATA[
    .str0 {stroke:#1F1A17;stroke-width:3.69;stroke-miterlimit:22.9256}
    .fil1 {fill:#171717}
    .fil2 {fill:#1F1A17}
    .fil0 {fill:white}
   ]]>
  </style>
 </defs>
 <g id="Слой_x0020_1">
  <metadata id="CorelCorpID_0Corel-Layer"/>
  <path class="fil0 str0" d="M138.25 1.84l2637.4 0c75.05,0 136.4,61.42 136.4,136.41l0 4074.29c0,75.06 -61.35,136.41 -136.4,136.41l-2637.4 0c-74.98,0 -136.41,-61.35 -136.41,-136.41l0 -4074.29c0,-74.98 61.43,-136.41 136.41,-136.41z"/>
  <path class="fil1" d="M200.53 818.99c4.98,-34.54 20.99,-49.56 45.42,-57.98 44.5,-15.24 100.1,9.65 110.67,49.25 9.26,35.08 -10.18,58.74 -32.78,90.14 25.12,-7.58 34.84,-21.91 65.56,-16.39 27.27,4.9 46.03,35 49.17,49.17 12.03,54.07 -25.12,103.32 -69.7,102.48 -19.99,-0.38 -27.57,-8.81 -36.83,-16.39 -18.54,-15.09 -22.44,-27.81 -36.92,-45.11 -6.35,9.04 -1.83,20.07 0,28.72 2.38,11.34 9.04,19.38 12.34,28.65 3.67,10.42 4.44,22.98 8.19,32.85 3.22,8.43 16.16,15.55 8.19,24.51 -28.73,-2.6 -68.24,5.44 -90.23,-4.06 8.51,-32.47 33.86,-70 20.53,-110.67 -7.58,65.71 -87.85,74.37 -120.48,34.39 -23.66,-28.95 -33.47,-115.19 46.73,-124.53 15.32,-1.76 30.33,7.27 45.03,12.33 -7.66,-25.12 -24.97,-36.3 -24.89,-69.24 0,-2.68 0,-5.44 0,-8.12z"/>
  <path class="fil1" d="M2748.45 3521.47c-5.06,34.47 -20.99,49.55 -45.42,57.9 -44.58,15.24 -100.17,-9.57 -110.67,-49.17 -9.35,-35.16 10.18,-58.83 32.78,-90.23 -25.2,7.58 -34.84,21.91 -65.56,16.47 -27.26,-4.9 -46.03,-35 -49.24,-49.17 -11.95,-54.07 25.2,-103.32 69.7,-102.48 20.07,0.3 27.57,8.81 36.91,16.39 18.46,15.09 22.45,27.81 36.92,45.04 6.36,-8.96 1.77,-20.07 0,-28.64 -2.38,-11.34 -9.04,-19.46 -12.33,-28.72 -3.68,-10.34 -4.44,-22.98 -8.19,-32.78 -3.22,-8.43 -16.24,-15.55 -8.2,-24.59 28.73,2.68 68.25,-5.44 90.15,4.06 -8.43,32.55 -33.78,70 -20.45,110.67 7.51,-65.63 87.85,-74.37 120.48,-34.39 23.67,29.03 33.39,115.27 -46.72,124.61 -15.31,1.76 -30.33,-7.36 -45.11,-12.33 7.73,25.04 25.05,36.23 24.97,69.16 0,2.76 0,5.44 0,8.2z"/>
  <path class="fil1" d="M688.86 627.05c9.73,-67.55 41.05,-96.96 88.92,-113.43 87.24,-29.87 196.07,18.84 216.76,96.35 18.22,68.78 -20.07,115.2 -64.27,176.62 49.32,-14.78 68.24,-42.89 128.44,-32.17 53.31,9.57 90.08,68.54 96.28,96.35 23.51,105.92 -49.25,202.27 -136.48,200.67 -39.15,-0.69 -53.92,-17.24 -72.23,-32.09 -36.15,-29.57 -43.88,-54.54 -72.15,-88.31 -12.56,17.61 -3.6,39.37 0,56.22 4.53,22.06 17.62,37.99 24.05,56.14 7.2,20.3 8.73,45.04 16.01,64.26 6.35,16.54 31.78,30.41 16.08,48.1 -56.29,-5.29 -133.65,10.65 -176.54,-7.97 16.62,-63.65 66.18,-137.1 40.13,-216.75 -14.86,128.67 -172.02,145.67 -235.98,67.32 -46.34,-56.75 -65.48,-225.71 91.45,-243.94 30.03,-3.45 59.52,14.32 88.31,24.12 -15.08,-49.17 -49.01,-71 -48.78,-135.41 0,-5.36 0,-10.72 0,-16.08z"/>
  <path class="fil1" d="M1913.16 615.64c9.65,-67.55 41.05,-96.96 88.92,-113.43 87.15,-29.87 196.07,18.76 216.67,96.35 18.31,68.78 -19.99,115.19 -64.26,176.62 49.32,-14.86 68.23,-42.89 128.44,-32.17 53.38,9.57 90.15,68.47 96.35,96.27 23.51,105.92 -49.25,202.35 -136.49,200.74 -39.22,-0.76 -54,-17.23 -72.23,-32.09 -36.15,-29.57 -43.88,-54.53 -72.22,-88.31 -12.49,17.62 -3.52,39.29 0,56.14 4.6,22.14 17.62,37.99 24.05,56.22 7.2,20.29 8.74,44.96 16.09,64.18 6.28,16.62 31.71,30.49 16.01,48.18 -56.22,-5.29 -133.58,10.57 -176.55,-8.04 16.7,-63.65 66.18,-137.02 40.14,-216.68 -14.78,128.59 -172.02,145.67 -235.9,67.32 -46.34,-56.75 -65.56,-225.71 91.37,-243.94 30.1,-3.52 59.51,14.32 88.31,24.12 -15.09,-49.17 -48.94,-71 -48.71,-135.49 0,-5.29 0,-10.65 0,-16.01z"/>
  <path class="fil1" d="M688.86 1968.07c9.73,-67.55 41.05,-96.96 88.92,-113.43 87.24,-29.87 196.07,18.76 216.76,96.35 18.22,68.78 -20.07,115.19 -64.27,176.62 49.32,-14.78 68.24,-42.89 128.44,-32.17 53.31,9.57 90.08,68.47 96.28,96.35 23.51,105.92 -49.25,202.27 -136.48,200.66 -39.15,-0.76 -53.92,-17.23 -72.23,-32.09 -36.15,-29.56 -43.88,-54.53 -72.15,-88.31 -12.56,17.62 -3.6,39.29 0,56.14 4.53,22.13 17.62,37.99 24.05,56.22 7.2,20.29 8.73,44.96 16.01,64.18 6.35,16.62 31.78,30.48 16.08,48.17 -56.29,-5.29 -133.65,10.57 -176.54,-8.04 16.62,-63.65 66.18,-137.02 40.13,-216.68 -14.86,128.6 -172.02,145.67 -235.98,67.32 -46.34,-56.75 -65.48,-225.71 91.45,-243.93 30.03,-3.45 59.52,14.32 88.31,24.13 -15.08,-49.1 -49.01,-71 -48.78,-135.41 0,-5.36 0,-10.73 0,-16.08z"/>
  <path class="fil1" d="M1924.57 1979.56c9.72,-67.55 41.05,-97.04 88.92,-113.5 87.15,-29.79 196.07,18.84 216.75,96.43 18.23,68.7 -20.07,115.11 -64.26,176.54 49.32,-14.78 68.24,-42.89 128.44,-32.17 53.31,9.65 90.08,68.55 96.28,96.35 23.51,105.92 -49.26,202.35 -136.41,200.66 -39.21,-0.69 -53.99,-17.23 -72.3,-32.09 -36.15,-29.56 -43.88,-54.53 -72.15,-88.31 -12.56,17.69 -3.6,39.29 0,56.22 4.53,22.06 17.54,37.99 24.05,56.14 7.2,20.29 8.65,45.03 16.08,64.26 6.28,16.55 31.72,30.49 16.01,48.1 -56.3,-5.21 -133.65,10.65 -176.54,-7.97 16.62,-63.65 66.17,-137.02 40.13,-216.75 -14.86,128.67 -172.02,145.67 -235.97,67.32 -46.34,-56.75 -65.48,-225.63 91.45,-243.93 30.02,-3.45 59.44,14.32 88.31,24.13 -15.09,-49.1 -49.01,-71 -48.78,-135.41 0,-5.36 0,-10.73 0,-16.01z"/>
  <path class="fil1" d="M2231.16 3712.18c-9.72,67.55 -40.98,96.96 -88.84,113.43 -87.24,29.87 -196.15,-18.76 -216.75,-96.35 -18.23,-68.78 19.99,-115.19 64.26,-176.54 -49.32,14.78 -68.32,42.81 -128.44,32.09 -53.38,-9.57 -90.15,-68.47 -96.35,-96.35 -23.51,-105.85 49.25,-202.27 136.49,-200.67 39.22,0.76 54,17.31 72.23,32.09 36.22,29.57 43.88,54.53 72.22,88.31 12.56,-17.62 3.52,-39.29 0,-56.14 -4.6,-22.14 -17.62,-37.99 -24.05,-56.14 -7.2,-20.29 -8.73,-45.03 -16.08,-64.26 -6.35,-16.54 -31.78,-30.49 -16.01,-48.18 56.22,5.29 133.57,-10.57 176.54,8.04 -16.7,63.65 -66.17,137.02 -40.13,216.67 14.86,-128.59 172.02,-145.6 235.9,-67.32 46.41,56.83 65.48,225.71 -91.45,243.94 -30.03,3.52 -59.43,-14.32 -88.31,-24.12 15.16,49.17 49.02,71 48.79,135.49 0,5.36 0,10.65 0,16.01z"/>
  <path class="fil1" d="M1006.94 3723.59c-9.8,67.56 -41.05,97.04 -88.92,113.43 -87.24,29.87 -196.15,-18.76 -216.76,-96.35 -18.22,-68.7 19.99,-115.11 64.27,-176.54 -49.32,14.78 -68.24,42.89 -128.44,32.17 -53.31,-9.65 -90.07,-68.55 -96.28,-96.35 -23.52,-105.92 49.24,-202.28 136.41,-200.67 39.21,0.69 53.99,17.23 72.22,32.09 36.23,29.56 43.89,54.53 72.23,88.31 12.55,-17.69 3.52,-39.37 0,-56.22 -4.6,-22.14 -17.62,-37.99 -24.05,-56.14 -7.2,-20.29 -8.73,-45.04 -16.08,-64.26 -6.29,-16.54 -31.72,-30.48 -16.01,-48.09 56.29,5.21 133.65,-10.65 176.54,7.96 -16.62,63.65 -66.18,137.02 -40.13,216.75 14.86,-128.67 172.02,-145.67 235.97,-67.32 46.34,56.75 65.48,225.63 -91.44,243.94 -30.1,3.45 -59.51,-14.32 -88.31,-24.13 15.08,49.1 49.01,71 48.79,135.41 0,5.36 0,10.73 0,16.01z"/>
  <path class="fil2" d="M324.6 490.03c26.19,18.23 43.35,48.56 43.35,82.64l0 45.42c0,55.37 -45.27,100.72 -100.72,100.72 -55.46,0 -100.8,-45.34 -100.8,-100.72l0 -45.42c0,-34.08 17.23,-64.41 43.43,-82.64 -22.06,-17.23 -36.3,-43.96 -36.3,-73.91l0 -42.13c0,-51.55 42.12,-93.67 93.67,-93.67 51.55,0 93.66,42.12 93.66,93.67l0 42.13c0,29.94 -14.24,56.68 -36.3,73.91zm-57.37 -161.37l0 0c-32.02,0 -58.22,26.27 -58.22,58.28l0 19.61c0,32.01 26.19,58.21 58.22,58.21 32.02,0 58.21,-26.27 58.21,-58.21l0 -19.61c0,-32.01 -26.19,-58.28 -58.21,-58.28zm0 195.38l0 0c-34.47,0 -62.65,28.11 -62.65,62.58l0 21.14c0,34.39 28.18,62.65 62.65,62.65 34.46,0 62.64,-28.26 62.64,-62.65l0 -21.14c0,-34.39 -28.18,-62.58 -62.64,-62.58z"/>
  <path class="fil2" d="M2612.73 3859.46c-26.12,-18.23 -43.35,-48.56 -43.35,-82.64l0 -45.41c0,-55.38 45.34,-100.72 100.8,-100.72 55.37,0 100.72,45.34 100.72,100.72l0 45.41c0,34.08 -17.24,64.42 -43.35,82.64 22.05,17.24 36.22,43.96 36.22,73.91l0 42.12c0,51.55 -42.13,93.67 -93.59,93.67 -51.55,0 -93.67,-42.13 -93.67,-93.67l0 -42.12c0,-29.95 14.24,-56.68 36.22,-73.91zm57.45 161.3l0 0c32.02,0 58.21,-26.19 58.21,-58.21l0 -19.61c0,-32.02 -26.19,-58.21 -58.21,-58.21 -32.02,0 -58.28,26.27 -58.28,58.21l0 19.61c0,32.02 26.27,58.21 58.28,58.21zm0 -195.23l0 0c34.46,0 62.58,-28.26 62.58,-62.65l0 -21.14c0,-34.39 -28.12,-62.58 -62.58,-62.58 -34.47,0 -62.65,28.19 -62.65,62.58l0 21.14c0,34.39 28.18,62.65 62.65,62.65z"/>
  <path class="fil1" d="M1306.71 1267.8c9.81,-67.55 41.06,-97.04 88.92,-113.43 87.24,-29.87 196.15,18.76 216.75,96.35 18.31,68.78 -19.99,115.19 -64.26,176.62 49.32,-14.86 68.24,-42.89 128.44,-32.17 53.38,9.57 90.14,68.48 96.35,96.28 23.51,105.92 -49.25,202.35 -136.48,200.74 -39.22,-0.76 -54,-17.31 -72.23,-32.17 -36.22,-29.57 -43.88,-54.46 -72.22,-88.23 -12.49,17.61 -3.53,39.29 0,56.14 4.59,22.13 17.61,37.99 24.05,56.22 7.2,20.3 8.74,44.96 16.09,64.18 6.27,16.62 31.7,30.48 16.01,48.18 -56.22,-5.29 -133.58,10.57 -176.54,-8.04 16.62,-63.65 66.25,-137.02 40.14,-216.67 -14.78,128.59 -171.95,145.6 -235.91,67.32 -46.34,-56.75 -65.48,-225.71 91.38,-243.94 30.09,-3.52 59.51,14.33 88.31,24.13 -15.09,-49.17 -48.94,-71.08 -48.79,-135.49 0,-5.29 0,-10.65 0,-16.01z"/>
  <path class="fil1" d="M1613.38 3076.1c-9.72,67.55 -41.05,96.96 -88.92,113.43 -87.23,29.87 -196.06,-18.76 -216.67,-96.35 -18.31,-68.78 19.91,-115.19 64.18,-176.54 -49.33,14.79 -68.25,42.81 -128.45,32.09 -53.31,-9.57 -90.14,-68.47 -96.27,-96.28 -23.51,-105.92 49.25,-202.35 136.41,-200.74 39.21,0.77 53.99,17.31 72.23,32.17 36.23,29.56 43.88,54.45 72.22,88.23 12.56,-17.62 3.53,-39.29 0,-56.14 -4.59,-22.13 -17.61,-37.99 -24.05,-56.22 -7.12,-20.3 -8.73,-44.96 -16.09,-64.18 -6.28,-16.62 -31.71,-30.48 -16,-48.18 56.21,5.29 133.65,-10.57 176.54,8.04 -16.63,63.65 -66.18,137.02 -40.13,216.68 14.85,-128.6 172.02,-145.6 235.98,-67.32 46.33,56.75 65.48,225.71 -91.46,243.94 -30.02,3.52 -59.43,-14.32 -88.31,-24.05 15.1,49.09 49.02,70.92 48.79,135.41 0,5.36 0,10.64 0,16.01z"/>
 </g>
</svg>
