<?xml version="1.0" encoding="UTF-8"?>
<!DOCTYPE svg PUBLIC "-//W3C//DTD SVG 1.1//EN" "http://www.w3.org/Graphics/SVG/1.1/DTD/svg11.dtd">
<!-- Creator: CorelDRAW -->
<svg xmlns="http://www.w3.org/2000/svg" xml:space="preserve" width="86.1341mm" height="89.8931mm" version="1.1" style="shape-rendering:geometricPrecision; text-rendering:geometricPrecision; image-rendering:optimizeQuality; fill-rule:evenodd; clip-rule:evenodd"
viewBox="0 0 8621.43 8997.68"
 xmlns:xlink="http://www.w3.org/1999/xlink"
 xmlns:xodm="http://www.corel.com/coreldraw/odm/2003">
 <defs>
  <style type="text/css">
   <![CDATA[
    .str0 {stroke:#1F1A17;stroke-width:7.63;stroke-miterlimit:22.9256}
    .str1 {stroke:#1F1A17;stroke-width:7.64;stroke-miterlimit:22.9256}
    .fil1 {fill:#B32520}
    .fil0 {fill:white}
   ]]>
  </style>
 </defs>
 <g id="Слой_x0020_1">
  <metadata id="CorelCorpID_0Corel-Layer"/>
  <g id="_2334840684032">
   <path class="fil0 str0" d="M285.91 3.82l5454.23 0c155.07,0 281.95,127.03 281.95,282.09l0 8425.85c0,155.22 -126.88,282.09 -281.95,282.09l-5454.23 0c-155.22,0 -282.09,-126.87 -282.09,-282.09l0 -8425.85c0,-155.06 126.87,-282.09 282.09,-282.09z"/>
   <path class="fil1" d="M864.35 1673.61c-39.76,-44.04 -83.95,-70.49 -114.83,-70.49 -29.95,0 -103.28,-7.29 -165.37,119.58 -61.78,-124.5 -134.47,-117.37 -164.24,-117.37 -30.9,0 -75.09,26.45 -114.85,70.49 -39.6,44.19 -33.09,121.49 -19.47,161.72 13.62,40.08 297.29,454.11 297.29,454.11 0,0 287.34,-416.26 300.96,-456.33 13.45,-40.23 20.11,-117.52 -19.49,-161.71z"/>
   <path class="fil1" d="M5246.13 7360.69c39.59,44.19 83.78,70.64 114.67,70.64 30.1,0 103.43,7.14 165.52,-119.58 61.77,124.5 134.47,117.37 164.1,117.37 30.88,0 75.07,-26.45 114.83,-70.65 39.75,-44.19 33.11,-121.32 19.49,-161.56 -13.62,-40.23 -297.32,-454.11 -297.32,-454.11 0,0 -287.17,416.1 -300.93,456.33 -13.47,40.07 -20.13,117.37 19.64,161.56z"/>
   <path class="fil1" d="M2334.7 1169.75c-75.38,-83.95 -159.33,-134.16 -218.1,-134.16 -57.02,0 -196.39,-13.77 -314.24,227.14 -117.37,-236.48 -255.5,-223.02 -312.03,-223.02 -58.77,0 -142.72,50.37 -218.1,134.15 -75.56,83.95 -62.89,230.78 -37.06,307.13 25.81,76.34 564.98,862.92 564.98,862.92 0,0 545.82,-790.86 571.64,-867.2 25.81,-76.35 38.34,-223.18 -37.07,-306.97z"/>
   <path class="fil1" d="M4826.7 1169.75c-75.55,-83.95 -159.34,-134.16 -217.94,-134.16 -57.02,0 -196.57,-13.77 -314.42,227.14 -117.36,-236.48 -255.48,-223.02 -312.19,-223.02 -58.59,0 -142.38,50.37 -217.93,134.15 -75.57,83.95 -62.89,230.78 -37.22,307.13 25.97,76.34 565.15,862.92 565.15,862.92 0,0 545.82,-790.86 571.62,-867.2 25.83,-76.35 38.5,-223.18 -37.05,-306.97z"/>
   <path class="fil1" d="M3728.72 7875.29c75.56,83.79 159.35,134.15 218.11,134.15 57.02,0 196.4,13.78 314.25,-227.29 117.2,236.48 255.33,223.18 312.03,223.18 58.76,0 142.56,-50.38 218.11,-134.32 75.54,-83.79 62.88,-230.61 37.05,-306.97 -25.81,-76.34 -564.98,-862.92 -564.98,-862.92 0,0 -545.83,790.86 -571.65,867.05 -25.8,76.34 -38.49,223.18 37.06,307.13z"/>
   <path class="fil1" d="M1236.74 7875.29c75.38,83.79 159.34,134.15 218.1,134.15 57.02,0 196.4,13.78 314.24,-227.29 117.37,236.48 255.5,223.18 312.04,223.18 58.76,0 142.71,-50.38 218.1,-134.32 75.55,-83.79 62.89,-230.61 37.07,-306.97 -25.82,-76.34 -564.85,-862.92 -564.85,-862.92 0,0 -545.97,790.86 -571.79,867.05 -25.97,76.34 -38.48,223.18 37.07,307.13z"/>
   <path class="fil1" d="M3764.21 3990.09c75.55,-83.95 159.34,-134.15 218.1,-134.15 57.02,0 196.39,-13.78 314.24,227.13 117.37,-236.48 255.33,-223.02 312.2,-223.02 58.6,0 142.39,50.37 217.94,134.16 75.55,83.95 62.89,230.77 37.22,307.12 -25.97,76.35 -565.15,862.92 -565.15,862.92 0,0 -545.82,-790.7 -571.79,-867.2 -25.66,-76.34 -38.35,-223.02 37.22,-306.97z"/>
   <path class="fil1" d="M1236.74 3990.09c75.38,-83.95 159.34,-134.15 218.1,-134.15 57.02,0 196.4,-13.78 314.24,227.13 117.37,-236.48 255.5,-223.02 312.04,-223.02 58.76,0 142.71,50.37 218.1,134.16 75.55,83.95 62.89,230.77 37.07,307.12 -25.82,76.35 -564.85,862.92 -564.85,862.92 0,0 -545.97,-790.7 -571.79,-867.2 -25.97,-76.34 -38.48,-223.02 37.07,-306.97z"/>
   <path class="fil1" d="M526.51 1478.14c-106.6,0 -193.73,-87.11 -193.73,-193.71l0 -118.95c0,-3.96 0.17,-8.09 0.33,-12.04l-0.33 0 0 -339.44 0 -28.04 0 -26.93c0,-106.44 87.13,-193.72 193.73,-193.72 106.44,0 193.54,87.12 193.54,193.72l0 54.96 -73.18 0 0 -35c0,-66.37 -54.17,-120.54 -120.36,-120.54 -66.38,0 -120.38,54.33 -120.38,120.54l0 6.97 2.06 0 0 226.5c32.79,-25.5 73.8,-40.71 118.32,-40.71 106.44,0 193.54,87.12 193.54,193.72l0 118.95c0,106.6 -87.1,193.71 -193.54,193.71zm0 -99.94l0 0c66.19,0 120.36,-54.17 120.36,-120.38l0 -72.39c0,-66.2 -54.17,-120.37 -120.36,-120.37 -66.38,0 -120.38,54.17 -120.38,120.37l0 72.39c0,66.05 54,120.38 120.38,120.38z"/>
   <path class="fil1" d="M5524.27 7494.05c106.43,0 193.54,87.27 193.54,193.71l0 118.96c0,4.11 0,8.08 -0.31,12.03l0.31 0 0 339.44 0 28.04 0 26.93c0,106.6 -87.11,193.72 -193.54,193.72 -106.6,0 -193.72,-87.12 -193.72,-193.72l0 -54.96 73.33 0 0 35.16c0,66.21 54.17,120.38 120.39,120.38 66.2,0 120.36,-54.17 120.36,-120.38l0 -7.13 -2.2 0 0 -226.34c-32.8,25.34 -73.81,40.55 -118.16,40.55 -106.6,0 -193.72,-87.12 -193.72,-193.71l0 -118.96c0,-106.6 87.12,-193.71 193.72,-193.71zm0 100.1l0 0c-66.22,0 -120.39,54.17 -120.39,120.38l0 72.39c0,66.2 54.17,120.37 120.39,120.37 66.2,0 120.36,-54.33 120.36,-120.37l0 -72.39c0,-66.21 -54.16,-120.38 -120.36,-120.38z"/>
  </g>
 </g>
 <g id="Слой_x0020_1_0">
  <metadata id="CorelCorpID_1Corel-Layer"/>
  <g id="_2334840691904">
   <path class="fil0 str1" d="M2881.42 3.82l5454.09 0c155.22,0 282.09,127.05 282.09,282.11l0 8425.83c0,155.06 -126.87,282.09 -282.09,282.09l-5454.09 0c-155.22,0 -282.24,-127.03 -282.24,-282.09l0 -8425.83c0,-155.06 127.05,-282.11 282.24,-282.11z"/>
   <path class="fil1" d="M4384.86 1001.86c0,0 -139.37,531.39 -505.73,727.49 0,0 438.59,278.62 510.97,696.61 0,0 139.21,-515.9 515.87,-701.68 0,0 -376.64,-201.31 -521.11,-722.42l0.01 0.01z"/>
   <path class="fil1" d="M6883.67 973.51c0,0 -139.23,531.39 -505.59,727.33 0,0 438.59,278.78 510.82,696.76 0,0 139.41,-516.03 516.03,-701.82 0,0 -376.64,-201.16 -521.24,-722.27l-0.01 0.01z"/>
   <path class="fil1" d="M6883.67 6624.3c0,0 -139.23,531.57 -505.59,727.49 0,0 438.59,278.62 510.82,696.63 0,0 139.41,-515.9 516.03,-701.68 0,0 -376.64,-201.31 -521.24,-722.42l-0.01 -0.01z"/>
   <path class="fil1" d="M4356.53 6624.3c0,0 -139.39,531.57 -505.75,727.49 0,0 438.59,278.62 510.84,696.63 0,0 139.39,-515.9 515.87,-701.68 0,0 -376.49,-201.31 -520.95,-722.42l0 -0.01z"/>
   <path class="fil1" d="M3207.72 1512.99c0,0 -81.1,308.88 -294.14,422.91 0,0 255.17,161.87 296.99,404.84 0,0 81.1,-299.83 299.99,-407.86 0,0 -218.91,-117.06 -302.85,-419.91l0.02 0.02z"/>
   <path class="fil1" d="M8120.07 6567.44c0,0 -80.94,309.03 -293.8,422.91 0,0 254.86,162.03 296.99,405 0,0 80.94,-299.99 299.83,-408.02 0,0 -218.89,-116.88 -303.01,-419.91l0 0.02z"/>
   <path class="fil1" d="M3197.41 1475.77c-106.6,0 -193.72,-87.27 -193.72,-193.72l0 -118.94c0,-4.12 0.16,-8.24 0.47,-12.18l-0.47 0 0 -339.29 0 -28.2 0 -26.95c0,-106.45 87.12,-193.72 193.72,-193.72 106.45,0 193.72,87.27 193.72,193.72l0 55.11 -73.35 0 0 -35.16c0,-66.2 -54.17,-120.53 -120.37,-120.53 -66.2,0 -120.37,54.33 -120.37,120.53l0 6.99 2.06 0 0 226.5c32.79,-25.35 73.79,-40.56 118.31,-40.56 106.45,0 193.72,87.12 193.72,193.72l0 118.94c0,106.6 -87.27,193.72 -193.72,193.72l0 0.01zm0 -100.11l0 0c66.2,0 120.37,-54.17 120.37,-120.37l0 -72.38c0,-66.2 -54.17,-120.37 -120.37,-120.37 -66.2,0 -120.37,54.17 -120.37,120.37l0 72.38c0,66.2 54.17,120.37 120.37,120.37z"/>
   <path class="fil1" d="M8142.73 7495.78c106.6,0 193.72,87.27 193.72,193.72l0 118.96c0,4.12 -0.16,8.09 -0.47,12.18l0.47 0 0 339.45 0 28.04 0 26.92c0,106.45 -87.12,193.56 -193.72,193.56 -106.6,0 -193.72,-87.12 -193.72,-193.56l0 -54.96 73.32 0 0 35c0,66.2 54.17,120.37 120.37,120.37 66.2,0 120.37,-54.17 120.37,-120.37l0 -6.97 -2.06 0 0 -226.5c-32.79,25.35 -73.79,40.56 -118.31,40.56 -106.6,0 -193.72,-87.12 -193.72,-193.72l0 -118.96c0,-106.45 87.12,-193.72 193.72,-193.72l0.03 0.01zm0 100.11l0 0c-66.2,0 -120.37,54.17 -120.37,120.37l0 72.38c0,66.2 54.17,120.37 120.37,120.37 66.2,0 120.37,-54.17 120.37,-120.37l0 -72.38c0,-66.04 -54.17,-120.37 -120.37,-120.37z"/>
   <path class="fil1" d="M4384.86 3815.38c0,0 -139.37,531.57 -505.73,727.49 0,0 438.59,278.62 510.97,696.61 0,0 139.21,-515.9 515.87,-701.68 0,0 -376.64,-201.16 -521.11,-722.42l0.01 0.01z"/>
   <path class="fil1" d="M6883.67 3815.38c0,0 -139.23,531.57 -505.59,727.49 0,0 438.59,278.62 510.82,696.61 0,0 139.41,-515.9 516.03,-701.68 0,0 -376.64,-201.16 -521.24,-722.42l-0.01 0.01z"/>
  </g>
 </g>
</svg>
