<?xml version="1.0" encoding="UTF-8"?>
<!DOCTYPE svg PUBLIC "-//W3C//DTD SVG 1.1//EN" "http://www.w3.org/Graphics/SVG/1.1/DTD/svg11.dtd">
<!-- Creator: CorelDRAW -->
<svg xmlns="http://www.w3.org/2000/svg" xml:space="preserve" width="87.1279mm" height="89.8931mm" version="1.1" style="shape-rendering:geometricPrecision; text-rendering:geometricPrecision; image-rendering:optimizeQuality; fill-rule:evenodd; clip-rule:evenodd"
viewBox="0 0 4883.94 5038.95"
 xmlns:xlink="http://www.w3.org/1999/xlink"
 xmlns:xodm="http://www.corel.com/coreldraw/odm/2003">
 <defs>
  <style type="text/css">
   <![CDATA[
    .str0 {stroke:#1F1A17;stroke-width:4.27;stroke-miterlimit:22.9256}
    .str1 {stroke:#1F1A17;stroke-width:4.28;stroke-miterlimit:22.9256}
    .fil1 {fill:#171717}
    .fil2 {fill:#1F1A17}
    .fil0 {fill:white}
   ]]>
  </style>
 </defs>
 <g id="Слой_x0020_1">
  <metadata id="CorelCorpID_0Corel-Layer"/>
  <g id="_2335183848096">
   <path class="fil0 str0" d="M160.12 2.14l3054.54 0c86.92,0 157.97,71.06 157.97,157.99l0 4718.71c0,86.84 -71.06,157.99 -157.97,157.99l-3054.54 0c-86.84,0 -157.99,-71.13 -157.99,-157.99l0 -4718.71c0,-86.93 71.14,-157.99 157.99,-157.99z"/>
   <path class="fil1" d="M232.25 948.53c5.77,-40 24.31,-57.39 52.6,-67.15 51.54,-17.65 115.93,11.08 128.18,57.04 10.72,40.63 -11.79,68.04 -37.97,104.41 29.09,-8.78 40.35,-25.38 75.93,-18.98 31.58,5.59 53.31,40.45 56.95,56.95 13.94,62.64 -29.09,119.58 -80.72,118.6 -23.15,-0.35 -31.93,-10.11 -42.66,-18.9 -21.47,-17.48 -25.99,-32.29 -42.76,-52.24 -7.35,10.47 -2.12,23.25 0,33.26 2.76,13.04 10.47,22.43 14.29,33.17 4.25,11.97 5.14,26.61 9.48,37.97 3.73,9.84 18.72,18.01 9.48,28.48 -33.27,-3.11 -79.03,6.3 -104.5,-4.7 9.85,-37.7 39.22,-81.08 23.78,-128.18 -8.78,76.11 -101.75,86.13 -139.54,39.83 -27.4,-33.53 -38.76,-133.5 54.12,-144.24 17.74,-2.13 35.13,8.42 52.15,14.19 -8.87,-29.01 -28.92,-41.96 -28.83,-80.1 0,-3.2 0,-6.3 0,-9.41l0.01 0.01z"/>
   <path class="fil1" d="M3183.16 4078.46c-5.86,39.92 -24.31,57.3 -52.6,67.06 -51.63,17.66 -116.01,-11.08 -128.18,-57.04 -10.83,-40.63 11.79,-68.03 37.97,-104.4 -29.19,8.78 -40.35,25.38 -75.93,18.98 -31.57,-5.59 -53.31,-40.45 -57.03,-56.95 -13.84,-62.62 29.19,-119.66 80.72,-118.69 23.25,0.44 31.93,10.2 42.75,18.98 21.38,17.48 26,32.29 42.76,52.24 7.37,-10.47 2.05,-23.25 0,-33.26 -2.76,-13.04 -10.47,-22.44 -14.28,-33.18 -4.26,-11.97 -5.14,-26.61 -9.48,-37.97 -3.73,-9.84 -18.81,-18.09 -9.5,-28.47 33.27,3.11 79.04,-6.3 104.41,4.7 -9.76,37.62 -39.12,81.08 -23.68,128.19 8.7,-76.12 101.75,-86.13 139.54,-39.83 27.42,33.53 38.67,133.5 -54.11,144.22 -17.73,2.13 -35.13,-8.42 -52.24,-14.19 8.95,29.01 29.01,41.96 28.92,80.1 0,3.11 0,6.3 0,9.48l-0.02 0.01z"/>
   <path class="fil1" d="M797.82 726.24c11.27,-78.24 47.54,-112.29 102.98,-131.37 101.04,-34.6 227.08,21.73 251.04,111.59 21.1,79.66 -23.25,133.41 -74.44,204.46 57.12,-17.13 79.03,-49.58 148.75,-37.16 61.74,11.08 104.33,79.3 111.51,111.59 27.23,122.59 -57.04,234.28 -158.06,232.41 -45.34,-0.89 -62.45,-20.05 -83.66,-37.16 -41.87,-34.23 -50.82,-63.16 -83.56,-102.28 -14.55,20.41 -4.17,45.51 0,65.02 5.25,25.63 20.41,44 27.85,65.11 8.34,23.42 10.11,52.07 18.54,74.33 7.35,19.15 36.81,35.3 18.62,55.8 -65.19,-6.13 -154.79,12.24 -204.46,-9.31 19.25,-73.72 76.65,-158.69 46.48,-250.95 -17.21,148.94 -199.22,168.63 -273.3,77.97 -53.67,-65.72 -75.84,-261.41 105.92,-282.52 34.78,-4.08 68.94,16.59 102.28,27.95 -17.47,-56.95 -56.76,-82.23 -56.5,-156.92 0,-6.21 0,-12.42 0,-18.54z"/>
   <path class="fil1" d="M2215.76 713.02c11.18,-78.24 47.54,-112.39 102.98,-131.37 100.93,-34.6 227.08,21.73 250.94,111.59 21.21,79.56 -23.15,133.32 -74.42,204.46 57.12,-17.12 79.02,-49.68 148.75,-37.26 61.82,11.08 104.41,79.39 111.59,111.59 27.23,122.67 -57.04,234.26 -158.08,232.41 -45.42,-0.8 -62.54,-19.97 -83.66,-37.16 -41.87,-34.23 -50.82,-63.16 -83.65,-102.28 -14.47,20.49 -4.08,45.51 0,65.11 5.33,25.63 20.41,44 27.85,65.02 8.34,23.51 10.12,52.16 18.63,74.42 7.28,19.15 36.73,35.3 18.54,55.71 -65.11,-6.03 -154.71,12.32 -204.47,-9.23 19.34,-73.8 76.65,-158.69 46.49,-251.03 -17.12,149.02 -199.22,168.71 -273.21,78.06 -53.67,-65.72 -75.93,-261.41 105.82,-282.62 34.86,-4 68.93,16.6 102.28,27.95 -17.48,-56.86 -56.68,-82.23 -56.41,-156.82 0,-6.21 0,-12.42 0,-18.54l0.02 0z"/>
   <path class="fil1" d="M797.82 2279.35c11.27,-78.24 47.54,-112.39 102.98,-131.37 101.04,-34.6 227.08,21.73 251.04,111.59 21.1,79.56 -23.25,133.33 -74.44,204.46 57.12,-17.12 79.03,-49.68 148.75,-37.16 61.74,11.09 104.33,79.31 111.51,111.59 27.23,122.59 -57.04,234.26 -158.06,232.31 -45.34,-0.8 -62.45,-19.96 -83.66,-37.16 -41.87,-34.25 -50.82,-63.07 -83.56,-102.28 -14.55,20.49 -4.17,45.6 0,65.11 5.25,25.63 20.41,44 27.85,65.11 8.34,23.42 10.11,52.07 18.54,74.33 7.35,19.15 36.81,35.3 18.62,55.71 -65.19,-6.03 -154.79,12.33 -204.46,-9.23 19.25,-73.72 76.65,-158.69 46.48,-251.03 -17.21,149.02 -199.22,168.71 -273.3,78.06 -53.67,-65.72 -75.84,-261.41 105.92,-282.52 34.78,-4.08 68.94,16.5 102.28,27.85 -17.47,-56.86 -56.76,-82.23 -56.5,-156.82 0,-6.21 0,-12.43 0,-18.54z"/>
   <path class="fil1" d="M2228.97 2292.57c11.26,-78.24 47.54,-112.29 102.98,-131.28 100.93,-34.68 227.08,21.65 251.03,111.5 21.12,79.66 -23.25,133.41 -74.42,204.46 57.12,-17.12 79.03,-49.58 148.75,-37.16 61.74,11.08 104.33,79.3 111.51,111.59 27.23,122.67 -57.05,234.26 -157.99,232.41 -45.41,-0.88 -62.53,-20.05 -83.73,-37.16 -41.87,-34.23 -50.82,-63.16 -83.56,-102.28 -14.55,20.39 -4.17,45.51 0,65.11 5.25,25.55 20.31,43.91 27.85,65.02 8.34,23.42 10.02,52.16 18.62,74.42 7.28,19.08 36.74,35.21 18.54,55.71 -65.2,-6.13 -154.79,12.24 -204.46,-9.31 19.25,-73.72 76.64,-158.69 46.48,-250.94 -17.21,149.02 -199.22,168.63 -273.29,77.97 -53.67,-65.72 -75.84,-261.41 105.92,-282.52 34.77,-4 68.84,16.6 102.28,27.95 -17.48,-56.86 -56.76,-82.23 -56.5,-156.92 0,-6.21 0,-12.42 0,-18.54l-0.01 -0.01z"/>
   <path class="fil1" d="M2584.05 4299.33c-11.26,78.24 -47.46,112.29 -102.89,131.37 -101.04,34.6 -227.17,-21.73 -251.03,-111.59 -21.12,-79.66 23.15,-133.41 74.42,-204.56 -57.12,17.21 -79.13,49.68 -148.75,37.26 -61.82,-11.18 -104.41,-79.39 -111.59,-111.59 -27.23,-122.68 57.04,-234.28 158.08,-232.41 45.42,0.8 62.54,19.96 83.66,37.16 41.95,34.23 50.82,63.16 83.65,102.28 14.55,-20.41 4.08,-45.51 0,-65.11 -5.33,-25.55 -20.41,-43.91 -27.85,-65.02 -8.34,-23.5 -10.11,-52.16 -18.62,-74.42 -7.35,-19.15 -36.81,-35.21 -18.54,-55.7 65.11,6.12 154.69,-12.33 204.46,9.22 -19.34,73.8 -76.64,158.79 -46.48,251.03 17.21,-149.03 199.22,-168.63 273.21,-77.97 53.75,65.72 75.84,261.41 -105.92,282.52 -34.78,4 -68.83,-16.59 -102.28,-27.95 17.56,56.95 56.77,82.23 56.51,156.82 0,6.21 0,12.42 0,18.62l-0.04 0.02z"/>
   <path class="fil1" d="M1166.21 4312.54c-11.35,78.24 -47.54,112.39 -102.98,131.37 -101.04,34.6 -227.17,-21.73 -251.04,-111.59 -21.1,-79.66 23.15,-133.41 74.44,-204.56 -57.12,17.21 -79.03,49.68 -148.75,37.26 -61.74,-11.08 -104.32,-79.3 -111.51,-111.51 -27.24,-122.67 57.03,-234.35 157.99,-232.41 45.41,0.8 62.53,19.87 83.65,37.16 41.96,34.23 50.83,63.06 83.66,102.28 14.54,-20.49 4.08,-45.58 0,-65.11 -5.33,-25.63 -20.41,-44 -27.85,-65.11 -8.34,-23.51 -10.11,-52.07 -18.62,-74.33 -7.29,-19.25 -36.74,-35.3 -18.54,-55.71 65.19,6.03 154.79,-12.32 204.46,9.23 -19.25,73.72 -76.65,158.69 -46.48,251.03 17.21,-149.02 199.22,-168.71 273.29,-78.06 53.67,65.72 75.84,261.41 -105.9,282.52 -34.86,4.08 -68.93,-16.59 -102.28,-27.85 17.47,56.86 56.76,82.23 56.51,156.82 0,6.13 0,12.32 0,18.54l-0.02 0.02z"/>
   <path class="fil2" d="M310.84 811.83c-59.7,0 -108.48,-48.8 -108.48,-108.4l0 -66.71c0,-2.23 0.1,-4.53 0.17,-6.74l-0.17 0 0 -190.09 0 -15.71 0 -15.08c0,-59.61 48.78,-108.48 108.48,-108.48 59.61,0 108.4,48.78 108.4,108.48l0 30.79 -40.99 0 0 -19.61c0,-37.16 -30.33,-67.5 -67.43,-67.5 -37.15,0 -67.5,30.43 -67.5,67.5l0 3.9 1.23 0 0 126.84c18.37,-14.28 41.35,-22.79 66.26,-22.79 59.61,0 108.4,48.87 108.4,108.48l0 66.71c0,59.61 -48.8,108.4 -108.4,108.4l0.02 0zm0 -55.97l0 0c37.09,0 67.43,-30.33 67.43,-67.42l0 -40.53c0,-37.09 -30.33,-67.42 -67.43,-67.42 -37.15,0 -67.5,30.33 -67.5,67.42l0 40.53c0,36.98 30.33,67.42 67.5,67.42z"/>
   <path class="fil2" d="M3093.75 4212.75c59.7,0 108.48,48.8 108.48,108.48l0 66.62c0,2.3 -0.1,4.53 -0.17,6.74l0.17 0 0 190.09 0 15.71 0 15.08c0,59.61 -48.8,108.48 -108.48,108.48 -59.61,0 -108.39,-48.78 -108.39,-108.48l0 -30.79 40.99 0 0 19.69c0,36.98 30.33,67.42 67.42,67.42 37.07,0 67.51,-30.43 67.51,-67.42l0 -4 -1.24 0 0 -126.84c-18.37,14.28 -41.33,22.79 -66.26,22.79 -59.61,0 -108.39,-48.78 -108.39,-108.48l0 -66.62c0,-59.7 48.78,-108.48 108.39,-108.48l-0.02 0.02zm0 55.97l0 0c-37.07,0 -67.42,30.43 -67.42,67.5l0 40.45c0,37.16 30.33,67.42 67.42,67.42 37.07,0 67.51,-30.33 67.51,-67.42l0 -40.45c0,-37.07 -30.44,-67.5 -67.51,-67.5z"/>
  </g>
  <g id="_2335183850160">
   <path class="fil0 str1" d="M1669.3 2.19l3054.51 0c86.84,0 157.99,71.05 157.99,157.99l0 4718.59c0,86.94 -71.14,157.99 -157.99,157.99l-3054.51 0c-86.94,0 -157.99,-71.05 -157.99,-157.99l0 -4718.59c0,-86.94 71.05,-157.99 157.99,-157.99z"/>
   <path class="fil1" d="M2001.68 1097.34c-7.19,-21.12 -150.26,-228.94 -165.6,-251.21l0 -2.03c0,0 -0.26,0.45 -0.71,1.07 -0.35,-0.62 -0.62,-1.07 -0.71,-1.07l0 2.03c-15.25,22.27 -158.41,230.09 -165.52,251.21 -7.54,22.34 -11.28,65.21 10.83,89.68 22.01,24.56 46.55,39.2 63.7,39.2 7.8,0 20.76,0.87 35.91,-5.41 17.3,-10.83 34.94,-32.75 36.74,-77.36 0,0 3.1,76.27 -26.27,120.63 -1.87,3.45 -3.83,6.64 -5.96,9.22 0,0 39.91,-3.38 51.26,-3.28 11.35,-0.1 51.28,3.28 51.28,3.28 -2.13,-2.58 -4,-5.77 -5.86,-9.22 -29.37,-44.36 -26.27,-120.63 -26.27,-120.63 1.77,44.61 19.34,66.53 36.72,77.36 15.08,6.29 28.11,5.41 35.91,5.41 17.12,0 41.61,-14.64 63.7,-39.2 22.08,-24.5 18.37,-67.33 10.83,-89.68l0.02 0z"/>
   <path class="fil1" d="M4420.29 3946.14c7.09,21.12 150.28,229.03 165.52,251.31l0 1.96c0.07,0 0.35,-0.35 0.78,-0.97 0.35,0.62 0.62,0.97 0.71,0.97l0 -1.96c15.25,-22.27 158.34,-230.19 165.52,-251.31 7.54,-22.27 11.18,-65.21 -10.83,-89.68 -22.08,-24.47 -46.58,-39.1 -63.7,-39.1 -7.8,0 -20.85,-0.87 -36.03,5.32 -17.3,10.83 -34.85,32.81 -36.62,77.36 0,0 -3.1,-76.2 26.24,-120.56 1.87,-3.45 3.73,-6.64 5.96,-9.32 0,0 -39.93,3.38 -51.28,3.28 -11.44,0.1 -51.35,-3.28 -51.35,-3.28 2.13,2.67 4.09,5.86 5.94,9.32 29.37,44.36 26.27,120.56 26.27,120.56 -1.77,-44.52 -19.43,-66.53 -36.72,-77.36 -15.18,-6.19 -28.13,-5.32 -35.91,-5.32 -17.12,0 -41.61,14.64 -63.7,39.1 -22.08,24.5 -18.37,67.41 -10.83,89.68l0.02 0z"/>
   <path class="fil1" d="M2775.64 2585.78c-12.34,-36.55 -259.81,-395.98 -286.25,-434.47l0 -3.55c-0.1,0.1 -0.54,0.8 -1.32,1.87 -0.62,-1.07 -1.16,-1.77 -1.16,-1.87l0 3.55c-26.53,38.49 -274,397.92 -286.35,434.47 -13.05,38.59 -19.43,112.66 18.73,155.05 38.13,42.39 80.46,67.85 110.18,67.85 13.41,0 35.91,1.42 62.18,-9.41 29.88,-18.63 60.32,-56.6 63.44,-133.77 0,0 5.41,131.9 -45.42,208.54 -3.19,5.94 -6.55,11.54 -10.19,16.05 0,0 69.01,-5.86 88.62,-5.67 19.69,-0.17 88.8,5.67 88.8,5.67 -3.73,-4.52 -7.09,-10.12 -10.31,-16.05 -50.74,-76.63 -45.42,-208.54 -45.42,-208.54 3.12,77.17 33.53,115.14 63.53,133.77 26.17,10.83 48.68,9.41 62.09,9.41 29.72,0 72.11,-25.47 110.15,-67.85 38.13,-42.42 31.76,-116.47 18.73,-155.05l-0.02 0z"/>
   <path class="fil1" d="M4206.79 2612.3c-12.34,-36.55 -259.81,-395.98 -286.25,-434.47l0 -3.55c-0.1,0.1 -0.54,0.71 -1.26,1.77 -0.71,-1.07 -1.23,-1.68 -1.23,-1.77l0 3.55c-26.53,38.49 -274,397.92 -286.35,434.47 -13.05,38.59 -19.43,112.66 18.73,155.05 38.13,42.32 80.46,67.76 110.18,67.76 13.38,0 35.91,1.51 62.18,-9.32 29.91,-18.73 60.32,-56.6 63.44,-133.77 0,0 5.32,131.81 -45.42,208.46 -3.19,6.03 -6.55,11.54 -10.19,16.15 0,0 69.01,-5.86 88.71,-5.67 19.6,-0.19 88.62,5.67 88.62,5.67 -3.64,-4.61 -7,-10.12 -10.19,-16.15 -50.74,-76.65 -45.33,-208.46 -45.33,-208.46 3.03,77.17 33.45,115.05 63.34,133.77 26.27,10.83 48.8,9.32 62.18,9.32 29.72,0 72.11,-25.47 110.18,-67.76 38.13,-42.39 31.76,-116.47 18.73,-155.05l-0.07 0z"/>
   <path class="fil1" d="M4193.57 1032.68c-12.44,-36.55 -259.81,-395.98 -286.35,-434.47l0 -3.45c0,0 -0.54,0.71 -1.23,1.77 -0.71,-1.07 -1.16,-1.77 -1.26,-1.77l0 3.45c-26.44,38.49 -273.91,397.92 -286.35,434.47 -13.03,38.59 -19.34,112.75 18.8,155.15 38.07,42.32 80.46,67.76 110.08,67.76 13.48,0 35.91,1.42 62.18,-9.32 29.98,-18.8 60.41,-56.67 63.41,-133.84 0,0 5.41,131.9 -45.42,208.56 -3.19,5.94 -6.48,11.54 -10.19,16.05 0,0 69.09,-5.86 88.71,-5.67 19.6,-0.19 88.68,5.67 88.68,5.67 -3.73,-4.52 -7,-10.12 -10.19,-16.05 -50.81,-76.65 -45.42,-208.56 -45.42,-208.56 3.03,77.17 33.53,115.05 63.44,133.84 26.24,10.73 48.77,9.32 62.18,9.32 29.72,0 72.02,-25.47 110.18,-67.76 38.13,-42.39 31.76,-116.56 18.73,-155.15l0.02 0z"/>
   <path class="fil1" d="M2788.93 1032.68c-12.41,-36.55 -259.91,-395.98 -286.35,-434.47l0 -3.45c-0.1,0 -0.54,0.71 -1.26,1.77 -0.71,-1.07 -1.16,-1.77 -1.26,-1.77l0 3.45c-26.44,38.49 -273.91,397.92 -286.35,434.47 -13.05,38.59 -19.43,112.75 18.73,155.15 38.13,42.32 80.55,67.76 110.18,67.76 13.48,0 35.91,1.42 62.18,-9.32 29.98,-18.8 60.41,-56.67 63.44,-133.84 0,0 5.41,131.9 -45.42,208.56 -3.19,5.94 -6.48,11.54 -10.19,16.05 0,0 69.11,-5.86 88.71,-5.67 19.6,-0.19 88.71,5.67 88.71,5.67 -3.73,-4.52 -7,-10.12 -10.19,-16.05 -50.83,-76.65 -45.42,-208.56 -45.42,-208.56 3.03,77.17 33.43,115.05 63.41,133.84 26.27,10.73 48.8,9.32 62.18,9.32 29.63,0 72.04,-25.47 110.08,-67.76 38.13,-42.39 31.84,-116.56 18.8,-155.15l0.02 0z"/>
   <path class="fil1" d="M2200.57 4009.74c12.34,36.55 259.81,395.98 286.35,434.47l0 3.55c0,-0.1 0.54,-0.71 1.26,-1.77 0.62,1.07 1.16,1.68 1.16,1.77l0 -3.55c26.53,-38.49 274,-397.92 286.41,-434.47 12.95,-38.59 19.34,-112.66 -18.8,-155.05 -38.13,-42.32 -80.46,-67.76 -110.15,-67.76 -13.41,0 -35.91,-1.51 -62.18,9.32 -29.88,18.73 -60.32,56.6 -63.44,133.77 0,0 -5.32,-131.81 45.42,-208.54 3.19,-5.96 6.58,-11.44 10.31,-16.05 0,0 -69.11,5.86 -88.71,5.67 -19.69,0.19 -88.71,-5.67 -88.71,-5.67 3.64,4.61 7,10.12 10.19,16.05 50.74,76.72 45.42,208.54 45.42,208.54 -3.03,-77.17 -33.53,-115.05 -63.44,-133.77 -26.27,-10.83 -48.77,-9.32 -62.18,-9.32 -29.72,0 -72.04,25.47 -110.18,67.76 -38.13,42.39 -31.76,116.47 -18.73,155.05l-0.01 0z"/>
   <path class="fil1" d="M3631.72 4009.74c12.34,36.55 259.81,395.98 286.35,434.47l0 3.55c0,-0.1 0.54,-0.71 1.23,-1.77 0.62,1.07 1.16,1.68 1.16,1.77l0 -3.55c26.53,-38.49 274,-397.92 286.35,-434.47 13.03,-38.59 19.43,-112.66 -18.73,-155.05 -38.16,-42.32 -80.46,-67.76 -110.18,-67.76 -13.38,0 -35.91,-1.51 -62.18,9.32 -29.88,18.73 -60.32,56.6 -63.44,133.77 0,0 -5.41,-131.81 45.42,-208.54 3.19,-5.96 6.58,-11.44 10.19,-16.05 0,0 -69.01,5.86 -88.62,5.67 -19.69,0.19 -88.71,-5.67 -88.71,-5.67 3.64,4.61 7,10.12 10.19,16.05 50.74,76.72 45.42,208.54 45.42,208.54 -3.1,-77.17 -33.53,-115.05 -63.5,-133.77 -26.15,-10.83 -48.71,-9.32 -62.09,-9.32 -29.72,0 -72.04,25.47 -110.18,67.76 -38.13,42.39 -31.76,116.47 -18.73,155.05l0.04 0z"/>
   <path class="fil2" d="M1835.9 811.88c-59.7,0 -108.48,-48.8 -108.48,-108.4l0 -66.7c0,-2.29 0.07,-4.52 0.17,-6.83l-0.17 0 0 -190 0 -15.7 0 -15.08c0,-59.6 48.77,-108.48 108.48,-108.48 59.6,0 108.38,48.77 108.38,108.48l0 30.79 -40.98 0 0 -19.69c0,-37.07 -30.43,-67.41 -67.41,-67.41 -37.16,0 -67.5,30.43 -67.5,67.41l0 4 1.26 0 0 126.85c18.37,-14.28 41.33,-22.79 66.27,-22.79 59.6,0 108.38,48.87 108.38,108.48l0 66.7c0,59.6 -48.77,108.4 -108.38,108.4l-0.03 -0.01zm0 -55.99l0 0c37,0 67.41,-30.43 67.41,-67.5l0 -40.45c0,-37.07 -30.43,-67.5 -67.41,-67.5 -37.16,0 -67.5,30.43 -67.5,67.5l0 40.45c0,37.07 30.34,67.5 67.5,67.5z"/>
   <path class="fil2" d="M4618.8 4228.67c59.7,0 108.48,48.8 108.48,108.5l0 66.63c0,2.29 -0.1,4.52 -0.26,6.74l0.26 0 0 190.09 0 15.7 0 15.08c0,59.6 -48.77,108.5 -108.48,108.5 -59.6,0 -108.48,-48.8 -108.48,-108.5l0 -30.79 41.07 0 0 19.69c0,37 30.34,67.41 67.41,67.41 37.07,0 67.41,-30.43 67.41,-67.41l0 -4 -1.26 0 0 -126.85c-18.37,14.28 -41.26,22.79 -66.18,22.79 -59.6,0 -108.48,-48.87 -108.48,-108.48l0 -66.63c0,-59.7 48.87,-108.5 108.48,-108.5l0.03 0.01zm0 55.97l0 0c-37.07,0 -67.41,30.43 -67.41,67.5l0 40.45c0,37.16 30.34,67.41 67.41,67.41 37.07,0 67.41,-30.34 67.41,-67.41l0 -40.45c0,-37.07 -30.34,-67.5 -67.41,-67.5z"/>
  </g>
 </g>
</svg>
