<?xml version="1.0" encoding="UTF-8"?>
<!DOCTYPE svg PUBLIC "-//W3C//DTD SVG 1.1//EN" "http://www.w3.org/Graphics/SVG/1.1/DTD/svg11.dtd">
<!-- Creator: CorelDRAW -->
<svg xmlns="http://www.w3.org/2000/svg" xml:space="preserve" width="60.203mm" height="89.893mm" version="1.1" style="shape-rendering:geometricPrecision; text-rendering:geometricPrecision; image-rendering:optimizeQuality; fill-rule:evenodd; clip-rule:evenodd"
viewBox="0 0 70256.67 104904.79"
 xmlns:xlink="http://www.w3.org/1999/xlink"
 xmlns:xodm="http://www.corel.com/coreldraw/odm/2003">
 <defs>
  <style type="text/css">
   <![CDATA[
    .str0 {stroke:#1F1A17;stroke-width:88.93;stroke-miterlimit:22.9256}
    .fil2 {fill:#171717}
    .fil1 {fill:#1F1A17}
    .fil0 {fill:white}
   ]]>
  </style>
 </defs>
 <g id="Слой_x0020_1">
  <metadata id="CorelCorpID_0Corel-Layer"/>
  <path class="fil0 str0" d="M3333.41 44.46l63591.49 0c1808.03,0 3287.31,1481.15 3287.31,3289.06l0 98237.86c0,1807.91 -1479.28,3288.95 -3287.31,3288.95l-63591.49 0c-1809.78,0 -3288.95,-1481.03 -3288.95,-3288.95l0 -98237.86c0,-1807.91 1479.17,-3289.06 3288.95,-3289.06z"/>
  <path class="fil1" d="M6469.13 6591.08c1240.87,0 2258.49,1015.75 2258.49,2258.6l0 1386.86c0,47.96 -3.62,94.18 -5.6,140.27l5.6 0 0 3957.52 0 326.88 0 314.04c0,1240.98 -1017.62,2258.49 -2258.49,2258.49 -1242.85,0 -2258.49,-1015.75 -2258.49,-2258.49l0 -640.91 853.19 0 0 409.97c0,770.1 633.33,1403.55 1405.3,1403.55 771.97,0 1403.55,-633.45 1403.55,-1403.55l0 -83.09 -24.04 0 0 -2640.8c-382.31,297.35 -860.66,472.75 -1379.51,472.75 -1242.85,0 -2258.49,-1013.77 -2258.49,-2256.62l0 -1386.86c0,-1242.85 1015.64,-2258.6 2258.49,-2258.6zm0 1165.25l0 0c-771.97,0 -1405.3,633.45 -1405.3,1405.41l0 842.1c0,773.72 633.33,1403.55 1405.3,1403.55 771.97,0 1403.55,-631.58 1403.55,-1403.55l0 -842.1c0,-771.97 -631.58,-1405.41 -1403.55,-1405.41z"/>
  <path class="fil1" d="M64404.3 97927.79c-1242.85,0 -2258.6,-1015.75 -2258.6,-2256.74l0 -1388.73c0,-47.96 1.87,-94.18 3.73,-142.14l-3.73 0 0 -3955.65 0 -328.74 0 -312.05c0,-1240.98 1015.75,-2258.6 2258.6,-2258.6 1240.98,0 2256.62,1015.75 2256.62,2258.6l0 640.8 -853.19 0 0 -409.97c0,-771.97 -633.33,-1403.55 -1403.43,-1403.55 -771.97,0 -1405.41,633.45 -1405.41,1403.55l0 81.22 25.91 0 0 2642.66c382.31,-297.35 860.43,-474.62 1379.51,-474.62 1240.98,0 2256.62,1017.5 2256.62,2258.49l0 1388.73c0,1240.98 -1015.64,2256.74 -2256.62,2256.74zm0 -1165.25l0 0c770.1,0 1403.43,-633.45 1403.43,-1405.41l0 -842.1c0,-771.85 -633.33,-1405.3 -1403.43,-1405.3 -771.97,0 -1405.41,633.45 -1405.41,1405.3l0 842.1c0,771.97 633.45,1405.41 1405.41,1405.41z"/>
  <path class="fil2" d="M4833 19747.09c121.72,-832.89 506.01,-1194.77 1094.99,-1396.08 1074.8,-369.35 2415.57,230.83 2668.45,1185.55 225.46,845.84 -245.54,1418.25 -790.41,2173.65 607.65,-182.87 840.35,-528.18 1580.81,-395.26 657.6,118.22 1110.05,843.97 1185.55,1185.55 290.12,1303.88 -605.55,2491.3 -1678.49,2471 -483.95,-9.34 -664.84,-212.39 -890.18,-395.26 -444.98,-363.75 -539.27,-672.19 -888.2,-1087.64 -155.21,217.88 -44.35,483.84 0,692.5 55.32,271.44 216.01,467.15 295.37,692.5 88.69,247.4 107.13,552.11 197.57,788.54 77.61,205.04 391.53,376.71 197.57,592.83 -692.5,-62.78 -1645.35,131.05 -2173.41,-97.91 204.81,-784.8 814.21,-1686.08 492.94,-2668.45 -180.88,1584.43 -2118.1,1793.09 -2904.89,829.15 -568.79,-698.1 -805.11,-2779.32 1126.5,-3002.8 371.22,-42.48 733.11,175.4 1087.87,295.48 -184.74,-603.92 -603.92,-873.5 -602.05,-1665.77 0,-66.4 0,-132.92 0,-197.57z"/>
  <path class="fil2" d="M66267.65 84908.43c-120.08,831.02 -506.01,1193.02 -1095.23,1396.08 -1072.82,367.49 -2413.7,-230.83 -2668.45,-1185.55 -223.48,-847.59 247.52,-1418.25 792.27,-2173.53 -607.54,180.88 -840.24,526.32 -1580.7,395.14 -657.6,-118.22 -1110.05,-843.97 -1187.65,-1187.42 -289.88,-1303.77 607.65,-2489.44 1680.59,-2470.88 481.97,11.09 664.72,212.28 888.32,397.01 446.84,363.75 541.14,670.32 890.07,1085.89 155.09,-216.13 42.48,-483.84 0,-690.75 -55.32,-273.31 -217.99,-467.15 -297.23,-692.5 -88.81,-249.27 -107.25,-553.97 -195.71,-790.41 -77.61,-204.92 -391.53,-374.84 -197.69,-592.72 692.61,64.53 1645.35,-131.17 2173.53,97.79 -204.92,784.92 -816.2,1687.94 -494.92,2668.57 182.75,-1584.55 2118.21,-1791.34 2904.89,-827.4 570.78,698.1 807.09,2777.45 -1124.52,3002.8 -371.22,42.48 -733.22,-177.27 -1087.87,-297.35 184.74,603.92 602.05,873.5 600.3,1667.64 0,66.52 0,132.92 0,197.57z"/>
  <path class="fil2" d="M16607.52 15119.25c236.32,-1628.78 989.96,-2337.96 2144.01,-2733.11 2103.51,-722.14 4729.6,450.58 5226.39,2321.27 439.37,1658.3 -482.2,2777.45 -1549.54,4258.49 1189.29,-356.4 1645.35,-1034.08 3096.97,-775.59 1287.2,230.83 2173.65,1652.82 2323.26,2323.14 565.06,2554.09 -1187.42,4877.23 -3290.93,4838.37 -945.62,-18.44 -1302.02,-415.45 -1741.39,-773.72 -873.5,-712.8 -1058.23,-1314.85 -1741.51,-2129.3 -302.84,424.79 -84.84,947.37 0,1355.58 110.75,531.8 424.79,914.11 579.88,1353.6 173.65,487.57 210.53,1085.89 387.68,1549.42 151.59,397.01 764.73,733.11 386.04,1159.64 -1355.35,-127.32 -3222.54,254.87 -4256.62,-191.97 400.63,-1536.47 1595.63,-3305.63 967.67,-5226.28 -356.4,3102.58 -4147.74,3512.54 -5687.82,1623.29 -1117.4,-1368.42 -1580.81,-5442.29 2202.94,-5881.78 725.99,-83.09 1434.94,345.31 2129.3,581.75 -363.64,-1183.8 -1180.07,-1711.98 -1176.33,-3265.02 0,-129.3 0,-258.49 0,-387.79z"/>
  <path class="fil2" d="M46127.39 14844.07c234.57,-1628.78 989.73,-2339.83 2143.89,-2734.97 2103.51,-720.27 4729.6,452.44 5224.41,2323.14 441.36,1656.55 -480.1,2775.58 -1547.55,4256.74 1187.54,-356.52 1645.46,-1032.32 3095.22,-773.84 1287.08,230.83 2173.53,1652.82 2323.14,2323.14 566.93,2552.22 -1187.54,4877.23 -3289.18,4836.62 -947.25,-16.69 -1301.78,-413.7 -1741.28,-773.84 -873.61,-712.8 -1059.98,-1312.99 -1741.63,-2129.18 -302.84,426.54 -86.71,949.12 0,1355.47 110.86,533.67 422.92,915.98 580,1355.47 171.67,487.57 210.41,1084.02 387.68,1547.55 149.61,398.88 764.73,734.97 386.04,1159.76 -1357.33,-125.57 -3222.54,256.62 -4256.62,-190.22 400.75,-1536.47 1595.63,-3305.63 967.67,-5228.03 -358.38,3102.46 -4147.74,3512.43 -5689.81,1625.04 -1117.28,-1368.42 -1578.83,-5442.29 2204.92,-5881.78 724,-84.96 1435.06,343.56 2129.3,579.88 -365.62,-1183.68 -1180.07,-1711.87 -1176.22,-3265.02 0,-129.19 0,-256.62 0,-385.93z"/>
  <path class="fil2" d="M16607.52 35534.68c236.32,-1628.78 989.96,-2337.96 2144.01,-2734.97 2103.51,-720.27 4729.6,452.44 5226.39,2323.14 439.37,1658.3 -482.2,2777.45 -1549.54,4258.49 1189.29,-356.4 1645.35,-1034.08 3096.97,-775.59 1287.2,230.83 2173.65,1650.95 2323.26,2323.14 565.06,2552.22 -1187.42,4877.23 -3290.93,4838.37 -945.62,-18.44 -1302.02,-415.45 -1741.39,-775.59 -873.5,-710.93 -1058.23,-1312.99 -1741.51,-2127.43 -302.84,424.79 -84.84,947.37 0,1353.72 110.75,533.67 424.79,915.98 579.88,1355.47 173.65,489.32 210.53,1084.02 387.68,1547.55 151.59,400.75 764.73,734.97 386.04,1161.51 -1355.35,-127.32 -3222.54,254.87 -4256.62,-193.84 400.63,-1534.6 1595.63,-3303.77 967.67,-5224.41 -356.4,3100.71 -4147.74,3512.54 -5687.82,1623.29 -1117.4,-1368.42 -1580.81,-5442.29 2202.94,-5881.78 725.99,-84.96 1434.94,345.31 2129.3,581.75 -363.64,-1185.67 -1180.07,-1711.98 -1176.33,-3266.89 0,-127.44 0,-256.62 0,-385.93z"/>
  <path class="fil2" d="M46402.57 35809.86c236.2,-1628.89 989.73,-2337.96 2143.89,-2734.97 2103.51,-720.27 4729.49,454.19 5226.16,2323.14 439.61,1658.3 -481.85,2777.45 -1549.3,4258.49 1189.29,-356.4 1645.46,-1034.19 3096.86,-775.59 1285.33,232.7 2173.65,1652.82 2321.39,2323.14 567.04,2553.97 -1187.42,4877.23 -3289.06,4838.37 -945.5,-16.57 -1301.9,-415.45 -1741.28,-773.72 -873.61,-712.8 -1058.35,-1314.85 -1741.63,-2129.3 -300.85,424.79 -84.84,949.23 0,1355.47 110.86,531.92 424.9,915.98 580,1353.72 173.65,489.32 210.41,1085.89 387.68,1549.42 151.59,398.88 764.73,734.97 386.04,1159.64 -1355.58,-125.57 -3222.54,256.74 -4256.62,-191.97 400.75,-1534.72 1595.4,-3305.63 967.67,-5226.28 -356.4,3102.46 -4147.74,3512.43 -5687.82,1623.29 -1119.15,-1368.42 -1580.81,-5442.29 2202.94,-5881.78 725.87,-83.09 1434.94,345.31 2129.3,581.75 -363.75,-1183.8 -1180.07,-1711.98 -1176.22,-3265.02 0,-129.3 0,-258.61 0,-387.79z"/>
  <path class="fil2" d="M31505.05 47950.12c234.45,-1628.78 989.73,-2339.83 2144.12,-2734.97 2103.28,-720.27 4729.25,450.58 5226.16,2321.27 439.49,1658.42 -482.09,2777.45 -1549.42,4258.6 1189.29,-356.4 1647.33,-1034.19 3096.97,-773.84 1287.2,228.96 2173.41,1650.95 2323.02,2321.39 567.04,2553.97 -1189.29,4877.11 -3290.7,4838.37 -945.5,-18.44 -1301.9,-415.57 -1741.63,-773.84 -873.5,-712.8 -1058,-1314.85 -1741.28,-2129.18 -302.84,426.54 -85.07,947.37 0,1355.47 110.75,533.67 424.55,915.98 579.76,1353.6 173.53,489.44 210.64,1085.89 387.91,1549.42 151.24,398.88 764.5,734.97 385.93,1159.76 -1355.47,-125.57 -3222.66,256.62 -4256.74,-192.09 402.61,-1536.47 1595.63,-3305.63 967.67,-5226.16 -358.15,3102.46 -4147.74,3512.43 -5689.81,1623.18 -1117.17,-1368.3 -1576.96,-5440.42 2206.91,-5879.91 723.89,-84.96 1433.07,343.56 2127.55,579.88 -363.99,-1183.68 -1180.07,-1711.87 -1176.45,-3265.02 0,-129.19 0,-258.49 0,-385.93z"/>
  <path class="fil2" d="M53796.77 89506.74c-234.68,1628.78 -989.85,2337.96 -2144.01,2734.97 -2103.51,720.27 -4729.6,-452.44 -5226.39,-2323.14 -439.37,-1656.55 482.09,-2775.58 1549.54,-4256.74 -1189.29,356.52 -1645.58,1032.32 -3096.97,773.84 -1287.08,-230.83 -2173.53,-1650.95 -2323.14,-2323.14 -566.93,-2554.09 1189.17,-4877.23 3290.81,-4836.62 945.62,16.69 1303.77,415.57 1741.39,771.97 873.5,712.8 1058.23,1314.85 1741.63,2129.3 302.72,-424.79 84.72,-947.37 0,-1355.58 -110.86,-531.8 -424.9,-914.11 -580,-1353.6 -173.65,-487.57 -210.41,-1084.02 -387.79,-1547.55 -151.48,-398.88 -764.62,-734.97 -385.93,-1161.63 1357.22,127.44 3222.54,-254.76 4256.62,193.95 -400.75,1534.6 -1595.63,3303.77 -967.67,5224.41 358.38,-3102.58 4147.62,-3510.67 5689.69,-1623.29 1117.28,1368.42 1578.95,5442.29 -2204.92,5881.78 -725.87,83.09 -1433.07,-345.31 -2129.18,-581.75 363.64,1185.67 1180.07,1711.98 1176.33,3266.89 0,129.19 0,258.49 0,385.93z"/>
  <path class="fil2" d="M24276.91 89781.92c-234.45,1630.64 -989.73,2339.83 -2142.14,2734.97 -2103.28,720.27 -4729.37,-450.58 -5226.16,-2321.27 -439.61,-1658.42 482.09,-2777.45 1549.3,-4258.6 -1189.29,356.4 -1647.22,1034.19 -3098.61,773.84 -1285.45,-228.96 -2171.9,-1650.95 -2321.51,-2321.39 -566.93,-2553.97 1187.54,-4877.11 3290.81,-4838.37 943.75,16.69 1302.02,415.57 1741.63,773.84 871.63,712.8 1058,1312.99 1741.28,2129.18 301.2,-424.67 85.07,-947.37 0,-1355.47 -110.75,-533.67 -424.67,-915.98 -579.65,-1353.6 -175.63,-489.44 -210.64,-1085.89 -388.03,-1549.42 -153.11,-398.88 -766.37,-734.97 -385.93,-1159.76 1355.58,125.57 3220.79,-256.62 4254.87,192.09 -400.75,1536.47 -1595.63,3305.63 -965.69,5226.16 356.4,-3102.46 4145.87,-3512.43 5687.82,-1625.04 1119.15,1370.17 1578.83,5442.29 -2204.92,5881.78 -724,84.96 -1433.19,-343.56 -2129.3,-579.88 363.75,1183.68 1181.82,1711.87 1176.22,3265.02 0,129.19 0,258.49 0,385.93z"/>
  <path class="fil2" d="M53796.77 69643.53c-234.68,1628.78 -989.85,2337.84 -2144.01,2734.97 -2103.51,720.15 -4729.6,-452.44 -5226.39,-2323.26 -439.37,-1658.3 482.09,-2777.45 1549.54,-4256.62 -1189.29,356.4 -1645.58,1032.32 -3096.97,773.72 -1287.08,-230.83 -2173.53,-1650.95 -2323.14,-2323.14 -566.93,-2552.1 1189.17,-4877.11 3290.81,-4838.37 945.62,18.44 1303.77,417.32 1741.39,773.72 873.5,712.92 1058.23,1314.97 1741.63,2129.3 302.72,-424.79 84.72,-947.37 0,-1353.6 -110.86,-533.78 -424.9,-915.98 -580,-1355.47 -173.65,-487.57 -210.41,-1084.02 -387.79,-1547.55 -151.48,-398.88 -764.62,-735.09 -385.93,-1161.63 1357.22,127.44 3222.54,-254.87 4256.62,193.95 -400.75,1534.6 -1595.63,3303.77 -967.67,5224.29 358.38,-3100.59 4147.62,-3512.43 5689.69,-1623.29 1117.28,1370.29 1578.95,5442.29 -2204.92,5881.78 -725.87,84.96 -1433.07,-345.31 -2129.18,-581.63 363.64,1183.68 1180.07,1711.87 1176.33,3266.77 0,129.3 0,258.61 0,386.04z"/>
  <path class="fil2" d="M24001.73 69366.49c-234.45,1630.64 -989.73,2339.83 -2143.89,2736.84 -2103.51,720.15 -4729.6,-452.44 -5226.28,-2323.14 -439.49,-1658.42 481.97,-2777.45 1549.42,-4258.6 -1189.29,356.4 -1645.46,1034.19 -3096.86,775.7 -1285.45,-230.83 -2173.65,-1652.82 -2323.26,-2323.26 -566.93,-2552.1 1189.29,-4877.11 3290.93,-4838.37 945.5,16.69 1301.9,415.57 1741.28,773.84 873.61,712.8 1058.35,1314.85 1741.63,2129.18 302.84,-424.67 84.84,-947.37 0,-1355.47 -110.86,-531.8 -424.79,-915.98 -580,-1353.6 -173.65,-489.44 -210.41,-1084.02 -387.68,-1547.55 -151.59,-400.75 -764.73,-736.84 -386.04,-1161.63 1355.47,125.57 3222.54,-256.62 4256.62,192.09 -400.75,1536.47 -1595.52,3303.77 -967.67,5226.16 358.38,-3102.46 4147.74,-3512.43 5689.81,-1623.18 1117.28,1368.3 1578.83,5440.42 -2204.92,5881.78 -725.87,83.09 -1433.19,-345.43 -2129.3,-581.75 363.75,1183.68 1180.07,1711.87 1176.22,3265.02 0,129.19 0,258.49 0,385.93z"/>
 </g>
</svg>
