<?xml version="1.0" encoding="UTF-8"?>
<!DOCTYPE svg PUBLIC "-//W3C//DTD SVG 1.1//EN" "http://www.w3.org/Graphics/SVG/1.1/DTD/svg11.dtd">
<!-- Creator: CorelDRAW -->
<svg xmlns="http://www.w3.org/2000/svg" xml:space="preserve" width="60.2046mm" height="89.8914mm" version="1.1" style="shape-rendering:geometricPrecision; text-rendering:geometricPrecision; image-rendering:optimizeQuality; fill-rule:evenodd; clip-rule:evenodd"
viewBox="0 0 2913.89 4350.73"
 xmlns:xlink="http://www.w3.org/1999/xlink"
 xmlns:xodm="http://www.corel.com/coreldraw/odm/2003">
 <defs>
  <style type="text/css">
   <![CDATA[
    .str0 {stroke:#1F1A17;stroke-width:3.69;stroke-miterlimit:22.9256}
    .fil1 {fill:#B32520}
    .fil0 {fill:white}
   ]]>
  </style>
 </defs>
 <g id="Слой_x0020_1">
  <metadata id="CorelCorpID_0Corel-Layer"/>
  <path class="fil0 str0" d="M138.25 1.84l2637.4 0c75.05,0 136.4,61.35 136.4,136.41l0 4074.22c0,75.06 -61.35,136.41 -136.4,136.41l-2637.4 0c-74.98,0 -136.41,-61.35 -136.41,-136.41l0 -4074.22c0,-75.06 61.43,-136.41 136.41,-136.41z"/>
  <path class="fil1" d="M268.38 273.28c51.47,0 93.6,42.13 93.6,93.67l0 57.52c0,1.99 -0.08,3.91 -0.16,5.9l0.16 0 0 164.06 0 13.63 0 12.95c0,51.55 -42.13,93.67 -93.6,93.67 -51.55,0 -93.67,-42.12 -93.67,-93.67l0 -26.58 35.39 0 0 17c0,32.01 26.19,58.21 58.28,58.21 32.02,0 58.22,-26.27 58.22,-58.21l0 -3.37 -1.08 0 0 -109.52c-15.85,12.25 -35.69,19.61 -57.14,19.61 -51.55,0 -93.67,-42.12 -93.67,-93.67l0 -57.52c0,-51.55 42.12,-93.67 93.67,-93.67zm0 48.41l0 0c-32.08,0 -58.28,26.19 -58.28,58.21l0 35c0,31.94 26.19,58.21 58.28,58.21 32.02,0 58.22,-26.27 58.22,-58.21l0 -35c0,-32.01 -26.19,-58.21 -58.22,-58.21z"/>
  <path class="fil1" d="M2671.09 4061.36c-51.46,0 -93.67,-42.12 -93.67,-93.67l0 -57.52c0,-1.92 0.08,-3.91 0.23,-5.82l-0.23 0 0 -164.13 0 -13.56 0 -13.02c0,-51.55 42.2,-93.67 93.67,-93.67 51.55,0 93.67,42.13 93.67,93.67l0 26.58 -35.46 0 0 -16.93c0,-32.09 -26.19,-58.29 -58.22,-58.29 -32.01,0 -58.2,26.27 -58.2,58.29l0 3.37 0.99 0 0 109.52c15.86,-12.33 35.69,-19.68 57.21,-19.68 51.55,0 93.67,42.13 93.67,93.67l0 57.52c0,51.55 -42.13,93.67 -93.67,93.67zm0 -48.33l0 0c32.02,0 58.22,-26.19 58.22,-58.21l0 -35c0,-32.01 -26.19,-58.21 -58.22,-58.21 -32.01,0 -58.2,26.19 -58.2,58.21l0 35c0,31.94 26.19,58.21 58.2,58.21z"/>
  <path class="fil1" d="M417.97 809.19c-19.22,-21.3 -40.53,-34.08 -55.46,-34.08 -14.55,0 -50.02,-3.52 -80.03,57.75 -29.88,-60.12 -64.95,-56.68 -79.43,-56.68 -14.93,0 -36.23,12.79 -55.45,34.16 -19.22,21.29 -16.01,58.59 -9.42,78.04 6.5,19.46 143.75,219.59 143.75,219.59 0,0 138.94,-201.2 145.45,-220.65 6.59,-19.38 9.81,-56.75 -9.41,-78.12z"/>
  <path class="fil1" d="M2536.76 3559.16c19.22,21.29 40.59,34.16 55.53,34.16 14.47,0 50.01,3.45 79.96,-57.83 29.87,60.12 65.03,56.75 79.43,56.75 14.93,0 36.3,-12.87 55.52,-34.16 19.14,-21.37 16.01,-58.67 9.42,-78.12 -6.59,-19.45 -143.77,-219.59 -143.77,-219.59 0,0 -138.93,201.2 -145.51,220.66 -6.52,19.45 -9.73,56.75 9.42,78.12z"/>
  <path class="fil1" d="M1129.02 565.55c-36.53,-40.59 -77.05,-64.88 -105.46,-64.88 -27.57,0 -94.97,-6.66 -151.95,109.83 -56.75,-114.35 -123.55,-107.84 -150.96,-107.84 -28.41,0 -68.93,24.35 -105.46,64.95 -36.45,40.52 -30.41,111.44 -17.92,148.43 12.49,36.91 273.2,417.26 273.2,417.26 0,0 264,-382.42 276.49,-419.33 12.48,-36.92 18.53,-107.84 -17.93,-148.43z"/>
  <path class="fil1" d="M2333.95 565.55c-36.46,-40.59 -76.98,-64.88 -105.4,-64.88 -27.57,0 -94.97,-6.66 -151.95,109.83 -56.75,-114.35 -123.54,-107.84 -150.96,-107.84 -28.34,0 -68.93,24.35 -105.46,64.95 -36.45,40.52 -30.41,111.44 -17.92,148.43 12.48,36.91 273.19,417.26 273.19,417.26 0,0 264.01,-382.42 276.49,-419.33 12.49,-36.92 18.54,-107.84 -17.99,-148.43z"/>
  <path class="fil1" d="M1111.87 1500.87c-36.54,-40.52 -77.13,-64.88 -105.47,-64.88 -27.57,0 -94.97,-6.66 -151.95,109.91 -56.75,-114.43 -123.55,-107.84 -150.97,-107.84 -28.41,0 -68.93,24.28 -105.38,64.87 -36.53,40.52 -30.49,111.52 -18,148.43 12.49,36.91 273.2,417.34 273.2,417.34 0,0 264,-382.42 276.49,-419.33 12.48,-37 18.53,-107.92 -17.93,-148.51z"/>
  <path class="fil1" d="M2333.95 1500.87c-36.46,-40.52 -76.98,-64.88 -105.4,-64.88 -27.57,0 -94.97,-6.66 -151.95,109.91 -56.75,-114.43 -123.54,-107.84 -150.96,-107.84 -28.34,0 -68.93,24.28 -105.46,64.87 -36.45,40.52 -30.41,111.52 -17.92,148.43 12.48,36.91 273.19,417.34 273.19,417.34 0,0 264.01,-382.42 276.49,-419.33 12.49,-37 18.54,-107.92 -17.99,-148.51z"/>
  <path class="fil1" d="M1704.67 1918.52c-36.45,-40.52 -77.04,-64.88 -105.38,-64.88 -27.66,0 -94.97,-6.66 -152.03,109.83 -56.75,-114.35 -123.46,-107.84 -150.88,-107.84 -28.42,0 -68.93,24.35 -105.46,64.87 -36.46,40.59 -30.41,111.6 -17.93,148.51 12.49,36.91 273.2,417.26 273.2,417.26 0,0 264.01,-382.42 276.41,-419.25 12.49,-37 18.61,-107.92 -17.92,-148.51z"/>
  <path class="fil1" d="M1803.02 3807.93c36.53,40.59 77.13,64.95 105.46,64.95 27.57,0 95.05,6.66 151.96,-109.83 56.75,114.35 123.54,107.76 150.96,107.76 28.42,0 68.93,-24.28 105.46,-64.88 36.46,-40.52 30.41,-111.51 17.92,-148.43 -12.48,-36.91 -273.19,-417.26 -273.19,-417.26 0,0 -264.01,382.34 -276.49,419.34 -12.49,36.91 -18.53,107.84 17.92,148.36z"/>
  <path class="fil1" d="M598.11 3807.93c36.45,40.59 76.98,64.95 105.38,64.95 27.57,0 95.06,6.66 152.03,-109.83 56.68,114.35 123.46,107.76 150.88,107.76 28.34,0 68.93,-24.28 105.47,-64.88 36.46,-40.52 30.4,-111.51 17.93,-148.43 -12.49,-36.91 -273.2,-417.26 -273.2,-417.26 0,0 -264,382.34 -276.49,419.34 -12.49,36.91 -18.53,107.84 18,148.36z"/>
  <path class="fil1" d="M1820.18 2872.61c36.53,40.59 77.13,64.87 105.46,64.87 27.57,0 95.05,6.66 151.96,-109.83 56.83,114.35 123.54,107.84 150.95,107.84 28.42,0 68.93,-24.35 105.4,-64.95 36.53,-40.52 30.48,-111.44 17.99,-148.36 -12.48,-36.99 -273.19,-417.34 -273.19,-417.34 0,0 -264.01,382.42 -276.49,419.33 -12.49,36.91 -18.54,107.92 17.92,148.43z"/>
  <path class="fil1" d="M598.11 2872.61c36.45,40.59 76.98,64.87 105.38,64.87 27.57,0 95.06,6.66 152.03,-109.83 56.68,114.35 123.46,107.84 150.88,107.84 28.34,0 68.93,-24.35 105.47,-64.95 36.46,-40.52 30.4,-111.44 17.93,-148.36 -12.49,-36.99 -273.2,-417.34 -273.2,-417.34 0,0 -264,382.42 -276.49,419.33 -12.49,36.91 -18.53,107.92 18,148.43z"/>
 </g>
</svg>
