<?xml version="1.0" encoding="UTF-8"?>
<!DOCTYPE svg PUBLIC "-//W3C//DTD SVG 1.1//EN" "http://www.w3.org/Graphics/SVG/1.1/DTD/svg11.dtd">
<!-- Creator: CorelDRAW -->
<svg xmlns="http://www.w3.org/2000/svg" xml:space="preserve" width="60.2046mm" height="89.893mm" version="1.1" style="shape-rendering:geometricPrecision; text-rendering:geometricPrecision; image-rendering:optimizeQuality; fill-rule:evenodd; clip-rule:evenodd"
viewBox="0 0 1427.37 2131.23"
 xmlns:xlink="http://www.w3.org/1999/xlink"
 xmlns:xodm="http://www.corel.com/coreldraw/odm/2003">
 <defs>
  <style type="text/css">
   <![CDATA[
    .str0 {stroke:#1F1A17;stroke-width:1.81;stroke-miterlimit:22.9256}
    .fil1 {fill:#B32520}
    .fil0 {fill:white}
   ]]>
  </style>
 </defs>
 <g id="Слой_x0020_1">
  <metadata id="CorelCorpID_0Corel-Layer"/>
  <path class="fil0 str0" d="M67.72 0.9l1291.92 0c36.73,0 66.82,30.09 66.82,66.82l0 1995.79c0,36.73 -30.09,66.82 -66.82,66.82l-1291.92 0c-36.77,0 -66.82,-30.09 -66.82,-66.82l0 -1995.79c0,-36.73 30.05,-66.82 66.82,-66.82z"/>
  <path class="fil1" d="M131.43 133.87c25.25,0 45.89,20.67 45.89,45.88l0 28.21c0,0.98 -0.04,1.91 -0.11,2.85l0.11 0 0 80.36 0 6.68 0 6.38c0,25.21 -20.64,45.88 -45.89,45.88 -25.25,0 -45.88,-20.63 -45.88,-45.88l0 -13.06 17.37 0 0 8.37c0,15.65 12.83,28.48 28.51,28.48 15.68,0 28.51,-12.83 28.51,-28.48l0 -1.69 -0.49 0 0 -53.65c-7.76,6 -17.48,9.6 -28.02,9.6 -25.25,0 -45.88,-20.64 -45.88,-45.85l0 -28.21c0,-25.21 20.64,-45.88 45.88,-45.88zm0 23.71l0 0c-15.68,0 -28.51,12.83 -28.51,28.51l0 17.14c0,15.68 12.83,28.51 28.51,28.51 15.68,0 28.51,-12.87 28.51,-28.51l0 -17.14c0,-15.68 -12.83,-28.51 -28.51,-28.51z"/>
  <path class="fil1" d="M423.88 237.26c0,0 -33.02,125.91 -119.79,172.36 0,0 103.88,65.99 120.99,164.96 0,0 32.98,-122.19 122.23,-166.2 0,0 -89.25,-47.69 -123.43,-171.12z"/>
  <path class="fil1" d="M706.35 885.79c0,0 -32.98,125.91 -119.75,172.36 0,0 103.89,65.99 121,164.96 0,0 32.98,-122.19 122.23,-166.2 0,0 -89.26,-47.65 -123.47,-171.12z"/>
  <path class="fil1" d="M1015.76 230.55c0,0 -33.02,125.87 -119.79,172.32 0,0 103.92,65.99 121.03,165 0,0 32.98,-122.2 122.2,-166.2 0,0 -89.22,-47.65 -123.43,-171.12z"/>
  <path class="fil1" d="M1015.76 681.21c0,0 -33.02,125.87 -119.79,172.32 0,0 103.92,65.99 121.03,165 0,0 32.98,-122.23 122.2,-166.2 0,0 -89.22,-47.69 -123.43,-171.12z"/>
  <path class="fil1" d="M417.16 681.21c0,0 -33.02,125.87 -119.79,172.32 0,0 103.89,65.99 121,165 0,0 32.98,-122.23 122.23,-166.2 0,0 -89.25,-47.69 -123.43,-171.12z"/>
  <path class="fil1" d="M423.88 1125.12c0,0 -33.02,125.91 -119.79,172.32 0,0 103.88,66 120.99,165 0,0 32.98,-122.2 122.23,-166.2 0,0 -89.25,-47.65 -123.43,-171.12z"/>
  <path class="fil1" d="M1015.76 1118.4c0,0 -33.02,125.87 -119.79,172.32 0,0 103.92,65.99 121.03,165 0,0 32.98,-122.19 122.2,-166.2 0,0 -89.22,-47.69 -123.43,-171.12z"/>
  <path class="fil1" d="M1015.76 1569.03c0,0 -33.02,125.91 -119.79,172.36 0,0 103.92,65.99 121.03,165 0,0 32.98,-122.23 122.2,-166.2 0,0 -89.22,-47.69 -123.43,-171.16z"/>
  <path class="fil1" d="M417.16 1569.03c0,0 -33.02,125.91 -119.79,172.36 0,0 103.89,65.99 121,165 0,0 32.98,-122.23 122.23,-166.2 0,0 -89.25,-47.69 -123.43,-171.16z"/>
  <path class="fil1" d="M145.01 358.33c0,0 -19.17,73.2 -69.63,100.17 0,0 60.4,38.38 70.35,95.93 0,0 19.17,-71.06 71.06,-96.65 0,0 -51.89,-27.69 -71.77,-99.46z"/>
  <path class="fil1" d="M1308.66 1555.6c0,0 -19.21,73.2 -69.63,100.17 0,0 60.36,38.34 70.31,95.93 0,0 19.21,-71.06 71.06,-96.65 0,0 -51.85,-27.69 -71.74,-99.46z"/>
  <path class="fil1" d="M1308.4 1989.49c-25.21,0 -45.85,-20.67 -45.85,-45.88l0 -28.18c0,-0.98 0.04,-1.91 0.07,-2.89l-0.07 0 0 -80.36 0 -6.68 0 -6.34c0,-25.25 20.63,-45.88 45.85,-45.88 25.25,0 45.89,20.63 45.89,45.88l0 13.02 -17.34 0 0 -8.33c0,-15.68 -12.83,-28.51 -28.55,-28.51 -15.68,0 -28.47,12.83 -28.47,28.51l0 1.65 0.49 0 0 53.65c7.76,-6 17.48,-9.61 27.99,-9.61 25.25,0 45.89,20.64 45.89,45.89l0 28.18c0,25.25 -20.64,45.88 -45.89,45.88zm0 -23.71l0 0c15.72,0 28.55,-12.83 28.55,-28.51l0 -17.15c0,-15.68 -12.83,-28.51 -28.55,-28.51 -15.68,0 -28.47,12.87 -28.47,28.51l0 17.15c0,15.68 12.79,28.51 28.47,28.51z"/>
 </g>
</svg>
