<?xml version="1.0" encoding="UTF-8"?>
<!DOCTYPE svg PUBLIC "-//W3C//DTD SVG 1.1//EN" "http://www.w3.org/Graphics/SVG/1.1/DTD/svg11.dtd">
<!-- Creator: CorelDRAW -->
<svg xmlns="http://www.w3.org/2000/svg" xml:space="preserve" width="60.2046mm" height="89.8914mm" version="1.1" style="shape-rendering:geometricPrecision; text-rendering:geometricPrecision; image-rendering:optimizeQuality; fill-rule:evenodd; clip-rule:evenodd"
viewBox="0 0 2690.78 4017.59"
 xmlns:xlink="http://www.w3.org/1999/xlink"
 xmlns:xodm="http://www.corel.com/coreldraw/odm/2003">
 <defs>
  <style type="text/css">
   <![CDATA[
    .str0 {stroke:#1F1A17;stroke-width:3.41;stroke-miterlimit:22.9256}
    .fil2 {fill:#171717}
    .fil1 {fill:#1F1A17}
    .fil0 {fill:white}
   ]]>
  </style>
 </defs>
 <g id="Слой_x0020_1">
  <metadata id="CorelCorpID_0Corel-Layer"/>
  <path class="fil0 str0" d="M127.74 1.7l2435.38 0c69.31,0 125.96,56.65 125.96,125.96l0 3762.26c0,69.31 -56.65,125.97 -125.96,125.97l-2435.38 0c-69.31,0 -126.03,-56.65 -126.03,-125.97l0 -3762.26c0,-69.31 56.73,-125.96 126.03,-125.96z"/>
  <path class="fil1" d="M247.76 252.35c47.6,0 86.5,38.97 86.5,86.5l0 53.11c0,1.84 -0.08,3.61 -0.22,5.45l0.22 0 0 151.49 0 12.52 0 12.09c0,47.53 -38.9,86.5 -86.5,86.5 -47.6,0 -86.5,-38.97 -86.5,-86.5l0 -24.61 32.74 0 0 15.7c0,29.56 24.19,53.75 53.75,53.75 29.63,0 53.75,-24.19 53.75,-53.75l0 -3.18 -0.92 0 0 -101.07c-14.63,11.32 -32.96,18.11 -52.83,18.11 -47.6,0 -86.5,-38.9 -86.5,-86.5l0 -53.11c0,-47.6 38.9,-86.5 86.5,-86.5zm0 44.7l0 0c-29.56,0 -53.75,24.19 -53.75,53.75l0 32.32c0,29.56 24.19,53.75 53.75,53.75 29.63,0 53.75,-24.26 53.75,-53.75l0 -32.32c0,-29.56 -24.12,-53.75 -53.75,-53.75z"/>
  <path class="fil1" d="M2466.57 3750.45c-47.6,0 -86.5,-38.97 -86.5,-86.5l0 -53.19c0,-1.84 0.07,-3.61 0.14,-5.38l-0.14 0 0 -151.57 0 -12.52 0 -12.02c0,-47.53 38.9,-86.5 86.5,-86.5 47.53,0 86.5,38.9 86.5,86.5l0 24.54 -32.74 0 0 -15.7c0,-29.56 -24.19,-53.68 -53.75,-53.68 -29.56,0 -53.75,24.19 -53.75,53.68l0 3.18 0.99 0 0 101.14c14.64,-11.32 32.96,-18.18 52.76,-18.18 47.53,0 86.5,38.97 86.5,86.5l0 53.19c0,47.53 -38.96,86.5 -86.5,86.5zm0 -44.7l0 0c29.56,0 53.75,-24.19 53.75,-53.75l0 -32.32c0,-29.56 -24.19,-53.75 -53.75,-53.75 -29.56,0 -53.75,24.19 -53.75,53.75l0 32.32c0,29.49 24.19,53.75 53.75,53.75z"/>
  <path class="fil2" d="M379.88 876.79c-5.73,-16.83 -119.89,-182.61 -132.05,-200.3l0 -1.63c-0.07,0 -0.28,0.35 -0.56,0.78 -0.29,-0.42 -0.57,-0.78 -0.57,-0.78l0 1.63c-12.24,17.68 -126.32,183.46 -132.05,200.3 -6.01,17.75 -8.91,51.98 8.7,71.51 17.54,19.52 37.06,31.26 50.79,31.26 6.15,0 16.55,0.71 28.64,-4.31 13.79,-8.63 27.8,-26.1 29.21,-61.67 0,0 2.54,60.75 -20.93,96.12 -1.42,2.76 -2.97,5.3 -4.67,7.42 0,0 31.83,-2.69 40.89,-2.61 9.05,-0.07 40.88,2.61 40.88,2.61 -1.7,-2.12 -3.26,-4.67 -4.67,-7.42 -23.48,-35.37 -20.93,-96.12 -20.93,-96.12 1.41,35.58 15.41,53.04 29.2,61.67 12.1,5.02 22.49,4.31 28.64,4.31 13.73,0 33.25,-11.74 50.79,-31.26 17.6,-19.52 14.71,-53.75 8.7,-71.51z"/>
  <path class="fil2" d="M1559.23 2080.69c-9.82,-29.21 -207.16,-315.79 -228.3,-346.41l0 -2.83c-0.08,0 -0.43,0.56 -1,1.41 -0.56,-0.85 -0.92,-1.41 -0.92,-1.41l0 2.83c-21.14,30.62 -218.47,317.21 -228.37,346.41 -10.32,30.7 -15.42,89.82 14.92,123.56 30.41,33.81 64.22,54.1 87.85,54.1 10.68,0 28.64,1.14 49.57,-7.5 23.91,-14.85 48.17,-45.12 50.57,-106.59 0,0 4.32,105.1 -36.21,166.21 -2.47,4.74 -5.17,9.19 -8.13,12.87 0,0 55.09,-4.74 70.72,-4.53 15.63,-0.21 70.73,4.53 70.73,4.53 -2.97,-3.68 -5.59,-8.13 -8.13,-12.87 -40.46,-61.11 -36.22,-166.21 -36.22,-166.21 2.4,61.46 26.73,91.73 50.57,106.59 20.87,8.63 38.83,7.5 49.58,7.5 23.63,0 57.43,-20.3 87.78,-54.1 30.41,-33.74 25.39,-92.86 14.99,-123.56z"/>
  <path class="fil2" d="M2333.47 3118.45c5.73,16.9 119.81,182.69 131.98,200.37l0 1.63c0.07,0 0.28,-0.35 0.56,-0.78 0.36,0.42 0.57,0.78 0.57,0.78l0 -1.63c12.24,-17.68 126.32,-183.46 132.05,-200.37 6.01,-17.75 8.91,-51.91 -8.63,-71.43 -17.6,-19.59 -37.13,-31.26 -50.78,-31.26 -6.23,0 -16.62,-0.71 -28.64,4.31 -13.79,8.56 -27.87,26.1 -29.28,61.67 0,0 -2.48,-60.82 20.93,-96.19 1.48,-2.76 3.04,-5.31 4.74,-7.36 0,0 -31.9,2.62 -40.95,2.62 -8.98,0 -40.88,-2.62 -40.88,-2.62 1.7,2.05 3.25,4.6 4.74,7.36 23.41,35.36 20.94,96.19 20.94,96.19 -1.41,-35.57 -15.49,-53.11 -29.28,-61.67 -12.02,-5.02 -22.49,-4.31 -28.64,-4.31 -13.65,0 -33.17,11.67 -50.79,31.26 -17.6,19.52 -14.64,53.68 -8.63,71.43z"/>
  <path class="fil2" d="M1009.83 1605.2c-9.9,-29.14 -207.23,-315.72 -228.3,-346.41l0 -2.83c-0.07,0.07 -0.42,0.56 -1.06,1.41 -0.5,-0.85 -0.92,-1.35 -0.92,-1.41l0 2.83c-21.14,30.69 -218.4,317.27 -228.3,346.41 -10.4,30.77 -15.42,89.82 14.92,123.63 30.41,33.74 64.22,54.11 87.84,54.11 10.75,0 28.64,1.13 49.57,-7.5 23.91,-14.92 48.17,-45.12 50.57,-106.66 0,0 4.32,105.1 -36.21,166.28 -2.55,4.74 -5.16,9.12 -8.13,12.8 0,0 55.1,-4.67 70.66,-4.53 15.7,-0.14 70.8,4.53 70.8,4.53 -2.97,-3.68 -5.59,-8.06 -8.13,-12.8 -40.53,-61.18 -36.22,-166.28 -36.22,-166.28 2.41,61.53 26.67,91.73 50.58,106.66 20.93,8.63 38.82,7.5 49.57,7.5 23.62,0 57.43,-20.37 87.84,-54.11 30.34,-33.81 25.32,-92.86 14.92,-123.63z"/>
  <path class="fil2" d="M2150.85 1626.35c-9.83,-29.14 -207.16,-315.79 -228.23,-346.42l0 -2.83c-0.08,0.07 -0.43,0.57 -1,1.42 -0.56,-0.85 -0.99,-1.35 -0.99,-1.42l0 2.83c-21.15,30.62 -218.47,317.28 -228.3,346.42 -10.4,30.69 -15.42,89.82 14.92,123.63 30.41,33.73 64.22,54.03 87.84,54.03 10.75,0 28.64,1.2 49.57,-7.43 23.91,-14.92 48.17,-45.19 50.57,-106.65 0,0 4.32,105.1 -36.22,166.2 -2.54,4.74 -5.16,9.2 -8.13,12.87 0,0 55.1,-4.67 70.72,-4.52 15.63,-0.14 70.66,4.52 70.66,4.52 -2.9,-3.67 -5.59,-8.13 -8.06,-12.87 -40.53,-61.11 -36.22,-166.2 -36.22,-166.2 2.4,61.46 26.67,91.73 50.57,106.65 20.93,8.63 38.83,7.43 49.57,7.43 23.63,0 57.43,-20.3 87.84,-54.03 30.35,-33.81 25.25,-92.94 14.86,-123.63z"/>
  <path class="fil2" d="M2140.32 823.32c-9.84,-29.14 -207.16,-315.79 -228.23,-346.35l0 -2.9c-0.08,0.07 -0.43,0.63 -1,1.48 -0.56,-0.85 -0.98,-1.42 -0.98,-1.48l0 2.9c-21.15,30.56 -218.47,317.21 -228.31,346.35 -10.4,30.77 -15.49,89.89 14.92,123.63 30.35,33.81 64.15,54.03 87.85,54.03 10.68,0 28.64,1.2 49.51,-7.42 23.9,-14.86 48.23,-45.12 50.64,-106.66 0,0 4.24,105.17 -36.21,166.28 -2.55,4.74 -5.23,9.19 -8.13,12.8 0,0 55.02,-4.67 70.72,-4.53 15.64,-0.14 70.73,4.53 70.73,4.53 -2.97,-3.61 -5.59,-8.06 -8.21,-12.8 -40.45,-61.11 -36.21,-166.28 -36.21,-166.28 2.47,61.53 26.74,91.8 50.57,106.66 20.93,8.63 38.9,7.42 49.58,7.42 23.69,0 57.42,-20.23 87.84,-54.03 30.41,-33.73 25.31,-92.86 14.92,-123.63z"/>
  <path class="fil2" d="M1020.37 823.32c-9.83,-29.14 -207.15,-315.79 -228.3,-346.35l0 -2.9c0,0.07 -0.42,0.63 -0.99,1.48 -0.49,-0.85 -0.92,-1.42 -0.92,-1.48l0 2.9c-21.15,30.56 -218.48,317.21 -228.38,346.35 -10.32,30.77 -15.42,89.89 14.92,123.63 30.41,33.81 64.22,54.03 87.84,54.03 10.75,0 28.71,1.2 49.58,-7.42 23.9,-14.86 48.17,-45.12 50.57,-106.66 0,0 4.31,105.17 -36.14,166.28 -2.54,4.74 -5.24,9.19 -8.21,12.8 0,0 55.1,-4.67 70.73,-4.53 15.7,-0.14 70.73,4.53 70.73,4.53 -2.91,-3.61 -5.59,-8.06 -8.13,-12.8 -40.46,-61.11 -36.21,-166.28 -36.21,-166.28 2.4,61.53 26.73,91.8 50.57,106.66 20.93,8.63 38.83,7.42 49.57,7.42 23.63,0 57.44,-20.23 87.77,-54.03 30.41,-33.73 25.4,-92.86 14.99,-123.63z"/>
  <path class="fil2" d="M1692.34 2415.15c9.83,29.14 207.15,315.79 228.3,346.42l0 2.83c0,-0.07 0.42,-0.57 0.99,-1.42 0.5,0.85 0.92,1.35 0.92,1.42l0 -2.83c21.14,-30.62 218.48,-317.28 228.37,-346.42 10.33,-30.76 15.42,-89.82 -14.92,-123.63 -30.41,-33.73 -64.22,-54.03 -87.84,-54.03 -10.74,0 -28.64,-1.2 -49.57,7.43 -23.9,14.92 -48.17,45.12 -50.57,106.65 0,0 -4.32,-105.1 36.22,-166.27 2.47,-4.74 5.16,-9.13 8.13,-12.8 0,0 -55.1,4.67 -70.73,4.53 -15.62,0.14 -70.72,-4.53 -70.72,-4.53 2.97,3.68 5.59,8.06 8.13,12.8 40.46,61.18 36.22,166.27 36.22,166.27 -2.4,-61.53 -26.73,-91.73 -50.57,-106.65 -20.93,-8.63 -38.83,-7.43 -49.57,-7.43 -23.62,0 -57.43,20.3 -87.77,54.03 -30.42,33.81 -25.4,92.86 -14.99,123.63z"/>
  <path class="fil2" d="M551.25 2394c9.9,29.14 207.16,315.79 228.3,346.41l0 2.83c0,0 0.42,-0.56 0.99,-1.41 0.57,0.85 0.92,1.41 0.99,1.41l0 -2.83c21.07,-30.62 218.4,-317.27 228.3,-346.41 10.4,-30.7 15.42,-89.82 -14.92,-123.56 -30.41,-33.81 -64.22,-54.1 -87.84,-54.1 -10.75,0 -28.64,-1.14 -49.57,7.5 -23.91,14.85 -48.17,45.12 -50.58,106.59 0,0 -4.31,-105.1 36.22,-166.21 2.55,-4.74 5.16,-9.19 8.13,-12.87 0,0 -55.1,4.74 -70.73,4.53 -15.63,0.21 -70.73,-4.53 -70.73,-4.53 2.97,3.68 5.59,8.13 8.13,12.87 40.46,61.11 36.21,166.21 36.21,166.21 -2.4,-61.46 -26.73,-91.73 -50.57,-106.59 -20.93,-8.63 -38.82,-7.5 -49.57,-7.5 -23.62,0 -57.43,20.3 -87.77,54.1 -30.41,33.74 -25.4,92.86 -14.99,123.56z"/>
  <path class="fil2" d="M551.25 3197.02c9.9,29.14 207.16,315.79 228.3,346.35l0 2.9c0,-0.07 0.42,-0.64 0.99,-1.49 0.57,0.85 0.92,1.42 0.99,1.49l0 -2.9c21.07,-30.55 218.4,-317.21 228.3,-346.35 10.4,-30.76 15.42,-89.89 -14.92,-123.63 -30.41,-33.81 -64.22,-54.03 -87.84,-54.03 -10.75,0 -28.64,-1.2 -49.57,7.43 -23.91,14.85 -48.17,45.12 -50.58,106.65 0,0 -4.31,-105.17 36.22,-166.27 2.55,-4.74 5.16,-9.2 8.13,-12.8 0,0 -55.1,4.67 -70.73,4.53 -15.63,0.14 -70.73,-4.53 -70.73,-4.53 2.97,3.61 5.59,8.06 8.13,12.8 40.46,61.11 36.21,166.27 36.21,166.27 -2.4,-61.53 -26.73,-91.8 -50.57,-106.65 -20.93,-8.63 -38.82,-7.43 -49.57,-7.43 -23.62,0 -57.43,20.23 -87.77,54.03 -30.41,33.73 -25.4,92.86 -14.99,123.63z"/>
  <path class="fil2" d="M1692.34 3197.02c9.83,29.14 207.15,315.79 228.3,346.35l0 2.9c0,-0.07 0.42,-0.64 0.99,-1.49 0.5,0.85 0.92,1.42 0.92,1.49l0 -2.9c21.14,-30.55 218.48,-317.21 228.37,-346.35 10.33,-30.76 15.42,-89.89 -14.92,-123.63 -30.41,-33.81 -64.22,-54.03 -87.84,-54.03 -10.74,0 -28.64,-1.2 -49.57,7.43 -23.9,14.85 -48.17,45.12 -50.57,106.65 0,0 -4.32,-105.17 36.22,-166.27 2.47,-4.74 5.16,-9.2 8.13,-12.8 0,0 -55.1,4.67 -70.73,4.53 -15.62,0.14 -70.72,-4.53 -70.72,-4.53 2.97,3.61 5.59,8.06 8.13,12.8 40.46,61.11 36.22,166.27 36.22,166.27 -2.4,-61.53 -26.73,-91.8 -50.57,-106.65 -20.93,-8.63 -38.83,-7.43 -49.57,-7.43 -23.62,0 -57.43,20.23 -87.77,54.03 -30.42,33.73 -25.4,92.86 -14.99,123.63z"/>
 </g>
</svg>
