<?xml version="1.0" encoding="UTF-8"?>
<!DOCTYPE svg PUBLIC "-//W3C//DTD SVG 1.1//EN" "http://www.w3.org/Graphics/SVG/1.1/DTD/svg11.dtd">
<!-- Creator: CorelDRAW -->
<svg xmlns="http://www.w3.org/2000/svg" xml:space="preserve" width="60.2046mm" height="89.8914mm" version="1.1" style="shape-rendering:geometricPrecision; text-rendering:geometricPrecision; image-rendering:optimizeQuality; fill-rule:evenodd; clip-rule:evenodd"
viewBox="0 0 1427.37 2131.2"
 xmlns:xlink="http://www.w3.org/1999/xlink"
 xmlns:xodm="http://www.corel.com/coreldraw/odm/2003">
 <defs>
  <style type="text/css">
   <![CDATA[
    .str0 {stroke:#1F1A17;stroke-width:1.81;stroke-miterlimit:22.9256}
    .fil1 {fill:#B32520}
    .fil0 {fill:white}
   ]]>
  </style>
 </defs>
 <g id="Слой_x0020_1">
  <metadata id="CorelCorpID_0Corel-Layer"/>
  <path class="fil0 str0" d="M67.72 0.9l1291.92 0c36.73,0 66.82,30.05 66.82,66.82l0 1995.75c0,36.77 -30.09,66.82 -66.82,66.82l-1291.92 0c-36.77,0 -66.82,-30.05 -66.82,-66.82l0 -1995.75c0,-36.77 30.05,-66.82 66.82,-66.82z"/>
  <path class="fil1" d="M199.83 385.08c-9.38,-10.47 -19.85,-16.73 -27.16,-16.73 -7.13,0 -24.5,-1.73 -39.21,28.32 -14.59,-29.45 -31.81,-27.8 -38.9,-27.8 -7.28,0 -17.75,6.26 -27.17,16.73 -9.42,10.43 -7.84,28.78 -4.61,38.27 3.23,9.53 70.42,107.6 70.42,107.6 0,0 68.06,-98.6 71.28,-108.13 3.19,-9.49 4.77,-27.8 -4.65,-38.27z"/>
  <path class="fil1" d="M59.43 318.38l11.63 0c17.52,-57.37 36.2,-118.6 53.42,-174.98l16.51 0c17.59,57.59 35.53,116.19 53.2,174.04l12.08 0.11 0 19.55c-19.4,0 -38.91,-0.34 -58.71,-0.34l0 -19.32 26.45 0 -12.64 -41.35 -57.22 0 -12.91 42.28 23.27 0 0 19.32 -55.08 0 0 -19.32zm73.35 -135.93l0 0 -22.74 74.32 45.43 0 -22.7 -74.32z"/>
  <path class="fil1" d="M1243.53 1741.35c9.41,10.47 19.88,16.77 27.16,16.77 7.13,0 24.5,1.69 39.2,-28.36 14.64,29.49 31.81,27.84 38.91,27.84 7.31,0 17.78,-6.3 27.2,-16.77 9.38,-10.43 7.8,-28.74 4.62,-38.23 -3.23,-9.53 -70.42,-107.6 -70.42,-107.6 0,0 -68.06,98.6 -71.28,108.13 -3.23,9.49 -4.8,27.8 4.62,38.23z"/>
  <path class="fil1" d="M1383.96 1808.05l-11.67 0c-17.52,57.4 -36.17,118.59 -53.39,174.98l-16.54 0.04c-17.6,-57.59 -35.49,-116.23 -53.2,-174.08l-12.08 -0.07 0 -19.59c19.4,0 38.91,0.38 58.71,0.38l0 19.28 -26.45 0 12.64 41.38 57.21 0 12.9 -42.32 -23.26 0 0 -19.28 55.11 0 0 19.28zm-73.35 135.96l0 0 22.7 -74.32 -45.44 0 22.74 74.32z"/>
  <path class="fil1" d="M833.31 948.52c-16.99,-18.87 -35.9,-30.2 -49.11,-30.2 -12.83,0 -44.23,-3.12 -70.76,51.17 -26.41,-53.28 -57.51,-50.24 -70.27,-50.24 -13.25,0 -32.12,11.33 -49.11,30.24 -17,18.83 -14.18,51.92 -8.37,69.11 5.82,17.18 127.22,194.31 127.22,194.31 0,0 122.91,-178.06 128.72,-195.24 5.81,-17.22 8.67,-50.27 -8.33,-69.15z"/>
 </g>
</svg>
