<?xml version="1.0" encoding="UTF-8"?>
<!DOCTYPE svg PUBLIC "-//W3C//DTD SVG 1.1//EN" "http://www.w3.org/Graphics/SVG/1.1/DTD/svg11.dtd">
<!-- Creator: CorelDRAW -->
<svg xmlns="http://www.w3.org/2000/svg" xml:space="preserve" width="60.2046mm" height="89.8929mm" version="1.1" style="shape-rendering:geometricPrecision; text-rendering:geometricPrecision; image-rendering:optimizeQuality; fill-rule:evenodd; clip-rule:evenodd"
viewBox="0 0 2690.78 4017.66"
 xmlns:xlink="http://www.w3.org/1999/xlink"
 xmlns:xodm="http://www.corel.com/coreldraw/odm/2003">
 <defs>
  <style type="text/css">
   <![CDATA[
    .str0 {stroke:#1F1A17;stroke-width:3.41;stroke-miterlimit:22.9256}
    .fil2 {fill:#171717}
    .fil1 {fill:#1F1A17}
    .fil0 {fill:white}
   ]]>
  </style>
 </defs>
 <g id="Слой_x0020_1">
  <metadata id="CorelCorpID_0Corel-Layer"/>
  <path class="fil0 str0" d="M127.74 1.7l2435.38 0c69.31,0 125.96,56.65 125.96,125.96l0 3762.26c0,69.31 -56.65,126.03 -125.96,126.03l-2435.38 0c-69.31,0 -126.03,-56.72 -126.03,-126.03l0 -3762.26c0,-69.31 56.73,-125.96 126.03,-125.96z"/>
  <path class="fil1" d="M112.03 600.18l21.93 0c33.03,-108.14 68.25,-223.5 100.71,-329.87l31.19 0c33.17,108.57 66.91,219.04 100.22,328.17l22.85 0.14 0 36.85c-36.64,0 -73.35,-0.63 -110.76,-0.63l0 -36.35 49.86 0 -23.84 -78.01 -107.79 0 -24.4 79.71 43.92 0 0 36.42 -103.9 0 0 -36.42zm138.27 -256.24l0 0 -42.87 140.11 85.65 0 -42.79 -140.11z"/>
  <path class="fil1" d="M2595.22 3413.23l-22 0c-33.03,108.14 -68.17,223.49 -100.64,329.86l-31.19 0c-33.17,-108.56 -66.91,-219.04 -100.23,-328.1l-22.84 -0.21 0 -36.85c36.56,0 73.34,0.64 110.68,0.64l0 36.42 -49.86 0 23.84 77.94 107.86 0 24.4 -79.71 -43.92 0 0 -36.43 103.9 0 0 36.43zm-138.26 256.24l0 0 42.79 -140.11 -85.58 0 42.79 140.11z"/>
  <path class="fil2" d="M396.21 871.7c-5.73,-16.9 -119.81,-182.61 -131.98,-200.3l0 -1.7c-0.06,0.07 -0.28,0.35 -0.56,0.85 -0.36,-0.5 -0.57,-0.78 -0.57,-0.85l0 1.7c-12.23,17.68 -126.32,183.39 -132.05,200.3 -6.01,17.75 -8.91,51.98 8.63,71.51 17.6,19.52 37.12,31.26 50.78,31.26 6.23,0 16.62,0.63 28.64,-4.31 13.86,-8.63 27.87,-26.1 29.28,-61.67 0,0 2.48,60.75 -20.93,96.11 -1.49,2.76 -2.97,5.31 -4.74,7.43 0,0 31.89,-2.69 40.95,-2.62 8.98,-0.07 40.88,2.62 40.88,2.62 -1.7,-2.12 -3.25,-4.67 -4.74,-7.43 -23.42,-35.36 -20.94,-96.11 -20.94,-96.11 1.42,35.57 15.49,53.04 29.28,61.67 12.1,4.95 22.49,4.31 28.64,4.31 13.65,0 33.25,-11.74 50.79,-31.26 17.61,-19.52 14.64,-53.75 8.63,-71.51z"/>
  <path class="fil2" d="M1574.93 2062.16c-9.82,-29.21 -207.43,-316.14 -228.51,-346.77l0 -2.9c-0.07,0.07 -0.43,0.63 -0.99,1.48 -0.63,-0.85 -0.99,-1.41 -0.99,-1.48l0 2.9c-21.15,30.62 -218.68,317.56 -228.59,346.77 -10.39,30.77 -15.48,89.96 14.93,123.77 30.48,33.81 64.29,54.11 87.98,54.11 10.74,0 28.71,1.2 49.65,-7.43 23.9,-14.92 48.16,-45.19 50.63,-106.8 0,0 4.25,105.24 -36.28,166.42 -2.54,4.74 -5.24,9.2 -8.13,12.87 0,0 55.09,-4.67 70.8,-4.59 15.63,-0.07 70.8,4.59 70.8,4.59 -2.96,-3.67 -5.66,-8.13 -8.2,-12.87 -40.52,-61.18 -36.22,-166.42 -36.22,-166.42 2.4,61.6 26.74,91.87 50.65,106.8 20.86,8.63 38.9,7.43 49.57,7.43 23.7,0 57.57,-20.3 87.98,-54.11 30.41,-33.81 25.33,-93 14.92,-123.77z"/>
  <path class="fil2" d="M2334.03 3139.81c5.65,16.84 119.74,182.54 131.97,200.3l0 1.63c0,-0.07 0.21,-0.35 0.57,-0.85 0.35,0.5 0.57,0.78 0.57,0.85l0 -1.63c12.24,-17.75 126.32,-183.46 132.05,-200.3 5.94,-17.82 8.91,-51.98 -8.63,-71.5 -17.6,-19.59 -37.12,-31.26 -50.78,-31.26 -6.23,0 -16.62,-0.71 -28.72,4.32 -13.79,8.55 -27.79,26.1 -29.21,61.67 0,0 -2.48,-60.83 20.93,-96.19 1.49,-2.76 2.97,-5.31 4.67,-7.36 0,0 -31.83,2.69 -40.89,2.62 -9.05,0.07 -40.88,-2.62 -40.88,-2.62 1.7,2.05 3.25,4.6 4.74,7.36 23.41,35.36 20.94,96.19 20.94,96.19 -1.42,-35.58 -15.49,-53.12 -29.29,-61.67 -12.09,-5.02 -22.49,-4.32 -28.64,-4.32 -13.72,0 -33.24,11.67 -50.78,31.26 -17.61,19.52 -14.71,53.68 -8.63,71.5z"/>
 </g>
</svg>
