<?xml version="1.0" encoding="UTF-8"?>
<!DOCTYPE svg PUBLIC "-//W3C//DTD SVG 1.1//EN" "http://www.w3.org/Graphics/SVG/1.1/DTD/svg11.dtd">
<!-- Creator: CorelDRAW -->
<svg xmlns="http://www.w3.org/2000/svg" xml:space="preserve" width="60.2046mm" height="89.8914mm" version="1.1" style="shape-rendering:geometricPrecision; text-rendering:geometricPrecision; image-rendering:optimizeQuality; fill-rule:evenodd; clip-rule:evenodd"
viewBox="0 0 2913.89 4350.73"
 xmlns:xlink="http://www.w3.org/1999/xlink"
 xmlns:xodm="http://www.corel.com/coreldraw/odm/2003">
 <defs>
  <style type="text/css">
   <![CDATA[
    .str0 {stroke:#1F1A17;stroke-width:3.69;stroke-miterlimit:22.9256}
    .fil2 {fill:#171717}
    .fil1 {fill:#1F1A17}
    .fil0 {fill:white}
   ]]>
  </style>
 </defs>
 <g id="Слой_x0020_1">
  <metadata id="CorelCorpID_0Corel-Layer"/>
  <path class="fil0 str0" d="M138.25 1.84l2637.4 0c75.05,0 136.4,61.35 136.4,136.41l0 4074.22c0,75.06 -61.35,136.41 -136.4,136.41l-2637.4 0c-74.98,0 -136.41,-61.35 -136.41,-136.41l0 -4074.22c0,-75.06 61.43,-136.41 136.41,-136.41z"/>
  <path class="fil1" d="M121.32 649.95l23.74 0c35.85,-117.11 73.91,-242.03 109.06,-357.22l33.78 -0.07c35.92,117.64 72.46,237.28 108.53,355.38l24.66 0.23 0 39.9c-39.6,0 -79.35,-0.69 -119.79,-0.69l0 -39.45 53.92 0 -25.73 -84.48 -116.88 0 -26.35 86.39 47.57 0 0 39.37 -112.52 0 0 -39.37zm149.74 -277.49l0 0 -46.34 151.72 92.68 0 -46.34 -151.72z"/>
  <path class="fil2" d="M192.94 816.99c5.06,-34.54 20.99,-49.63 45.41,-57.98 44.58,-15.24 100.18,9.57 110.68,49.17 9.34,35.16 -10.19,58.83 -32.78,90.23 25.19,-7.58 34.84,-21.91 65.55,-16.39 27.27,4.9 46.03,34.93 49.17,49.17 12.02,54.08 -25.12,103.25 -69.62,102.4 -20.07,-0.3 -27.57,-8.73 -36.91,-16.32 -18.46,-15.09 -22.44,-27.88 -36.84,-45.11 -6.44,9.04 -1.84,20.07 0,28.72 2.29,11.26 8.96,19.37 12.25,28.64 3.67,10.34 4.44,22.98 8.19,32.78 3.21,8.5 16.23,15.55 8.2,24.59 -28.73,-2.68 -68.25,5.44 -90.15,-4.06 8.5,-32.55 33.78,-70.01 20.44,-110.67 -7.5,65.71 -87.77,74.37 -120.48,34.39 -23.59,-29.03 -33.39,-115.27 46.73,-124.54 15.32,-1.84 30.33,7.27 45.11,12.25 -7.66,-25.05 -25.05,-36.23 -24.97,-69.16 0,-2.68 0,-5.44 0,-8.12z"/>
  <path class="fil1" d="M2810.42 3696.25l-23.82 0c-35.77,117.11 -73.83,242.03 -108.99,357.14l-33.77 0.08c-35.93,-117.57 -72.46,-237.2 -108.53,-355.38l-24.74 -0.15 0 -39.9c39.59,0 79.42,0.69 119.86,0.69l0 39.37 -53.99 0 25.88 84.48 116.72 0 26.43 -86.32 -47.57 0 0 -39.45 112.52 0 0 39.45zm-149.74 277.49l0 0 46.34 -151.72 -92.75 0 46.41 151.72z"/>
  <path class="fil2" d="M2738.73 3529.21c-4.98,34.54 -20.99,49.55 -45.34,57.9 -44.58,15.32 -100.18,-9.57 -110.75,-49.17 -9.27,-35.16 10.26,-58.82 32.86,-90.15 -25.2,7.58 -34.85,21.91 -65.56,16.39 -27.27,-4.9 -46.03,-35 -49.25,-49.17 -11.95,-54.07 25.2,-103.32 69.7,-102.48 20.07,0.38 27.57,8.81 36.91,16.39 18.46,15.09 22.37,27.88 36.84,45.11 6.44,-9.04 1.84,-20.07 0,-28.72 -2.29,-11.26 -8.96,-19.37 -12.25,-28.72 -3.67,-10.26 -4.44,-22.9 -8.19,-32.7 -3.21,-8.5 -16.23,-15.62 -8.19,-24.59 28.72,2.6 68.24,-5.44 90.14,4.06 -8.49,32.48 -33.85,69.93 -20.52,110.67 7.58,-65.71 87.85,-74.37 120.55,-34.39 23.66,28.95 33.39,115.27 -46.73,124.54 -15.32,1.76 -30.4,-7.35 -45.11,-12.33 7.74,25.12 25.05,36.3 24.9,69.16 0,2.75 0,5.51 0,8.19z"/>
  <path class="fil2" d="M1313.53 1956.43c9.88,-68.7 41.74,-98.65 90.38,-115.34 88.69,-30.41 199.36,19.07 220.35,97.96 18.53,69.85 -20.3,117.03 -65.33,179.53 50.17,-15.01 69.39,-43.58 130.58,-32.7 54.23,9.8 91.61,69.62 97.97,97.96 23.89,107.69 -50.09,205.65 -138.78,203.96 -39.83,-0.69 -54.92,-17.46 -73.46,-32.55 -36.76,-30.1 -44.58,-55.45 -73.37,-89.84 -12.79,18 -3.6,39.98 0,57.14 4.68,22.52 17.93,38.68 24.43,57.14 7.35,20.6 8.89,45.72 16.32,65.25 6.43,16.85 32.33,31.02 16.32,48.94 -57.22,-5.29 -135.87,10.8 -179.45,-8.12 16.93,-64.72 67.24,-139.32 40.75,-220.35 -15.09,130.81 -174.86,148.12 -239.88,68.47 -47.11,-57.67 -66.56,-229.47 92.98,-248 30.56,-3.52 60.5,14.55 89.77,24.51 -15.32,-49.94 -49.79,-72.15 -49.56,-137.71 0,-5.44 0,-10.88 0,-16.24z"/>
 </g>
</svg>
