<?xml version="1.0" encoding="UTF-8"?>
<!DOCTYPE svg PUBLIC "-//W3C//DTD SVG 1.1//EN" "http://www.w3.org/Graphics/SVG/1.1/DTD/svg11.dtd">
<!-- Creator: CorelDRAW -->
<svg xmlns="http://www.w3.org/2000/svg" xml:space="preserve" width="60.203mm" height="89.893mm" version="1.1" style="shape-rendering:geometricPrecision; text-rendering:geometricPrecision; image-rendering:optimizeQuality; fill-rule:evenodd; clip-rule:evenodd"
viewBox="0 0 70256.67 104904.79"
 xmlns:xlink="http://www.w3.org/1999/xlink"
 xmlns:xodm="http://www.corel.com/coreldraw/odm/2003">
 <defs>
  <style type="text/css">
   <![CDATA[
    .str0 {stroke:#1F1A17;stroke-width:88.93;stroke-miterlimit:22.9256}
    .fil1 {fill:#B32520}
    .fil0 {fill:white}
   ]]>
  </style>
 </defs>
 <g id="Слой_x0020_1">
  <metadata id="CorelCorpID_0Corel-Layer"/>
  <path class="fil0 str0" d="M3333.41 44.46l63591.49 0c1808.03,0 3287.31,1481.03 3287.31,3289.06l0 98237.86c0,1807.91 -1479.28,3288.95 -3287.31,3288.95l-63591.49 0c-1809.78,0 -3288.95,-1481.03 -3288.95,-3288.95l0 -98237.86c0,-1808.03 1479.17,-3289.06 3288.95,-3289.06z"/>
  <path class="fil1" d="M2925.31 15671.36l572.53 0c862.41,-2823.55 1780.14,-5835.56 2627.73,-8611.15l814.45 -1.87c866.03,2834.63 1748.74,5721.08 2618.74,8568.67l594.47 3.73 0 964.06c-954.72,0 -1914.92,-16.69 -2890.07,-16.69l0 -951.1 1302.02 0 -622.36 -2036.88 -2816.2 0 -635.43 2081.22 1145.17 0 0 951.1 -2711.05 0 0 -951.1zm3608.47 -6690.62l0 0 -1117.4 3660.17 2236.43 0 -1119.03 -3660.17z"/>
  <path class="fil1" d="M68119.79 88998.86l-572.53 0c-862.41,2823.66 -1780.02,5837.55 -2629.59,8613.13l-812.58 1.87c-866.03,-2836.62 -1747.11,-5721.2 -2616.76,-8568.79l-596.45 -5.6 0 -962.07c954.6,0 1914.92,16.57 2890.07,16.57l0 951.1 -1302.02 0 622.48 2035.01 2816.08 0 635.31 -2081.22 -1144.94 0 0 -949.23 2710.93 0 0 949.23zm-3610.22 6690.62l0 0 1119.03 -3658.3 -2236.31 0 1117.28 3658.3z"/>
  <path class="fil1" d="M7074.8 17717.57c0,0 -925.19,3532.73 -3360.95,4836.5 0,0 2915.97,1854.12 3396.08,4631.57 0,0 925.31,-3429.34 3431.2,-4664.83 0,0 -2505.89,-1337.03 -3466.33,-4803.24z"/>
  <path class="fil1" d="M35030.31 43460.81c0,0 -1757.96,6710.93 -6384.05,9187.41 0,0 5536.46,3517.91 6448.82,8795.88 0,0 1759.83,-6515.22 6517.09,-8860.54 0,0 -4757.26,-2541.13 -6581.86,-9122.76z"/>
  <path class="fil1" d="M64182.69 78548.3c0,0 -927.06,3532.85 -3362.82,4838.48 0,0 2915.86,1852.26 3396.08,4629.71 0,0 926.95,-3429.45 3431.09,-4664.83 0,0 -2504.14,-1337.03 -3464.34,-4803.36z"/>
 </g>
</svg>
